<svg height="145" viewBox="0 0 145 145" width="145" xmlns="http://www.w3.org/2000/svg"><g fill="none" fill-rule="evenodd"><path d="m72.5 0c-58 0-72.5 14.5-72.5 72.5s14.5 72.5 72.5 72.5 72.5-14.5 72.5-72.5-14.5-72.5-72.5-72.5z" fill="#00b8d9"/><path d="m98.8400977 39.16c4.7750393 0 8.6599023 3.8847266 8.6599023 8.6596289v11.4784961h-14.532793c-7.2758984 0-13.1951367 5.9195117-13.1951367 13.1952734 0 7.2757618 5.919375 13.1951368 13.1951367 13.1951368l14.532793-.0001368v11.4774024c0 4.7749022-3.885 8.6596292-8.6599023 8.6596292h-52.6804688c-4.7749023 0-8.6596289-3.884727-8.6596289-8.6596292v-49.3461719c0-4.7750391 3.8847266-8.6596289 8.6596289-8.6596289zm8.6599023 24.6108789v17.4450391h-14.532793c-4.8096289 0-8.7225195-3.9130274-8.7225195-8.7225196 0-4.8096289 3.9130273-8.7225195 8.7225195-8.7225195zm-13.4899023 1.9388086c-3.7404883 0-6.7835743 3.0432227-6.7835743 6.7835742 0 3.7404883 3.0432227 6.7835742 6.7835743 6.7835742 3.7403515 0 6.7834373-3.0430859 6.7835743-6.7835742 0-3.740625-3.0432228-6.7835742-6.7835743-6.7835742zm0 4.4728906c1.274082 0 2.3108203 1.0366016 2.3108203 2.3108203 0 1.2742188-1.0366016 2.3108203-2.3108203 2.3108203-1.2742188 0-2.3108204-1.0366015-2.3108204-2.3108203 0-1.2742187 1.0367383-2.3108203 2.3108204-2.3108203z" fill="#fff" fill-rule="nonzero"/></g></svg>