<svg height="145" viewBox="0 0 145 145" width="145" xmlns="http://www.w3.org/2000/svg"><g fill="none" fill-rule="evenodd"><path d="m72.5 0c-58 0-72.5 14.5-72.5 72.5s14.5 72.5 72.5 72.5 72.5-14.5 72.5-72.5-14.5-72.5-72.5-72.5z" fill="#36b37e"/><path d="m72.4594786 75.55001 29.3931074 16.9856332c-2.9856445 4.3610633-6.9359343 8.0268278-11.5505483 10.6933228-5.4011596 3.121209-11.5321002 4.771034-17.7299167 4.771034-6.1351979 0-12.2017461-1.596204-17.543835-4.616385-4.7286755-2.673419-8.7827382-6.4164198-11.8459024-10.9150869zm2.6555228-38.55001c5.2927746.3978969 10.4672302 1.9928579 15.1041953 4.6723142 8.2191714 4.7497274 14.0983963 12.4187856 16.5548873 21.5943833 2.225353 8.3128664 1.399782 16.9611308-2.303581 24.6310768l-29.3501799-16.9607757zm-5.321689.0640967.0053216 33.8727243-29.3216198 16.9446184c-2.2805211-4.7687256-3.4770142-10.0255451-3.4770142-15.3590677 0-18.688369 14.4749943-34.0552491 32.7933124-35.458275z" fill="#fff" fill-rule="nonzero"/></g></svg>