<svg height="32" viewBox="0 0 32 32" width="32" xmlns="http://www.w3.org/2000/svg"><g fill="none" fill-rule="evenodd"><rect fill="#6236ff" height="32" opacity=".1" rx="16" width="32"/><path d="m15.2 8.83333333h-14.4c-.4416 0-.8-.3725-.8-.83333333s.3584-.83333333.8-.83333333h14.4c.4416 0 .8.3725.8.83333333s-.3584.83333333-.8.83333333zm0-5.83333333h-14.4c-.4416 0-.8-.3725-.8-.83333333 0-.46083334.3584-.83333334.8-.83333334h14.4c.4416 0 .8.3725.8.83333334 0 .46083333-.3584.83333333-.8.83333333zm0 11.6666667h-14.4c-.4416 0-.8-.3725-.8-.8333334 0-.4608333.3584-.8333333.8-.8333333h14.4c.4416 0 .8.3725.8.8333333 0 .4608334-.3584.8333334-.8.8333334z" fill="#732de2" transform="translate(8 8)"/></g></svg>