<svg height="24" viewBox="0 0 24 24" width="24" xmlns="http://www.w3.org/2000/svg"><path d="m12.1234641 5.46052632 8.3458179 7.33157898-.0001095 9.0574926c-.0042014.1321253-.0583953.6275951-.6349756.6275951h-5.9218357l.0106588-4.8798246.0006819-.0308812c-.0008786-.1478355-.0532965-.7761363-.8809188-.7761363h-2.5101406c-.79319024 0-.70792007.8070175-.70792007.8070175l-.00888231 4.8956141s-.00466936.000006-.01375.0000178l-.75062977.0009649c-.05819259.0000742-.1189899.0001517-.18213385.0002321l-.62468646.0007906c-.07490103.0000942-.15137445.0001903-.22916218.0002878l-.48043351.0005992c-.08201266.0001018-.16482347.0002042-.24817435.0003071l-.5045215.0006185c-.08447885.0001028-.1689816.0002053-.25325018.0003071l-.74512646.000887c-.08054084.0000943-.16007326.0001867-.23833918.0002771l-.45233301.0005135c-.07216764.0000803-.14255261.0001578-.21089686.0002321l-1.11630362.0009827c-.44343222 0-.4964761-.3793418-.50230185-.4960624l-.00055753-9.2118323zm.0737232-3.96052632 11.8028127 10.5587719s-.711473 1.3526316-2.6105107 0l-9.192302-8.14035085-9.80429315 8.19122805c-1.64056254 1.3692983-2.39289415 0-2.39289415 0zm8.969356 2.39912281v4.80438596l-2.3547002-1.97280702-.0097706-2.83157894z" fill="#6236ff" fill-rule="evenodd"/></svg>