<svg height="145" viewBox="0 0 145 145" width="145" xmlns="http://www.w3.org/2000/svg"><g fill="none" fill-rule="evenodd"><path d="m72.5 0c-58 0-72.5 14.5-72.5 72.5s14.5 72.5 72.5 72.5 72.5-14.5 72.5-72.5-14.5-72.5-72.5-72.5z" fill="#0065ff"/><path d="m76.5914492 106.107098c-.6149355 1.732482-2.2531289 2.890845-4.0914492 2.892902-1.8383203-.002057-3.4765137-1.16042-4.091291-2.892902zm3.1408067-8.6785492v4.3393532c-.0011075.798452-.648 1.445344-1.4464512 1.446452h-11.5714512c-.7984512-.001108-1.4453437-.648-1.4464512-1.446452v-4.3393532zm-31.6463204-8.6057754c.7304239-.7332714 1.7967129-1.0204101 2.7965567-.753205.9998437.267205 1.7808926 1.0484121 2.0480976 2.0482558.2672051.9998438-.0200918 2.0661328-.753205 2.7965567l-5.1140743 5.1132832c-1.1444414 1.0933418-2.9462168 1.0933418-4.0906582 0-.5426367-.5424786-.8474941-1.2781231-.8474941-2.0454082 0-.7672852.3048574-1.5030879.8474941-2.0454082zm46.0315723-.753205c.9998438-.2672051 2.0661328.0200918 2.7965567.753205l5.1134415 5.1137579c.542637.5424785.847494 1.278123.847494 2.0454082 0 .7672851-.304857 1.5030878-.847494 2.0454082-1.144442 1.0933418-2.9462169 1.0933418-4.0906583 0l-5.1140743-5.1132832c-.7332714-.7304239-1.0204101-1.7967129-.753205-2.7965567.267205-.9998437 1.0480957-1.7807344 2.0479394-2.0479394zm-21.6437695-38.3746993c.7465605 0 1.4923301.0425567 2.2339863.1271954 8.6136856 1.033541 15.4097754 7.8125449 16.4651484 16.423541h-.0001582c.7114395 5.8388027-1.3588066 11.6722265-5.591373 15.7559238-2.802252 2.7160312-4.3898203 6.4478848-4.4029512 10.3502812v2.183836h-17.3570976v-2.1726035c-.0469864-3.9777012-1.6922989-7.7691973-4.5652676-10.5205078-5.4026367-5.3629278-7.0386152-13.4543848-4.1438145-20.4948985 2.8948008-7.0405137 9.7491094-11.6410605 17.3615274-11.6527676zm-30.3487383 15.9122286c1.5976934 0 2.8929023 1.2952089 2.8929023 2.8929023s-1.2952089 2.8929023-2.8929023 2.8929023h-7.2320977c-1.5970605-.001582-2.8913203-1.2958418-2.8929023-2.8929023.001582-1.5970605 1.2958418-2.8913203 2.8929023-2.8929023zm67.982098 0c1.597693 0 2.892902 1.2952089 2.892902 2.8929023s-1.295209 2.8929023-2.892902 2.8929023h-7.232098c-1.597693 0-2.8929023-1.2952089-2.8929023-2.8929023s1.2952093-2.8929023 2.8929023-2.8929023zm-65.0891957-27.4820977c.767127 0 1.5029297.3048574 2.04525.8474941l5.1142325 5.1132832c.5426367.5424786.8474941 1.2784395.8474941 2.0457247 0 .7672851-.3048574 1.503246-.8474941 2.0457246-1.1447578 1.0933418-2.9466914 1.0933418-4.0914493 0l-5.1134414-5.1139161c-.5426367-.5424785-.8474941-1.278123-.8474941-2.0454082 0-.7672851.3048574-1.5030878.8474941-2.0454082.5424786-.5426367 1.2782813-.8474941 2.0454082-.8474941zm52.918629.8473359c.7307402-.7307402 1.7957636-1.0161386 2.7940257-.7486171.998261.2675214 1.777886 1.0471464 2.045408 2.0454082.267521.9982617-.017877 2.0632851-.748617 2.7940253l-5.1132835 5.1140743c-1.1445997 1.0933418-2.9466915 1.0933418-4.0916075-.0001582-.5426367-.5424786-.8474941-1.2784395-.8474941-2.0457246 0-.7672852.3048574-1.5032461.8474941-2.0457247zm-25.4365313-10.9723359c1.5976934 0 2.8929023 1.295209 2.8929023 2.8929023v7.2320977c0 1.5976934-1.2952089 2.8929023-2.8929023 2.8929023s-2.8929023-1.2952089-2.8929023-2.8929023v-7.2320977c0-1.5976933 1.2952089-2.8929023 2.8929023-2.8929023z" fill="#fff" fill-rule="nonzero"/></g></svg>