<svg height="145" viewBox="0 0 145 145" width="145" xmlns="http://www.w3.org/2000/svg"><g fill="none" fill-rule="evenodd"><path d="m72.5 0c-58 0-72.5 14.5-72.5 72.5s14.5 72.5 72.5 72.5 72.5-14.5 72.5-72.5-14.5-72.5-72.5-72.5z" fill="#ff5230"/><path d="m75.3076923 36v8.5704534l1.2112286.1741097c2.1935097.3084624 4.3424637.8780895 6.4002498 1.6972281l1.1234882.4517259 4.2759727-7.4078933 4.8627368 2.8076923-4.2800857 7.4154336.9541767.7505916c1.7410983 1.3736852 3.3142558 2.948214 4.6865703 4.6906831l.7505917.9528058 7.4140626-4.2773438 2.807692 4.8599947-7.4078931 4.2780292.4517259 1.1228028c.8177678 2.0591572 1.3873948 4.2081111 1.6972282 6.4016208l.172739 1.2043738h8.571824v5.6153846h-8.571824l-.172739 1.2098576c-.3098334 2.1941952-.8794604 4.343149-1.6972282 6.4016208l-.4517259 1.1234882 7.4065221 4.2773438-2.807692 4.8599946-7.4140627-4.2773437-.7505916.9528058c-1.3736852 1.7431547-2.9488994 3.3183687-4.6920541 4.6920541l-.9541767.7512771 4.2800857 7.4147474-4.8627366 2.807693-4.2766583-7.4078933-1.1228027.4517257c-2.0577863.8191388-4.2067402 1.3887659-6.4002499 1.6972276l-1.2043738.17411v8.563599h-5.6153846v-8.563599l-1.2112286-.180964c-2.1935097-.3084625-4.3424637-.8780896-6.4002498-1.6972282l-1.1234882-.4517259-4.2759727 7.4078931-4.8627368-2.807692 4.2800857-7.4154337-.9541767-.7505916c-1.7410983-1.3723143-3.3142558-2.9447866-4.6865703-4.6851993l-.7505917-.9528058-7.4140625 4.2773437-2.8076923-4.8599946 7.4078933-4.283513-.4517259-1.1228028c-.8177678-2.0591572-1.3873948-4.2081111-1.6972281-6.4016208l-.1727389-1.2043738h-8.5718242v-5.6153846h8.5718242l.17411-1.2098576c.3098332-2.1941952.8794601-4.343149 1.697228-6.4016208l.4524114-1.1234882-7.4085787-4.2773438 2.8076923-4.8599946 7.4140625 4.2773437.7505916-.9528058c1.3723143-1.7404127 2.9447866-3.312885 4.6851993-4.6851993l.9541767-.7505916-4.2800857-7.4154336 4.8627368-2.8076923 4.2835129 7.4078933 1.1228027-.4517259c2.0577863-.8191386 4.2067402-1.3887657 6.4002499-1.6972281l1.2043738-.1741097v-8.5704534zm-16.8461538 46.3269231c-2.3258057 0-4.2115385 1.8857328-4.2115385 4.2115384 0 2.3258057 1.8857328 4.2115385 4.2115385 4.2115385 2.3258056 0 4.2115384-1.8857328 4.2115384-4.2115385 0-2.3258056-1.8857328-4.2115384-4.2115384-4.2115384zm0 2.8076923c.7752686 0 1.4038461.6285775 1.4038461 1.4038461s-.6285775 1.4038462-1.4038461 1.4038462-1.4038462-.6285776-1.4038462-1.4038462.6285776-1.4038461 1.4038462-1.4038461zm33.6923077-18.25c-3.1010743 0-5.6153847 2.5143104-5.6153847 5.6153846s2.5143104 5.6153846 5.6153847 5.6153846c3.1010742 0 5.6153846-2.5143104 5.6153846-5.6153846s-2.5143104-5.6153846-5.6153846-5.6153846zm0 2.8076923c1.5505372 0 2.8076923 1.2571551 2.8076923 2.8076923s-1.2571551 2.8076923-2.8076923 2.8076923-2.8076924-1.2571551-2.8076924-2.8076923 1.2571552-2.8076923 2.8076924-2.8076923zm-30.8846154-16.8461539c-4.6516113 0-8.423077 3.7714657-8.423077 8.423077 0 4.6516112 3.7714657 8.4230769 8.423077 8.4230769 4.6502404-.0047984 8.4182785-3.7728365 8.4230769-8.4230769 0-4.6516113-3.7714657-8.423077-8.4230769-8.423077zm0 2.8076924c3.1010742 0 5.6153846 2.5143104 5.6153846 5.6153846s-2.5143104 5.6153846-5.6153846 5.6153846-5.6153846-2.5143104-5.6153846-5.6153846 2.5143104-5.6153846 5.6153846-5.6153846z" fill="#fff" fill-rule="nonzero"/></g></svg>