<svg height="145" viewBox="0 0 145 145" width="145" xmlns="http://www.w3.org/2000/svg"><g fill="none" fill-rule="evenodd"><path d="m72.5 0c-58 0-72.5 14.5-72.5 72.5s14.5 72.5 72.5 72.5 72.5-14.5 72.5-72.5-14.5-72.5-72.5-72.5z" fill="#ffab00"/><path d="m108.5 58.8564849v39.1363637c-.003332 3.2405184-2.567423 5.8806954-5.775183 6.0027464l-.224817.004405h-60c-3.2366606-.003892-5.8742369-2.570509-5.9956368-5.7820669l-.0043632-.2250845v-39.1363637zm-36 8.6435151c-.8333273 0-1.5166227.6382709-1.5899724 1.4512964l-.0065188.1451948v9.8070176h-9.8070176c-.8823466 0-1.5964912.7155701-1.5964912 1.5964912 0 .8333273.6369994 1.5166227 1.4510845 1.5899724l.1454067.0065188h9.8070176v9.8070176c0 .8823466.7141446 1.5964912 1.5964912 1.5964912.8333273 0 1.5166227-.6369994 1.5899724-1.4510845l.0065188-.1454067v-9.8070176h9.8070176c.8823466 0 1.5964912-.7141446 1.5964912-1.5964912 0-.831981-.6369994-1.5164731-1.4510845-1.5899599l-.1454067-.0065313h-9.8070176v-9.8070176c0-.880921-.7141446-1.5964912-1.5964912-1.5964912zm30-26.5c3.311932.0034131 5.996591 2.6912721 6 6.0071514v9.3008451h-72v-9.3008451c.0034091-3.3158793 2.6880682-6.0037383 6-6.0071514zm-34.4113636 3.7322841h-.0119318c-2.2142045.0108083-4.0051136 1.8089717-4.0085262 4.0258153-.0028375 2.2174126 1.7812535 4.0212646 3.995458 4.0388991h.0125c2.2193181-.0005688 4.0198863-1.7981633 4.0267045-4.0195578.0056819-2.2265143-1.7903408-4.0360549-4.0142045-4.0451566zm-12.3755682-.0375448h-.0136363c-2.1982956.0324251-3.9642046 1.8243309-3.9670523 4.0252467-.0039706 2.2014843 1.7568249 3.9990789 3.9551203 4.0383301h.0125001c2.2181818-.0022754 4.01875-1.7987322 4.0278495-4.0201267l-.0045102-.2000354c-.1002015-2.1327881-1.8543483-3.8345888-4.0102711-3.8434147zm-12.3943182-.0529039c-2.2267046 0-4.0318182 1.8061275-4.0335239 4.0354861-.0017033 2.2293584 1.8005694 4.0388991 4.027274 4.0423122h.0124999c2.2272727-.0034131 4.0301136-1.8129538 4.027843-4.0423122-.0011384-2.2293586-1.8068203-4.0354861-4.034093-4.0354861zm24.7613636 2.6389371c.8125001.0096706 1.4653409.6723913 1.4642061 1.4858598-.001706.8134685-.6568198 1.4744826-1.4681833 1.4818778-.8176136-.0102394-1.4704547-.6729602-1.4687534-1.4858598.0011398-.8134684.6562534-1.4750515 1.467617-1.4818778zm-12.3755681-.0392512c.8022727.0233232 1.440909.682062 1.4403413 1.4864286-.001705.803229-.6420459 1.4602612-1.4448868 1.4807401-.8073863-.0227544-1.4454545-.6814932-1.4443198-1.485291.0005698-.8043666.6414789-1.4613988 1.4443198-1.4818777zm-12.3744319-.0381136c.8056819.0187723 1.4482954.6786488 1.4471606 1.485291-.0017061.8072108-.6460242 1.464812-1.4522742 1.4818777-.8102273-.0193413-1.4528409-.6792177-1.4511398-1.4864286.0011398-.8066422.6460262-1.464812 1.4511398-1.4807401z" fill="#fff" fill-rule="nonzero"/></g></svg>