<svg height="54" viewBox="0 0 54 54" width="54" xmlns="http://www.w3.org/2000/svg"><path d="m27 0c14.9116882 0 27 12.0883118 27 27s-12.0883118 27-27 27-27-12.0883118-27-27 12.0883118-27 27-27zm.6114538 17.0860747c-.8691958.2907575-1.339393 1.2325826-1.0486355 2.1017783l.6865708 2.052201-3.9136046 1.308541-.6565239-1.9635627c-.2907576-.8691957-1.2325826-1.3378908-2.1017784-1.0471333-.8699649.2907575-1.3378908 1.2310802-1.0471332 2.100276l.656524 1.9635625-2.052201.6865708c-.8691957.2907575-1.3393932 1.2310804-1.0486356 2.1002761.2907575.8691958 1.2325825 1.339393 2.1017783 1.0486355l2.052201-.6865708 1.308541 3.9136046-1.9635628.6565243c-.8691956.2907568-1.3378908 1.2325819-1.0471332 2.1017777.2907575.8699649 1.2310802 1.3378915 2.100276 1.0471339l1.9635625-.6565243.6865708 2.0522012c.2907575.8691957 1.2310804 1.339393 2.1002761 1.0486354.8691958-.2907575 1.3386238-1.2325826 1.0486355-2.1017784l-.6865708-2.0522011 3.9136046-1.3100434.6565243 1.9650654c.2907568.8691958 1.2325819 1.3378908 2.1017777 1.0471332.8699649-.2907575 1.3386245-1.2310804 1.0486362-2.1002761l-.6580266-1.9650647 2.0522012-.6865708c.8691957-.2907583 1.3393929-1.2310804 1.0486354-2.1002761-.2907575-.8691958-1.2325826-1.3378908-2.1017784-1.0471332l-2.0522012.6865708-1.3085411-3.9136047 1.9635632-.6565239c.8691958-.2907575 1.3378907-1.2325826 1.0471332-2.1017783-.2907575-.8691958-1.2310804-1.3378908-2.1002761-1.0471333l-1.9635625.656524-.6865708-2.0522009c-.2180681-.6518969-.8018554-1.0797162-1.4467571-1.1297622-.2149667-.016682-.4362201.0084371-.653519.0811265zm.6910775 7.3028911 1.3085411 3.9136038-3.9136038 1.3085412-1.3085411-3.9136039z" fill="#732de2" fill-rule="evenodd"/></svg>