<svg height="100" viewBox="0 0 100 100" width="100" xmlns="http://www.w3.org/2000/svg"><g fill="none" fill-rule="evenodd"><path d="m5 5h90v90h-90z"/><g fill-rule="nonzero" transform="translate(5 11.3)"><path d="m87 6.89025v64.5h-84v-64.5c0-3.315 2.685-6 6-6h72c3.315 0 6 2.685 6 6z" fill="#732de2"/><path d="m90 66.89025v4.5c0 3.315-2.685 6-6 6h-78c-3.315 0-6-2.685-6-6v-4.5h3 31.5l1.5 3h18l1.5-3h31.5z" fill="#8f58f9"/><path d="m9 6.89025h72v54h-72z" fill="#f9f1e4"/><path d="m45 6.89025h36v54h-36z" fill="#e8dac5"/><path d="m49.5 21.89025h18v12h-18z" fill="#e58842"/><path d="m22.5 33.89025h18v12h-18z" fill="#e58842"/><path d="m49.5 33.89025h-24v3l-9-9 9-9v3h24z" fill="#f4b34a"/><path d="m40.5 45.89025h24v3l9-9-9-9v3h-24z" fill="#f4b34a"/><path d="m.831 74.39025c1.0395 1.7865 2.952 3 5.169 3h78c2.217 0 4.1295-1.2135 5.169-3z" fill="#732de2"/><path d="m48.183 19.30875c-1.755-1.7535-4.6095-1.7535-6.3645 0l-2.121-2.121c2.9235-2.9235 7.683-2.9235 10.6065 0z" fill="#e58842"/><path d="m53.1975 15.38925c-4.521-4.521-11.8755-4.521-16.3965 0l-2.121-2.121c5.6895-5.691 14.949-5.691 20.6385 0z" fill="#e58842"/><g fill="#6c253d" transform="translate(22.5 20.39025)"><path d="m30 0h3v3h-3z"/><path d="m36 0h3v3h-3z"/><path d="m42 0h3v3h-3z"/><path d="m0 24h3v3h-3z"/><path d="m6 24h3v3h-3z"/><path d="m12 24h3v3h-3z"/><path d="m31.2545599 13.953622c-.0151246.561065-.0932248 1.1237895-.2343004 1.6881735-.1410757.564384-.3502112 1.1046734-.6274066 1.6208681-.6548229 1.2823504-1.7717489 2.5213057-3.350778 3.7168658-1.0946542.8288163-2.8295133 1.7835772-4.717674 2.9115728-1.2587739.7519971-2.0908016 1.2882964-2.4960831 1.6088978l-2.893571-1.7210376c.7331714-.6970627 1.7827673-1.4403615 3.1487876-2.2298966 2.0490304-1.1843026 4.2792247-2.5153198 4.7453481-2.8286375.6371986-.4283107 1.2372567-.9142323 1.8001745-1.4577647h-6.0865957l1.8899949-3.3090416zm-5.0213421 8.2259095c.3674998.2278592.6991447.454427.9949346.6797032s.6352846.5076996 1.0184841.8472703l-2.8664765 1.6703425c-.3848341-.3033784-.742849-.5627713-1.0740445-.7781786-.3311956-.2154073-.6851531-.4274535-1.0618725-.6361386zm-.9188256-20.68250793 2.8524276 1.67841783c-.8832689.69874015-1.5237705 1.18130117-1.9215046 1.44768303-1.6461799 1.10252652-3.2619193 1.98650049-4.7443007 2.78661999-.5053974.27278971-2.024782 1.32342871-3.4074779 2.5471479-.9217972.81581278-1.4292994 1.98071718-1.5225064 3.49471318-.0308817 1.2441376.4766204 2.3904693 1.5225064 3.4389952s2.2998409 1.9616899 3.7618647 2.739492l-2.9681484 1.8068212c-1.7932801-1.2052446-3.1040556-2.4544641-3.9323263-3.7476586-.8282707-1.2931944-1.2223169-2.7057444-1.1821383-4.2376498 0-2.2630436.8672884-4.28573428 2.6018653-6.06807213 1.156705-1.18855448 2.980107-2.31579809 5.3503127-3.69450136.6999695-.40715886 1.8964448-1.13782834 3.5894259-2.19200844zm.8312255 3.94927836c1.4410993.86132146 2.615406 1.92054882 3.5229202 3.17768208.9075141 1.25713327 1.4020563 2.48286489 1.4836265 3.67719489h-2.8301265c-.3155039-.9735979-.8802431-1.8522814-1.6942178-2.63605061-.8139746-.78376916-1.9773374-1.60451032-3.4900884-2.46222345zm-6.2818691-3.83861639c.2856718.22212946.5941054.44089784.925301.65630513s.6851531.42745349 1.0618725.63613861l-2.9889749 1.78299886c-.3674998-.22785928-.6991446-.45442702-.9949346-.67970321-.2957899-.22527619-.5786608-.46672907-.8486128-.72435863z"/></g></g></g></svg>