<svg height="54" viewBox="0 0 54 54" width="54" xmlns="http://www.w3.org/2000/svg"><path d="m27 54c14.9116882 0 27-12.0883118 27-27s-12.0883118-27-27-27-27 12.0883118-27 27 12.0883118 27 27 27zm-.9885135-37.4985912c.2683347-.2074243.446127-.1777923.3572309.1498065 0 .3572308-.1185282.6831834-.1481603 1.0404142-.0592641.5350232-.0888961 1.0996784-.0592641 1.6347015.0296321.7128154.1481603 1.4272771.416495 2.1104605.1777923.5053911.475759.9811501.7128154 1.4865412.7128154 1.4272771 1.397645 2.8545542 2.0511964 4.3114634.3572308.7737257.7128154 1.5458053 1.0404142 2.3475169.2963205.6831834.6535514 1.3959988.7128155 2.1400925.1185282 1.8124938-1.2791169 3.3599453-2.4973234 4.5188877-.446127.446127-.9515181.892254-1.4569092 1.2791169-.1201744.0888961-.2387026.1777923-.2683347-.0296321-.029632-.2683346.1481603-.6239192.2074244-.8922539.2666884-.921886.5942872-1.9623003.5350231-2.9434504-.0592641-.8033578-.3852166-1.6067156-.6831834-2.3195311-.8329898-2.0215643-1.9623002-3.8949684-2.8249221-5.8869007-.446127-1.0404142-.8609757-2.1104605-1.1589425-3.1805068-.2370564-.8906077-.1777923-1.7828617.2683347-2.6454836.6255655-1.2182065 1.7548759-2.2586208 2.7952901-3.1212427zm7.0162111 2.260267c.2090706-.1498065.3572309-.0888962.3259526.0888962-.029632.3275987-.1185282.6239192-.1481603.951518-.0592641.446127-.0592641.8626219-.029632 1.3087489.029632.5646552.1498065 1.0996784.3572308 1.6050694.2074244.4757591.446127.9515181.6831834 1.3976451.5959335 1.2494848 1.1902207 2.4973234 1.7548759 3.7468082.2683347.6255655.5366694 1.2198527.7737258 1.843772.2370564.6535514.3555846 1.2791169.1481602 1.9623003-.4164949 1.368013-1.5458053 2.3787951-2.5862195 3.2710491-.1777923.1481603-.6831834.6831834-.5646552.1481603.1481603-.8033579.4164949-1.5754374.5350231-2.3787952.1481603-1.1309566-.475759-2.3195311-.921886-3.3303133-.5646552-1.2791168-1.2198527-2.4973233-1.81414-3.7468081-.5959334-1.2182066-1.2198527-2.6158516-.7737257-3.9838646.3868629-1.1589425 1.3383809-2.1104605 2.2602669-2.8841863zm-13.6159272 0c.2074243-.1498065.3555846-.0888962.3243063.0872499-.029632.3275988-.1185282.6239193-.1481603.9515181-.0592641.446127-.0592641.8626219-.029632 1.3087489.029632.5646552.1498065 1.0996783.3572308 1.6050694.2074244.475759.446127.9515181.6831834 1.3976451.5959335 1.2494848 1.1902207 2.4973234 1.7548759 3.7468082.2683347.6255655.5366694 1.2198527.7737258 1.843772.2370564.6535513.3555846 1.2791168.1481602 1.9623002-.4164949 1.368013-1.5458053 2.3787952-2.5862195 3.2710492-.1777923.1481602-.6831834.6831834-.5646552.1481602.1481603-.8033578.4164949-1.5754373.5350231-2.3787951.1481603-1.1309566-.475759-2.3195311-.921886-3.3303133-.5646552-1.2774706-1.2182065-2.4973234-1.8124937-3.7451619-.5959335-1.2182066-1.2198528-2.6158516-.7737258-3.9838646.3868629-1.1605887 1.3383809-2.1121068 2.260267-2.8841863z" fill="#732de2" fill-rule="evenodd"/></svg>