<svg height="54" viewBox="0 0 54 54" width="54" xmlns="http://www.w3.org/2000/svg"><path d="m27 0c14.9116882 0 27 12.0883118 27 27s-12.0883118 27-27 27-27-12.0883118-27-27 12.0883118-27 27-27zm0 15c-6.627 0-12 5.4571308-12 12.1878967 0 5.7110453 3.872 10.4897165 9.092 11.8121033-.056-.1645366-.092-.3554803-.092-.5921287v-2.0831146h-1.508c-.821 0-1.551-.3585273-1.905-1.024799-.393-.7404147-.461-1.8728735-1.435-2.5655523-.289-.2305544-.069-.4936098.264-.4580618.615.1767245 1.125.6053322 1.605 1.2411342.478.6368176.703.781041 1.596.781041.433 0 1.081-.0253914 1.691-.1228946.328-.8460432.895-1.6250529 1.588-1.9927211-3.996-.4174355-5.903-2.4365637-5.903-5.1778248 0-1.1801947.495-2.3217943 1.336-3.2836225-.276-.9547186-.623-2.9017351.106-3.6431655 1.798 0 2.885 1.1842573 3.146 1.5041896.896-.311807 1.88-.4885315 2.914-.4885315 1.036 0 2.024.1767245 2.922.4905628.258-.317901 1.346-1.5062209 3.148-1.5062209.732.7424461.381 2.6975878.102 3.6502751.836.9597969 1.328 2.0983495 1.328 3.2765129 0 2.7392298-1.904 4.7573424-5.894 5.1768091 1.098.5819721 1.899 2.2171816 1.899 3.4491748v2.7768091c0 .1056285-.023.1818028-.035.2721964 4.676-1.6646636 8.035-6.1741853 8.035-11.492171 0-6.7307659-5.373-12.1878967-12-12.1878967z" fill="#732de2" fill-rule="evenodd"/></svg>