<svg height="100" viewBox="0 0 100 100" width="100" xmlns="http://www.w3.org/2000/svg"><g fill="none" fill-rule="evenodd"><path d="m10 10h80v80h-80z"/><g fill-rule="nonzero" transform="translate(18.8 10)"><circle cx="31.2" cy="30.666667" fill="#e8dac5" r="29.333333"/><g fill="#f4b34a" transform="translate(12.533333 7.166667)"><path d="m35.2666667 7.06c1.2133333.25333333 2.0666666 1.32 2.0666666 2.54666667 0 1.66666663-1.5333333 2.89333333-3.16 2.54666663l-1.5066666-.32-12.44-2.66666663-18.16000003-3.89333334c-1.21333334-.25333333-2.06666667-1.32-2.06666667-2.54666666 0-1.66666667 1.53333333-2.89333334 3.16-2.54666667z"/><path d="m35.2666667 19.06c1.2133333.2533333 2.0666666 1.32 2.0666666 2.5466667 0 1.6666666-1.5333333 2.8933333-3.16 2.5466666l-1.5066666-.32-12.44-2.6666666-18.16000003-3.8933334c-1.21333334-.2533333-2.06666667-1.32-2.06666667-2.5466666 0-1.6666667 1.53333333-2.8933334 3.16-2.5466667l1.50666667.32 12.44000003 2.6666667z"/><path d="m35.2666667 31.06c1.2133333.2533333 2.0666666 1.32 2.0666666 2.5466667 0 1.6666666-1.5333333 2.8933333-3.16 2.5466666l-4.52-.9733333-6.5866666-1.4133333-11.1866667-2.3866667-9.81333333-2.1066667c-.14666667-.0266666-.29333334-.08-.42666667-.1333333h-.01333333c-.97333334-.3866667-1.62666667-1.3466667-1.62666667-2.4133333 0-1.6666667 1.53333333-2.8933334 3.16-2.5466667l1.50666667.32 12.44000003 2.6666667z"/></g><path d="m45.2 19-15.56 3.3333333-12.44-2.6666666 15.56-3.3333334z" fill="#e58842"/><path d="m26.4 17.696 12.4413333 2.6666667 6.3586667-1.3626667-12.44-2.6666667z" fill="#d6713a"/><path d="m45.2 31-15.56 3.3333333-12.44-2.6666666 15.56-3.3333334z" fill="#e58842"/><path d="m26.4 29.696 12.4413333 2.6666667 6.3586667-1.3626667-12.44-2.6666667z" fill="#d6713a"/><path d="m42.1866667 42.3466667-2.9866667 2.9866666v9.3333334h-5.3333333v-12l1.7333333-1.7333334z" fill="#e58842"/><path d="m21.8666667 58.6666667v14.6666666c0 1.4666667 1.2 2.6666667 2.6666666 2.6666667h1.3333334l4 4h2.6666666l4-4h1.3333334c1.4666666 0 2.6666666-1.2 2.6666666-2.6666667v-14.6666666z" fill="#732de2"/><path d="m28.5333333 42.6666667v12h-5.3333333v-9.3333334l-9.0266667-9.0266666c.1333334.0533333.28.1066666.4266667.1333333l9.8133333 2.1066667z" fill="#e58842"/><path d="m33.8666667 42.6666667v.624l1.1733333.2506666 4.9 1.052 2.2466667-2.2466666-6.5866667-1.4133334z" fill="#d6713a"/><path d="m24.4133333 38.5466667-9.8133333-2.1066667c-.1466667-.0266667-.2933333-.08-.4266667-.1333333l3.5266667 3.5266666 6.1573333 1.3213334 4.0226667.8586666z" fill="#d6713a"/><path d="m45.8666667 53.3333333v4c0 1.4666667-1.2 2.6666667-2.6666667 2.6666667h-24c-1.4666667 0-2.6666667-1.2-2.6666667-2.6666667v-4z" fill="#8f58f9"/><g fill="#4c1ea5"><path d="m21.8666667 60h18.6666666v2.6666667h-18.6666666z"/><path d="m29.8926368 55.2630823h2.6680597v21.3925021h-2.6680597z" transform="matrix(.07096294 -.99747895 .99747895 .07096294 -36.782315 92.426608)"/><path d="m29.8953035 60.5950823h2.6680597v21.3925021h-2.6680597z" transform="matrix(.07096294 -.99747895 .99747895 .07096294 -42.098396 97.382893)"/></g><path d="m10.2226667 53.036c-.64800003-.608-1.27733337-1.2506667-1.8706667-1.9133333l1.9853333-1.78c.5426667.6053333 1.1173334 1.1933333 1.7093334 1.7493333zm-4.34800003-5.0706667c-.5-.7306666-.976-1.496-1.41333334-2.272l2.32266667-1.3093333c.4.7093333.83333333 1.408 1.29066667 2.0746667zm-3.148-5.8893333c-.332-.8293333-.63066667-1.6786667-.88666667-2.5266667l2.55333333-.7693333c.232.7733333.504 1.548.808 2.3026667zm-1.792-6.4333333c-.14266667-.872-.24933334-1.7666667-.316-2.6586667l2.65866666-.1986667c.06133334.8133334.15866667 1.6306667.288 2.4266667zm2.30666666-6.524-2.66266666-.1453334c.04933333-.8893333.13733333-1.7866666.26266666-2.6653333l2.63866667.376c-.11333333.804-.19466667 1.6213333-.23866667 2.4346667zm.99333334-6.0186667-2.568-.7186667c.24-.86.52133333-1.716.83466666-2.5453333l2.49333334.944c-.28533334.7546667-.54133334 1.536-.76 2.32zm2.27733333-5.656-2.34933333-1.2613333c.42-.7813334.88-1.556 1.36666666-2.3l2.232 1.4613333c-.44533333.68-.86666666 1.3866667-1.24933333 2.1z" fill="#e58842"/><path d="m53.6093333 51.6013333-1.948-1.8213333c.592-.6333333 1.1626667-1.3026667 1.6946667-1.9893333l2.1093333 1.632c-.5826666.752-1.208 1.4853333-1.856 2.1786666zm4.2373334-5.7466666-2.3146667-1.3226667c.4306667-.7546667.8306667-1.5373333 1.188-2.3266667l2.4293333 1.0986667c-.392.8653333-.8293333 1.724-1.3026666 2.5506667zm2.7946666-6.576-2.56-.748c.2426667-.8306667.4493334-1.684.6133334-2.54l2.6186666.504c-.18.9386666-.4066666 1.8746666-.672 2.784zm1.1853334-7.044-2.6626667-.136c.024-.4746667.036-.952.036-1.432 0-.396-.008-.7906667-.024-1.1826667l2.664-.1093333c.0173333.4293333.0266667.8586666.0266667 1.292 0 .5266666-.0133334 1.0493333-.04 1.568zm-3.084-6.6426667c-.1573334-.8546667-.356-1.7106667-.5906667-2.5453333l2.5666667-.724c.2573333.9146666.4746666 1.852.6466666 2.7866666zm-1.9186667-6.2293333c-.3493333-.792-.7413333-1.5786667-1.1666667-2.3373334l2.328-1.3013333c.4653334.832.8946667 1.6933333 1.2773334 2.5613333zm-3.3106667-5.6133334c-.5226666-.6906666-1.0866666-1.364-1.6746666-2.0053333l1.9653333-1.804c.644.7013333 1.2613333 1.4413333 1.8346667 2.196zm-4.5173333-4.69999997c-.668-.552-1.372-1.07866666-2.0906667-1.56666666l1.496-2.20666667c.788.53466667 1.5586667 1.112 2.292 1.716zm-5.4786667-3.536c-.7813333-.38266666-1.588-.73333333-2.3973333-1.04l.9453333-2.49333333c.8866667.336 1.7706667.72 2.6253334 1.13866667zm-21.6066666-1.26933333-.8826667-2.516c.896-.31466667 1.8186667-.59066667 2.7413333-.82133333l.644 2.58666666c-.8413333.21066667-1.684.46266667-2.5026666.75066667zm15.456-.89733333c-.848-.19066667-1.7133334-.34266667-2.572-.452l.3386666-2.644c.9413334.12 1.8893334.28666666 2.8186667.496zm-9.0946667-.52933334-.2746667-2.652c.944-.09733333 1.904-.152 2.856-.164l.0293334 2.66666667c-.8706667.01066667-1.7493334.06-2.6106667.14933333z" fill="#e58842"/></g></g></svg>