<svg height="54" viewBox="0 0 54 54" width="54" xmlns="http://www.w3.org/2000/svg"><path d="m27 0c14.9116882 0 27 12.0883118 27 27s-12.0883118 27-27 27-27-12.0883118-27-27 12.0883118-27 27-27zm8.1818182 17h-16.3636364c-1.0045454 0-1.8181818.8136364-1.8181818 1.8181818v16.3636364c0 1.0045454.8136364 1.8181818 1.8181818 1.8181818h9.0909091v-8.1818182h-2.7272727v-2.7272727h2.7272727v-1.4645455c0-2.7727272 1.3509091-3.99 3.6554546-3.99 1.1036363 0 1.6872727.0818182 1.9636363.1190909v2.6081819h-1.5718182c-.9781818 0-1.32.5163636-1.32 1.5618181v1.1654546h2.8672728l-.3890909 2.7272727h-2.4781819v8.1818182h4.5454546c1.0045454 0 1.8181818-.8136364 1.8181818-1.8181818v-16.3636364c0-1.0045454-.8145455-1.8181818-1.8181818-1.8181818z" fill="#732de2" fill-rule="evenodd"/></svg>