<svg height="54" viewBox="0 0 54 54" width="54" xmlns="http://www.w3.org/2000/svg"><path d="m27 0c14.9116882 0 27 12.0883118 27 27s-12.0883118 27-27 27-27-12.0883118-27-27 12.0883118-27 27-27zm7.0068015 19c-.6264661 0-1.1694432.3394695-1.4545372.8325-.7970944-.0423372-1.3827249-.195887-1.900282-.37-.6031234-.2028987-1.1572793-.4625-1.8755185-.4625-1.3994278 0-2.4437782 1.0964075-2.4437782 2.34375v2.15875c-1.8353082.0933993-3.5137526.5626926-4.8536698 1.2987499-.5163544-.4755507-1.2077559-.6867232-1.8781251-.6862499-.7268309.0005132-1.4698647.2420643-1.9823931.795l-.0117301.0124998-.0117301.0125005c-.4916578.5893056-.686337 1.3787578-.5552265 2.1624999.1197371.7157548.5519711 1.434288 1.3033485 1.9049996-.0049214.0794573-.0182469.1572557-.0182469.2375002 0 3.17568 3.8917777 5.76 8.6750875 5.76s8.6750876-2.58432 8.6750876-5.76c0-.0802445-.0133256-.1580429-.0182471-.2375002.7513774-.4707116 1.1836116-1.1892448 1.3033485-1.9049996.1311106-.7837421-.0635684-1.5731943-.5552263-2.1624999l-.01173-.0125005-.0117301-.0124998c-.5125949-.5530118-1.2555027-.7944868-1.9823929-.795-.6704248-.0004733-1.3619241.2105251-1.8781251.6862499-1.3399174-.7360573-3.0183619-1.2053506-4.8536701-1.2987499v-2.15875c0-.6265775.3771754-1.06375 1.1091493-1.06375.3474626 0 .7707448.1669787 1.4336836.39.56042.1885326 1.2897593.379087 2.2222091.43625.2230499.6323659.842277 1.09375 1.574445 1.09375.9175573 0 1.6682861-.72 1.6682861-1.6s-.7507288-1.6-1.6682861-1.6zm-3.511221 11.2212499c-.4264139 1.19488-1.7899248 2.2187501-3.4955805 2.2187501-1.7056556 0-3.0691665-1.0233798-3.4955806-2.1324998.7674118.59712 2.0461737 1.0237497 3.4955806 1.0237497 1.449407 0 2.7281689-.42712 3.4955805-1.11zm-6.8321526-3.5412499c.7373825 0 1.3346289.5728 1.3346289 1.28s-.5972464 1.28-1.3346289 1.28c-.7373824 0-1.3346288-.5728-1.3346288-1.28s.5972464-1.28 1.3346288-1.28zm6.6731443 0c.7373824 0 1.3346288.5728 1.3346288 1.28s-.5972464 1.28-1.3346288 1.28c-.7373825 0-1.3346289-.5728-1.3346289-1.28s.5972464-1.28 1.3346289-1.28zm-10.7356815-1.2850001c.2636826-.0001865.5142057.0661809.7207517.1737502-.7367093.5897587-1.2956685 1.2788153-1.6330957 2.0312499-.1791646-.2121043-.2871286-.4502387-.3297472-.7050001-.0719142-.4298844.0622204-.8767311.2750066-1.1412501.2010796-.207577.5682654-.3584692.9670846-.3587499zm14.7969157 0c.3989326.0002814.7673689.1512337.9683873.3587499.2127866.264519.3469208.7113657.275007 1.1412501-.0426187.2547614-.1505829.4928958-.3297474.7050001-.3374269-.7524346-.8963862-1.4414912-1.6330959-2.0312499.206076-.1074432.4558711-.1739367.719449-.1737502z" fill="#732de2" fill-rule="evenodd"/></svg>