<svg height="54" viewBox="0 0 54 54" width="54" xmlns="http://www.w3.org/2000/svg"><path d="m27 0c14.9116882 0 27 12.0883118 27 27s-12.0883118 27-27 27-27-12.0883118-27-27 12.0883118-27 27-27zm6.5790909 17h-13.1571818c-1.1110909.0033333-2.0119091.9216667-2.0119091 2.055v13.53c0 1.1333333.9008182 2.0516667 2.0127273 2.055h11.1346363l-.5203636-1.85c2.8726364 2.7208333 2.0822727 1.9833333 4.5556364 4.21l-.0008182-17.94c0-1.1383333-.9008182-2.0566667-2.0127273-2.06zm-4.9459091 4.6608333c1.0390909.0533334 1.9914546.44 2.7474546 1.0491667l-.0343637-.075c.8950909 1.7716667 1.4138182 3.7725 1.449 5.905l-.0073636.0108333c-.6520909.9158334-1.7108182 1.5108334-2.9061818 1.5108334-.0319091 0-.0638182 0-.0908182-.0008334 0 0-.0024546-.0029861-.007125-.0086805l-.0527046-.0644445c-.1132159-.13875-.3672613-.451875-.5881704-.736875l.0212727-.0041666c.7093637-.1758334 1.3238182-.6 1.7541818-1.1858334l-.1901258.1237267c-.285696.1769067-.5925469.3307733-.9381469.46544l.0474546-.0175c-.846.3583333-1.7746364.5566667-2.749091.5566667-1.2567272 0-2.4373636-.3291667-3.4265454-.8891667-.018-.0133333-.2569091-.1466667-.4009091-.25l.0057273.0083333c.4099091.5658334 1.0039091.9858334 1.7124545 1.1716667-.0245454.0316667-.0495682.0638194-.0748182.0961574l-.1522272.1938426c-.2264319.286875-.4307728.54-.4307728.54-.0286363.0008333-.0621818.0016667-.0957272.0016667-1.1904546 0-2.2450909-.5958334-2.8988182-1.5216667v-.0116667c.0343636-2.1208333.5530909-4.1216666 1.4138182-5.8183333l-.0098182.0075c.7658182-.6166667 1.7181818-1.0033333 2.7687273-1.0575l.0981818.12-.0458182.01c-.9474546.245-1.8130909.6983333-2.5363636 1.3 0 0 .0666666-.0375514.1882154-.10008l.1714479-.0862186c.0654276-.0321993.1388821-.0675903.2196094-.1053681l-.0523637.0216667c1.0456364-.4808333 2.2058182-.7483333 3.4273637-.7483333 1.4506363 0 2.8145454.3775 3.9591818 1.0183333l.0114545.0091667c-.6970909-.5816667-1.5152727-1.0191667-2.4561818-1.2791667l.1374546-.16zm-3.4044545 3.7291667h-.0016364c-.567.0525-1.0047273.53-1.0047273 1.1116667 0 .5816666.4377273 1.0591666.9965455 1.11.5629091-.0241667 1.0063636-.4916667 1.0063636-1.0641667 0-.0158333 0-.0308333-.0008182-.0466667.0008182-.0141666.0016364-.0333333.0016364-.0533333 0-.5708333-.4426364-1.0358333-.9973636-1.0575zm3.5770909.0008333c-.5547273 0-1.0047273.4583334-1.0047273 1.0241667s.4508182 1.0241667 1.0055455 1.0241667c.5252727 0 .9572727-.4116667 1.0006363-.9375.0008182-.0158334.0008182-.0308334.0008182-.0466667 0-.5725-.4434545-1.04-1.0022727-1.0641667z" fill="#732de2" fill-rule="evenodd"/></svg>