<svg height="54" viewBox="0 0 54 54" width="54" xmlns="http://www.w3.org/2000/svg"><path d="m27 0c14.9116882 0 27 12.0883118 27 27s-12.0883118 27-27 27-27-12.0883118-27-27 12.0883118-27 27-27zm3.8266698 19.48c-2.2533598 0-4.0809727 1.8109872-4.0836673 4.0463202l.0074417.2441136c.0137361.2407933.045945.4720951.0929321.6800913l-.0255987-.0006683c-1.7009667-.0808595-3.3042541-.5326039-4.6663747-1.2456384l-.0639968-.0300717c-1.4065816-.7257315-2.6440769-1.7294594-3.6545522-2.9583914l-.1040443.1862991c-.2888434.5562131-.4517171 1.1870515-.4517171 1.8559065 0 .7076883.1825592 1.372608.4924383 1.9306059l.0107784.0207161c.313921.5680218.7618984 1.0531793 1.3156388 1.4227276-.681734-.0240574-1.3136178-.2111705-1.8444542-.5132244v.0474465c-.0006736.0187113-.0006736.0374226-.0006736.0561339 0 .9636324.3509717 1.8457368.9289636 2.5213487l.0053892.0073509c.5759709.6990009 1.386372 1.2001967 2.3375661 1.3899828l-.2370196.0556223c-.2699864.0538472-.5496354.0820394-.8361052.0820394-.2735019-.0020047-.5402674-.0247256-.7706558-.0628165l.0080838.0287352c.53151 1.5904611 2.0283607 2.7445478 3.8061235 2.7779609l-.0011658-.0005902-.2285726.1763087c-1.2448837.9155488-2.7673036 1.4800362-4.4191746 1.5470207l-.3320564.0067202c-.0296406 0-.0599548-.0006683-.0848799-.0006683h-.0444609c-.3314359 0-.6581562-.018043-.9404156-.0501196l-.01544-.0092617.2916553.1838819c1.6112031.977704 3.4883424 1.566887 5.4981413 1.6367157l.4036891.0070023h.1711071c1.4315067 0 2.8044057-.2499297 3.9933983-.6829628l.0727542-.0220526c1.1802351-.41499 2.2621173-1.0364727 3.1863653-1.8069776l.0161676-.0133653c.8777662-.747784 1.6477483-1.615855 2.3139884-2.6242608l-.026946.043437c.6291892-.9382384 1.126343-1.9720382 1.4860722-3.1568649l-.0215568.0815279c.3240258-1.0538476.4991748-2.1725164.5018694-3.3326175 0-.2338913-.0040419-.4091985-.0121257-.5259214l.0242514-.0167065c.7787396-.5653488 1.4571053-1.2576672 2.0236451-2.0756186l-.0014762-.0012168-.267485.1117838c-.5386255.2112718-1.1084295.3677481-1.7157948.4630971l-.3689777.0498234.0188622-.0100239c.831958-.4858257 1.4685574-1.2643498 1.7750682-2.2206312l-.0006729.0009508-.2602718.1483637c-.6016117.3265291-1.2536208.5793823-1.9651217.7495383l-.3607502.0781447c-.7470781-.7872114-1.8040352-1.2770467-2.9761865-1.2770467z" fill="#732de2" fill-rule="evenodd"/></svg>