<svg height="100" viewBox="0 0 100 100" width="100" xmlns="http://www.w3.org/2000/svg"><g fill="none" transform="translate(5 5)"><path d="m43.9059561 89.4421095c-20.0302416-11.3257606-34.8235294-30.5072616-40.58712888-52.6315618l-3.27051448-12.5233266 1.47814863-.3344422c6.10141988-1.3830426 12.11432783-3.4948479 17.87202653-6.2726166 5.6824636-2.7470994 11.0551356-6.1455578 15.9719713-10.10190672l9.2671952-7.45119676 9.2657201 7.45119676c9.830721 7.90393512 21.5349438 13.56608522 33.845473 16.37452332l1.4766734.3359026-3.2719896 12.5218662c-5.7621243 22.1228397-20.5554122 41.3058012-40.5856537 52.6315618l-.7302232.4133063z" fill="#4c1ea5"/><path d="m44.6376544 86.4876268c-18.969574-10.9869371-32.9662548-29.3126167-38.46136821-50.4058418l-2.51521298-9.631643c5.81228102-1.4297769 11.53457499-3.4933874 17.03116359-6.1455578 5.8845657-2.8449493 11.4504886-6.3631643 16.5413977-10.46117649l7.4040199-5.95423935 7.4069703 5.95569979c9.7849899 7.86742395 21.3623456 13.58945235 33.5710862 16.60235295l-2.5166882 9.631643c-5.4951134 21.0946856-19.490319 39.4218256-38.4613683 50.4087627z" fill="#732de2"/><path d="m44.6376544 77.9513185-5.9007929-5.841785v-32.0567952c-4.3665867-2.1468559-7.3759911-6.601217-7.3759911-11.7565923 0-7.2584178 5.9450488-13.1440162 13.276784-13.1440162s13.2767841 5.8855984 13.2767841 13.1440162c0 5.7249493-3.7027476 10.5736309-8.8511894 12.3845842v6.6012171l4.4255947 4.3813387-4.4255947 4.3813387 4.4255947 4.3813388-4.4255947 4.3813387 4.4255947 4.3813388zm2.9503965-54.0365112c0-1.6064909-1.3276784-2.9208925-2.9503965-2.9208925-1.622718 0-2.9503964 1.3144016-2.9503964 2.9208925s1.3276784 2.9208925 2.9503964 2.9208925c1.6227181 0 2.9503965-1.3144016 2.9503965-2.9208925z" fill="#f4b34a"/><path d="m66.4882906 60.9619473-2.3942467-1.7058013c3.184953-4.3813387 5.8948921-9.0971196 8.0516319-14.017363l2.7055136 1.1639756c-2.2408261 5.1101014-5.0540292 10.0084382-8.3628988 14.5591887z" fill="#f9f1e4"/><path d="m76.0829799 43.4263692-2.7512447-1.0529818c.5458233-1.4005679 1.0577171-2.8449493 1.5209294-4.2951724l2.8117278.8821095c-.4809146 1.5071806-1.0134612 3.0085193-1.5814125 4.4660447z" fill="#f9f1e4"/><g fill="#e58842" transform="translate(43.162456 50.20284)"><path d="m9.09090909 17.525355h-9.09090909v8.7626775l4.54545455 1.4604462 4.54545454-1.4604462z"/><path d="m0 11.68357h9.09090909v2.9208925h-9.09090909z"/><path d="m0 5.84178499h9.09090909v2.92089249h-9.09090909z"/><path d="m0 0h9.09090909v2.92089249h-9.09090909z"/></g></g></svg>