<svg height="60" viewBox="0 0 60 60" width="60" xmlns="http://www.w3.org/2000/svg" xmlns:xlink="http://www.w3.org/1999/xlink"><linearGradient id="a" x1="-21.607312%" x2="100%" y1="-16.661753%" y2="100%"><stop offset="0" stop-color="#004b91"/><stop offset="1" stop-color="#78cc37"/></linearGradient><g fill="none" fill-rule="evenodd"><circle cx="30" cy="30" fill="url(#a)" r="30"/><path d="m46 34.9978125v2.468875c0 2.9455-7.1634375 5.3333125-16 5.3333125s-16-2.3878125-16-5.33325v-2.4689375c.942875.6141875 2.1459375 1.1930625 3.674375 1.7025 3.339625 1.11325 7.717 1.726375 12.325625 1.726375s8.986-.613125 12.325625-1.7263125c1.5284375-.5094375 2.7315625-1.0884375 3.674375-1.7025625zm0-7.3600625v2.2555625c0 1.4245625-1.6643125 2.7639375-4.6863125 3.77125-3.0219375 1.007375-7.039875 1.562125-11.3136875 1.562125s-8.29175-.5548125-11.3136875-1.5621875c-3.022125-1.00725-4.6863125-2.346625-4.6863125-3.7711875v-2.2555625c.9429375.6141875 2.146 1.1931875 3.674375 1.702625 3.3396875 1.1131875 7.717 1.7263125 12.325625 1.7263125s8.985875-.613125 12.325625-1.7263125c1.528375-.5095625 2.7314375-1.0884375 3.674375-1.702625zm-16-10.43775.406633.0016888c8.6486412.0719141 15.593367 2.431432 15.593367 5.3316237 0 2.9455072-7.163444 5.3333125-16 5.3333125s-16-2.3878053-16-5.3333125 7.163444-5.3333125 16-5.3333125z" fill="#fff" fill-rule="nonzero"/></g></svg>