<svg height="60" viewBox="0 0 60 60" width="60" xmlns="http://www.w3.org/2000/svg" xmlns:xlink="http://www.w3.org/1999/xlink"><linearGradient id="a" x1="0%" x2="100%" y1="0%" y2="100%"><stop offset="0" stop-color="#ffdea7"/><stop offset="1" stop-color="#ea6362"/></linearGradient><g fill="none" fill-rule="evenodd"><circle cx="30" cy="30" fill="url(#a)" r="30"/><path d="m32.8087076 43.1255737c.5173309 0 .9363621.4194121.9363621.9372132 0 .5175723-.4190312.9372131-.9363621.9372131h-5.6181725c-.5171023 0-.9363621-.4196408-.9363621-.9372131 0-.5178011.4192598-.9372132.9363621-.9372132zm1.8727242-3.7488525c.5173309 0 .9363621.419412.9363621.9372131 0 .5175724-.4190312.9372132-.9363621.9372132h-9.3636209c-.5171023 0-.9363621-.4196408-.9363621-.9372132 0-.5178011.4192598-.9372131.9363621-.9372131zm2.6243742-21.334641c4.0044568 4.0332656 3.9905119 10.5502833-.0315473 14.5659303-1.0593511 1.0436107-1.6560076 2.4691082-1.6564648 3.9570713v.9372132h-4.6818105v-11.2465576h1.8727242v-1.8744263h-5.6181725v1.8744263h1.8727241v11.2465576h-4.6818104v-.9372132c-.0178311-1.5131324-.6343761-2.9571637-1.7143016-4.0161047-3.9895974-4.0481383-3.9509634-10.5649272.0859551-14.5657015 4.0371471-4.0005455 10.5480184-3.9742322 14.5527037.0588046zm-11.9879951 6.3392309h-1.8727242v1.8744263h1.8727242zm11.2363451 0h-1.8727242v1.8744263h1.8727242z" fill="#fff" fill-rule="nonzero"/></g></svg>