<svg height="60" viewBox="0 0 60 60" width="60" xmlns="http://www.w3.org/2000/svg" xmlns:xlink="http://www.w3.org/1999/xlink"><linearGradient id="a" x1="0%" x2="100%" y1="0%" y2="100%"><stop offset="0" stop-color="#efbfd5"/><stop offset="1" stop-color="#9d61fd"/></linearGradient><g fill="none" fill-rule="evenodd"><circle cx="30" cy="30" fill="url(#a)" r="30"/><path d="m33.1574219 25.1692188 4.3677344 7.5651562h3.8420312c1.0769531 0 1.953125.8761719 1.953125 1.953125s-.8761719 1.953125-1.953125 1.953125h-1.5867969l1.2863282 2.2278125c.5385156.9325781.2178906 2.1294531-.7147657 2.6679688-.3010156.1738281-.6350781.2625781-.9735156.2625781-.1696875 0-.3403906-.0223438-.5086719-.0674219-.5040625-.1350781-.9251562-.4582812-1.1860156-.9101562l-6.7815625-11.7459375zm-9.329375 13.0339062-1.5117188 2.6183594c-.3614062.6258594-1.0192968.9761719-1.6947656.9761719-.3311719.0000781-.6664844-.0841407-.9732812-.26125-.9326563-.5384375-1.2533594-1.7353125-.7149219-2.6679688l.3841406-.6653125zm3.3451235-19.8126231c.9089261-.4304175 2.0146148-.0966855 2.5262046.7892637l.300625.5207032.300625-.520625c.5385938-.9328125 1.7354688-1.2533594 2.6679688-.7149219.4517968.2607812.7749218.6820312.91 1.1859375.1350781.5039062.0657031 1.0303125-.1951563 1.4821094l-6.6980469 11.6014062h4.2249219l2.2553125 3.90625h-14.8328125c-1.0769531 0-1.953125-.8761719-1.953125-1.953125s.8761719-1.953125 1.953125-1.953125h3.8420313l5.2698437-9.1277344-1.4282031-2.47375c-.5384375-.9327343-.2178125-2.1295312.7148437-2.6680468z" fill="#fff" fill-rule="nonzero"/></g></svg>