<svg height="100" viewBox="0 0 100 100" width="100" xmlns="http://www.w3.org/2000/svg"><g fill="none" transform="translate(10 10)"><path d="m65.3333333 3.66666667h14.6666667v24.00000003h-14.6666667z" fill="#732de2"/><path d="m60 3.66666667h5.3333333v24.00000003h-5.3333333z" fill="#f9f1e4"/><path d="m37.3333333 18.3333333-27.12 4.72c-.1733333.0266667-.34666663.04-.51999997.04-1.64 0-3.02666666-1.32-3.02666666-3.0266666 0-1.0666667.57333333-2.0666667 1.50666666-2.6133334l29.07999997-16.95999997c.88-.52 1.96-.54666666 2.88-.09333333l14.5333334 7.26666667h5.3333333v18.66666663h-14.6666667z" fill="#e8dac5"/><g fill="#6c253d"><path d="m13.3333333 38.3333333h17.3333334v2.6666667h-17.3333334z"/><path d="m32.3466667 35.6666667h-11.5653334l-2.6666666-2.6666667h-2.1146667v-2.6666667h3.2186667l2.6666666 2.6666667h10.4613334z"/><path d="m19.2186667 49h-3.2186667v-2.6666667h2.1146667l2.6666666-2.6666666h11.5653334v2.6666666h-10.4613334z"/></g><path d="m26.6666667 43.6666667h5.3333333v2.6666666h-5.3333333z" fill="#561c32"/><path d="m25.3333333 38.3333333h5.3333334v2.6666667h-5.3333334z" fill="#561c32"/><path d="m26.6666667 33h5.3333333v2.6666667h-5.3333333z" fill="#561c32"/><g fill="#6c253d" transform="translate(10.666667 30.333333)"><path d="m0 0h2.66666667v2.66666667h-2.66666667z"/><path d="m0 16h2.66666667v2.6666667h-2.66666667z"/><path d="m38.6666667 8h17.3333333v2.6666667h-17.3333333z"/><path d="m48.552 5.33333333h-11.5653333v-2.66666666h10.4613333l2.6666667-2.66666667h3.2186666v2.66666667h-2.1146666z"/></g><path d="m48 33h5.3333333v2.6666667h-5.3333333z" fill="#561c32"/><path d="m49.3333333 38.3333333h5.3333334v2.6666667h-5.3333334z" fill="#561c32"/><path d="m64 49h-3.2186667l-2.6666666-2.6666667h-10.4613334v-2.6666666h11.5653334l2.6666666 2.6666666h2.1146667z" fill="#6c253d"/><path d="m48 43.6666667h5.3333333v2.6666666h-5.3333333z" fill="#561c32"/><path d="m66.6666667 30.3333333h2.6666666v2.6666667h-2.6666666z" fill="#6c253d"/><path d="m66.6666667 46.3333333h2.6666666v2.6666667h-2.6666666z" fill="#6c253d"/><circle cx="40" cy="39.666667" fill="#f4b34a" r="12"/><circle cx="40" cy="39.666667" fill="#e58842" r="9.333333"/><path d="m46.3352968 40.004123c-.0109731.4070606-.0676359.8153253-.1699883 1.2247939s-.2540832.8014562-.4551924 1.1759628c-.4750833.9303635-1.285429 1.8292432-2.431037 2.6966391-.7941872.6013179-2.0528522 1.2940106-3.4227396 2.1123875-.9132584.5455845-1.5169063.9346773-1.8109438 1.1672782l-2.0993269-1.2486373c.5319263-.5057289 1.293423-1.0450028 2.2844901-1.6178217 1.4866008-.8592284 3.1046384-1.8249002 3.4428176-2.0522167.4622966-.3107455.8976474-.6632885 1.3060522-1.0576291h-4.4159118l1.3712183-2.4007567zm-3.6430551 5.9680143c.2666264.1653152.5072394.3296933.7218392.4931344.2145998.163441.460908.3683433.7389247.6147066l-2.0796695 1.2118572c-.2792026-.2201053-.5389474-.4082985-.7792345-.5645795-.2402871-.1562811-.4970883-.3101236-.7704036-.4615277zm-.666621-15.0054535 2.0694767 1.217716c-.6408241.5069459-1.1055171.8570508-1.3940789 1.0503146-1.1943269.7998987-2.3665688 1.4412343-3.4420575 2.0217324-.3666731.1979128-1.4690082.9601664-2.4721737 1.847992-.668777.5918838-1.036977 1.4370385-1.1046 2.5354641-.0224052.9026396.3457948 1.7343195 1.1046 2.49504.7588052.7607204 1.6685673 1.4232338 2.7292863 1.9875403l-2.1534338 1.3108745c-1.3010503-.8744221-2.2520365-1.7807486-2.8529587-2.7189796-.6009222-.9382309-.8868083-1.963056-.8576582-3.0744752 0-1.6418702.6292301-3.1093611 1.8876903-4.4024726.839206-.8623132 2.16211-1.6801444 3.881728-2.6804132.5078378-.2953996 1.3758976-.8255107 2.6041795-1.5903333zm.6030659 2.8652576c1.045538.6249009 1.8975143 1.3933854 2.5559287 2.3054535s1.0172118 1.8013538 1.0763921 2.6678572h-2.053297c-.2289025-.7063591-.6386289-1.3438565-1.2291791-1.9124922-.5905501-.5686357-1.4345864-1.1640951-2.5321087-1.7863781zm-4.5575853-2.7849708c.2072589.1611581.4310319.3198777.671319.4761587.2402871.1562811.4970883.3101236.7704036.4615276l-2.1685438 1.293591c-.2666263-.1653151-.5072394-.3296932-.7218392-.4931343s-.4198267-.3386186-.6156806-.5255325z" fill="#6c253d"/><path d="m10.6666667 43.6666667c-2.20533337 0-4.00000003-1.7946667-4.00000003-4 0-2.2053334 1.79466666-4 4.00000003-4 2.2053333 0 4 1.7946666 4 4 0 2.2053333-1.7946667 4-4 4z" fill="#f4b34a"/><path d="m69.3333333 43.6666667c-2.2053333 0-4-1.7946667-4-4 0-2.2053334 1.7946667-4 4-4 2.2053334 0 4 1.7946666 4 4 0 2.2053333-1.7946666 4-4 4z" fill="#f4b34a"/><path d="m37.104 9c1 0 1.96.39733333 2.6666667 1.104l6.896 6.896 1.8853333-1.8853333-6.896-6.89600003c-1.2146667-1.216-2.832-1.88533334-4.552-1.88533334-3.5493333 0-6.4373333 2.888-6.4373333 6.43733337 0 1.72.6693333 3.336 1.8853333 4.552l1.5693333 1.5693333 3.212-.5586667-2.896-2.896c-.7066666-.7066666-1.104-1.6666666-1.104-2.6666666 0-2.0826667 1.688-3.7706667 3.7706667-3.7706667z" fill="#dbc6a9"/><path d="m57.3333333 7.66666667h2.6666667v18.66666663h-2.6666667z" fill="#dbc6a9"/><path d="m0 51.6666667h14.6666667v24h-14.6666667z" fill="#732de2"/><path d="m14.6666667 51.6666667h5.3333333v24h-5.3333333z" fill="#f9f1e4"/><path d="m42.6666667 61 27.12-4.72c.1733333-.0266667.3466666-.04.52-.04 1.64 0 3.0266666 1.32 3.0266666 3.0266667 0 1.0666666-.5733333 2.0666666-1.5066666 2.6133333l-29.08 16.96c-.88.52-1.96.5466667-2.88.0933333l-14.5333334-7.2666666h-5.3333333v-18.6666667h14.6666667z" fill="#e8dac5"/><path d="m42.896 70.3333333c-1 0-1.96-.3973333-2.6666667-1.104l-6.896-6.896-1.8853333 1.8853334 6.896 6.896c1.2146667 1.216 2.832 1.8853333 4.552 1.8853333 3.5493333 0 6.4373333-2.888 6.4373333-6.4373333 0-1.72-.6693333-3.336-1.8853333-4.552l-1.5693333-1.5693334-3.212.5586667 2.896 2.896c.7066666.7066667 1.104 1.6666667 1.104 2.6666667 0 2.0826666-1.688 3.7706666-3.7706667 3.7706666z" fill="#dbc6a9"/><path d="m20 53h2.6666667v18.6666667h-2.6666667z" fill="#dbc6a9" transform="matrix(-1 0 0 -1 42.666666 124.666666)"/></g></svg>