<svg height="100" viewBox="0 0 100 100" width="100" xmlns="http://www.w3.org/2000/svg" xmlns:xlink="http://www.w3.org/1999/xlink"><linearGradient id="a"><stop offset="0" stop-color="#8f58f9"/><stop offset="1" stop-color="#732de2"/></linearGradient><linearGradient id="b" x1="14.335937%" x2="76.884998%" xlink:href="#a" y1="15.748718%" y2="111.325641%"/><linearGradient id="c" x1="-1.858621%" x2="89.093103%" xlink:href="#a" y1="48.716914%" y2="52.297319%"/><g fill="none" fill-rule="evenodd"><path d="m10 10h80v80h-80z"/><g fill-rule="nonzero" transform="translate(10 10.677966)"><path d="m10.8338983 35.2813559-1.89830508-3.1864406c-1.27457627-2.1288136-.93559322-4.840678.81355932-6.6033899l9.16610166-9.220339h24.4745763l12.2033898-12.20338979 5.4237289 5.42372881-14.9152543 14.91525428h-8.1355932v14.9152542l2.7118644 28.4745763h-8.1355932l-2.7118644-25.7627119-2.7118644 25.7627119h-8.1355933l2.7118645-29.8305085v-13.559322l-5.4237289 5.4237288 5.4237289 8.1355932-6.8474577 4.0677966z" fill="url(#b)"/><path d="m39.3220339 78.6440678h-39.3220339v-5.8711864c6.08813559-2.481356 12.4610169-4.4067797 19.0508475-5.7084746l-.0677967.7322034h8.1355933l.2169491-1.9932204c1.640678-.1898305 3.281356-.338983 4.9491526-.4474576l.2576271 2.440678h8.1355932l-.2576271-2.6847458c11.2135593.1084746 21.9932203 1.9932203 32.0949152 5.3966102h-20.9898305c-1.4915254 0-2.7118644 1.220339-2.7118644 2.7118644h-9.4915254c-1.4915254 0-2.7118644 1.220339-2.7118644 2.7118644 0 .7457627.2983051 1.4237288.8 1.9118644.4881356.5016949 1.1661017.8 1.9118644.8z" fill="#4c1ea5"/><path d="m78.6440678 72.7728814v5.8711864h-39.3220339c-.7457627 0-1.4237288-.2983051-1.9118644-.8-.5016949-.4881356-.8-1.1661017-.8-1.9118644 0-1.4915254 1.220339-2.7118644 2.7118644-2.7118644h9.4915254c0-1.4915254 1.220339-2.7118644 2.7118644-2.7118644h20.9898305c2.0745763.6915254 4.1220339 1.4508474 6.1288136 2.2644068z" fill="url(#c)"/><path d="m29.8305085 25.7627119-4.0677966-9.4915255h4.0677966 4.0677966z" fill="#f4b34a"/><path d="m35.9186441 13.5186441c-1.4779661 1.6949152-3.661017 2.7525423-6.0881356 2.7525423-4.5016949 0-8.1355932-3.6338983-8.1355932-8.13559318 0-4.50169491 3.6338983-8.13559322 8.1355932-8.13559322s8.1355932 3.63389831 8.1355932 8.13559322c0 2.07457628-.7728814 3.95932208-2.0338983 5.38305088z" fill="#e8dac5"/><g fill="#f4b34a"><path d="m48.8135593 50.1694915c-.5016949 1.4644068-4.2576271 4.0271187-9.2474576 5.8847458l-1.6-16.7322034v-14.9152542c2.7118644 2.7118644 6.779661 21.6949152 10.8474576 25.7627118z"/><path d="m29.8305085 42.0338983 1.6949152 16.0542373c-1.0169491.1220339-2.0338983.2033898-3.0508474.2169491-.1084746 0-.2169492 0-.3525424 0z"/><path d="m21.6949153 24.4067797v13.559322l-5.4237289-8.1355932z"/><path d="m21.6949153 39.3220339-1.7355933 18.1966102c-4.0813559-.5288136-8.4338983-1.2474577-10.46779658-1.9254238-4.06779661-1.3559322-5.42372881-4.0677966-9.49152542-2.7118644 0-2.7118644 4.37966102-6.7525423 5.42372881-8.1355932 2.31864407-3.1050847 2.71186441-6.7525424 5.41016949-9.4644068l4.0135593 6.7525424 6.8474577-4.0677966z"/></g><path d="m72.1179661.67118644c.7322034 2.86915254 2.9857627 5.12271187 5.8549153 5.85491525.2711864.06915255.2711864.43661017 0 .50711865-2.8691526.73220339-5.1227119 2.98576276-5.8549153 5.85491526-.0691525.2711864-.4366102.2711864-.5071186 0-.7322034-2.8691525-2.9857628-5.12271187-5.8549153-5.85491526-.2711864-.06915254-.2711864-.43661017 0-.50711865 2.8691525-.73220338 5.1227119-2.98576271 5.8549153-5.85491525.0691525-.27118644.4379661-.27118644.5071186 0z" fill="#e049e8"/><path d="m65.3383051 18.2983051c.7322034 2.8691525 2.9857627 5.1227118 5.8549152 5.8549152.2711865.0691526.2711865.4366102 0 .5071187-2.8691525.7322034-5.1227118 2.9857627-5.8549152 5.8549152-.0691526.2711865-.4366102.2711865-.5071187 0-.7322033-2.8691525-2.9857627-5.1227118-5.8549152-5.8549152-.2711865-.0691526-.2711865-.4366102 0-.5071187 2.8691525-.7322034 5.1227119-2.9857627 5.8549152-5.8549152.0691526-.2711865.4379661-.2711865.5071187 0z" fill="#e049e8"/><path d="m28.4745763 29.8305085h2.7118644v2.7118644h-2.7118644z" fill="#6c253d"/><path d="m35.7613559 14.8637288c-3.380339-.4284746-5.9308474-3.3220339-5.9308474-6.72813558h2.7118644c0 2.04474578 1.5308474 3.78033898 3.5606779 4.03796608z" fill="#dbc6a9"/><g fill="#e8dac5" transform="translate(66.440678 27.118644)"><path d="m10.8474576 0h2.7118644v16.2711864h-2.7118644z"/><path d="m10.8474576 18.9830508h2.7118644v2.7118645h-2.7118644z"/><path d="m5.42372881 4.06779661h2.71186441v16.27118649h-2.71186441z"/><path d="m5.42372881 23.0508475h2.71186441v2.7118644h-2.71186441z"/><path d="m0 8.13559322h2.71186441v16.27118648h-2.71186441z"/><path d="m0 27.1186441h2.71186441v2.7118644h-2.71186441z"/></g></g></g></svg>