<svg height="100" viewBox="0 0 100 100" width="100" xmlns="http://www.w3.org/2000/svg" xmlns:xlink="http://www.w3.org/1999/xlink"><linearGradient id="a" x1="-1.858621%" x2="89.093103%" y1="42.703869%" y2="63.06345%"><stop offset="0" stop-color="#8f58f9"/><stop offset="1" stop-color="#732de2"/></linearGradient><g fill="none" transform="translate(10 10)"><ellipse cx="41.333333" cy="35.604396" fill="#e8eded" rx="36" ry="35.604396"/><ellipse cx="41.333333" cy="35.604396" fill="#6c253d" rx="34.666667" ry="34.285714"/><ellipse cx="41.333333" cy="35.604396" fill="#e8dac5" rx="30.666667" ry="30.32967"/><g fill="#fff" transform="translate(20 7.912088)"><path d="m16.2653333 3.13846154-.5306666-2.5832967c1.3733333-.27692308 2.7866666-.4523077 4.1986666-.52219781l.1333334 2.63472528c-1.28.0632967-2.5586667.22153846-3.8013334.47076923z"/><path d="m2.08133333 11.4065934-2.02666666-1.71560439c3.42666666-3.95868132 7.88-6.87164835 12.87866663-8.42373626l.8 2.51604395c-4.52266663 1.40571429-8.55066663 4.04175825-11.65199997 7.6232967z"/></g><path d="m1.33333333 34.2857143h5.35866667 50.5386667l-.4693334-3.0145055-.3506666-2.2602198h-55.07733337z" fill="#f4b34a"/><path d="m57.2306667 34.2857143 1.436 9.2307692-2.6666667 17.1428572 10.6666667-13.1868132v-15.8241759h-5.3333334 5.3333334v-5.2747252h-10.6666667l.7613333 4.8975824z" fill="#e58842"/><path d="m57.2306667 34.2857143-.4693334-3.0145055z" fill="#e8eded"/><path d="m22.164 46.4030769c3.4186667.8017583 6.1066667 3.4602198 6.9173333 6.8413187.0653334.272967.4386667.272967.504 0 .8106667-3.3810989 3.4986667-6.0395604 6.9173334-6.8413187.276-.0646154.276-.4338461 0-.4984615-3.4186667-.8017583-6.1066667-3.4602198-6.9173334-6.8413187-.0653333-.272967-.4386666-.272967-.504 0-.8106666 3.3810989-3.4986666 6.0395604-6.9173333 6.8413187-.276.0646154-.276.4338461 0 .4984615z" fill="#e049e8"/><path d="m0 48.7912088v30.3296703h80v-34.2857143h-1.3333333l-2.6666667 10.5494506h-6.6666667l-13.3333333 10.5494505-16-10.5494505-16 2.6373626-16-15.8241758-6.66666667 6.5934066z" fill="url(#a)"/><g fill="#4c1ea5" transform="translate(8.8 54.593407)"><path d="m.33066667 13.8540659-.33066667-2.6162637 9.95866667-1.2316484 3.68133333-7.28043951 2.3853333 1.18021978-4 7.91208793c-.1986666.3942857-.584.6646154-1.028.7186813z"/><path d="m10.1579414 11.1572213 2.6655819.0056349.0143667 6.7271001-2.6655819-.005635z" transform="matrix(-.98058452 .19609691 -.19609691 -.98058452 25.620625 26.51049)"/><path d="m49.4986667 24.4140659h-2.6666667v-4.7287912l-.9426667-.9323077c-.5213333-.5156044-.5213333-1.349011 0-1.8646154l1.8933334-1.8725274-2.06-3.0567033 2.2186666-1.4624176 2.6666667 3.956044c.3533333.5221978.2826667 1.2197802-.1666667 1.6641758l-1.724 1.7037362.3906667.3863737c.2506667.2465934.3906667.5815384.3906667.9323077z"/><path d="m67.4253333 11.0057143-4-2.63736265c-.164-.10813187-.3026666-.25054945-.404-.41802198l-4-6.59340659 2.2866667-1.35692308 3.8466667 6.34021978 3.7493333 2.47252747z"/><path d="m29.8893333 13.4782418-4-3.956044c-.4066666-.4021978-.5066666-1.01538461-.2506666-1.52175824l4-7.91208791 2.3853333 1.18021978-3.5706667 7.06153846 3.32 3.28351651z"/><path d="m22.7209249 7.92378533 4.2113891.01390954.0087935 2.63899663-4.211389-.0139095z" transform="matrix(-.94859326 .31649775 -.31649775 -.94859326 51.31323 10.165991)"/></g><g transform="translate(41.666667 30.32967)"><g fill="#4c1ea5"><path d="m1.88560606 8.95160188 2.65761527.01352349.01625524 3.18089903-2.65761527-.0135235z" transform="matrix(-.83211183 .55460788 -.55460788 -.83211183 11.75451 17.539358)"/><path d="m6.75914631 13.8177168 2.65792653.013526.04064486 7.9530263-2.65792652-.013526z" transform="matrix(-.83206568 .55467711 -.55467711 -.83206568 24.728983 28.115027)"/><path d="m2.32164841 17.7862227 2.65020619.0145694.03919967 7.1387779-2.65020619-.0145694z" transform="matrix(-.66892605 .74332896 -.74332896 -.66892605 21.998528 32.927789)"/></g><path d="m19.666667 0h5.333333v2.637363h-5.333333z" fill="#d6713a"/></g></g></svg>