<svg height="60" viewBox="0 0 60 60" width="60" xmlns="http://www.w3.org/2000/svg" xmlns:xlink="http://www.w3.org/1999/xlink"><linearGradient id="a" x1="1.444244%" x2="100%" y1="0%" y2="100%"><stop offset="0" stop-color="#17ead9"/><stop offset="1" stop-color="#6078ea"/></linearGradient><g fill="none" fill-rule="evenodd"><circle cx="30" cy="30" fill="url(#a)" r="30"/><path d="m29.9966667 16.75c1.0846367 0 2.0239375.596388 2.5348216 1.4722682h2.6179101c.2055821 0 .4025378.086263.5420078.2379479.1394701.1509258.2084805.3543685.1912279.5592605l-.7361341 8.8333333c-.0158034.1961966.0445807.3867344.1710768.53697.1279453.1495456.304819.2415365.5017748.258099.4429088 0 .762082-.2955026.7936888-.6721615l.5506341-6.6156835c.0216002-.2609284.1811523-.4910092.4169609-.6038412.238638-.1107617.5175781-.0906107.7317865.0574857 4.0112304 2.7474427 6.406444 7.2820482 6.406444 12.13072v.3429128c1.9797708.7073568 2.9444674 1.5613607 2.9444674 2.6015547 0 2.7733906-8.2568203 7.3611341-17.6666666 7.3611341-9.4098464 0-17.6666667-4.5877435-17.6666667-7.3611341 0-.8219141.6415208-1.5176771 1.8734948-2.126832-.2395352-.7250925-.4012956-1.4855183-.4012956-2.2898347 0-2.7610377 1.5463164-5.1432773 3.8013008-6.4027174 1.0900195-1.7109753 2.4567708-3.146461 4.0773424-4.2551133.2142084-.1487865.4945287-.1696276.7317865-.0574857.2372578.112832.3953607.3429128.4169609.6038412l.2521641 3.0361132c.5382813.1463711 1.0463359.3530573 1.5282357.6112253l-.4993594-5.9886549c-.0172526-.204892.0517578-.4082657.1912279-.5592605.13947-.1516849.3364258-.2379479.5420078-.2379479h2.6179101c.5109532-.8758112 1.4502539-1.4721992 2.5348907-1.4721992zm-8.8333334 8.8333333c-3.2477682 0-5.8888659 2.6417878-5.8888659 5.8889349 0 3.2470782 2.6410287 5.8888659 5.8888659 5.8888659 3.2478373 0 5.8888659-2.6418568 5.8888659-5.8889349s-2.6410976-5.8888659-5.8888659-5.8888659zm0 1.4721993c.4068854 0 .7362032.3291796.7362032.7360651 0 .4068854-.3292487.7361341-.7361342.7361341-1.623194 0-2.9444674 1.3205833-2.9444674 2.9444674 0 .4068854-.3292487.7361341-.7361341.7361341s-.7361341-.3292487-.7361341-.7361341c0-2.4355156 1.981151-4.4166666 4.4166666-4.4166666zm8.8333334-8.8332644c-.8122526 0-1.4721993.6606367-1.4721993 1.4721992v10.2635743c.0108347.8605599.6648464 1.5141575 1.4721993 1.5141575.8122526 0 1.4721992-.6606367 1.4721992-1.4721992v-10.3055326c0-.8115625-.6599466-1.4721992-1.4721992-1.4721992z" fill="#fff" fill-rule="nonzero"/></g></svg>