<svg height="60" viewBox="0 0 60 60" width="60" xmlns="http://www.w3.org/2000/svg" xmlns:xlink="http://www.w3.org/1999/xlink"><linearGradient id="a" x1="0%" x2="117.692718%" y1="0%" y2="111.015449%"><stop offset="0" stop-color="#9b3cb7"/><stop offset="1" stop-color="#ff396f"/></linearGradient><g fill="none" fill-rule="evenodd"><circle cx="30" cy="30" fill="url(#a)" r="30"/><path d="m42.4509741 30.650339c-.0215401.7990516-.1327679 1.6004666-.3336835 2.404245-.2009157.8037784-.4987601 1.5732419-.8935333 2.3083906-.9325787 1.8262841-2.5232704 3.5907662-4.7720752 5.2934463-1.558973 1.1803747-4.0297061 2.540116-6.7187667 4.1465728-1.7927071 1.0709712-2.9776554 1.8347521-3.554845 2.2913428l-4.1209351-2.451049c1.0441603-.9927352 2.5389625-2.0513187 4.4844067-3.1757503 2.9181663-1.6866475 6.0943406-3.5822413 6.7581793-4.0284588.9074787-.6099869 1.7620631-1.3020215 2.5637533-2.0761038h-8.6683429l2.6916729-4.7126356zm-7.1512415 11.7150881c.523382.3245102.9957004.647181 1.4169554.9680124.4212549.3208315.9047528.7230503 1.4504937 1.2066565l-4.0823479 2.3788505c-.5480689-.4320622-1.0579427-.8014816-1.5296213-1.108258-.4716785-.3067765-.9757739-.6087662-1.5122861-.9059691zm-1.3085633-29.4553935 4.0623399 2.3903512c-1.2579245.9951243-2.1701071 1.6823729-2.7365479 2.0617458-2.3444389 1.5701844-4.6455254 2.829113-6.7566875 3.9686187-.7197716.3884987-2.8836325 1.8847866-4.8528255 3.6275699-1.3127954 1.1618556-2.0355644 2.8208767-2.1683069 4.9770634-.0439809 1.7718626.6787881 3.4044331 2.1683069 4.8977115s3.2753629 2.7937785 5.3575322 3.9015005l-4.2271458 2.5732194c-2.5539346-1.7164725-4.4207008-3.4955726-5.6002986-5.3373005s-1.7407862-3.8534382-1.6835651-6.0351309c0-3.2229573 1.2351656-6.1036114 3.7054968-8.6419623 1.6473438-1.6927028 4.244177-3.2980886 7.6197513-5.2615955.9968751-.5798632 2.7008585-1.6204603 5.1119502-3.1217912zm1.183806 5.6244411c2.0523694 1.2266676 3.724781 2.7351867 5.0172348 4.5255574 1.2924538 1.7903706 1.9967656 3.53602 2.1129354 5.2369481h-4.0305793c-.449331-1.3865682-1.2536154-2.6379624-2.4128531-3.7541824s-2.8160633-2.2850944-4.9704768-3.5066231zm-8.9464454-5.4668398c.406845.31635.8461067.6279132 1.3177853.9346897.4716786.3067764.975774.6087661 1.5122862.9059691l-4.2568063 2.5392923c-.523382-.3245102-.9957004-.647181-1.4169553-.9680125-.421255-.3208314-.8241111-.6647012-1.2085684-1.0316093z" fill="#fff"/></g></svg>