<svg height="60" viewBox="0 0 60 60" width="60" xmlns="http://www.w3.org/2000/svg" xmlns:xlink="http://www.w3.org/1999/xlink"><linearGradient id="a" x1="0%" x2="100%" y1="0%" y2="100%"><stop offset="0" stop-color="#ffa7e7"/><stop offset="1" stop-color="#ea6362"/></linearGradient><g fill="none" fill-rule="evenodd"><circle cx="30" cy="30" fill="url(#a)" r="30"/><path d="m16 14h30v30h-30z"/><g fill="#fff" fill-rule="nonzero" transform="translate(16 14.606061)"><path d="m7.00673401 5.50707071 11.95286199-3.26262627-.6329967-1.27946127c-.4141414-.83164984-1.4242424-1.17508418-2.2558922-.76094277l-10.70033673 5.30303031z"/><path d="m22.6700337 2.33872054c-.1481145 0-.2962963.02020202-.4444445.06060606l-2.8080471.76767677-8.5757913 2.34006734h9.7340068 4.2424242l-.5252525-1.92592593c-.2020202-.75084175-.8821549-1.24242424-1.6228956-1.24242424z"/><path d="m26.5723906 6.68552189h-.3838384-.5218855-.5218856-3.9831649-14.63636367-1.91919192-1.61616162-.2996633-1.003367c-.53198654 0-1.00673401.24579124-1.31649832.63299663-.14141414.17845118-.24915825.38383838-.30976431.60942761-.03703704.14141414-.06060606.28956229-.06060606.44107744v.2020202 1.91919193 16.6363636c0 .9293266.75420875 1.6835017 1.68350168 1.6835017h24.88552192c.9293266 0 1.6835129-.7541751 1.6835129-1.6835017v-4.6969697h-9.9899102c-1.5791246 0-2.8619529-1.2828283-2.8619529-2.8619528v-1.5420876-.5218855-.5218855-1.1582492c0-.7744108.3097306-1.4780808.8114478-1.9932323.4444445-.4579461 1.0404041-.7677104 1.7070707-.8451515.1111111-.0134344.2255892-.020202.3400674-.020202h8.5925926.5218855.5218855.3569136v-4.59595963c.0033558-.92929293-.750853-1.68350168-1.6801459-1.68350168z"/><path d="m29.4343434 14.5744108c-.1683501-.1548822-.3670033-.2727273-.5892256-.3501684-.1717508-.0572054-.3535353-.0908754-.5454545-.0908754h-.043771-.0336701-.5218855-1.8821549-7.5555555c-.9293266 0-1.6835017.7541751-1.6835017 1.6835017v.8383502.5218855.5218855 1.8653199c0 .9292929.7541751 1.6835016 1.6835017 1.6835016h9.993266.043771c.1919192 0 .3737374-.03367.5454545-.090909.2222223-.0740741.4208755-.1952862.5892256-.3501684.3367004-.3063973.5488216-.7508417.5488216-1.2423906v-3.7474747c0-.4916162-.2121212-.9360943-.5488216-1.2424579zm-7.6565656 3.4511784c0 .4646465-.3771044.8417509-.8417509.8417509h-.5589225c-.4646465 0-.8417509-.3771044-.8417509-.8417509v-.5589225c0-.2693603.1245792-.5084512.3232324-.6599664.1447811-.1111111.323266-.1817845.5185185-.1817845h.1414141.4175084c.4646465 0 .8417509.3770707.8417509.8417509z"/></g></g></svg>