<svg height="60" viewBox="0 0 60 60" width="60" xmlns="http://www.w3.org/2000/svg" xmlns:xlink="http://www.w3.org/1999/xlink"><linearGradient id="a" x1="0%" x2="100%" y1="0%" y2="100%"><stop offset="0" stop-color="#38b8f2"/><stop offset="1" stop-color="#843cf6"/></linearGradient><g fill="none" fill-rule="evenodd"><circle cx="30" cy="30" fill="url(#a)" r="30"/><path d="m41.4223594 26.54375h-.5944532c-.1931015-.6042969-.4367343-1.1913125-.7286015-1.7553047l.4209844-.4209844c1.0207421-1.0196484.9933984-2.6537109.0003281-3.6457421l-1.2420078-1.2419532c-.9914297-.9927422-2.6258203-1.0215078-3.6457422-.0003828l-.4213125.4213125c-.5639922-.2918125-1.1510625-.5355-1.7553047-.7286016v-.5945078c0-1.4212734-1.1563125-2.5775859-2.5776406-2.5775859h-1.7572735c-1.4212734 0-2.5775859 1.1563125-2.5775859 2.5775859v.5945078c-.6042422.1930469-1.1913125.4367344-1.7553047.7286016l-.4209297-.4209297c-1.0178984-1.0191015-2.6522344-.9952031-3.6456875-.0003281l-1.2421172 1.2420078c-.9926875.9915938-1.0213984 2.6257656-.0003281 3.6457422l.4213125.4213125c-.2918672.5639922-.5355 1.1509531-.7286016 1.7553047h-.5944531c-1.4212734-.0000547-2.5776406 1.1562578-2.5776406 2.5775312v1.7573282c0 1.4212734 1.1563672 2.5775859 2.5776406 2.5775859h.5944531c.1931016.6042969.4367344 1.1913125.7286016 1.7553047l-.4209844.4209844c-1.0207422 1.0196484-.9933984 2.6537109-.0003281 3.6457421l1.2420078 1.2419532c.9914297.9927422 2.6258203 1.0215078 3.6457422.0003828l.4213125-.4213125c.5639922.2918125 1.1510625.5355 1.7553047.7286015v.5945079c0 1.4212734 1.1563672 2.5775859 2.5776406 2.5775859h1.7572735c1.4212734 0 2.5776406-1.1563125 2.5776406-2.5775859v-.5945079c.6042422-.1930468 1.1913125-.4367343 1.7553047-.7286015l.4209297.4209297c1.0178984 1.0191015 2.6521796.9952031 3.6456875.0003281l1.2421171-1.2420625c.9926875-.9915938 1.0213985-2.6257656.0003282-3.6457422l-.4213125-.4213125c.2918672-.5639922.5355-1.1509531.7286015-1.7553047h.5944532c1.4212734 0 2.5776406-1.1563125 2.5776406-2.5775859v-1.7573281c0-1.4211641-1.1564219-2.5774766-2.5776953-2.5774766zm-11.4223594 9.5484375c-3.3592891 0-6.0921875-2.7329531-6.0921875-6.0921875s2.7328984-6.0921875 6.0921875-6.0921875 6.0921875 2.7329531 6.0921875 6.0921875-2.7328984 6.0921875-6.0921875 6.0921875z" fill="#fff" fill-rule="nonzero"/></g></svg>