<svg height="32" viewBox="0 0 140 32" width="140" xmlns="http://www.w3.org/2000/svg" xmlns:xlink="http://www.w3.org/1999/xlink"><linearGradient id="a"><stop offset="0" stop-color="#4e5cd4"/><stop offset="1" stop-color="#ac4fe7"/></linearGradient><linearGradient id="b" x1="19.619217%" x2="100%" xlink:href="#a" y1="48.057202%" y2="52.714676%"/><linearGradient id="c" x1="20.607143%" x2="98.374093%" xlink:href="#a" y1="14.216759%" y2="100%"/><g fill="none" fill-rule="evenodd"><text fill="url(#b)" font-family="-apple-system,BlinkMacSystemFont,Inter,sans-serif" font-size="20" font-weight="600"><tspan x="37" y="24">Gridcoin</tspan></text><path d="m15.7377049 0 13.6292523 8v16l-13.6292523 8-13.62925224-8v-16z" fill="url(#c)"/><path d="m15.7377049.88888889 12.8720716 7.55555555v15.11111116l-12.8720716 7.5555555-12.87207156-7.5555555v-15.11111116z" fill="#fff"/><path d="m15.7377049 1.77777778 12.1148909 7.11111111v14.22222221l-12.1148909 7.1111111-12.11489088-7.1111111v-14.22222221z" fill="url(#c)"/><path d="m24.6557377 16.5333333c-.0160681.5960655-.0990404 1.193894-.2489166 1.7934856-.1498763.5995915-.3720582 1.1735853-.6665456 1.7219814-.6956722 1.3623463-1.8822745 2.6785903-3.5598069 3.9487321-1.1629412.8805197-3.0060246 1.8948407-5.011973 3.0932032-1.337299.7989084-2.2212304 1.3686632-2.6517943 1.7092644l-3.07407835-1.8283998c.77890825-.7405469 1.89398025-1.5302144 3.34521585-2.3690024.1554896-.0898702.3119611-.1805356.4686614-.2715454l.4700344-.2736118c1.8768586-1.0949738 3.6782195-2.1746257 4.1026777-2.459937.6769485-.4550297 1.3144396-.9712641 1.9124733-1.5487033h-6.466291l2.0078971-3.515467zm-5.3345845 8.73906c.3904252.2420736.7427588.4827752 1.0570008.7221046.3142419.2393294.6749151.5393711 1.0820193.9001249l-3.0452936 1.7745421c-.4088409-.3223038-.7891895-.5978781-1.1410458-.826723s-.7278944-.454119-1.1281144-.6758223zm-.9761441-21.97272852 3.0303684 1.78312125c-.9383692.74232911-1.6188266 1.25499334-2.0413723 1.5379927-1.7488723 1.17130456-3.4654051 2.11042278-5.0402606 2.96045551-.5369253.28980694-2.1510925 1.40598716-3.620044 2.70604466-.97930096.866705-1.51846219 2.1042787-1.61748365 3.7127211-.03280824 1.3217496.50635299 2.5395921 1.61748365 3.6535273 1.1111307 1.1139353 2.4433101 2.0840644 3.9965381 2.9103876l-3.153308 1.9195347c-1.9051489-1.2804304-3.29769343-2.607579-4.17763353-3.9814458s-1.29856767-2.8745347-1.25588272-4.5020038c0-2.4042172.92139182-4.5530879 2.76417548-6.44661192 1.22886287-1.26269914 3.16601267-2.4602627 5.68407707-3.92497253.7436351-.43255833 2.0147492-1.20880859 3.8133421-2.32875077zm.8830793 4.19564308c1.5309982.9150526 2.7785608 2.04035691 3.7426877 3.37591294.9641269 1.335556 1.4895197 2.6377515 1.5761785 3.9065864h-3.0066761c-.3351857-1.0343331-.9351547-1.9678308-1.7999069-2.8004933-.8647521-.8326624-2.1006881-1.7046032-3.7078078-2.61582235zm-6.673746-4.07807778c.3034926.23598639.631167.46840203.9830233.6972469s.7278944.45411899 1.1281144.67582234l-3.1754337 1.89422628c-.3904253-.24207365-.7427589-.48277518-1.0570008-.7221046-.314242-.23932942-.614759-.49584466-.90155114-.76954572z" fill="#fff"/></g></svg>
