<svg height="24" viewBox="0 0 24 24" width="24" xmlns="http://www.w3.org/2000/svg"><path d="m12 0c6.627417 0 12 5.372583 12 12s-5.372583 12-12 12-12-5.372583-12-12 5.372583-12 12-12zm3.9516 6.3516c-.49395.49395-.9415922.94159219-1.3429266 1.34292656l-1.0650797 1.06507969c-.1029062.10290625-.2006671.20066719-.2932828.29328281l-.49395.49395c-.0720343.07203438-.1389234.13892344-.2006672.20066719l-.3087187.30871875c-.0411625.0411625-.0771797.0771797-.1080516.1080516l-.1389234.1389234s-.0012863-.0012863-.003859-.003859l-.1350644-.1350644c-.0308719-.0308719-.0668891-.0668891-.1080516-.1080516l-.3087188-.30871875c-.0617437-.06174375-.1286328-.12863281-.2006671-.20066719l-.49395-.49395c-.0926157-.09261562-.1903766-.19037656-.2932829-.29328281l-1.06507964-1.06507969c-.40133437-.40133437-.84897656-.84897656-1.34292656-1.34292656l-1.6968 1.6968 1.34292656 1.34292656 1.06507969 1.06507964c.10290625.1029063.20066719.2006672.29328281.2932829l.49395.49395c.07203438.0720343.13892344.1389234.20066719.2006671l.30871875.3087188.1080516.1080516.1350644.1350644.003859.003859-.1389234.1389234c-.0308719.0308719-.0668891.0668891-.1080516.1080516l-.30871875.3087187c-.06174375.0617438-.12863281.1286329-.20066719.2006672l-.49395.49395c-.09261562.0926157-.19037656.1903766-.29328281.2932828l-1.06507969 1.0650797c-.40133437.4013344-.84897656.8489766-1.34292656 1.3429266l1.6968 1.6968c.49395-.49395.94159219-.9415922 1.34292656-1.3429266l1.06507964-1.0650797c.1029063-.1029062.2006672-.2006671.2932829-.2932828l.49395-.49395c.0720343-.0720343.1389234-.1389234.2006671-.2006672l.3087188-.3087187.1080516-.1080516.1350644-.1350644.003859-.003859.1389234.1389234.1080516.1080516.3087187.3087187c.0617438.0617438.1286329.1286329.2006672.2006672l.49395.49395c.0926157.0926157.1903766.1903766.2932828.2932828l1.0650797 1.0650797c.4013344.4013344.8489766.8489766 1.3429266 1.3429266l1.6968-1.6968c-.49395-.49395-.9415922-.9415922-1.3429266-1.3429266l-1.0650797-1.0650797c-.1029062-.1029062-.2006671-.2006671-.2932828-.2932828l-.49395-.49395c-.0720343-.0720343-.1389234-.1389234-.2006672-.2006672l-.3087187-.3087187c-.0411625-.0411625-.0771797-.0771797-.1080516-.1080516l-.1389234-.1389234s.0012863-.0012863.003859-.003859l.1350644-.1350644.1080516-.1080516.3087187-.3087188c.0617438-.0617437.1286329-.1286328.2006672-.2006671l.49395-.49395c.0926157-.0926157.1903766-.1903766.2932828-.2932829l1.0650797-1.06507964c.4013344-.40133437.8489766-.84897656 1.3429266-1.34292656z" fill="#11223f" fill-rule="evenodd" opacity=".2"/></svg>