<svg height="50" viewBox="0 0 50 50" width="50" xmlns="http://www.w3.org/2000/svg"><g fill="none" fill-rule="evenodd"><circle cx="25" cy="25" fill="#fff" r="24" stroke="#294172" stroke-width="2"/><g transform="translate(10 10)"><path d="m29.9579494 15.0006888c0-8.26121914-6.6970258-14.95846071-14.9581831-14.95846071-8.2574427 0-14.95185731 6.69161798-14.95771574 14.94791231v11.5753989c.00444382 1.8746438 1.52485393 3.3922326 3.40067641 3.3922326h11.56310673c8.2583989-.0032416 14.9521157-6.6980618 14.9521157-14.9570831" fill="#294172" fill-rule="nonzero"/><path d="m8.66587517 15.966018h5.37581473v5.375818c0 2.9674483-2.4083652 5.3758123-5.37581473 5.3758123-2.96745056 0-5.37581562-2.408364-5.37581562-5.3758123 0-2.9674506 2.40836506-5.375818 5.37581562-5.375818z" stroke="#3c6eb4" stroke-width="3.282022"/><path d="m5.4074482.0109618h5.3758147v5.37581798c0 2.96744831-2.40836515 5.37581232-5.3758147 5.37581232-2.96745056 0-5.37581562-2.40836401-5.37581562-5.37581232 0-2.96745057 2.40836506-5.37581798 5.37581562-5.37581798z" stroke="#3c6eb4" stroke-width="3.282022" transform="matrix(-1 0 0 -1 24.799046 15.987438)"/><g fill="#fff" fill-rule="nonzero"><path d="m15.6862247 14.329127v7.0051887c0 3.8768562-3.1433 7.0202247-7.02029324 7.0202247-.5881955 0-1.00634719-.0664056-1.55082584-.2087303-.79392697-.2077663-1.44274832-.8587112-1.44301798-1.615855 0-.9151832.66431011-1.5808877 1.65733596-1.5808877.47262584 0 .64412022.0907472 1.33650786.0907472 2.04400114 0 3.70198204-1.6556393 3.70556744-3.6996393v-3.2198393c0-.2885113-.2344528-.5222753-.5234461-.5222753l-2.43429325-.0004809c-.90697977 0-1.6397764-.7234191-1.6397764-1.6328832-.00048427-.9151191.7403146-1.6355696 1.65708764-1.6355696"/><path d="m10.0682472.05946404v7.00518877c0 3.87685619-3.14330001 7.02022469-7.02029327 7.02022469-.5881955 0-1.00634719-.0664056-1.55082584-.2087303-.79392697-.2077663-1.44274831-.8587112-1.44301798-1.6158551 0-.9151831.66431012-1.5808876 1.65733596-1.5808876.47262584 0 .64412022.0907472 1.33650786.0907472 2.04400113 0 3.70198203-1.65563934 3.70556742-3.69963934v-3.21983933c0-.28851123-.23445281-.52227528-.52344607-.52227528l-2.43429326-.0004809c-.90697977 0-1.6397764-.7234191-1.6397764-1.63288314-.00048427-.9151191.7403146-1.63556967 1.65708764-1.63556967" transform="matrix(-1 0 0 -1 22.439497 17.672833)"/></g></g></g></svg>