<svg height="50" viewBox="0 0 50 50" width="50" xmlns="http://www.w3.org/2000/svg"><g fill="none" fill-rule="evenodd"><circle cx="25" cy="25" fill="#fff" r="24" stroke="#73ba25" stroke-width="2"/><path d="m6 6h38v38h-38z"/><g fill="#73ba25" fill-rule="nonzero" transform="translate(6 13)"><path d="m32.3114641 3.06090506c-.3796096-.01367204-.7395124.12044145-1.0145582.37840582-.2750573.25796436-.4373197.60741196-.4487837.98581778-.026333.78194087.5859053 1.43977178 1.3660578 1.46854658.3794032.01146407.7411174-.12264255 1.0177796-.38060692.276261-.25916809.4350956-.60882204.4471673-.98581778.0263329-.78173452-.585699-1.43862538-1.3676628-1.46636841zm.2316314 1.54902431c-.3474414 0-.6281275-.18798772-.6281275-.4184154 0-.23262879.2806861-.41961913.6281275-.41961913.3474299 0 .6289185.18699034.6289185.41961913 0 .23041622-.2816835.4184154-.6289185.4184154zm3.3014211 1.68854197c.0101686-.00793313.0338431-.02878053.0310331-.04805506-.0787706-.4905129-.8095462-2.86934055-1.3626644-3.44139734-.1524032-.15581956-.2744497-.30943801-.5215576-.45399986-2.0009377-1.16600994-6.7480919-1.86967418-6.9704947-1.9018882 0 0-.022324-.00465441-.037797.01045523-.0120144.01173576-.0142843.03438187-.0142843.03438187s-.0182966.98360522-.0211053 1.09357998c-.4847694-.16285849-4.0092124-1.30128589-7.313041-1.41592653-2.8018172-.09852101-6.8822215-.46083244-12.28947649 2.86372316l-.15984344.09952527c-2.54387578 1.58674109-4.30017037 3.54354215-5.2182126 5.81675138-.28793143.71538051-.67517605 2.32949776-.29134772 3.84837156.16527741.6639069.47351169 1.3310925.88910694 1.9281409.93936539 1.3493204 2.51567417 2.2446638 4.21292883 2.3958748 2.39644792.2143321 4.21109458-.8619601 4.85652138-2.8773654.443751-1.390591 0-3.4309651-1.70115243-4.47190207-1.38371251-.84728604-2.87163337-.65466684-3.73476274-.08364181-.7487524.49642838-1.17277373 1.26792548-1.16532209 2.11523438.01728781 1.5029388 1.31194747 2.3017548 2.24282946 2.3041622.2704258 0 .5420668-.0470496.84828341-.1467744.10897739-.0331758.21151197-.0743937.32451325-.1443669l.03538957-.0207099.02232053-.014878-.00745164.0044251c.21211957-.1445618.33979485-.3796095.33979485-.6317387 0-.0687626-.00962981-.1385317-.02935947-.2087033-.10997476-.3806069-.48596166-.6108282-.8756252-.5398542l-.05267737.012466-.07118037.0217152-.10334854.0355879c-.21433214.0526786-.37478317.0573032-.4091639.0585103-.10897739-.0070389-.64480774-.1674899-.64480774-.7543927v-.0080478c0-.2155358.08646197-.3667354.13410662-.4493798.16668749-.2613807.6230948-.517935 1.23972387-.4642602.80928266.0699698 1.39276912.4849643 1.77922271 1.2679255.35869912.7278534.26479692 1.6231968-.24188028 2.2790559-.50326094.6498404-1.399189.9261014-2.59064916.7978186-1.20154853-.1329029-2.21714995-.8243579-2.78611144-1.9006272-.55675227-1.0521603-.58710911-2.2995766-.07862055-3.2578577 1.21622253-2.29613732 3.51362094-2.27217743 4.77329228-2.05447486 1.86405677.32330953 3.98467937 2.04278156 4.73683657 4.02835746.1214388.3164769.1833677.5674023.2374551.7968097l.0812229.3428099 2.1059486 1.0282348c.0452349.0220867.0605256.0295521.0786205.0160887.0217141-.0161563.0092859-.0607206.0092859-.0607206-.013069-.0470485-.0436322-.0904789-.0922857-.679796-.0400211-.5229677-.1214503-1.9547376.5993642-2.6642485.2798836-.2772698.7063354-.524779 1.0431152-.6039956 1.3802732-.33718108 2.9988844-.1045523 4.5291077 1.6667602.7921897.9148323 1.1783911 1.3320096 1.3722484 1.5188738 0 0 .0441298.0416708.0675578.0609224.0256004.0210365.0422771.0387359.0796179.0595145.0639534.0355868 2.6314612 1.2175982 2.6314612 1.2175982s.0304187.015112.0528723-.0126666c.0221967-.0274599.0011464-.05489.0011464-.05489-.0170929-.0195038-1.6277825-2.1011336-1.3410662-3.8151258.2257962-1.36525534 1.3122914-1.24155809 2.8153448-1.07186702.4905931.05730198 1.0491453.12143883 1.6274385.13431298 1.6145988.01026033 3.3536972-.28791997 4.4255872-.75680018.6934612-.30139024 1.1360085-.50205722 1.4132898-.75418637.0997259-.08263756.1514059-.21675106.205287-.36110655l.037797-.0953042c.044836-.1170137.1107887-.36352547.139747-.49864093.0116589-.05951454.0253126-.11778179-.0239255-.15581955-.0450137-.03477853-.1483909.0275447-.1483909.0275447-.4706915.28329995-1.6472713.81973789-2.7473629.84265456-1.3658286.02754585-4.1332536-1.38268075-4.4199698-1.53159894-.191897-.45692319-.3835647-.91396103-.5782245-1.36972635 1.9798439 1.30449583 3.6219564 2.0254708 4.878991 2.13667222 1.3994183.12466023 2.4903386-.63882349 2.9638044-.95648124.0619793-.04120643.1238004-.08733782.1806278-.13167624zm-5.6164742-1.87655262c.0200965-.54227315.2470964-1.04553409.643604-1.41466548.396691-.37035805.9142247-.56177352 1.4568533-.54447425 1.1189155.04001187 1.9981863.98460259 1.9597817 2.10228003-.0211054.54227315-.2481053 1.04553409-.643604 1.41351908-.396691.37257061-.913021.56398609-1.4581143.54568944-1.1177118-.04121789-1.9960082-.98360522-1.9585207-2.10228003z"/><path d="m15.4741934 16.1654421c-.8923168 0-1.3831393.7544271-1.3831393 1.2759847v.6695357c0 .7680579.62752 1.2439656 1.2094588 1.2439656h2.0427815c.2573568 0 .3112379.1684873.3112379.3106417v.4320806c0 .0458425-.0092859.4608324-.3112379.4608324h-2.7861114c-.2768686 0-.476928.1926192-.476928.4562125v.1194326c0 .2625844.2000594.4539998.476928.4539998h2.9375517c.767863 0 1.2633398-.5342253 1.2633398-1.3618161v-.7224195c0-.777103-.5583572-1.1245444-1.1126791-1.1245444h-2.0099943c-.302594 0-.4397156-.2269999-.4397156-.3874509v-.3989036c0-.2511318.1678797-.3967025.46144-.3967025h2.2249455c.2728447 0 .4781317-.1960355.4781317-.4552036v-.1192262c0-.260177-.2087033-.4564188-.4873717-.4564188h-2.3985115z"/><path d="m23.8269104 16.1654765c-.2637881 0-.4763089.2143321-.4763089.4781317v3.4206474c0 .2740484-.2235837.4942158-.4942158.4942158h-1.5528075c-.2716295 0-.4940094-.2201674-.4940094-.4942158v-3.4206474c0-.2637996-.2143322-.4781317-.4779254-.4781317h-.1501907c-.2676171 0-.4781317.2111222-.4781317.4781317v3.5501913c0 .8265705.6504366 1.4261296 1.5463876 1.4261296h1.6605696c.8947358 0 1.5447826-.5993642 1.5447826-1.4261296v-3.5501913c0-.2670095-.2097121-.4781317-.476928-.4781317h-.1511995z"/><path d="m26.7995421 16.1654421c-.8919156 0-1.384171.7544271-1.384171 1.2759847v.6695357c0 .7680579.6287236 1.2439656 1.2110637 1.2439656h2.0422083c.2577695 0 .311857.1684873.311857.3106417v.4320806c0 .0458425-.0092859.4608324-.311857.4608324h-2.7873725c-.2756534 0-.4769165.1926192-.4769165.4562125v.1194326c0 .2625844.2012631.4539998.4769165.4539998h2.9385835c.7680694 0 1.2657473-.5342253 1.2657473-1.3618161v-.7224195c0-.777103-.5599622-1.1245444-1.1142955-1.1245444h-2.0099943c-.303408 0-.4401284-.2269999-.4401284-.3874509v-.3989036c0-.2511318.1678912-.3967025.46144-.3967025h2.2262066c.2722371 0 .4767216-.1960355.4767216-.4552036v-.1192262c0-.260177-.2085083-.4564188-.4883805-.4564188h-2.3974797z"/><path d="m31.4963691 16.1654765c-.2647969 0-.4648563.1962418-.4648563.4564188v4.5120262c0 .2589732.1954279.4539999.4544011.4539999h3.595589c.2768686 0 .476928-.1914155.476928-.4539999v-.1194326c0-.2635932-.2000594-.4562124-.476928-.4562124h-2.9447741v-1.1486992h2.1577661c.276261 0 .476928-.1938229.476928-.4564188v-.1192263c0-.2637995-.200667-.4552035-.476928-.4552035h-2.1577661v-1.1830914h2.7951681c.2758597 0 .4769165-.1902003.4769165-.4552036v-.1192263c0-.2637996-.2010568-.4564188-.4769165-.4564188h-3.4355507z"/><g transform="translate(.079022 18.238821)"><path d="m.85453992.07439524c-.45059387 0-.8173423.35066297-.8173423.78295964v1.70123818c0 .43913298.3548854.79683334.78999702.79683334h1.10044635c.43511162 0 .78999702-.35770036.78999702-.79683334v-1.70123818c0-.4320956-.36694949-.78295964-.8173423-.78295964zm-.23806477 2.41663889v-1.55345304c0-.1821678.14959476-.33115935.33256683-.33115935h.85735488c.17895071 0 .33136042.15240971.33136042.33115935v1.55345304c0 .18337422-.14838835.33236577-.33136042.33236577h-.86378906c-.18337421 0-.32613265-.14577446-.32613265-.33236577z"/><path d="m5.20967749.05428842c-.31728565 0-.55655682.11340247-.74857697.20629599-.1170217.05609803-.21836008.10455547-.29697776.10455547-.03558907 0-.06595037-.01608546-.08203583-.04242539l-.07318883-.13994348c-.01829721-.03679548-.09168711-.10877791-.18236887-.10877791h-.10877791c-.10455547 0-.18819985.09389886-.18819985.20850774v4.315125c0 .13531891.10676723.24188506.24188507.24188506h.09409992c.1341125 0 .24309148-.10777256.24309148-.24188506v-1.43180677c0-.04242539.02754634-.08826895.05549482-.08826895.07861768 0 .17995606.04604462.29697776.09972984.19202015.08826894.43129132.19704685.74857697.19704685h.10153945c.5617846 0 .91124116-.32110594.91124116-.83684592v-1.64715083c0-.50789831-.35689609-.83584057-.91124116-.83584057h-.10153945zm-1.10084849 2.40316732v-1.48589412c0-.20529065.16045244-.36554202.36554202-.36554202h.80366966c.20529065 0 .36554202.16045244.36554202.36554202v1.48589412c0 .20167142-.1644738.36554202-.36554202.36554202h-.80366966c-.20126928 0-.36554202-.1638706-.36554202-.36554202z"/><path d="m7.84970317.07439524c-.45059387 0-.81633696.35066297-.81633696.78295964v1.68857088c0 .43792657.35548861.80929957.77491691.80929957h1.13543222c.14034561 0 .24188506-.09731702.24188506-.22941884v-.07439524c0-.13290609-.10153945-.22821242-.24188506-.22821242h-.93275546c-.26138868 0-.39932148-.12848259-.39932148-.37278048v-.4940246h1.68273991c.27063782 0 .43068812-.16507701.43068812-.4447629v-.65467811c0-.4320956-.36634629-.78295964-.81513055-.78295964h-1.06023271zm-.2378637.85755594c0-.18236887.14336164-.32552944.32593158-.32552944h.88389588c.18216781 0 .32432303.14316057.32432303.32552944v.52720087h-1.53435156c.00020107-.06876533.00020107-.52720087.00020107-.52720087z"/><path d="m12.064093.05428842c-.3162803 0-.5549483.11340247-.7475716.20529065-.1198367.0562991-.2221804.10556081-.3058248.10556081-.0367955 0-.0516745-.00462457-.0802262-.05408735l-.0665536-.1214452c-.038203-.07680806-.103148-.11561423-.1908137-.11561423h-.0934968c-.1130003 0-.1954383.08806788-.1954383.20850774v2.83043729c0 .1341125.105963.24188506.2424883.24188506h.0934967c.1341125 0 .2434936-.10897897.2434936-.24188506v-2.14137651c0-.20066608.1638706-.36554202.3645367-.36554202h.8040718c.2012693 0 .3651399.16487594.3651399.36554202v2.14137651c0 .1341125.1065662.24188506.2418851.24188506h.094502c.1341125 0 .2430915-.10897897.2430915-.24188506v-2.22280914c0-.50789831-.3570972-.83584057-.9118444-.83584057z"/></g><path d="m.67898224.0566019c.34015433 0 .611049.27276566.611049.61413602 0 .34632973-.27117394.61634018-.61384173.61634018-.34015434 0-.61663446-.27001045-.61663446-.61634018 0-.34109484.27648012-.61413602.61663446-.61413602zm-.00279273.09533023c-.2736874 0-.49766423.23198856-.49766423.51853027 0 .29205211.22397683.52100995.50045696.52100995.27648012.00303073.49766422-.22895784.49766422-.51825475s-.2211841-.52128547-.49766422-.52128547zm-.11617751.87588083h-.11059205v-.68466935c.05808875-.00826563.11338478-.01653126.19632882-.01653126.10528586 0 .17426626.02176615.21559864.05179793.04161165.02975625.06395348.07604376.06395348.14189324 0 .08981981-.06088148.14437294-.13544733.16641461v.00578594c.06088148.01074531.10221386.06529844.11617751.1664146.01675637.10662657.03295419.14740366.04412511.16916981h-.11617751c-.01675637-.02176615-.03323347-.0845849-.04691784-.17468023-.01675637-.08706459-.06088148-.1201271-.14941098-.1201271h-.07735858v.29453181zm0-.37939223h.08015131c.09132222 0 .1686808-.03251147.1686808-.11737189 0-.06006355-.04412511-.1201271-.1686808-.1201271-.0360262 0-.06088148.00275521-.08015131.00578594z" transform="translate(35.869164 20.450572)"/></g></g></svg>