<svg height="50" viewBox="0 0 50 50" width="50" xmlns="http://www.w3.org/2000/svg" xmlns:xlink="http://www.w3.org/1999/xlink"><linearGradient id="a" x1="54.638%" x2="28.129%" y1="26.924%" y2="79.519%"><stop offset="0" stop-color="#fff" stop-opacity="0"/><stop offset="1" stop-color="#fff" stop-opacity=".27451"/></linearGradient><g fill="none" fill-rule="evenodd"><circle cx="25" cy="25" fill="#fff" r="24" stroke="#0e83be" stroke-width="2"/><g fill-rule="nonzero" transform="translate(10 10)"><path d="m14.886.09684c-1.3149231 3.22356462-2.1133846 5.33496462-3.5769231 8.46281077.8972308.95123077 2.0003077 2.05523073 3.7896923 3.30646153-1.9236923-.7915385-3.234923-1.584-4.2152307-2.40876922-1.87338465 3.90923072-4.81061542 9.47584612-10.76676927 20.17800002 4.68-2.7018462 8.30861539-4.3689231 11.68984617-5.0049231-.1449231-.6235385-.222-1.3010769-.2164616-2.0049231l.0036924-.1476923c.0743076-2.9990769 1.6347692-5.3053846 3.4832307-5.1489231 1.848.1564616 3.2870769 2.7156923 3.2127693 5.7152308-.0143077.5649231-.0798462 1.1076923-.191077 1.6116923 3.3447693.6544616 6.9387693 2.3136923 11.5564616 4.9795385-.9106154-1.6763077-1.7261539-3.1869231-2.5024616-4.6264616-1.2226154-.9475384-2.4973846-2.1803077-5.0986154-3.5155384 1.788.4647692 3.0692308 1.002 4.067077 1.6010769-7.8913846-14.69307692-8.5292308-16.64676923-11.2352308-22.99758z" fill="#1793d1"/><path d="m23.1996923 17.6533846c-6.4024615-8.6893846-7.8863077-15.69323075-8.2624615-17.3653846 3.4153846 7.87707692 3.3918461 7.974 8.2624615 17.3653846z" fill="#fff" fill-opacity=".16568"/><path d="m14.9436923.21227077c-.1661538.40822154-.3230769.80621538-.4763077 1.18269231-.168.4128923-.3313846.8106923-.4901538 1.19713846-.1587693.38644615-.3198462.75272308-.4758462 1.125-.1564615.37223077-.3018461.74026154-.4615384 1.1106-.1596924.37015384-.335077.74446154-.5049231 1.12476923-.1698462.38076923-.3470769.76523077-.5335385 1.16861538-.1864615.40292308-.3821538.83123077-.5916923 1.26923077-.0281538.05907693-.0572308.12738462-.0863077.18738462.8949231.948 1.9984616 2.04323076 3.7786154 3.28846156-1.9232308-.7915385-3.2307692-1.584-4.2115385-2.40876925-.0507692.10430769-.0913846.19615384-.144.30276923-.1938461.40200002-.402.79984612-.6203077 1.24061542-.0521538.1033846-.0904615.1970769-.14399995.3027692-.23123077.4633846-.47353847.9429231-.73569231 1.4566154-.05215385.1015384-.10523077.1855384-.15876923.2884615-.15830769.3078462-.66461539 1.2784616-1.18246154 2.2647692-.30230769.576-.53953846 1.0476924-.88015385 1.6873847-.09646154.1836923-.29492307.5515384-.34615384.648923 3.75000002-2.1106153 7.79584612-5.1766153 15.14446152-2.5527692-.3678461-.6969231-.7209231-1.3472308-1.0384615-1.9615385-.3175385-.6147692-.6055385-1.1866153-.8796923-1.7307692-.2741539-.5441538-.5275385-1.0573846-.7647693-1.5433846-.2367692-.486-.4564615-.94476923-.6632307-1.38461538-.2067693-.43984616-.4084616-.86307693-.5912308-1.26923077-.1832308-.40569231-.3535385-.79846154-.5192308-1.18246154-.1656923-.38446154-.3207692-.76523077-.4763077-1.13953846-.1550769-.37453847-.3101538-.73366154-.4615384-1.1106-.0655385-.16403077-.1213846-.33867693-.1873846-.50483077-.4098462-.96226154-.8118462-1.91607693-1.2978462-3.05769231z" fill="url(#a)"/></g></g></svg>