<svg height="50" viewBox="0 0 50 50" width="50" xmlns="http://www.w3.org/2000/svg"><g fill="none" fill-rule="evenodd"><circle cx="25" cy="25" fill="#fff" r="24" stroke="#ffb515" stroke-width="2"/><path d="m8 10h30v30h-30z"/><g fill-rule="nonzero" transform="translate(8 10)"><ellipse cx="3.085545" cy="14.93097" fill="#ff6309" rx="3.081298" ry="2.882705"/><ellipse cx="24.642894" cy="26.966697" fill="#ffb515" rx="3.081298" ry="2.882813"/><path d="m17.4567851 7.73529541c3.7434943 0 6.849576 2.68867659 7.3638323 6.17444489h5.1508238c-.2339208-2.7390043-1.4079817-5.29191548-3.3707645-7.30535214-1.2571071.61925977-2.8028108.63110799-4.115898-.10195991-1.3140655-.73393751-2.0765909-2.03561132-2.1496369-3.39967851-.9446226-.21275065-1.9099637-.31986089-2.878248-.31936023-1.8794105 0-3.695558.39686281-5.3474608 1.14927919l2.5786728 4.32025266c.882698-.34312956 1.8216352-.51867111 2.7686793-.51762595z" fill="#ff6309"/><path d="m24.8209435 15.9489387c-.5130606 3.4870727-3.6195771 6.1773797-7.3641584 6.1773797-.9785109 0-1.9133247-.1841365-2.7696576-.5182781l-2.5791076 4.3205788c1.651468.7528511 3.4683764 1.1499296 5.3485478 1.1499296.9820979 0 1.9472388-.1096776 2.8805307-.3200107.0717416-1.365589.8345931-2.6695455 2.1495282-3.4038091 1.313522-.7337201 2.8598779-.7218718 4.1172024-.1013077 1.961261-2.013654 3.1340175-4.5664565 3.3672861-7.3044825z" fill="#c90016"/><path d="m10.0179502 14.9308613c0-2.2924677 1.1140589-4.3377533 2.8456383-5.65627546l-2.5780207-4.31960046c-.60901538.41151592-1.18101635.87531425-1.70951346 1.38613314-1.49200624 1.44309157-2.56193319 3.18564964-3.15075716 5.08734348 1.18623518.7432856 1.97169614 2.0334373 1.97169614 3.5023993 0 1.4687446-.78556966 2.7592224-1.97180484 3.5021819.58882397 1.9018025 1.65875093 3.6441432 3.15075717 5.0874521.52807562.5105926 1.09960009.9742424 1.70810035 1.3856984l2.5784555-4.3199266c-1.7311446-1.3184135-2.8445513-3.363699-2.8445513-5.6554058z" fill="#ffb515"/><ellipse cx="24.640394" cy="2.890351" fill="#c90016" rx="3.08119" ry="2.882922"/></g></g></svg>