<svg height="50" viewBox="0 0 50 50" width="50" xmlns="http://www.w3.org/2000/svg"><g fill="none" fill-rule="evenodd"><circle cx="25" cy="25" fill="#fff" r="24" stroke="#a80030" stroke-width="2"/><path d="m7 7h36v36h-36z"/><path d="m14.1213681.25655181c-.2860797.1599048-.5695473.28437615-.8376831.47255957 1.0878751-.25961817 1.035747.10607321 2.1474715-.04043048-.3898815.05667081-.8638039.21123788-.7881671.27029363 1.2427828.14411874 1.4326697-.38420309 2.5825533-.00113569l-.072684-.33957056c1.5972309.57670211 1.9316909.47880585 3.6672485 1.39939413.6100914.02952788.6703964-.37534472 1.5913254-.00068141.161949.28437615-.0369099.33684491 1.0934399 1.00985333.1260613-.05008382-.2249797-.36977985-.5031096-.62417385 2.2728514 1.21518562 4.7435396 3.8050074 5.4968411 6.57676631l-.0017212-.00287498-.0644169-.11647985c-.5772035-1.01612749-.0534368.65599379-.2273976.68388515l-.0213904-.0035007c.3142447.84790429.5718186 1.72431429.731042 2.62900299-.2087394-.7420582-.6636958-2.5333781-1.4614027-3.68928084-.0650749.74603312-1.0281379-.51469357-.5018603 1.12705628.4012384.58135846.081656-.58976252.5761343.44359956.0076091.4911848.1951111.9793033.3040235 1.6194904-.169331-.0278244-.3773889-.7075334-.5017467-.5184414.1716024.8052024.4535936 1.2249525.5611432 1.2867339-.0550809.1346926-.1978368-.1258341-.2074901.4217944.0657563 1.2607267.3534259.7287707.4889135.788735-.1374182.6203125-.6929966 1.3503324-.4188416 2.4176515-.0785896-.3232167-.2319074-.6488183-.3487696-.9551132-.108231.9112757.2018116 1.0887836-.2190741 2.1932397.3033421-.9955436.27018-1.8938725-.015559-1.4611755.1264021 1.4150666-1.1193336 2.5014653-.984641 3.3961599l-.3623979-.4990211c-.981234 1.4225622-.0224866.7835108-.6908387 1.8613918l.0045701-.009728.0445474-.0829741c.1258385-.2677068-.1019043-.1494375.0752767-.455947l.0660606-.1055069c-.2116922.0122654-.9444377.9009409-1.6151748 1.4232436-2.6366121 2.113628-5.7842836 2.3898272-8.8313331 1.2515276l-.0043768.0066568c.0157124-.0656203-.0020584-.1302579-.1259794-.2294935l-.0876958-.0639244c-2.5827805-1.9795033-4.1095988-3.662365-3.579687-7.5573189.39397-.297323.4987939-1.9220375 1.4028012-2.4912441.550922-1.2171163 2.2015302-2.33860769 3.9659343-2.36643204 1.8013139-.09925908 3.3212045.96101874 4.0848408 1.96133234-1.3900815-1.2955923-3.6653178-1.689903-5.6059806-.7291114-1.9841597.8923097-3.1606184 3.0779403-2.989016 5.2539175.0735926-.1085717.1390082-.0415661.1745552-.3100427-.0607593 4.2293003 4.5572868 7.328705 7.8818984 5.7647498l.0394083.0875615c1.3480611-.3677356 1.1738466-.6709642 2.0552537-1.2762856-.0196312.0405602-.0765129.0991154-.1404564.1622357l-.097438.0964259c-.1269162.1286565-.2217021.2487149-.0428475.2527385.428722-.1137959 1.768379-1.3603265 2.426737-1.9456599.3020929-.6514303-.1605862-.3525174.2612081-1.1714616l.515375-.257574c.2864204-.8282568.6039586-1.2961601.5685252-2.2605859l-.3014365.6331728.0967396-.3360407c.2778149-1.1316179.129563-2.3274338.1433306-3.4044757l.0095789-.3193663-.1231085-.0331621c-.108231-3.17424656-2.8519384-6.54780627-5.2941208-7.68905864-2.1046561-.97237564-5.3448861-1.138981-6.8418358-.40657613.2061273-.18250498 1.0271158-.25916389.779763-.39987557-2.3438318.23292951-1.820507.8173543-3.6171647 1.27628562-.2007601.19386606.000838.1664304.239992.10755116l.1319796-.03409317c.3064106-.08150159.5662157-.15802044.0273362.16185646-.96374445.26575087-1.41279529-.16796819-2.84069518 1.30978839.12708343.20578657.90627862-.60781995.2562111.20873936-1.34204192-.16660535-4.23986215 3.07033116-4.85506406 4.14355582l.32185383.0554216c-.52832182 1.3234166-1.2229083 2.1674596-1.3173975 2.9601694-.13650963 1.9496348-.81735429 5.5044502.12810555 6.5975494l-.09164998.9127521c.12980908.2587096.22770535.5225298.38897297.7654534l-.21044289.0169217c.99463511 3.1371096 1.06822766.0583743 2.38142312 3.3166618-.1904548-.0641664-.38295383-.1341247-.66040229-.508788-.03316207.285739.40385048 1.1432966.92388179 1.8122165l-.21998267.2515548c.28937317.5257097.55614617.6408685.75693572.8243956-1.08049309-.5897626 1.00213065 1.9436155 1.19031406 2.2664915l.16603752-.2956195c-.02396301.4249743.30493209.9739656.92217825 1.7355577l.51367145-.0202153c.21169215.4183873.98600389 1.1744145 1.45561071 1.2099615l-.3123141.4078254c1.1786165.3733005.5723865.4951597 2.0212966 1.0079226l-.292326-.5167378c.7386512.6410956.9672651 1.2018981 2.0103941 1.693083 1.4457301.5041316 1.6376613.3045913 3.1220049.7291113-1.2581146-.0365691-2.7371204-.0229409-3.731642-.3786382-6.78550566-1.8378831-12.99317354-9.7976896-12.53912567-17.995877-.10459682-1.6600344.16524253-3.7340269-.11129738-4.14719.38795085-1.2629981.83700169-2.8032175 1.74100894-4.63598996-.00769596-.01444327-.0115235-.02051939-.01153792-.02127247l.01134078.01066585c.04911737.0445181.2570028.18532212.60847136-.41357266.27869771-.61224913.50606235-1.2865068.85744406-1.88160705l.18057432-.042134c.18080145-1.0499431 2.45047292-2.66034797 3.12563913-3.47122885l.04656319.30970198c1.47378167-1.38190455 4.10005899-2.3080577 5.57872409-2.96777857-.3881779.42974415.869596-.04281542 1.7762153-.09789626zm-2.5981123 20.19638509c.3156076.0685955 1.3964414 1.7550915 2.2055051 2.0292464-.478238-.3832945-.848245-.8710723-1.1909955-1.3729326.6460927.7427396 1.4318748 1.3493103 2.2901139 1.7512301-.0183603-.0695419.0018423-.1205217.0218809-.167741l.0141226-.035188.00444.0251226c.0583886.1580683.5351416.5275307.9404849.7544453l.0995647.0535541c1.1607862.4290628 2.4733002.4459845 3.5063216.407939-2.2326481.9337622-6.4967004-.9485262-7.8914382-3.4456759zm-.7513708-.6199718c.4922069.9501161.7596613 1.2403979 1.1196743 1.9433884-.500384-.4162294-.8114488-.9929315-1.2032609-1.5252283zm17.3215057-3.5999023c-.1592234 1.2239305-.5392244 2.4317341-1.1267156 3.5361902.5317289-1.0466496.8785679-2.1756365 1.0391541-3.3165482zm-9.3370548 2.7052077c-.1864647.1770272-.3813874.3449268-.5840841.5031095-.7785137-.119815-1.487637-.4188415-.8912875-.427132.4970904.045541.9905466.0428154 1.4753716-.0759775zm2.4305984-2.3034014c-.0913093.5548969-.3501324 1.0915092-.7052619 1.5815584.0433832-.4213401-.9905467.1826185.2080579-1.3260287-.1041425.4250878-1.1139958 1.54374.0006814.8418851.2020388-.3603536.4167973-.7018549.4965226-1.0974148zm.1694446-1.8172136c.0953977-.4098696.3787518-.7493266.3066356.3244659-.107436.4324698-.1953382-.266773-.3066356-.3244659zm-21.03520389-4.3811417c-.07143474.3318479-.10527823.676302-.29209882 1.2497106.054513-.4490509-.22429828-.589649.29209882-1.2497106zm.66410169-2.68723756c.04619075.24882925.57490093-.3497476.16086171.58292224-.06759233.04726353-.1244122.08826973-.17183944.1232355l-.11548371.08699288c-.30021847.23101776.20084055-.12031979.12332988-.83712788z" fill="#a80030" fill-rule="nonzero" transform="translate(10.5424 7)"/></g></svg>