<svg height="30" viewBox="0 0 30 30" width="30" xmlns="http://www.w3.org/2000/svg"><g fill="none" fill-rule="evenodd"><g fill-rule="nonzero"><path d="m0 0h30v30h-30z"/><path d="m11.3560667 8.21017245-.0449791-3.06496296 1.8237565-1.06813796 2.7079312-1.82360082 1.1131171-.04529042 1.1582519 1.24494179.6239495 4.13652493-.8458881 1.51170392-3.5125755-.09026956z" fill="#fff"/><path d="m7.75353296 16.9722343.93273362-2.624821 1.82375642-2.1775198.9327336-1.8687356.4021665-.62083666 6.6676524-1.02284754 1.3350557 2.0908299 3.7345141 8.9354417-1.2902322 1.5982381-3.3804395 5.6519642-.7973293.1766482-6.1823756.1768038-4.31332881-4.8021851-.71095063-4.0012763z" fill="#fff"/><path d="m16.2902322 10.1693333s-.2219386-.0451348.3987425-.18038354c.624105-.13166905.6273734-.26349374.8007532-.44387723.1769595-.17680384.2672291-.57912594.2672291-1.02284754s.2219386-1.73364253.1766482-2.0872502c-.0413995-.35718733-.8009089-1.68866339-1.1095375-1.86889124-.3118969-.17680384-3.7793376-.48901202-3.7793376-.48901202l-1.0679823.84619934-.8009089.75235012.1802278 2.4028824s-.2253626.75577414-.1802278 1.06440267c.0451348.31205254.4922804.66923987.6690842.8460437.1768039.18038354.8426197.89460254 1.0644027 1.11296144.2253626.2219386.2704974.4438773.8009089.2669178.5339912-.1768038.8460437-.1768038 1.2483658-.4888564.3987425-.3120525 1.3316317-.7106393 1.3316317-.7106393z" fill="#fff"/><path d="m14.2443815 6.38999564c.1352487-.35718732.3120525-1.02284754.6206811-1.24478615.3118969-.22193862.9812924-.40559049 1.3801905-.35718733.4021664.04513478 1.1545166.44387724 1.3347444.75577414.1769595.31205255.1769595 1.5568387.1769595 1.5568387l-.0902696 1.02284754-.6206811-.04497915-1.3347444-.53414679h-.2219386s-.2219386.0866899-.8911785-.26691777c-.6658158-.35703168-.489012-.5304115-.3537633-.88744319zm-1.42159.97771276c.0208554-.02085538.0624105-.0485588.117973-.07984187.2703418-.14910042.8597398-.36745938.8597398-.36745938s.5755463-1.46314512.0866899-2.04227106c-.4854324-.57897031-1.5532591-.48885638-1.5532591-.48885638s-1.1545166.66581585-1.1129614.93273361c.0451347.2670734.0901139 1.19965138.1352487 1.33147607.0417107.1352487.2219386 1.55683869.2219386 1.55683869l.3987424-.17680383.579126-.44387724c-.0001557 0 .1349374-.0866899.2667621-.22193861z" fill="#fff"/><path d="m21.314356 20.7965511.6448048.0485588c.0936936.0070037.1872315.010272.2809251.0138517.4784287.0172757.8981822.0901139 1.3454834.1456764.2949325.0348627.7836332.2220942.8183403.5929776.0485588.5479985-.1109693 1.1510926.353452 1.3766109.4751603.3224802 1.5359834 1.0679823 1.5359834 1.0679823l.3122081.5753907-.9325779.8461993-4.5804022 2.7564901-2.0874058-.710795v-1.6886634l.0866899-2.2674781-.2219387-2.0458507.3537634-.8009089.8910228-.2670734zm-13.24519084-.9985682c-.04513478-.0417107-.85647139.1978149-.90845421.2080869-.37788707.0554069-.85631576.3154766-.85631576.7282264 0 .2115109-.01727572.4300255-.11439332.6206811-.07626222.1489448-.24964204.3743074-.24621802.4230218-.05898649.1629522-.16637614.3917388-.31547656.4888564-.17337982.0174314-.9431613.0868456-.9431613.0868456h-.66923987l-.39874245.4852767.31205254 1.2935006-.09026956 1.0194235-.30862853 1.1579406.75235012.3987424 5.69336363 1.511704 1.28992093-.3987425.6656602-1.6469526-.1352487-.6206811-.6205254-1.2447861c0-.0001557-2.70450727-3.9285937-3.10667374-4.5111437z" fill="#fff"/></g><path d="m10.967752 5.84199714c-.093538-3.10309407 1.1165411-4.47285688 3.6302372-4.51783602 2.5104277-.0485588 4.0845421 1.27591359 4.4070223 3.01313577.3189006 1.73364254.1352487 4.01855196.7766295 5.20450726.6381125 1.18922365 1.0472826 2.10110195 2.1463924 3.47070905 1.0955301 1.3696072 1.7786216 2.7634938 2.0978335 4.4554255.322169 1.6886634.5027081 2.4861483-.3192119 3.3563158-.8216086.8667434-2.2813297 2.2814854-3.3771711.6830916-.5511112-.8009089-.6100977-1.7960531.3192119-2.0074084.592822-.1388283 1.0192678-.0936935 1.4597211.1350931.4438772.2289423.5478428.1212414.0172757-.2739214-.5341468-.3953185-.6413808-.0312831-.457729-.6692399.1839632-.6381124.4231775-1.785781-.0762622-3.0478429-.2322106-.5823943-1.0192679-2.1773641-1.7579219-2.5692585-.0659902-.0381311-.2599141-.1178173-.128245.0451348.1976592.246218 1.2620618 1.8133288 1.5636867 2.7460624.3224802 1.0021478.3674594 1.9591608.2012389 2.5658345-.1662205.6102534-.457729.8528917-.8079126.8528917-.3501837 0-.6690843.1663762-.6690843-.6379568 0-.8079126.0832659-2.0249953-.3501836-3.0548465-.4334496-1.0262716-.9605927-1.7336425-1.0748304-2.1670921-.1109693-.4334495-.364191-1.5983938-.8875988-2.26063-.5271431-.6622362-.7559298-1.0956857-.482164-1.85145988.2739215-.75235012.0692586-.95701301-.4784287-1.11654112-.5478428-.15937247-1.2794932-.38831476-1.4597211-.75577414-.1838075-.36403536-.0692585-1.09568574.3399116-1.27591359.4124386-.18380751 1.0955301.06583453 1.1198095.59297765.0242794.52356347-.2289423.7974849-.1592168.91187823.0692585.11439333.4331383.29820083.6171014.09369358.1802279-.20808691.2289423-.84619934.0449792-1.43902135-.1839632-.59297765-.2739215-1.00557181-.9363133-1.14082052-.6620806-.13882836-.9602814-.09369358-1.2793376.31890058-.3190562.40917014-.4575733 1.07140634-.3640354 1.55341468.090114.47842868-.0936936.20450725-.4125941.18022785-.3190563-.02085538-.2287867-.04513478-.5478429-.02085538-.3190562.02085538-.2045073-.18380751-.2289423-.52698749-.0208554-.34333561-.0658345-1.05055095-.5478429-1.32447239-.4785843-.27392143-1.300193.04513478-1.2794932 1.18937932.0242794 1.14082052.4125942 1.68850775.6415364 1.27591359.2287867-.40917014.1143934-.20450725-.1143933-.38831476-.2287866-.18022785-.3883147-.93615763-.1386727-1.16152026.253066-.22878666.5478429-.22878666.710795-.09353795.1595281.13867273.4091701.59640167.3640353.89102285-.0451347.29820083-.0694141.31905622-.3640353.52698749-.2982009.20450725-.4125942.38831476-.7557742.61367739-.3433356.22878665-.4784286.75592978-.2045072.89117849.2739214.13867272.2982008.11439332.5235635.45772894.2287866.34333561.6171014.50270809 1.5775384.34333561.957013-.1595281 1.3521758-.38831476 2.0769782-.64153645.5271431-.18038349.3431799-.1595281.5271431-.36403536.1802278-.20450725.4784287.09011393.2045072.27392144-.2739214.18380751-.8913341.36403536-1.3487518.52356347-.4543049.16295212-.9812924.61725708-1.9383054.57212228-.960437-.0451348-.2982008-.0242794-.5964017-.0451348-.2947768-.0242794-.4334495.0208554-.1143933.249642.3224803.2289423.2982009.2982009.5721223.3883148.2739214.0936936.6379568.0936936 1.0748303-.0658345.4334496-.1629522 1.529291-.6415365 1.8724709-.87032313.3399116-.22878665.6136774.06941418.2739215.29820083-.34318.2287867-.4368736.1595281-.7559298.3640354-.3189006.2080869-.9118782.5478428-1.300193.9153022-.3883148.3640354-.4784287.3883148-.960437.4091702-.4784287.0242794-.7766295-.4784287-.9812924-.7072154-.2045073-.2289423-.1838075-.3640353-.4334496-.6381124-.249642-.2739215-.2739214-.2080869-.3190562.0901139s-.3883148 1.050551-.6865156 1.5534147c-.2947768.5027081-.3190562 1.1199651-.2739214 1.5534147.0451348.4334495-.0692586.4784287-.4090145.9811367-.3433356.5027081-.91545791 1.9867086-1.00557184 2.465293-.09026956.4784286-.20450725 1.4631451-.1595281 2.0318433.04513478.5721223-.11439333.6865156-.52698749.2982009-.40917014-.3883148-.54799851-.8217644-.52356347-1.3938866.02085538-.4888564.08668991-.832192.14910042-1.0124199.06241051-.1802278.00342402-.3050488-.12824504-.0831102-.28092511.4852767-.29477681 1.3244724-.22536263 1.6226732.06583452.2947768.09011392.8217643.84261968 1.5289796.75577414.707371 1.85145987 1.6886634 2.76349377 2.3508996.9153022.6622362 1.2343584 1.4840005-.1143934 2.0769782.8460438 1.1442445 1.3036171 1.7370665.9361577 2.4894167.7557741-.4334496.464577-1.4561415.1005416-1.7302186-.367615-.2739214-.1456764-.4852767.1733798-.2771898.3190562.2045073.4334496.6136774 1.6920874.592822 1.2550582-.0241237 2.6073897-.1489447 3.3634751-1.2482101.7523501-1.0956858.8980265-.1733799.7140634.4681566-.1802279.6379568-.6311088 2.0804022.0762622 1.9451535.0902695-.8461994.2982008-1.5776941.2982008-2.4895724 0-.9154578.0902696-1.3557554.021011-2.6802278-.0695698-1.2760692.4818527-1.3627591 1.050551-1.3627591.5721223 0 .3881591.3674593.0242794.3431799-.3674594-.0241237-.7526614.114549-.7766295 1.0507066-.0242794.9361577 0 .8460437.1592168 1.6886634.1595281.8460437.1839631 1.0956858.0452904 2.0318434-.1352487.9363132-.2497977 1.4388657.3674594 2.0111436.6136774.5721223 1.5496794.4091701 2.0318434.0449791.4784287-.3640353 1.3904625-1.2099234 2.2120712-1.4840004.8253439-.2739215 1.692243-.4784287 2.1496607-.9361577.4544606-.4575733.3399116-.7766295-.1386727-1.0264272-.4784287-.253066-.9363133-.1386727-1.300193-.5478428-.3677707-.4125942-.5479985-1.3246281-.4127498-1.8064808.1386727-.4784287.2982008-.2739214.2982008.0694142 0 .34318.021011.6622362.364191 1.0955301.34318.4334496.6620806.6415365 1.2100791.9812924.5478428.3433356.8910228.8911785.2045072 1.3730312-.6830915.4784287-1.0715619.7525058-1.6436842.9812924-.5686983.2289423-1.5047003.7766295-2.0771338 1.3454834-.5721223.5721223-.8910228 1.0748304-2.0108323 1.0748304-1.1165412 0-1.6296769-.2704974-1.9624292-.9363133-.2289423-.4575733-.3434913-.3881591-.8668991-.4124385-.5271431-.0208554-2.2850651-.0451348-3.6545166-.0208554-1.3696072.0208554-1.8271805.249642-2.4444375.7523501-.6136774.5027081-.8426197.8911785-2.007564.5027081-1.16494428-.3884704-1.78220133-.8217643-3.51584387-1.1649443-1.73722218-.3431799-.80090892-.1838075-1.85161551-.4125941-1.05055096-.2253627-.98129241-.7282264-.84246405-1.1406649.13524871-.4091701.47842869-1.0507066.18022785-1.8931706-.29477681-.8461994-.18022785-1.7129428.61710142-1.7129428.80090892 0 1.55341468.1595281 1.87231526-.8911785.31905621-1.050551.41259416-.2287867.31905621.0451348-.09011392.2739214-.13524871 1.0262715-.84261968 1.1408205-.70737098.1142377-.86674345-.0451348-1.30377265-.0451348-.4332939 0-.61367739.2982008-.38831476.8009089.22878665.5025525.48185271 1.0262716.43687356 1.4597211-.0485588.4332939-.09369358.5929777-.41259416 1.0054162-.31905621.4091701-.27392143.617257.29820084.7525058.56854261.1388283 1.59839382.4125941 2.55540683.6415364.96043703.225207 1.02985121.225207 2.69407956.6622362 1.66780805.4332939 2.12553695-.3433356 2.26078565-1.2794932.1386727-.9363133-.5027081-1.8273362-1.0956857-2.7185146-.5929777-.8911785-1.23124575-1.9169832-2.00803091-2.8532964-.77662952-.9361577-1.23435846-1.0055718-1.62267322-.800909-.3884704.2080869-.45772894.1629522-.47858432-.3640353-.0242794-.5235635-.06941419-.8667435.36403536-1.6435286.43344954-.7766295.8217643-1.6228289 1.27949324-2.9230219.45757331-1.300193.86674345-1.553259 1.64352861-2.6732242.77678514-1.1163854.43344954-.6830915.98129244-1.4354417.5478428-.7557741.3883147-.617257.3433356-1.80648069-.0451348-1.1859553-.0901139-1.87247089-.1352487-3.42588557zm-2.18094381 9.28546966c.11797298.1422524.28434913-.1940795.45772895-.3223245.15199771-.1371226.22273658-.3428121.18723152-.5444189-.01727573-.1073897-.19081118-.0728382-.22536263-.0347071-.10738966.1073897-.08326589.2809251-.15952811.4300255-.08668991.1802279-.37788707.3259043-.26006973.471425zm9.81603681-4.7710577c.2462181.2080869.3987425.3884704.5338356.0798419.138984-.3086285.138984-.4334495-.193924-.55827055-.3294839-.12840067-.4784286-.26349374-.6276847-.43344954-.1489448-.17337982-.2009276.121397-.0796862.40917014.1489447.35376335.2356347.39531845.3674593.50270805zm-5.1455207-2.83275225c-.1699558-.03470709-.3744631-.02085538-.489012.11439333-.0451348.04513478-.0242794.17337981.0554068.20808691.1039656.04513478.1733798-.05883086.1942352-.13867273.0104277-.03470709.0242794-.07968624.0589865-.09011393.0451348-.0242794.1109693-.00342402.1595281-.0242794.0555625-.02085538.0347071-.06941418.0208554-.06941418zm.8079126.03128307c.0694142.10396564.1942352.10396564.2982008.14910042.0554068.0242794.1699558.05898649.2045073-.02085538.0798418-.25306605-.2634938-.17337982-.4230219-.17337982-.0345514 0-.1143933-.01027205-.0796862.04513478zm1.6645396-1.10611342c.1559485.00684803.3674594.28434912.3881591.60682936.0032684.04855879.1352487.04497914.1629522-.00342402.0729938-.12824504.021011-.27049742-.0136961-.42302185-.0280147-.12482102-.1769595-.25306606-.3017805-.30862853-.0832659-.04171076-.1699558-.05540684-.2809251-.04171076-.0277034.01400734-.1246654.1595281.0452904.1699558zm-3.4016062-.07968624c-.1422524.01027205-.0901139.12124136-.0832659.21135529.1976593.11096931.214935.36061134.2564901.55827056.003424.07626222.1178174.04171076.128245.01743136.08669-.15952811-.0208553-.33975596-.0588308-.52698748-.0347071-.0971176-.1005416-.20808691-.1908112-.27392144-.0136961-.01385171-.0381311.01385171-.0518272.01385171zm4.361732-3.49856814c-.1422524-.11439332-.364191-.15952811-.4298699.02770342-.0692586.15952811-.0417108.32248023-.0799975.49586005 0 .05540684-.0692586.06925855-.1072341.12124136-.0555624.06583453-.0417107.14910042-.0140073.17337982.1319803.13524871.3744631-.13182469.5514225-.22536263.1316691-.08326589.322169.0242794.4681567-.06925855.0413994-.02770342.0552512-.09369358.013696-.1456764-.0935379-.16295212-.25649-.25649007-.4021664-.37788707z" fill="#11223f"/></g></svg>