<svg height="30" viewBox="0 0 30 30" width="30" xmlns="http://www.w3.org/2000/svg"><path d="m7.80026397 10.9093655c4.79102503 0 7.78706553 3.3372906 7.80026393 8.653212 0 5.3159214-3.0092389 8.653212-7.80026393 8.653212-4.79102508 0-7.80026397-3.3372906-7.80026397-8.653212s3.00923889-8.653212 7.80026397-8.653212zm15.95688513 0c3.4579851 0 5.8732952 1.9918217 5.9656842 4.84105h-2.3625165c-.158381-1.7148133-1.5706116-2.7700831-3.6559613-2.7700831-2.0853498 0-3.5239771 1.0684606-3.5239771 2.6117926 0 1.2135603.9106907 1.9390582 3.1148262 2.4930748l1.808183.4484897c3.4447866.8310249 4.8570172 2.1896847 4.8966124 4.6168052 0 3.1130457-2.4681038 5.0521039-6.3880334 5.0521039-3.6559613 0-6.150462-1.9126764-6.3220414-4.9201952h2.3757149c.1847778 1.7280042 1.8477783 2.8624192 4.1179059 2.8624192 2.1777386 0 3.7483502-1.134415 3.7483502-2.6909379 0-1.3454689-.950286-2.163303-3.1544215-2.7173196l-2.1513418-.5276349c-3.1016278-.7650706-4.50066-2.1764938-4.50066-4.4848964 0-2.8360375 2.4945007-4.8146683 6.0316762-4.8146683zm-15.95688513 2.1237304c-3.28640563 0-5.34535856 2.5194565-5.34535856 6.5294816 0 3.9968342 2.05895293 6.5162907 5.34535856 6.5162907 3.27320723 0 5.33216013-2.5194565 5.34535853-6.5162907 0-4.0100251-2.0721513-6.5294816-5.34535853-6.5294816zm8.92212933-11.1330959c.3431588 0 .633524.05276349.9106907.13190872.2771668.07914523.5015398.19786308.6995161.35615354.1979762.15829046.3431588.34296267.4487461.56720749.1055874.22424483.158381.46168052.158381.73868883v3.7593985h-1.0426748v-.91017017h-.0263969c-.0791905.1450996-.1847778.27700831-.316762.43529878-.1319841.11871785-.2639683.22424482-.4091509.30339005-.1451825.09233611-.316762.15829046-.4883414.19786308s-.3563572.06595436-.541135.06595436c-.2771668 0-.5279367-.03957262-.7523098-.11871785-.224373-.07914523-.4223493-.1846722-.5807303-.32977179-.158381-.1450996-.2903651-.31658093-.382754-.51444401s-.1319842-.4221079-.1319842-.67273447c0-.48806226.1847778-.85740667.5411351-1.13441498.3563572-.27700831.8710954-.43529878 1.5574131-.47487139l1.4782226-.07914523v-.4221079c0-.31658093-.1055873-.5672075-.3035636-.72549796-.2111746-.17148133-.4883414-.25062657-.857897-.25062657-.1451826 0-.2771668.01319088-.4091509.05276349-.1319842.03957262-.2507699.09233611-.3431589.15829046-.0923889.06595436-.1715794.15829047-.2375715.25062657-.065992.0923361-.1055873.19786308-.1319841.31658093h-1.0294765c.0131984-.2374357.0659921-.46168052.1847779-.67273447.1187857-.21105395.2639683-.38253529.4619445-.54082575.1979763-.15829046.4223493-.27700831.6863177-.35615354.2639683-.0923361.5543334-.13190872.857897-.13190872zm5.9524857 0c.3563573 0 .6731192.05276349.950286.15829046.2771667.10552698.5279366.25062657.7259129.4221079.1979762.18467221.3563572.38253529.475143.61997098.1187857.2374357.1847778.48806227.2111746.7518797h-1.0426749c-.0263968-.14509959-.0791905-.27700831-.1451825-.40891703-.0659921-.13190871-.158381-.23743569-.2639684-.32977179-.1187857-.09233611-.2507699-.15829047-.3959525-.21105395-.1451825-.05276349-.3167619-.07914524-.5015398-.07914524-.224373 0-.4223493.03957262-.6071271.13190872-.1847778.09233611-.3299604.22424483-.4619446.38253529-.1319841.15829046-.2243731.35615354-.2639683.60678011-.0659921.23743569-.1055873.48806226-.1055873.77826144s.0395952.55401662.1055873.79145232c.0791905.23743569.1715794.43529877.3035636.59358923.1187857.15829046.2771667.29019918.4619445.36934442.1847779.0923361.3827541.13190871.6071272.13190871.3563572 0 .6467224-.07914523.8710954-.25062656.2243731-.17148134.3695557-.40891703.4355478-.73868883h1.0426749c-.0263969.27700831-.1055874.54082575-.2375715.77826144-.1319842.2374357-.3035636.43529878-.5015398.60678011-.2111747.15829046-.4487462.30339006-.7259129.38253529-.2771668.07914523-.5807303.13190872-.9106908.13190872-.382754 0-.7391113-.06595436-1.0558732-.19786308-.316762-.13190872-.5939288-.31658093-.8183019-.55401662-.224373-.2374357-.4091509-.54082575-.5279366-.88378842s-.1847778-.73868883-.1847778-1.1739876c0-.43529878.0659921-.81783406.1847778-1.16079673s.2903652-.63316185.5147382-.88378842c.2243731-.25062657.4883414-.43529877.8051034-.56720749s.6731192-.19786308 1.0558733-.19786308zm-11.3506379.01319087c.2771667 0 .5147382.03957262.7391113.13190872s.4091509.21105395.5675319.36934441c.158381.15829047.2639683.35615355.3563572.5672075s.1319842.46168051.1319842.73868882v3.73301676l-1.1218654-.01319088v-3.46919931c0-.35615354-.0923889-.63316185-.2771667-.83102493-.1847778-.18467221-.4487462-.29019918-.791905-.29019918-.1715794 0-.316762.03957261-.4619446.0923361-.1319841.06595436-.2507699.14509959-.3563572.25062657-.1055873.10552697-.18477783.23743569-.23757149.38253528-.06599208.14509959-.09238891.31658093-.09238891.48806226v3.40324496h-1.08227013v-3.56153542c0-.14509959-.02639683-.29019918-.0791905-.4221079-.05279366-.13190872-.11878574-.23743569-.21117466-.3297718-.09238891-.0923361-.19797624-.15829046-.3299604-.21105395s-.27716674-.07914523-.43554774-.07914523c-.15838099 0-.31676198.02638174-.46194456.0923361s-.26396833.15829047-.36955566.26381744c-.10558733.11871785-.18477782.25062657-.23757149.39572616-.05279366.14509959-.14518258.31658093-.14518258.48806226v3.36367234h-1.02947646v-5.48740272h1.04267488v.92336104h.02639683c.06599208-.1450996.14518258-.29019919.25076991-.40891703.10558733-.13190872.22437308-.22424483.35635724-.31658093.14518258-.0923361.29036515-.15829046.44874615-.19786308.17157941-.03957261.34315882-.06595436.51473823-.06595436.38275407 0 .71271447.09233611.9766828.27700831.26396832.18467221.46194456.44848965.56753189.79145232h.02639684c.06599208-.17148134.15838099-.3297718.27716674-.44848965.11878577-.11871785.25076987-.23743569.39595247-.3297718.1451826-.0923361.316762-.15829046.4883414-.21105395.1715794-.05276348.3563572-.07914523.5543335-.07914523zm6.5596128 3.04709141-1.33304.09233611c-.3827541.02638174-.6731192.10552697-.8578971.23743569-.1979762.13190872-.2903651.3297718-.2903651.56720749 0 .2374357.0923889.42210791.2771667.5672075.1847779.14509959.4355478.21105395.7523098.21105395.1979762 0 .3959524-.02638175.5675319-.09233611.1715794-.06595435.3167619-.15829046.4487461-.26381743.1319842-.10552698.2243731-.2374357.3299604-.39572616.0659921-.15829046.1055873-.31658093.1055873-.50125313z" fill="#11223f" fill-rule="evenodd"/></svg>