<svg height="100" viewBox="0 0 100 100" width="100" xmlns="http://www.w3.org/2000/svg"><g fill="none" transform="translate(.833333)"><path d="m10 43.3333333v46.6666667c0 5.5233333 4.4766667 10 10 10h78.3333333v-46.6666667h-78.3333333c-5.5233333 0-10-4.4766666-10-10z" fill="#732de2"/><path d="m20 33.3333333h78.3333333v20h-78.3333333c-5.5233333 0-10-4.4766666-10-10 0-5.5233333 4.4766667-10 10-10z" fill="#6c253d"/><path d="m50.0833333 33.3333333c.8433334 9.3433334 8.6866667 16.6666667 18.25 16.6666667 9.5633334 0 17.4066667-7.3233333 18.25-16.6666667z" fill="#561c32"/><circle cx="75" cy="63.333333" fill="#e58842" r="3.333333"/><circle cx="68.333333" cy="31.666667" fill="#f4b34a" r="15"/><g fill="#e58842"><circle cx="73.333333" cy="30" r="3.333333"/><circle cx="61.666667" cy="75" r="3.333333"/><circle cx="46.666667" cy="71.666667" r="3.333333"/><circle cx="31.666667" cy="86.666667" r="3.333333"/><circle cx="20" cy="63.333333" r="3.333333"/><path d="m15 0h30v3.33333333h-30z"/><path d="m78.3333333 13.3333333h-3.3333333v-6.66666663c0-1.83833334-1.495-3.33333334-3.3333333-3.33333334h-23.3333334v-3.33333333h23.3333334c3.6766666 0 6.6666666 2.99 6.6666666 6.66666667z"/><path d="m71.6666667 13.3333333h-3.3333334v-3.3333333h-10v-3.33333333h13.3333334z"/><path d="m38.3333333 6.66666667h16.6666667v3.33333333h-16.6666667z"/><path d="m0 6.66666667h35v3.33333333h-35z"/><path d="m0 13.3333333h23.3333333v3.3333334h-23.3333333z"/><path d="m26.6666667 13.3333333h13.3333333v3.3333334h-13.3333333z"/><path d="m43.3333333 13.3333333h13.3333334v3.3333334h-13.3333334z"/><path d="m36.6666667 20h13.3333333v3.3333333h-13.3333333z"/><path d="m0 20h33.3333333v3.3333333h-33.3333333z"/><path d="m0 0h11.6666667v3.33333333h-11.6666667z"/></g><path d="m45 38.3333333h3.3333333v3.3333334h-3.3333333z" fill="#561c32"/><path d="m38.3333333 38.3333333h3.3333334v3.3333334h-3.3333334z" fill="#561c32"/><path d="m31.6666667 38.3333333h3.3333333v3.3333334h-3.3333333z" fill="#561c32"/><path d="m16.6666667 38.3333333h11.6666666v3.3333334h-11.6666666z" fill="#561c32"/><path d="m75 25.3v-7.05c-.2666667-.1333333-.5333333-.25-.8-.3833333-.55-.2333334-1.1333333-.4333334-1.7166667-.6166667-.2666666-.0666667-.55-.1333333-.8166666-.2v8.25c-1.9333334.7-3.3333334 2.5333333-3.3333334 4.7s1.4 4 3.3333334 4.7v2.95l-3.3333334 3.3333333v5.6833334c1.15 0 2.2666667-.1333334 3.3333334-.3666667v-3.95l3.3333333-3.3333333v-4.3166667c1.9333333-.7 3.3333333-2.5333333 3.3333333-4.7s-1.4-4-3.3333333-4.7zm-1.6666667 6.3666667c-.9166666 0-1.6666666-.75-1.6666666-1.6666667s.75-1.6666667 1.6666666-1.6666667c.9166667 0 1.6666667.75 1.6666667 1.6666667s-.75 1.6666667-1.6666667 1.6666667z" fill="#6c253d"/><path d="m66.6666667 29.0166667-2.65 2.65.9833333.9833333v13.65c-1.1666667-.2666667-2.2833333-.6833333-3.3333333-1.2v-11.0833333l-5-5v-6.7666667c.95-1.1833333 2.0666666-2.2166667 3.3333333-3.05v8.45l1.6666667 1.6666667 1.6666666-1.6666667v-10.1166667c.8-.2666666 1.6333334-.5 2.4833334-.65.2833333-.05.5666666-.0833333.85-.1166666z" fill="#6c253d"/><g fill="#4c1ea5"><path d="m18.3333333 68.0266667v2.95l-8.3333333 8.3333333v4.7133333l11.6666667-11.6666666v-4.33c1.935-.69 3.3333333-2.5233334 3.3333333-4.6933334s-1.3983333-4.0033333-3.3333333-4.6933333v-5.3066667h-3.3333334v5.3066667c-1.935.69-3.3333333 2.5233333-3.3333333 4.6933333s1.3983333 4.0033334 3.3333333 4.6933334zm1.6666667-6.36c.92 0 1.6666667.7483333 1.6666667 1.6666666 0 .9183334-.7466667 1.6666667-1.6666667 1.6666667s-1.6666667-.7483333-1.6666667-1.6666667c0-.9183333.7466667-1.6666666 1.6666667-1.6666666z"/><path d="m90 66.6666667h3.3333333v-5.69l-3.3333333-3.3333334v-4.31h-3.3333333v5.69l3.3333333 3.3333334z"/><path d="m31.6666667 53.3333333h-3.3333334v19.31l-8.3333333 8.3333334v19.0233333h3.3333333v-17.6433333l8.3333334-8.3333334z"/><path d="m63.3333333 70.3066667v-6.2833334l5-5v-5.69h-3.3333333v4.31l-3.3333333 3.3333334-3.3333334-3.3333334v-4.31h-3.3333333v5.69l5 5v6.2833334c-1.935.69-3.3333333 2.5233333-3.3333333 4.6933333s1.3983333 4.0033333 3.3333333 4.6933333v2.95l-8.3333333 8.3333334v9.0233333h3.3333333v-7.6433333l5-5v12.6433333h3.3333333v-20.3066667c1.935-.69 3.3333334-2.5233333 3.3333334-4.6933333s-1.3983334-4.0033333-3.3333334-4.6933333zm-1.6666666 6.36c-.92 0-1.6666667-.7483334-1.6666667-1.6666667s.7466667-1.6666667 1.6666667-1.6666667 1.6666666.7483334 1.6666666 1.6666667-.7466666 1.6666667-1.6666666 1.6666667z"/><path d="m98.3333333 81.6666667-1.1783333-1.1783334-10.4883333 10.4883334v9.0233333h3.3333333v-7.6433333l8.3333333-8.3333334z"/><path d="m48.3333333 66.9733333v-13.64h-3.3333333v13.64c-1.935.69-3.3333333 2.5233334-3.3333333 4.6933334s1.3983333 4.0033333 3.3333333 4.6933333v6.2833333l-6.6666667-6.6666666v-22.6433334h-3.3333333v24.0233334l10 10v12.6433333h3.3333333v-23.64c1.935-.69 3.3333334-2.5233333 3.3333334-4.6933333s-1.3983334-4.0033334-3.3333334-4.6933334zm-1.6666666 6.36c-.92 0-1.6666667-.7483333-1.6666667-1.6666666 0-.9183334.7466667-1.6666667 1.6666667-1.6666667s1.6666666.7483333 1.6666666 1.6666667c0 .9183333-.7466666 1.6666666-1.6666666 1.6666666z"/><path d="m76.6666667 68.0266667c1.935-.69 3.3333333-2.5233334 3.3333333-4.6933334s-1.3983333-4.0033333-3.3333333-4.6933333v-5.3066667h-3.3333334v5.3066667c-1.935.69-3.3333333 2.5233333-3.3333333 4.6933333s1.3983333 4.0033334 3.3333333 4.6933334v14.6166666l-5 5v12.3566667h3.3333334v-10.9766667l5-5zm-1.6666667-3.0266667c-.92 0-1.6666667-.7483333-1.6666667-1.6666667 0-.9183333.7466667-1.6666666 1.6666667-1.6666666s1.6666667.7483333 1.6666667 1.6666666c0 .9183334-.7466667 1.6666667-1.6666667 1.6666667z"/><path d="m31.6666667 81.6666667c-2.7566667 0-5 2.2433333-5 5 0 2.17 1.3983333 4.0033333 3.3333333 4.6933333v8.64h3.3333333v-8.64c1.935-.69 3.3333334-2.5233333 3.3333334-4.6933333 0-2.7566667-2.2433334-5-5-5zm0 6.6666666c-.92 0-1.6666667-.7483333-1.6666667-1.6666666 0-.9183334.7466667-1.6666667 1.6666667-1.6666667s1.6666666.7483333 1.6666666 1.6666667c0 .9183333-.7466666 1.6666666-1.6666666 1.6666666z"/><path d="m87.155 78.8216667-10.4883333 10.4883333v10.69h3.3333333v-9.31l9.5116667-9.5116667z"/></g><path d="m90 83.3333333h8.3333333v-16.6666666h-8.3333333c-4.6016667 0-8.3333333 3.7316666-8.3333333 8.3333333s3.7316666 8.3333333 8.3333333 8.3333333z" fill="#e58842"/><path d="m90 80h8.3333333v-10h-8.3333333c-2.7616667 0-5 2.2383333-5 5s2.2383333 5 5 5z" fill="#d6713a"/><path d="m86.6666667 73.3333333h3.3333333v3.3333334h-3.3333333z" fill="#6c253d"/></g></svg>