<svg height="30" viewBox="0 0 30 30" width="30" xmlns="http://www.w3.org/2000/svg"><path d="m28.0000271 2v26.0002036h-26.0000271v-26.0002036zm-15.5507569 17.9577976h-2.2830101v5.8130307h1.5162434v-2.369461l.3090676.0000972c.1702867.0005833.211377.0046664.3202598.0332481.2736437.0781587.5545209.4017322.7759412.9049119l.6466176 1.4310274h1.5949313l-.7577688-1.6284531c-.2734672-.6048036-.5284092-.9363165-.8371625-1.0906931.2565299-.1190906.3510966-.1790769.5040618-.3055776.3157339-.285524.4956904-.691468.4952403-1.1171576 0-.5451701-.2997553-1.0831066-.7597096-1.3810976-.3743854-.2305946-.6831387-.2898753-1.524712-.2898753zm4.9056489 0h-1.2860016v5.8128543h1.4670192v-3.5529566h.0164081l1.5418257 1.8742208h.2134809l1.5435901-1.8742208h.016408v3.5529566h1.4656078v-5.8128543h-1.2694171l-1.86734 2.2074979zm-10.01648633 0h-1.58293406l-2.32094266 5.8128543h1.58293405l.45871919-1.2953524h2.14045431l.4599542 1.2953524h1.58116975zm19.03755203 2.8994582h-2.9093382v2.9075739h2.9093382zm-19.8291955-1.4883674.71965984 2.0919359h-1.43931967zm5.866842-.3530373c.5384657 0 .8103451.2201852.8103451.6633785 0 .3759733-.2999318.6692007-.6831388.6785515v-.0001764h-.858687v-1.3417536zm11.9547513-2.7129712c-.6741408 0-.8177551.4137295-.8177551.7990536v.8495126h2.8677006v-.3648582h-1.2632421v-.4797144c0-.2953446-.13444-.8039936-.7867034-.8039936zm-.0187016.3757969c.446369 0 .4873009.3556838.4873009.5068847v.4006736h-.9687796v-.5044147c0-.0795701.0444604-.4031436.4814787-.4031436zm1.0211795-2.6191101h-.9414329c-.5730462 0-.9382572.2939331-.9382572.9013832 0 .6081558.365211.9017361.9382572.9017361h.9414329c.793937 0 1.1058661-.2935803 1.1058661-.9017361 0-.6074501-.3119291-.9013832-1.1058661-.9013832zm.0146437.3727975c.6280924 0 .785292.1836641.785292.5285857 0 .3456272-.1570231.5289385-.785292.5289385h-.9682503c-.6002165 0-.620506-.4142587-.6206824-.5289385 0-.1157384.0204659-.5285857.6206824-.5285857zm-1.8348767-4.1298841v.3803841l2.4876694.5839848v.0089979l-2.4876694.5199406v.4733629l2.4876694.5760454v.0075866l-2.4876694.5412886v.3876177l2.8677006-.6981353v-.4461926l-2.4855523-.5792212v-.0075865l2.4855523-.5453466v-.4447812zm2.8677006-1.7921806h-.3177513v1.1369179h-.9929506v-1.0326475h-.3177512v1.0326475h-.9214963v-1.112394h-.3177512v1.4772522h2.8677006zm.0001764-2.13569066c-.1789005.0550463-.6293274.09456672-.7512409.09933035-.5748104.01993664-.6879023.1390272-.738185.46895215-.0675729-.33768789-.3256906-.52558633-.6633785-.52558633-.3574481 0-.7150726.17872405-.7150726.68772592v.98977487h2.8680535v-.36679893h-1.3184648l.0007748-.4690019c.0056084-.13635393.049402-.36791361.3644362-.39268445.3817955-.03175748.7545931-.00741008.9530773-.11132762zm-2.1127547.41831661c.2505313 0 .4747744.12526563.4747744.38832344v.54675798h-.9121455v-.55134517c0-.28281803.2309475-.38373625.4373711-.38373625zm2.1125783-2.35728733h-.3177513v1.13674143h-.9929506v-1.03300032h-.3177512v1.03300032h-.9214963v-1.11204117h-.3177512v1.47725222h2.8677006zm-1.5245356-2.21067363c-.0915674 0-.6632021.0104094-.9079111.12544206-.3054011.14326153-.4352539.40631934-.4352539.77135395v.88144657h2.8677006v-.65984991c0-.49965106-.1220899-.79005559-.3694454-.94443224-.1894863-.11926699-.5441115-.17396043-1.1550902-.17396043zm.3498616.37279756c.666025 0 .8569227.1859577.8569227.69654744v.34368653h-2.2321981v-.48130229c0-.38038406.214363-.55893168.7949956-.55893168z" fill="#11223f" fill-rule="evenodd"/></svg>