<svg height="30" viewBox="0 0 30 30" width="30" xmlns="http://www.w3.org/2000/svg"><path d="m3.27614031 10.7795771v.8041646c-1.38008945 1.5052409-2.42200372 3.9272446-1.99823866 6.2111633.8661697 4.6317445 7.04499906 5.4933494 12.97162355 4.9467153 3.6453686-.3374143 8.019963-1.6406631 10.6664025-3.2170387v2.2732675c-2.9153819 1.6003408-7.105863 2.6316039-10.3095878 2.9423903-8.09376049.7859054-13.39538857-1.5813208-14.38670971-5.7626723-.77715621-3.2585023.57059928-6.0183008 3.05651012-8.19799zm16.11638639 1.3701991c1.6452279 0 2.5905207 1.3268335 2.5905207 3.0698241v.5557637h-3.9097463c0 .787427.4918566 1.3686774 1.3641127 1.3686774.6835779 0 1.0206119-.1901997 1.415847-.5812504l.9525204.9080136c-.6105412.6033137-1.251134.9688776-2.3790186.9688776-1.4751893 0-2.8872323-.8037842-2.8872323-3.1500884 0-2.0062271 1.2351572-3.1398176 2.8529964-3.1398176zm-13.46386055.103849v6.151821c-1.16478332-.111457-1.55887722-.8159569-1.55887722-1.6300119l.0015216-4.5218091zm1.36867746-.0003804 3.18242239.001902c1.3542223 0 1.8145057.9536616 1.8145057 1.8183097v4.2699846h-1.5406181v-4.2604746c0-.3625207-.1886781-.5854348-.6405928-.5854348h-1.27509914v4.8451486h-1.54061805zm-.75775583-3.5985794c8.59170352-5.23049336 21.92166342-4.79531632 23.32762002 2.0701342.7547126 3.6803653-1.8426553 6.6851411-4.3745945 7.6136963v-1.6406631c2.1055114-1.2553184 3.2839891-3.4350076 2.9123387-5.527205-1.1084842-6.32262037-13.2827903-6.35115033-21.86536422-1.93775513zm8.44753212 1.9377551v1.6596831h1.1602185v1.2454281h-1.1602185v3.0043953c0 .35225.1662346.5470146.5333201.5470146h.6268984v1.2853699h-.9106765c-1.2572204 0-1.7890189-.8752993-1.7890189-1.7372846v-6.0046064zm9.4487436-.86616966v8.55138116c-1.1621205-.1129787-1.5539321-.8186198-1.5539321-1.6300119v-6.92136926zm-5.1118087 3.69824416c-.5272338 0-.9312181.2719856-1.103539.6375495-.0996647.219871-.1369439.3921919-.1472147.662656h2.3729322c-.0296711-.662656-.3298063-1.3002055-1.1221785-1.3002055zm-13.39995344-3.48864402v1.47404812h-1.55279083v-1.47404812z" fill="#11223f" fill-rule="evenodd"/></svg>