<svg height="100" viewBox="0 0 100 100" width="100" xmlns="http://www.w3.org/2000/svg"><g fill="none"><path d="m96.6666667 33.3333333v60h-93.33333337v-60c0-3.6833333 2.98333334-6.6666666 6.66666667-6.6666666h80c3.6833333 0 6.6666667 2.9833333 6.6666667 6.6666666z" fill="#732de2"/><path d="m100 88.3333333v5c0 3.6833334-2.9833333 6.6666667-6.6666667 6.6666667h-86.66666663c-3.68333334 0-6.66666667-2.9833333-6.66666667-6.6666667v-5h3.33333333 34.99999997l1.6666667 3.3333334h20l1.6666667-3.3333334h35z" fill="#8f58f9"/><path d="m99.0766667 96.6666667h-98.15333337c1.155 1.985 3.28 3.3333333 5.74333334 3.3333333h86.66666663c2.4633334 0 4.5883334-1.3483333 5.7433334-3.3333333z" fill="#732de2"/><path d="m10 33.3333333h80v48.3333334h-80z" fill="#f9f1e4"/><path d="m48.3333333 33.3333333h41.6666667v48.3333334h-41.6666667z" fill="#e8dac5"/><path d="m23.3333333 0h53.3333334v26.6666667h-53.3333334z" fill="#f9f1e4"/><g fill="#f4b34a" transform="translate(21.666667)"><path d="m26.6666667 18.3333333h3.3333333v3.3333334h-3.3333333z"/><path d="m26.6666667 6.66666667h3.3333333v8.33333333h-3.3333333z"/><path d="m26.6666667 0h3.3333333v3.33333333h-3.3333333z"/><path d="m33.3333333 21.6666667h3.3333334v5h-3.3333334z"/><path d="m33.3333333 15h3.3333334v3.3333333h-3.3333334z"/><path d="m33.3333333 0h3.3333334v11.6666667h-3.3333334z"/><path d="m53.3333333 21.6666667h3.3333334v5h-3.3333334z"/><path d="m53.3333333 15h3.3333334v3.3333333h-3.3333334z"/><path d="m53.3333333 0h3.3333334v11.6666667h-3.3333334z"/><path d="m6.66666667 21.6666667h3.33333333v5h-3.33333333z"/><path d="m6.66666667 15h3.33333333v3.3333333h-3.33333333z"/><path d="m6.66666667 0h3.33333333v5h-3.33333333z"/><path d="m40 13.3333333h3.3333333v8.3333334h-3.3333333z"/><path d="m40 6.66666667h3.3333333v3.33333333h-3.3333333z"/><path d="m40 0h3.3333333v3.33333333h-3.3333333z"/><path d="m13.3333333 0h3.3333334v5h-3.3333334z"/><path d="m13.3333333 8.33333333h3.3333334v3.33333337h-3.3333334z"/><path d="m13.3333333 15h3.3333334v6.6666667h-3.3333334z"/><path d="m20 0h3.3333333v8.33333333h-3.3333333z"/><path d="m20 11.6666667h3.3333333v3.3333333h-3.3333333z"/><path d="m20 18.3333333h3.3333333v8.3333334h-3.3333333z"/><path d="m6.66666667 8.33333333h3.33333333v3.33333337h-3.33333333z"/><path d="m46.6666667 0h3.3333333v16.6666667h-3.3333333z"/><path d="m46.6666667 20h3.3333333v6.6666667h-3.3333333z"/><path d="m0 0h3.33333333v16.6666667h-3.33333333z"/><path d="m0 20h3.33333333v6.6666667h-3.33333333z"/></g><g fill="#e58842"><path d="m43.3333333 50h-14.0233333l-5-5h-5.9766667v-3.3333333h7.3566667l5 5h12.6433333z"/><path d="m18.3333333 53.3333333h25v3.3333334h-25z"/><path d="m25.69 68.3333333h-7.3566667v-3.3333333h5.9766667l5-5h14.0233333v3.3333333h-12.6433333z"/></g><path d="m70.69 50h-15.69v-3.3333333h14.31l5-5h7.3566667v3.3333333h-5.9766667z" fill="#d6713a"/><path d="m55 53.3333333h26.6666667v3.3333334h-26.6666667z" fill="#d6713a"/><path d="m81.6666667 68.3333333h-7.3566667l-5-5h-14.31v-3.3333333h15.69l5 5h5.9766667z" fill="#d6713a"/><path d="m62.3333333 55 2.6666667 6.6666667h-6.6666667v6.6666666h-6.6666666v5l6.6666666 8.3333334h-21.6666666v-5.9833334c0-1.5.6-2.95 1.6666666-4.0166666 1.0666667-1.0666667 1.6666667-2.5166667 1.6666667-4.0166667v-3.9166667c-.7666667-.6166666-1.4666667-1.3-2.0666667-2.0666666-1.5-1.8666667-2.5166666-4.15-2.8333333-6.6666667-.0666667-.55-.1-1.1-.1-1.6666667 0-1.7666666.35-3.45.9666667-5 1.9833333-4.8833333 6.7666666-8.3333333 12.3666666-8.3333333s10.3833334 3.45 12.3666667 8.3333333c.6166667 1.55.9666667 3.2333334.9666667 5z" fill="#f4b34a"/><path d="m52.5 55.6316667c-1.78 0-3.4533333-.695-4.7133333-1.9533334l2.3566666-2.3566666c1.26 1.26 3.4533334 1.26 4.7133334 0l2.3566666 2.3566666c-1.26 1.26-2.9333333 1.9533334-4.7133333 1.9533334z" fill="#e58842"/></g></svg>