<svg height="30" viewBox="0 0 30 30" width="30" xmlns="http://www.w3.org/2000/svg"><path d="m22.7948109 20.9826748v5.6150819h-1.5866265l-.0002721-5.6154446zm-15.19305756 0 1.26806797 4.4500263 1.32374549-4.450389h1.6187272l-1.82565882 5.6154446h-2.28576869l-1.81105932-5.6154446zm9.65777396-.0003627c1.263534 0 2.1101217.1534304 2.6977276.9376304.3261757.4385281.5132483 1.1423856.5132483 1.9319356 0 .8607338-.2210776 1.6482889-.5628502 2.0071093-.4838681.5109814-.9314641.7387693-2.3019097.7387693h-2.5721359v-5.6154446zm-14.40749739-.0077985c1.38286875 0 2.79620595.2989717 2.79620595 2.5163678v3.1068753h-1.55044523v-2.4691235c0-.7886432-.10237763-1.2197355-.3531076-1.4867879-.19768223-.2111028-.49030632-.3134805-.90081431-.3134805l-1.23977584-.0003627v4.2697546h-1.60004715v-5.6232431zm11.21456679.0077985v5.6154446h-1.5859011l-.0006347-5.6154446zm13.7062696.0013602 2.2311794 5.6119988h-1.6977094l-.3315258-.9915849h-2.6209216l-.3502966.9915849h-1.5637752l2.2146757-5.6112733zm-10.4839587 1.2213678h-.6820036v3.1938374h.6820036c.9892272 0 1.6291554-.4442409 1.6291554-1.5970547 0-1.1526324-.6399282-1.5967827-1.6291554-1.5967827zm9.3948022-.1969567-.9907687 2.6289921h1.9517945zm-2.1514717-18.6360834v14.9348011h-14.148969v-1.7506665c.2979743.0287456.6011172.047879.916774.047879 3.2747239 0 9.050944-1.6726817 11.5294075-3.747801-.3637171-.3685232-2.1330637-1.2105769-2.5652442-1.5567021-2.6066849 2.2500408-5.2986996 4.1511453-9.021201 4.1511453-.2874633-.0003202-.5746174-.0188561-.8597363-.0554961v-1.2458514c.3223672.0571283.6655906.0911333 1.0322096.0911333 4.0002539 0 7.8399136-4.66892764 7.8399136-4.66892764s-3.3430965-4.38101888-8.4739476-4.20809228c-.1332088.004534-.2656922.01314859-.3981756.02330474v-2.01472642zm-14.148969 2.01472642v1.09242097l-.3174471.03000431c-3.65424936.4141077-5.58294642 2.99070625-5.78077708 3.26804749l-.01695741.02418836s1.55969459 5.02067505 6.11518159 5.59377215v1.1610656c-5.98597242-.565046-8.25797037-6.5350729-8.41262077-6.96078266l-.00855113-.02392868s3.9081231-3.82233991 8.4211719-4.18478754zm0 2.44173815v1.16677851c-.0020856 0-.0035365-.00063476-.0052594-.00063476-1.44099457-.17292661-2.56669507 1.17321678-2.56669507 1.17321678s.63095087 2.2660911 2.57195447 2.9182611v1.0634034c-3.26637431-.5824208-4.29405161-3.8335017-4.39086434-4.16541426l-.0077464-.02735309s.01653095-.01831281.04903217-.05157285l.08613003-.08545249c.44621446-.43078208 1.97551869-1.74375173 4.26344854-1.99123234zm6.5083698 1.80081249-.0237923.03237522c-.2672886.35986302-2.7464288 3.59863002-5.3939701 3.59863002-.4034349 0-.7651571-.0648361-1.090698-.1742868v-4.0908431c1.4363699.17356136 1.7254574.80804875 2.5890023 2.2475924l1.9206913-1.61945261s-1.4020022-1.8387167-3.7653929-1.8387167c-.2569869-.00009068-.5028201.01795462-.7442101.0437984v-1.3492265c.1311232-.00915867.2632438-.0162317.3981756-.02049366 3.6895845-.11588894 6.1101942 3.17062333 6.1101942 3.17062333z" fill="#11223f" fill-rule="evenodd"/></svg>