<svg height="100" viewBox="0 0 100 100" width="100" xmlns="http://www.w3.org/2000/svg"><g fill="none" fill-rule="evenodd"><path d="m0 0h100v100h-100z"/><g fill-rule="nonzero" transform="translate(1.666667)"><path d="m96.6666667 48.3333333v51.6666667h-96.6666667v-51.6666667z" fill="#732de2"/><path d="m90 63.3333333v21.6666667c-4.6 0-8.3333333 3.7333333-8.3333333 8.3333333h-23.3333334l-1.6666666-1.6666666h-16.6666667l-1.6666667 1.6666666h-23.3333333c0-4.6-3.7333333-8.3333333-8.33333333-8.3333333v-21.6666667c4.60000003 0 8.33333333-3.7333333 8.33333333-8.3333333h66.6666667c0 4.6 3.7333333 8.3333333 8.3333333 8.3333333z" fill="#dbc6a9"/><path d="m58.3333333 74.6887109c-.0173005.6417834-.1066367 1.285465-.2680084 1.9310449s-.4005948 1.2635987-.7176693 1.8540565c-.7490299 1.4668375-2.0266439 2.8840367-3.8328422 4.2515978-1.2521381.948055-3.2365851 2.0401739-5.3963887 3.3304502-1.439869.8601842-2.3915975 1.4736389-2.8551854 1.8403641l-3.3098585-1.9686371c.8386501-.7973465 2.0392475-1.6475811 3.6017921-2.5507037.2424639-.1401397.4871453-.2820754.7315812-.4243325l.4878142-.2845058c1.944108-1.1362426 3.7673939-2.2301434 4.2086488-2.526745.72887-.4899302 1.4152563-1.0457595 2.059159-1.667488h-6.9622521l2.1619017-3.7851014zm-5.7437443 9.4093412c.4203707.2606406.7997281.5198038 1.1380722.7774896.3383442.2576859.7266807.5807406 1.1650097.9691641l-3.2788661 1.9106485c-.4401988-.3470243-.8497199-.6437351-1.2285634-.8901322-.3788434-.2463972-.7837235-.4889497-1.2146402-.7276576zm-1.0510138-23.6580251 3.262796 1.9198857c-1.0103416.7992653-1.7429897 1.3512506-2.1979445 1.6559559-1.8830098 1.261143-3.7311997 2.2722911-5.4268459 3.1875209-.5781071.3120349-2.3160801 1.5138256-3.8976993 2.9135968-1.0544129.9331808-1.6349275 2.2656758-1.7415439 3.9974849-.0353246 1.4231271.54519 2.7343774 1.7415439 3.9337509 1.1963538 1.1993735 2.6307106 2.243911 4.3030704 3.1336127l-3.395165 2.0667621c-2.0512729-1.3786388-3.5506249-2.807579-4.4980559-4.2868207-.947431-1.4792416-1.3981671-3.0950099-1.3522083-4.847305 0-2.5886195.9920621-4.9023073 2.9761863-6.9410637 1.323116-1.3595475 3.4088441-2.6489635 6.1200427-4.2260158.8006716-.4657353 2.1692795-1.3015236 4.1058235-2.5073647zm.950811 4.5174466c1.648425.9852367 2.9916749 2.1968512 4.0297499 3.6348437 1.0380749 1.4379925 1.603765 2.8400656 1.6970705 4.2062195h-3.2372865c-.3608943-1.1136659-1.0068806-2.1187624-1.9379588-3.0152896s-2.2618098-1.8353454-3.9921947-2.8164546zm-7.1856188-4.3908641c.3267703.2540864.6795772.5043282 1.0584207.7507253.3788435.2463972.7837235.4889497 1.2146402.7276576l-3.4189878 2.0395124c-.4203707-.2606406-.7997281-.5198038-1.1380722-.7774896-.3383442-.2576859-.6619107-.5338757-.9706996-.8285695z" fill="#6c253d"/><path d="m78.3333333 26.6666667c-8.285 0-15 6.715-15 15v6.6666666h30v-6.6666666c0-8.285-6.715-15-15-15z" fill="#e58842"/><path d="m48.3333333 20c-8.285 0-15 6.715-15 15v13.3333333h30v-13.3333333c0-8.285-6.715-15-15-15z" fill="#e58842"/><path d="m55 21.6666667v-.0883334c-2.01-1.0016666-4.2683333-1.5783333-6.6666667-1.5783333-2.3983333 0-4.6566666.5766667-6.6666666 1.5783333v.0883334l6.6666666 11.6666666z" fill="#732de2"/><path d="m18.3333333 26.6666667c-8.285 0-14.99999997 6.715-14.99999997 15v6.6666666h29.99999997v-6.6666666c0-8.285-6.715-15-15-15z" fill="#e58842"/><circle cx="18.333333" cy="18.333333" fill="#f4b34a" r="11.666667"/><path d="m41.6666667 21.5783333v.0883334l2.5183333 4.405c1.3183333.38 2.7066667.595 4.1483333.595 1.4416667 0 2.83-.215 4.1483334-.595l2.5183333-4.405v-.0883334c-2.01-1.0016666-4.2683333-1.5783333-6.6666667-1.5783333-2.3983333 0-4.6566666.5766667-6.6666666 1.5783333z" fill="#4c1ea5"/><circle cx="48.333333" cy="11.666667" fill="#f4b34a" r="11.666667"/><circle cx="78.333333" cy="18.333333" fill="#f4b34a" r="11.666667"/><path d="m16.6666667 33.3333333h3.3333333v3.3333334h-3.3333333z" fill="#6c253d"/><path d="m76.6666667 33.3333333h3.3333333v3.3333334h-3.3333333z" fill="#6c253d"/><g fill="#d6713a"><path d="m3.33333333 45h29.99999997v3.3333333h-29.99999997z"/><path d="m33.3333333 45h30v3.3333333h-30z"/><path d="m63.3333333 45h30v3.3333333h-30z"/></g><g fill="#4c1ea5" transform="translate(5 53.333333)"><path d="m83.3333333 0h3.3333334v3.33333333h-3.3333334z"/><path d="m83.3333333 38.3333333h3.3333334v3.3333334h-3.3333334z"/><path d="m0 0h3.33333333v3.33333333h-3.33333333z"/><path d="m0 38.3333333h3.33333333v3.3333334h-3.33333333z"/></g><path d="m71.6666667 71.6666667h6.6666666v3.3333333h-6.6666666z" fill="#6c253d"/><path d="m18.3333333 71.6666667h6.6666667v3.3333333h-6.6666667z" fill="#6c253d"/></g></g></svg>