<svg height="100" viewBox="0 0 100 100" width="100" xmlns="http://www.w3.org/2000/svg"><g fill="none"><path d="m76.2711864 18.6440678-15.2542372-15.25423729h-11.8644068v96.61016949h49.1525423v-6.779661l-11.8644067-11.8644068h-18.6440678v-10.1694915l11.8644067-11.8644068v-23.7288136h-3.3898305z" fill="#4c1ea5"/><path d="m49.1525424 81.3559322h-38.9830509c-5.61016947 0-10.1694915 4.559322-10.1694915 10.1694915v8.4745763h49.1525424z" fill="#e58842"/><path d="m49.1525424 89.8305085-13.5593221-8.4745763v-13.559322h13.5593221z" fill="#e8dac5"/><path d="m35.5932203 67.7966102v7.3271186c4.2847458 1.8830509 8.8372882 2.8423729 13.5593221 2.8423729v-10.1694915z" fill="#dbc6a9"/><path d="m35.5932203 71.3898305c-2.9830508-1.4745763-5.6949152-3.4237288-8.0169491-5.7457627-5.5084746-5.5254237-8.9322034-13.1525424-8.9322034-21.5762712v-13.559322c0-3.6440678.6610169-7.1016949 1.8305085-10.3389831.0677966.0169492.1525423.0169492.2372881.0338983.5423729.0847458 1.1016949.1355933 1.6779661.1355933h26.7627119v8.4745762 10.1694915 13.5593221 18.6440678 3.3898305c-4.881356 0-9.4745763-1.1525424-13.5593221-3.1864407z" fill="#e8dac5"/><path d="m49.1525424 20.3389831h-26.7627119c-.5762712 0-1.1355932-.0508475-1.6779661-.1355933-.0847458-.0169491-.1694915-.0169491-.2372881-.0338983-4.3050848-.779661-7.881356-4.1016949-8.5084746-8.5254237-.8135593-5.79661017 3.2711864-10.81355932 8.7118644-11.54237288.7288136 1.91525423 2.5762712 3.28813559 4.7457627 3.28813559h23.7288136z" fill="#f4b34a"/><circle cx="37.288136" cy="38.983051" fill="#e8dac5" r="3.389831"/><path d="m18.6440678 45.7627119h-3.3898305c-1.8644068 0-3.559322-.7627119-4.7966102-1.9830509-1.22033896-1.2372881-1.98305083-2.9322034-1.98305083-4.7966102 0-3.7457627 3.03389833-6.779661 6.77966103-6.779661h3.3898305z" fill="#e8dac5"/><path d="m20.7118644 20.2033898c-.0847458-.0169491-.1694915-.0169491-.2372881-.0338983-.4169492 1.1559322-.7440678 2.3491526-1.0254238 3.5593221h29.7033899v-3.3898305h-26.7627119c-.5762712 0-1.1355932-.0508475-1.6779661-.1355933z" fill="#dbc6a9"/><circle cx="37.288136" cy="38.983051" fill="#6c253d" r="3.389831"/><g fill="#e58842" transform="translate(49.152542 1.694915)"><path d="m23.5305085 15.7576271-12.3677966-12.36779659h-11.1627119v-3.38983051h12.5661017l13.3610169 13.3610169z"/><path d="m33.8983051 35.5932203h-12.5661017l-6.779661-6.779661h-14.5525424v-3.3898305h15.9559322l6.779661 6.779661h11.1627119z"/><path d="m8.47457627 40.6779661h3.38983053v25.4237288h-3.38983053z"/><path d="m20.3389831 52.5423729h-3.3898306v-8.4745763h10.1694916v3.3898305h-6.779661z"/><path d="m0 11.8644068h6.77966102v3.3898305h-6.77966102z"/><path d="m0 77.9661017h15.2542373v3.3898305h-15.2542373z"/><path d="m50.8474576 98.3050847h-3.3898305v-6.0779661l-8.9779661-8.9779661 2.3966102-2.3966101 9.9711864 9.9711864z"/><path d="m25.4237288 94.9152542h-7.4813559l-6.779661-6.779661h-11.1627119v-3.3898305h12.5661017l6.779661 6.779661h6.0779661z"/><path d="m9.17627119 98.3050847h-9.17627119v-3.3898305h7.77288136l6.28305084-6.2830508 2.3966102 2.3966102z"/><path d="m20.3389831 71.1864407h-6.7796611v-3.3898305h3.3898305v-8.4745763h3.3898306z"/><path d="m25.4237288 20.3389831h3.3898305v13.559322h-3.3898305z"/><path d="m19.8423729 70.6898305-2.3966102-2.3966102 11.3677966-11.3677966v-7.7728813h3.3898305v9.1762712z"/><path d="m8.47457627 16.9491525h3.38983053v10.1694916h-3.38983053z"/><path d="m42.3728814 98.3050847h-3.3898306v-9.1762711l3.8864407-3.8864407 2.3966102 2.3966102-2.8932203 2.8932203z"/><path d="m22.0338983 77.9661017h11.8644068v3.3898305h-11.8644068z"/><path d="m0 49.1525424h10.1694915v3.3898305h-10.1694915z"/><path d="m21.040678 40.6779661h-7.9389831v-3.3898305h6.5355932l.701695-.7016949v-2.6881356h3.3898305v4.0915254z"/><path d="m16.9491525 69.4915254h3.3898306v6.779661h-3.3898306z"/><path d="m0 67.7966102h6.77966102v3.3898305h-6.77966102z"/><path d="m27.1186441 79.6610169h3.3898305v10.1694916h-3.3898305z"/><path d="m0 35.5932203h6.77966102v3.3898305h-6.77966102z"/></g><g fill="#f4b34a"><path d="m76.2711864 23.7288136c-2.8033898 0-5.0847457-2.281356-5.0847457-5.0847458s2.2813559-5.0847458 5.0847457-5.0847458c2.8033899 0 5.0847458 2.281356 5.0847458 5.0847458s-2.2813559 5.0847458-5.0847458 5.0847458z"/><path d="m86.440678 40.6779661c-2.8033899 0-5.0847458-2.2813559-5.0847458-5.0847458 0-2.8033898 2.2813559-5.0847457 5.0847458-5.0847457 2.8033898 0 5.0847457 2.2813559 5.0847457 5.0847457 0 2.8033899-2.2813559 5.0847458-5.0847457 5.0847458z"/><path d="m79.6610169 52.5423729c-2.8033898 0-5.0847457-2.281356-5.0847457-5.0847458s2.2813559-5.0847457 5.0847457-5.0847457c2.8033899 0 5.0847458 2.2813559 5.0847458 5.0847457s-2.2813559 5.0847458-5.0847458 5.0847458z"/><path d="m59.3220339 76.2711864c-2.8033898 0-5.0847458-2.2813559-5.0847458-5.0847457 0-2.8033899 2.281356-5.0847458 5.0847458-5.0847458s5.0847458 2.2813559 5.0847458 5.0847458c0 2.8033898-2.281356 5.0847457-5.0847458 5.0847457z"/><path d="m67.7966102 86.440678c-2.8033899 0-5.0847458-2.281356-5.0847458-5.0847458s2.2813559-5.0847458 5.0847458-5.0847458c2.8033898 0 5.0847457 2.281356 5.0847457 5.0847458s-2.2813559 5.0847458-5.0847457 5.0847458z"/><path d="m77.9661017 100c-2.8033898 0-5.0847458-2.2813559-5.0847458-5.0847458 0-2.8033898 2.281356-5.0847457 5.0847458-5.0847457s5.0847458 2.2813559 5.0847458 5.0847457c0 2.8033899-2.281356 5.0847458-5.0847458 5.0847458z"/><path d="m86.440678 86.440678c-2.8033899 0-5.0847458-2.281356-5.0847458-5.0847458s2.2813559-5.0847458 5.0847458-5.0847458c2.8033898 0 5.0847457 2.281356 5.0847457 5.0847458s-2.2813559 5.0847458-5.0847457 5.0847458z"/><path d="m67.7966102 62.7118644c-2.8033899 0-5.0847458-2.2813559-5.0847458-5.0847458 0-2.8033898 2.2813559-5.0847457 5.0847458-5.0847457 2.8033898 0 5.0847457 2.2813559 5.0847457 5.0847457 0 2.8033899-2.2813559 5.0847458-5.0847457 5.0847458z"/><path d="m59.3220339 44.0677966c-2.8033898 0-5.0847458-2.2813559-5.0847458-5.0847458 0-2.8033898 2.281356-5.0847457 5.0847458-5.0847457s5.0847458 2.2813559 5.0847458 5.0847457c0 2.8033899-2.281356 5.0847458-5.0847458 5.0847458z"/><path d="m59.3220339 20.3389831c-2.8033898 0-5.0847458-2.281356-5.0847458-5.0847458s2.281356-5.0847458 5.0847458-5.0847458 5.0847458 2.281356 5.0847458 5.0847458-2.281356 5.0847458-5.0847458 5.0847458z"/></g><path d="m15.2542373 32.2033898h3.3898305v13.5593221h-3.3898305z" fill="#dbc6a9"/></g></svg>