<svg height="30" viewBox="0 0 30 30" width="30" xmlns="http://www.w3.org/2000/svg"><path d="m23.2750292 10.0508098.0021807 12.0159931c-.0004346.7626241-.4316894 1.4229606-1.0623028 1.7526127-.0555122.0291642-.1129128.0558276-.1717176.0797365-.0242186.0095828-.0482801.0187937-.0725612.0275423-.2090831.0758517-.4349621.1170889-.6703315.1170216l.0003115-.0006231-1.3501326.0009346.0012461 4.1014872c.0003115 1.0217893-.8289577 1.8529277-1.8519931 1.8523047-1.0205432.0018691-1.8513701-.8292693-1.8526162-1.8510586l.0003116-4.1021103-2.4993341.0006231.0009346 4.1008642c-.0000845.2772326-.0611326.5404162-.1704752.7767759-.0163042.0348039-.0335028.0692058-.0517194.1029789-.0179762.0334617-.0367886.0658429-.0565331.097585-.3261476.5257019-.9088125.8765224-1.5732654.8765224-1.0208548-.0003115-1.8507471-.8305153-1.8504355-1.8519931l-.0015577-4.1024218h-1.34514819c-.94476958.0002693-1.73269893-.6594005-1.92856708-1.5447938-.03104815-.1393366-.0471843-.2834831-.04709993-.4314962l-.00249217-12.0159931 16.55236377-.0028037zm-19.12365912-.34703485c1.02272387-.00062269 1.85230464.82926965 1.85292847 1.85074735v7.7546955c.00093378 1.024593-.82802395 1.8519932-1.85105934 1.8519932-1.02241235 0-1.8516816-.8270886-1.85199313-1.8523047l-.00124608-7.7534494c.00031152-1.0214778.82895773-1.85230464 1.85137008-1.85168195zm21.68965872-.0024926c1.0227239-.00031074 1.8513701.82864695 1.8513701 1.85137085l.0012461 7.7531379c0 1.024593-.8283347 1.8523047-1.8507471 1.8523047-1.0230354 0-1.8513701-.8274002-1.8510585-1.8510586l-.0015576-7.7537609c0-1.0227239.8283346-1.85292773 1.850747-1.85199395zm-5.9157863-9.5677477c.0666655-.12429693.2224261-.16946749.3485922-.10280197.1246084.06978073.1700905.22678738.1012443.35014975l-1.2921896 2.36008409c2.5367166 1.31337308 4.2497712 3.80273844 4.2494597 6.66686371l-16.67853084.00186913c-.00155655-2.8644368 1.71461336-5.35909801 4.25475664-6.66935589l-1.29250115-2.35821495c-.06946921-.12305085-.02336408-.28036902.10217893-.34796911.12336237-.06822312.27974598-.02274104.34765762.10249046l1.3065196 2.37846383c1.0940622-.48628449 2.3227015-.75948852 3.619564-.75824244 1.3006007-.0015576 2.5295516.27258099 3.6279751.76135765zm-8.7257068 4.85567963c-.3853517-.00031129-.6978074.31557114-.6978074.69998822 0 .38566315.3133903.69811885.6968728.69874189.3872208-.00031152.700611-.31370178.700611-.69874189-.0003115-.38441708-.3133902-.70029951-.6996764-.69998822zm7.593639-.00280346c-.3859746.00155761-.6978073.31775156-.6993649.70092255 0 .38690924.3137018.69936494.6993649.69905365.3850402.00031129.6987419-.31276745.6978094-.69905365.0003095-.38379403-.3143269-.69967646-.6978094-.70092255z" fill="#11223f" fill-rule="evenodd"/></svg>