<svg height="100" viewBox="0 0 100 100" width="100" xmlns="http://www.w3.org/2000/svg"><g fill="none"><path d="m100 81.6666667v13.3333333l-11.6666667 5v-13.3333333z" fill="#732de2"/><g fill="#6c253d"><path d="m10 55h3.3333333v6.6666667h-3.3333333z"/><path d="m48.3333333 55h3.3333334v6.6666667h-3.3333334z"/><path d="m86.6666667 55h3.3333333v6.6666667h-3.3333333z"/></g><path d="m100 43.3333333v13.3333334l-11.6666667 5v-13.3333334z" fill="#732de2"/><path d="m86.6666667 16.6666667h3.3333333v6.6666666h-3.3333333z" fill="#6c253d"/><path d="m100 5v13.3333333l-11.6666667 5v-13.3333333z" fill="#732de2"/><path d="m100 5-11.6666667 5-11.6666666-5 11.6666666-5z" fill="#f4b34a"/><path d="m88.3333333 38.3333333 11.6666667 5-11.6666667 5-11.6666666-5z" fill="#f4b34a"/><path d="m88.3333333 76.6666667 11.6666667 5-11.6666667 5-11.6666666-5z" fill="#f4b34a"/><path d="m76.6666667 81.6666667 11.6666666 5v13.3333333l-11.6666666-5z" fill="#e58842"/><path d="m76.6666667 43.3333333 11.6666666 5v13.3333334l-11.6666666-5z" fill="#e58842"/><path d="m76.6666667 5 11.6666666 5v13.3333333l-11.6666666-5z" fill="#e58842"/><path d="m61.6666667 95-11.6666667 5v-13.3333333l11.6666667-5z" fill="#732de2"/><path d="m61.6666667 56.6666667-11.6666667 5v-13.3333334l11.6666667-5z" fill="#732de2"/><path d="m48.3333333 16.6666667h3.3333334v6.6666666h-3.3333334z" fill="#6c253d"/><path d="m61.6666667 18.3333333-11.6666667 5v-13.3333333l11.6666667-5z" fill="#732de2"/><path d="m61.6666667 5-11.6666667 5-11.6666667-5 11.6666667-5z" fill="#f4b34a"/><path d="m50 38.3333333 11.6666667 5-11.6666667 5-11.6666667-5z" fill="#f4b34a"/><path d="m50 76.6666667 11.6666667 5-11.6666667 5-11.6666667-5z" fill="#f4b34a"/><path d="m38.3333333 81.6666667 11.6666667 5v13.3333333l-11.6666667-5z" fill="#e58842"/><path d="m38.3333333 43.3333333 11.6666667 5v13.3333334l-11.6666667-5z" fill="#e58842"/><path d="m38.3333333 5 11.6666667 5v13.3333333l-11.6666667-5z" fill="#e58842"/><path d="m23.3333333 95-11.6666666 5v-13.3333333l11.6666666-5z" fill="#732de2"/><path d="m23.3333333 56.6666667-11.6666666 5v-13.3333334l11.6666666-5z" fill="#732de2"/><path d="m10 16.6666667h3.3333333v6.6666666h-3.3333333z" fill="#6c253d"/><path d="m23.3333333 18.3333333-11.6666666 5v-13.3333333l11.6666666-5z" fill="#732de2"/><path d="m23.3333333 5-11.6666666 5-11.6666667-5 11.6666667-5z" fill="#f4b34a"/><path d="m11.6666667 38.3333333 11.6666666 5-11.6666666 5-11.6666667-5z" fill="#f4b34a"/><path d="m11.6666667 76.6666667 11.6666666 5-11.6666666 5-11.6666667-5z" fill="#f4b34a"/><path d="m11.6666667 86.6666667v13.3333333l-11.6666667-5v-13.3333333z" fill="#e58842"/><path d="m11.6666667 48.3333333v13.3333334l-11.6666667-5v-13.3333334z" fill="#e58842"/><path d="m11.6666667 10v13.3333333l-11.6666667-5v-13.3333333z" fill="#e58842"/><g fill="#6c253d" transform="translate(10 11.666667)"><path d="m0 11.6666667h3.33333333v20h-3.33333333z"/><path d="m38.3333333 11.6666667h3.3333334v20h-3.3333334z"/><path d="m76.6666667 11.6666667h3.3333333v20h-3.3333333z"/><path d="m0 50h3.33333333v20h-3.33333333z"/><path d="m38.3333333 50h3.3333334v20h-3.3333334z"/><path d="m76.6666667 50h3.3333333v20h-3.3333333z"/><path d="m8.33333333 38.3333333h24.99999997v3.3333334h-24.99999997z"/><path d="m8.33333333 0h24.99999997v3.33333333h-24.99999997z"/><path d="m8.33333333 76.6666667h24.99999997v3.3333333h-24.99999997z"/><path d="m46.6666667 38.3333333h25v3.3333334h-25z"/><path d="m46.6666667 0h25v3.33333333h-25z"/><path d="m46.6666667 76.6666667h25v3.3333333h-25z"/></g></g></svg>