<svg height="100" viewBox="0 0 100 100" width="100" xmlns="http://www.w3.org/2000/svg"><g fill="none" transform="translate(1.666667)"><path d="m96.6666667 0v33.3333333h-8.3333334l-8.3333333 6.6666667v-6.6666667h-8.3333333v-33.3333333z" fill="#f4b34a"/><path d="m76.6666667 83.3333333v16.6666667h-11.6666667v-23.3333333h5c3.6833333 0 6.6666667 2.9833333 6.6666667 6.6666666z" fill="#732de2"/><path d="m53.3333333 88.3333333h11.6666667v11.6666667h-11.6666667z" fill="#e58842"/><path d="m53.3333333 76.6666667h11.6666667v11.6666666h-11.6666667z" fill="#e58842"/><path d="m23.3333333 76.6666667h30v23.3333333h-30z" fill="#732de2"/><path d="m48.3333333 68.3333333v8.3333334l-10 6.6666666-10-6.6666666v-8.3333334z" fill="#e58842"/><path d="m28.3333333 74.9166667c3.1333334 1.1133333 6.49 1.75 10 1.75s6.8666667-.6383334 10-1.75v-6.5833334h-20z" fill="#d6713a"/><path d="m38.3333333 73.3333333c-14.7283333 0-26.6666666-11.9383333-26.6666666-26.6666666v-13.3333334c0-14.7283333 11.9383333-26.66666663 26.6666666-26.66666663 14.7283334 0 26.6666667 11.93833333 26.6666667 26.66666663v13.3333334c0 14.7283333-11.9383333 26.6666666-26.6666667 26.6666666z" fill="#732de2"/><path d="m56.6666667 13.9666667v11.0333333c0 5.0666667-2.05 9.65-5.3666667 12.9666667-3.3166667 3.3166666-7.9 5.3666666-12.9666667 5.3666666-10.1333333 0-18.3333333-8.2-18.3333333-18.3333333v-11.0333333c4.7833333-4.53333337 11.2333333-7.30000003 18.3333333-7.30000003s13.55 2.76666666 18.3333334 7.30000003z" fill="#e58842"/><path d="m48.3333333 15h3.3333334v3.3333333h-3.3333334z" fill="#f9f1e4"/><path d="m48.3333333 21.6666667h3.3333334v6.6666666h-3.3333334z" fill="#f9f1e4"/><g fill="#4c1ea5" transform="translate(11.666667 35)"><path d="m0 0h6.66666667v3.33333333h-6.66666667z"/><path d="m0 6.66666667h10v3.33333333h-10z"/><path d="m46.6666667 0h6.6666666v3.33333333h-6.6666666z"/><path d="m43.3333333 6.66666667h10v3.33333333h-10z"/><path d="m15 16.6666667h3.3333333v3.3333333h-3.3333333z"/><path d="m21.6666667 16.6666667h3.3333333v3.3333333h-3.3333333z"/><path d="m28.3333333 16.6666667h3.3333334v3.3333333h-3.3333334z"/><path d="m35 16.6666667h3.3333333v3.3333333h-3.3333333z"/><path d="m15 23.3333333h3.3333333v3.3333334h-3.3333333z"/><path d="m21.6666667 23.3333333h3.3333333v3.3333334h-3.3333333z"/><path d="m28.3333333 23.3333333h3.3333334v3.3333334h-3.3333334z"/><path d="m21.6666667 30h3.3333333v3.3333333h-3.3333333z"/><path d="m28.3333333 30h3.3333334v3.3333333h-3.3333334z"/><path d="m35 23.3333333h3.3333333v3.3333334h-3.3333333z"/></g><path d="m11.6666667 88.3333333h11.6666666v11.6666667h-11.6666666z" fill="#e58842"/><path d="m11.6666667 76.6666667h11.6666666v11.6666666h-11.6666666z" fill="#e58842"/><path d="m11.6666667 100h-11.6666667v-16.6666667c0-3.6833333 2.98333333-6.6666666 6.66666667-6.6666666h5.00000003z" fill="#732de2"/><g fill="#4c1ea5"><path d="m10 76.6666667h3.3333333v23.3333333h-3.3333333z"/><path d="m21.6666667 76.6666667h3.3333333v23.3333333h-3.3333333z"/><path d="m11.6666667 86.6666667h11.6666666v3.3333333h-11.6666666z"/><path d="m63.3333333 76.6666667h3.3333334v23.3333333h-3.3333334z"/><path d="m51.6666667 76.6666667h3.3333333v23.3333333h-3.3333333z"/><path d="m53.3333333 86.6666667h11.6666667v3.3333333h-11.6666667z"/><path d="m36.6666667 88.3333333h3.3333333v3.3333334h-3.3333333z"/><path d="m43.3333333 88.3333333h3.3333334v3.3333334h-3.3333334z"/><path d="m30 88.3333333h3.3333333v3.3333334h-3.3333333z"/></g><path d="m76.6666667 5h15v3.33333333h-15z" fill="#6c253d"/><path d="m76.6666667 11.6666667h15v3.3333333h-15z" fill="#6c253d"/><path d="m76.6666667 18.3333333h15v3.3333334h-15z" fill="#6c253d"/><path d="m76.6666667 25h15v3.3333333h-15z" fill="#6c253d"/></g></svg>