<svg height="30" viewBox="0 0 30 30" width="30" xmlns="http://www.w3.org/2000/svg"><path d="m15.3309035 2.97721963c2.0832088 0 4.0470388.50883882 5.7743563 1.40979064-.4247635.2368187-.812183.46802559-1.1403213.67556081-.503227-.09050331-.9157466-.02030457-1.1735841.23722684-.4731273.47322928-.3165066 1.46499052.3094662 2.58796625.3216082.63372727.824427 1.32183815 1.4707044 1.96831955.1200784.1200115.2434844.23664668.3700738.34976928 1.7872109 1.7008909 3.7698151 2.4824641 4.5037388 1.7482343.3142618-.3136496.3490551-.8564654.1552943-1.5135583.1963116-.3172207.4112952-.68688647.6324008-1.09042717 1.0230854 1.81404557 1.6087551 3.90643727 1.6087551 6.13790007 0 6.9089638-5.6012062 12.5102721-12.5108843 12.5102721-6.90947399 0-12.51108837-5.6013083-12.51108837-12.5102721 0-6.91018822 5.60151234-12.51078227 12.51108837-12.51078227zm12.3716092-.14090764c1.3782624 1.37754819-2.4425692 7.43300561-3.0885404 8.07928291-.6458692.6449509-2.2864586.0515267-3.6640068-1.32642964-1.3782624-1.37744616-1.9719927-3.01844368-1.3260215-3.66441491.6455631-.6461753 6.7006124-4.46670078 8.0785687-3.08843836zm-25.37745583-.11172619c.95237648-.95258054 3.94643426.37548162 6.0505598 1.56926829-1.83441148 1.12889483-3.35798058 2.69788131-4.43251971 4.56465251-1.20643877-2.10790076-2.58306866-5.16930035-1.61804009-6.1339208z" fill="#11223f" fill-rule="evenodd"/></svg>