<svg height="30" viewBox="0 0 30 30" width="30" xmlns="http://www.w3.org/2000/svg"><path d="m28 2v26h-26v-26zm-18.60004358 18.1180975h-1.5201602l-2.12188466 5.262425h1.38905144l.39346116-1.0417211h2.35334828l.43203846 1.0417211h1.4121168zm4.08770678 0h-1.1419411v5.262425h1.3116271v-3.2872958l1.4198053 1.6515387h.2007097l1.4196705-1.6515387v3.2872958h1.311762v-5.262425h-1.142076l-1.6898462 1.9521986zm7.8454834-.0001349h-2.3225944v5.262425h2.1761087c2.0985494 0 3.0554275-1.1111872 3.0554275-2.6233891 0-1.4428708-.987632-2.638901-2.9089418-2.638901zm-.1695512.9648364c1.2420262 0 1.7281538.7639918 1.7281538 1.6667808 0 .7712756-.3933263 1.666511-1.7129117 1.666511h-.8563884v-3.3332918zm-12.50429556.2929714.84869991 2.0445952h-1.62038017zm3.34678036-12.60788769-3.61978872 3.61978879v5.0935483h5.23747122l3.555853-3.555853h-5.14467zm9.2577352-4.14827035-12.79429954.0159165 3.52051294 3.49178235h5.7180685v5.68596569l3.5557181 3.5719044z" fill="#11223f" fill-rule="evenodd"/></svg>