<svg height="30" viewBox="0 0 30 30" width="30" xmlns="http://www.w3.org/2000/svg"><path d="m14.9467617.00092632c-.0687117.01-.1343001.029375-.1948913.05875l-12.3568564 5.3125c-.06808702.014375-.13367543.04125-.19489128.078125-.11033738.06310757-.19881049.15838914-.25360851.273125l-.01998885.019375c-.01655816.0378669-.02952458.07720637-.0387284.1175v.039375c-.01706261.08372188-.01706261.17002811 0 .25375.00499722.026875.01249303.05375.0193642.078125l.7808144 12.16749998c.0098174.1865989.10322143.3588154.25423317.46875l4.62616916 3.359375c-.07808144.38375-.13679868.756875-.13679868 1.133125 0 3.6575 3.40435079 6.640625 7.57389969 6.640625 4.1701736 0 7.5545355-2.98125 7.5545355-6.640625 0-.36875-.0437256-.7375-.1174345-1.113125l4.6267938-3.379375c.1507759-.1100623.2439397-.2822591.2536085-.46875l.8001786-12.28437498v-.019375c.0024523-.03912824.0024523-.07837176 0-.1175v-.01875-.039375-.019375c-.0098728-.06155153-.0297051-.12108179-.0587172-.17625-.0170195-.03384242-.0364331-.06642532-.0580926-.0975-.0118475-.01433716-.0250239-.02752088-.039353-.039375v-.01875c-.060869-.06081338-.1341747-.10772106-.2148802-.1375l-.1168098-.03875-12.3762206-5.331875c-.0973407-.04608858-.2049026-.0663215-.3123257-.05875zm.0587172 1.30875 11.1069287 4.765625-11.1069287 6.32812498-11.10692869-6.32812498zm0 1.640625-1.8933188.819375.7220972.449375c.0791743.05293925.1296199.13936688.1367987.234375.0079429.09515716-.0282086.18869662-.0980703.25375l-1.0731513 1.035 2.8109318-1.151875c.1311851-.05666364.2840832-.01641843.3704184.0975.0836982.11919531.075984.27999871-.0187396.390625l-.8595205 1.015625 1.3667376-.488125c.121807-.04375.2461127 0 .3316899.0975.0830787.0975.0999443.236875.0393531.351875l-.8008033 1.5425 2.0301175 1.19125 4.5287235-2.5775zm-2.5960517 1.113125-4.99721219 2.14875 7.59326389 4.31562498 2.4398888-1.38687498-1.9907644-1.171875c-.1434549-.08245243-.1954655-.26403752-.1174344-.41l.5859231-1.09375-1.7177917.605625c-.1302518.0487108-.2768124-.00025681-.3516788-.1175-.0795538-.11359668-.0713017-.2668622.0199888-.37125l.7808144-.9375-3.1626106 1.30875c-.1415086.05861275-.3046991.00949767-.3904072-.1175-.0830787-.126875-.0512214-.2875.0587172-.39l1.9901398-1.91375zm-9.21360995 3.046875 11.18501015 6.36749998v12.166875l-10.46291299-7.61625zm23.61932335 0-.7220972 10.91812498-10.462913 7.61625v-12.166875zm-1.8346016 2.8125-7.7300625 4.70687498-.1367987 7.96875 7.2809381-5.0975zm-19.98884863.13687498.50721704 7.1675 7.06668269 5.05875-.1761518-7.616875z" fill="#11223f" fill-rule="evenodd"/></svg>