<svg height="100" viewBox="0 0 100 100" width="100" xmlns="http://www.w3.org/2000/svg"><g fill="none" transform="translate(6.3125 5)"><path d="m78.1875 39c0-23.01-19.92-41.37-43.47-38.745-18.06 1.995-32.52 16.65-34.335 34.74-.99 9.93 1.755 19.185 6.99 26.55 5.25 7.395 7.815 16.38 7.815 25.455v3h37.5v-10.5h19.5v-19.5h15z" fill="#732de2"/><path d="m46.6875 79.5h6v3h-6z" fill="#4c1ea5"/><path d="m55.6875 43.02-16.5 16.98-14.58-15-5.07-5.22-3.285-3.375c-1.785-1.845-2.985-4.05-3.6-6.405-1.23-4.77-.03-10.08 3.6-13.815 5.43-5.58 14.235-5.58 19.665 0l3.27 3.375 3.27-3.375c2.82-2.895 6.54-4.29 10.23-4.17 3.42.09 6.825 1.485 9.435 4.17 5.415 5.58 5.415 14.64 0 20.22l-3.285 3.375z" fill="#f4b34a"/><path d="m18.402 34.3125c-1.3815-1.428-2.3415-3.1365-2.847-5.07-1.008-3.9135.0825-8.1195 2.8485-10.9665 2.0565-2.112 4.7835-3.276 7.6815-3.276s5.625 1.164 7.6815 3.2775l5.421 5.5935 5.4255-5.598c2.049-2.103 4.7625-3.2655 7.638-3.2655l.3405.006c2.7915.0735 5.406 1.2315 7.38 3.2625 4.29 4.4205 4.29 11.6175-.0015 16.0395l-20.7825 21.3795z" fill="#fcc05e"/><g fill="#6c253d" transform="translate(12.1875 12)"><path d="m39 .0555v7.4445h3v-7.353c-.498-.069-.999-.1185-1.5-.132-.501-.0165-1.0005.0015-1.5.0405z"/><path d="m27 21h15v11.5635l1.5-1.5435 1.5-1.5435v-11.4765h-18z"/><path d="m12.42 33 1.458 1.5h10.122v-3h-13.0365z"/><path d="m15 12h-3v4.5h-11.823c.075.504.1605 1.0065.288 1.5.1335.5085.306 1.0065.4935 1.5h14.0415z"/></g><path d="m25.6875 25.5c-2.481 0-4.5-2.019-4.5-4.5s2.019-4.5 4.5-4.5 4.5 2.019 4.5 4.5-2.019 4.5-4.5 4.5z" fill="#e049e8"/><path d="m39.1875 49.5c-2.481 0-4.5-2.019-4.5-4.5s2.019-4.5 4.5-4.5 4.5 2.019 4.5 4.5-2.019 4.5-4.5 4.5z" fill="#e049e8"/><path d="m52.6875 27c-2.481 0-4.5-2.019-4.5-4.5s2.019-4.5 4.5-4.5 4.5 2.019 4.5 4.5-2.019 4.5-4.5 4.5z" fill="#e049e8"/><path d="m36.1875 36c-2.481 0-4.5-2.019-4.5-4.5s2.019-4.5 4.5-4.5 4.5 2.019 4.5 4.5-2.019 4.5-4.5 4.5z" fill="#e049e8"/><g fill="#6c253d"><path d="m48.1875 36h3v3h-3z"/><path d="m24.1875 36h3v3h-3z"/><path d="m42.1875 22.5h3v3h-3z"/><path d="m58.6875 25.5h3v3h-3z"/></g></g></svg>