<svg height="24" viewBox="0 0 24 24" width="24" xmlns="http://www.w3.org/2000/svg"><path d="m12 3.75c.6753398 0 1.2601875.37133594 1.5782852.91669531h1.6300195c.1280039 0 .2506367.05371094.3374766.14815625.0868398.09397266.1298085.22064453.1190664.34821875l-.4583477 5.49999999c-.0098398.1221602.0277578.2407969.1065195.3343399.0796641.0931132.189793.1503906.3124258.1607031.2757735 0 .4745039-.1839922.4941836-.4185156l.3428477-4.11919926c.0134492-.16246485.1127929-.30572266.2596172-.37597656.1485859-.06896485.3222656-.05641797.4556406.03579296 2.4975586 1.71067188 3.9889179 4.53410546 3.9889179 7.55308986v.2135117c1.2326875.4404297 1.8333477.972168 1.8333477 1.6198359 0 1.7268282-5.1410391 4.5833477-11 4.5833477-5.85896094 0-11-2.8565195-11-4.5833477 0-.5117578.3994375-.9449687 1.16651562-1.3242539-.14914453-.4514726-.24986328-.9249453-.24986328-1.4257461 0-1.7191367.96280078-3.20241792 2.36684766-3.98659761.67869141-1.06532422 1.5296875-1.95911719 2.53872266-2.64941016.133375-.09264062.30791406-.10561719.45564062-.03579297.14772656.07025391.24616797.21351172.25961719.37597656l.15700781 1.89041016c.33515625.09113672.65149219.21982813.95154297.38057422l-.31092187-3.72878516c-.01074219-.12757421.03222656-.25420312.1190664-.34821875.08683985-.09444531.20947266-.14815625.33747656-.14815625h1.63001956c.3181406-.5453164.9029883-.91665234 1.5783281-.91665234zm-5.5 5.5c-2.02219531 0-3.66665234 1.6448867-3.66665234 3.6666953 0 2.0217656 1.64441406 3.6666524 3.66665234 3.6666524s3.6666523-1.6449297 3.6666523-3.6666954c0-2.0217656-1.64445699-3.6666523-3.6666523-3.6666523zm0 .9166523c.25334375 0 .45839063.204961.45839063.4583047 0 .2533438-.20500391.4583477-.45834766.4583477-1.01066797 0-1.83334766.82225-1.83334766 1.8333476 0 .2533438-.2050039.4583477-.45834765.4583477s-.45834766-.2050039-.45834766-.4583477c0-1.5164531 1.23354688-2.75 2.75-2.75zm5.5-5.49995699c-.5057422 0-.9166523.41133985-.9166523.91665235v6.39052734c.0067461.5358203.4139609.9427773.9166523.9427773.5057422 0 .9166523-.4113398.9166523-.9166523v-6.41665234c0-.5053125-.4109101-.91665235-.9166523-.91665235z" fill="#6236ff"/></svg>