<svg height="24" viewBox="0 0 24 24" width="24" xmlns="http://www.w3.org/2000/svg"><path d="m12 2c-5.5225 0-10 4.54760897-10 10.1565806 0 4.7592044 3.22666667 8.7414304 7.57666667 9.8434194-.04666667-.1371138-.07666667-.2962336-.07666667-.4934405v-1.7359289c-.40583333 0-1.08583333 0-1.25666667 0-.68416666 0-1.2925-.2987728-1.5875-.8539992-.3275-.6170123-.38416666-1.5607279-1.19583333-2.1379602-.24083333-.1921287-.0575-.4113415.22-.3817182.5125.1472704.9375.5044435 1.3375 1.0342785.39833333.5306813.58583333.6508675 1.33.6508675.36083333 0 .90083333-.0211595 1.40916667-.1024122.27333333-.7050359.74583333-1.3542107 1.32333333-1.6606009-3.33-.3478629-4.91916667-2.0304697-4.91916667-4.314854 0-.9834955.4125-1.9348286 1.11333334-2.73635209-.23-.79559881-.51916667-2.41811256.08833333-3.03597122 1.49833333 0 2.40416667.98688108 2.62166667 1.25349133.74666663-.25983919 1.56666663-.40710961 2.42833333-.40710961.8633333 0 1.6866667.14727042 2.435.40880237.215-.26491748 1.1216667-1.25518409 2.6233333-1.25518409.61.61870504.3175 2.24798984.085 3.0418959.6966667.79983071 1.1066667 1.74862461 1.1066667 2.73042741 0 2.2826915-1.5866667 3.964452-4.9116667 4.3140076.915.4849768 1.5825 1.8476513 1.5825 2.8743123v2.3140077c0 .0880237-.0191666.1515023-.0291666.2268303 3.8966666-1.3872197 6.6958333-5.1451545 6.6958333-9.5768092 0-5.60897163-4.4775-10.1565806-10-10.1565806z" fill="#6236ff" fill-rule="evenodd"/></svg>