<svg height="145" viewBox="0 0 145 145" width="145" xmlns="http://www.w3.org/2000/svg"><g fill="none" fill-rule="evenodd"><path d="m72.5 0c-58 0-72.5 14.5-72.5 72.5s14.5 72.5 72.5 72.5 72.5-14.5 72.5-72.5-14.5-72.5-72.5-72.5z" fill="#6554c0"/><path d="m71.4062312 38.1557844c.4264048-.2050984.9413088-.2079174 1.370932-.007048l28.9593308 13.5181616c.46985.2191944.763506.6484206.763506 1.1150015v17.3078985c-.001609 14.6923669-10.0615472 27.9511602-25.5247597 33.640347l-4.4040387 1.666159c-.3660647.138847-.7820105.138142-1.1472707-.001409l-3.9084435-1.492073c-15.1816245-5.8153466-24.9985921-18.947275-25.0154874-33.4627358v-17.6581867c0-.4616472.2864153-.8859399.74822-1.1079536zm17.749862 23.4095224c-.5334112-.6565062-1.4985094-.7556662-2.1550156-.2213999l-17.6837796 14.3867166-7.1198433-8.3379699c-.549653-.6428289-1.5164609-.7189083-2.1601446-.1701103-.6436837.549653-.7197634 1.5164609-.1701104 2.1601446l8.0917803 9.475743c.5402499.632571 1.4865418.7180536 2.1310805.1931907l18.8454876-15.3312992c.6556514-.5334113.7548111-1.4985095.2205451-2.1550156z" fill="#fff" fill-rule="nonzero"/></g></svg>