<svg height="145" viewBox="0 0 145 145" width="145" xmlns="http://www.w3.org/2000/svg"><g fill="none" fill-rule="evenodd"><path d="m72.5 0c-58 0-72.5 14.5-72.5 72.5s14.5 72.5 72.5 72.5 72.5-14.5 72.5-72.5-14.5-72.5-72.5-72.5z" fill="#97a0af"/><path d="m72.5 37c9.4823828 0 18.3971816 3.6926934 25.1023828 10.3977559 6.7049242 6.7050625 10.3976172 15.6198613 10.3976172 25.1022441s-3.692693 18.3971816-10.3976172 25.1022441c-6.7052012 6.7050629-15.62 10.3977559-25.1023828 10.3977559s-18.3971816-3.692693-25.1023828-10.3977559c-6.7049238-6.7050625-10.3976172-15.6198613-10.3976172-25.1022441s3.6926934-18.3971816 10.3976172-25.1022441c6.7052012-6.7050625 15.62-10.3977559 25.1023828-10.3977559zm0 5.1958965c-16.7098223 0-30.3041035 13.5944199-30.3041035 30.3041035s13.5942812 30.304104 30.3041035 30.304104 30.304104-13.5942817 30.304104-30.304104-13.5942817-30.3041035-30.304104-30.3041035zm0 4.1601562c14.4157734 0 26.1439473 11.7280352 26.1439473 26.1439473s-11.7281739 26.1439473-26.1439473 26.1439473-26.1439473-11.7280352-26.1439473-26.1439473 11.7281739-26.1439473 26.1439473-26.1439473zm12.9509741 26.8132473h-13.0687349l-2.799768 4.8504951h9.0164555c-.8338853.7967267-1.722789 1.5090055-2.6667112 2.1368364-.6904978.4592709-3.9942243 2.4103168-7.0295815 4.146304-2.0235714 1.1573248-3.5784035 2.2468752-4.6644963 3.2686511l4.286428 2.5227499c.6003689-.4699474 1.8329037-1.2560713 3.6976042-2.3583718 2.7970509-1.6534508 5.3670063-3.0529688 6.9885862-4.2678732 2.3391147-1.7524888 3.9936872-3.5685876 4.9637173-5.4482964.4106269-.7566541.7204325-1.5486269.9294167-2.3759183.2089842-.8272915.3246789-1.6521504.347084-2.4745768zm-7.4384287 12.0577915-4.4277557 2.6135747c.5580581.305897 1.0823975.6167209 1.5730183.9324715.4906207.3157507 1.0209705.6959767 1.5910493 1.1406781l4.2462913-2.4484394c-.5676574-.4977532-1.0705721-.9117382-1.5087442-1.241955-.4381722-.3302168-.9294585-.6623267-1.473859-.9963299zm-1.361114-30.3170569c-2.5079189 1.5452496-4.2803327 2.6162874-5.3172414 3.2131134-3.5111342 2.0209457-6.2122538 3.6732941-7.9257534 5.4155139-2.5695374 2.6126057-3.8543062 5.577528-3.8543062 8.894767-.0595189 2.2455141.5242063 4.3160733 1.7511756 6.2116776 1.2269693 1.8956042 3.1687031 3.7267487 5.8252014 5.4934334l4.3969041-2.6484942c-2.1657874-1.1401263-4.0233493-2.4786703-5.5726858-4.0156318s-2.3011312-3.2172898-2.2553841-5.040985c.1380734-2.219262.8898681-3.9268147 2.2553841-5.1226582 2.048274-1.7937653 4.2990336-3.3338243 5.0477105-3.7336879 2.1959444-1.1728398 4.5894404-2.468596 7.0280298-4.0847133.5891885-.3904708 1.5380036-1.0978236 2.8464451-2.1220584zm-19.8259294 15.5098873h-4.6779571v4.1601562h4.6779571zm36.0269531 0h-4.6779571v4.1601562h4.6779571zm-14.9696772-9.7209135-4.45577 2.5748826c2.2409328 1.2572623 3.964295 2.46033 5.1700866 3.609203 1.2057917 1.148873 2.0423753 2.4368743 2.509751 3.8640041h4.1924437c-.1208351-1.7506857-.8534314-3.5474008-2.197789-5.3901455-1.3443575-1.8427446-3.0839316-3.3953927-5.2187223-4.6579442zm-9.3057263-5.6267621-4.2149934 2.4499614c.3998967.3776413.8189312.7315704 1.2571033 1.0617871.4381721.3302168.9294585.6623268 1.473859.9963299l4.4277556-2.6135746c-.558058-.3058971-1.0823974-.6167209-1.5730182-.9324716-.4906207-.3157506-.9475228-.636428-1.3707063-.9620322z" fill="#fff" fill-rule="nonzero"/></g></svg>