<svg height="21" viewBox="0 0 21 21" width="21" xmlns="http://www.w3.org/2000/svg" xmlns:xlink="http://www.w3.org/1999/xlink"><linearGradient id="a" x1="100%" x2="19.619217%" y1="100%" y2="14.216759%"><stop offset="0" stop-color="#4e5cd4"/><stop offset="1" stop-color="#ac4fe7"/></linearGradient><path d="m271.5 0c1.380712 0 2.5 1.11928813 2.5 2.5v5.5h5.5c1.380712 0 2.5 1.11928813 2.5 2.5 0 1.3807119-1.119288 2.5-2.5 2.5h-5.5v5.5c0 1.3807119-1.119288 2.5-2.5 2.5s-2.5-1.1192881-2.5-2.5v-5.5h-5.5c-1.380712 0-2.5-1.1192881-2.5-2.5 0-1.38071187 1.119288-2.5 2.5-2.5h5.5v-5.5c0-1.38071187 1.119288-2.5 2.5-2.5z" fill="url(#a)" fill-rule="evenodd" transform="translate(-261)"/></svg>