<svg height="658" viewBox="0 0 1440 658" width="1440" xmlns="http://www.w3.org/2000/svg" xmlns:xlink="http://www.w3.org/1999/xlink"><defs><path id="a" d="m0 0h1440v658h-1440z"/><mask id="b" fill="#fff"><use fill="#fff" fill-rule="evenodd" xlink:href="#a"/></mask></defs><g fill="none" fill-rule="evenodd"><g fill-rule="nonzero"><circle cx="1110" cy="502" fill="#d3e9ef" mask="url(#b)" opacity=".3" r="554"/><path d="m353.5 121c1.380712 0 2.5 1.119288 2.5 2.5v5.5h5.5c1.380712 0 2.5 1.119288 2.5 2.5s-1.119288 2.5-2.5 2.5h-5.5v5.5c0 1.380712-1.119288 2.5-2.5 2.5s-2.5-1.119288-2.5-2.5v-5.5h-5.5c-1.380712 0-2.5-1.119288-2.5-2.5s1.119288-2.5 2.5-2.5h5.5v-5.5c0-1.380712 1.119288-2.5 2.5-2.5z" fill="#11223f" mask="url(#b)" opacity=".05"/><path d="m691.5 358c1.380712 0 2.5 1.119288 2.5 2.5v5.5h5.5c1.380712 0 2.5 1.119288 2.5 2.5s-1.119288 2.5-2.5 2.5h-5.5v5.5c0 1.380712-1.119288 2.5-2.5 2.5s-2.5-1.119288-2.5-2.5v-5.5h-5.5c-1.380712 0-2.5-1.119288-2.5-2.5s1.119288-2.5 2.5-2.5h5.5v-5.5c0-1.380712 1.119288-2.5 2.5-2.5z" fill="#11223f" mask="url(#b)" opacity=".05"/><path d="m1237.5 584c1.38071 0 2.5 1.119288 2.5 2.5v5.5h5.5c1.38071 0 2.5 1.119288 2.5 2.5s-1.11929 2.5-2.5 2.5h-5.5v5.5c0 1.380712-1.11929 2.5-2.5 2.5s-2.5-1.119288-2.5-2.5v-5.5h-5.5c-1.38071 0-2.5-1.119288-2.5-2.5s1.11929-2.5 2.5-2.5h5.5v-5.5c0-1.380712 1.11929-2.5 2.5-2.5z" fill="#11223f" mask="url(#b)" opacity=".05"/><path d="m1308 214c1.05197 0 1.90476.852791 1.90476 1.904762l-.00076 4.190238 4.19124.000238c1.05197 0 1.90476.852791 1.90476 1.904762s-.85279 1.904762-1.90476 1.904762l-4.19124-.000762.00076 4.191238c0 1.051971-.85279 1.904762-1.90476 1.904762s-1.90476-.852791-1.90476-1.904762l-.00024-4.191238-4.19024.000762c-1.05197 0-1.90476-.852791-1.90476-1.904762s.85279-1.904762 1.90476-1.904762l4.19024-.000238.00024-4.190238c0-1.051971.85279-1.904762 1.90476-1.904762z" fill="#11223f" mask="url(#b)" opacity=".05"/><path d="m138.809524 495c1.656854 0 3 1.343146 3 3l-.000524 9.19 9.191.000476c1.656854 0 3 1.343146 3 3v1.619048c0 1.656854-1.343146 3-3 3l-9.191-.000524.000524 9.191c0 1.656854-1.343146 3-3 3h-1.619048c-1.656854 0-3-1.343146-3-3l-.000476-9.191-9.19.000524c-1.656854 0-3-1.343146-3-3v-1.619048c0-1.656854 1.343146-3 3-3l9.19-.000476.000476-9.19c0-1.656854 1.343146-3 3-3z" fill="#11223f" mask="url(#b)" opacity=".05"/></g><g mask="url(#b)"><g transform="translate(160 170)"><g fill-rule="nonzero"><path d="m538.65 395.3c-7.217749 40.645319-27.976883 77.652263-58.9 105-10.676513 9.414374-22.229132 17.785837-34.5 25-43.25 26.15-96.85 42-152.65 55l-9.55 2.15c-8.294207 1.884058-16.802015 2.657496-25.3 2.3-88.75-3.7-149.2-135.25-168-273.7-16.4-123.25 11.05-262.85 133.95-269.15 46.15-2.3 100 20.7 150 57.7 3.6 2.65 7.2 5.4 10.75 8.2l2.2 1.75c93.35 74.4 169.6 195.05 152 285.75z" fill="#11223f" opacity=".03"/><path d="m103.05 511.35c6.95 14.05 9.5 31.85-4.45 37.55-15.6 6.4-40.5-3.9-47.7-27.35-4.65-15-3.05-35.9 10-43.95 10.65-6.9 33.85 16.55 42.15 33.75z" fill="#f5f9fd"/><path d="m233.85 608.5c-3.354249-.200577-6.693527-.60129-10-1.2-.171043-.022881-.323954-.118298-.419676-.261882-.095723-.143585-.124989-.321432-.080324-.488118.024413-.16017.112565-.303659.244406-.397831.131842-.094172.296164-.131022.455594-.102169 3.306331.599656 6.645665 1.000376 10 1.2.168184-.000585.328893.069445.442969.193028.114077.123583.171047.289372.157031.456972-.009593.193028-.104586.371776-.259199.487735-.154612.11596-.352808.157103-.540801.112265zm10 0c-.331371 0-.6-.268629-.6-.6-.030022-.162241.014379-.32939.120956-.455345.106578-.125955.264072-.197409.429044-.194655 3.356922-.227009 6.696615-.661169 10-1.3.34373-.061895.67493.158905.75.5.028853.15943-.007997.323752-.102169.455594-.094172.131841-.237661.219993-.397831.244406-3.303386.649275-6.6427 1.100083-10 1.35zm-29.6-3.5c-3.209263-.980676-6.36377-2.132322-9.45-3.45-.305085-.136932-.456491-.483003-.35-.8.156305-.312421.519025-.461777.85-.35 3.036142 1.300912 6.140716 2.435918 9.3 3.4.344823.097101.54608.454891.45.8-.152299.289079-.484329.434343-.8.35zm49.25-.3c-.28066.00888-.52994-.17808-.6-.45-.100497-.330597.075225-.68204.4-.8 1.45-.45 2.95-1 4.45-1.55l5-1.85c.152069-.064746.324112-.063895.475534.002352.151421.066247.268809.192022.324466.347648.08275.149805.091049.329594.022453.486386-.068597.156791-.206271.272716-.372453.313614l-5 1.9c-1.5.55-3.05 1.1-4.55 1.55zm18.7-7.05c-.248492-.006529-.467226-.165608-.55-.4-.08275-.149805-.091049-.329594-.022453-.486386.068597-.156791.206271-.272716.372453-.313614l9.3-3.7c.316997-.106491.663068.044915.8.35.106491.316997-.044915.663068-.35.8l-9.3 3.7zm-86.35-.45h-.3c-2.9-1.55-5.8-3.3-8.65-5-.210923-.244079-.210923-.605921 0-.85.112581-.112973.265509-.176473.425-.176473s.312419.0635.425.176473c2.8 1.85 5.7 3.55 8.55 5 .210923.244079.210923.605921 0 .85-.151145.037803-.31084.020059-.45-.05zm105-7.05c-.240172.016266-.463015-.125543-.55-.35-.144601-.317918-.012121-.693278.3-.85 3.1-1.25 6.2-2.55 9.25-3.9.315671-.084343.647701.060921.8.35.06746.145716.073696.312393.017315.462743-.056381.150351-.170676.271828-.317315.337257-3.1 1.35-6.15 2.65-9.25 3.9zm-121.7-3.8c-.113554.038112-.236446.038112-.35 0-2.6-2-5-4.1-7.8-6.35-.262335-.220914-.295914-.612665-.075-.875s.612665-.295914.875-.075c2.55 2.2 5 4.35 7.75 6.3.12915.1139.203137.2778.203137.45s-.073987.3361-.203137.45c-.151325.089016-.334045.107288-.5.05zm140-4.1c-.248492-.006529-.467226-.165608-.55-.4-.06746-.145716-.073696-.312393-.017315-.462743.056381-.150351.170676-.271828.317315-.337257 3.05-1.4 6.1-2.75 9.1-4.2.213623-.171678.511975-.190924.745885-.048115s.353118.416987.298022.685451c-.055096.268463-.272657.473528-.543907.512664l-9.1 4.2zm18.15-8.499983c-.236253.001777-.451565-.13524-.55-.350017-.084321-.150563-.099733-.330142-.0423-.492871.057434-.162728.182152-.29285.3423-.357129l8.9-4.5c.197257-.19092.493189-.237332.739423-.115967.246233.121366.389673.38434.358402.657071-.031271.272732-.230512.496414-.497825.558896-3 1.55-5.95 3.05-9 4.5zm-173.4-.500017c-.128608.050203-.271392.050203-.4 0-2.333333-2.3-4.683333-4.7-7.05-7.2-.127183-.104471-.200894-.26041-.200894-.425s.073711-.320529.200894-.425c.251487-.241278.648513-.241278.9 0 2.35 2.5 4.7 5 7 7.15.127183.104471.200894.26041.200894.425s-.073711.320529-.200894.425c-.141524.071314-.308476.071314-.45 0zm191.2-8.7c-.229787-.018966-.435497-.149873-.55-.35-.152584-.305042-.043438-.676141.25-.85 2.95-1.6 5.9-3.25 8.7-5 .244079-.210923.605921-.210923.85 0 .112973.112581.176473.265509.176473.425s-.0635.312419-.176473.425l-8.75 5zm-205-5.9c-.160983.061554-.339017.061554-.5 0-2.15-2.45-4.25-5-6.35-7.75-.207107-.262335-.162335-.642893.1-.85s.642893-.162335.85.1c2.1 2.65 4.25 5 6.35 7.7.241278.251487.241278.648513 0 .9zm222.15-4.15c-.210323.003846-.404418-.112611-.5-.3-.112973-.112581-.176473-.265509-.176473-.425s.0635-.312419.176473-.425c2.9-1.8 5.75-3.6 8.45-5.4.112581-.112973.265509-.176473.425-.176473s.312419.0635.425.176473c.112973.112581.176473.265509.176473.425s-.0635.312419-.176473.425c-2.7 1.8-5.55 3.6-8.45 5.4zm16.75-11.05c-.158727.072753-.341273.072753-.5 0-.112973-.112581-.176473-.265509-.176473-.425s.0635-.312419.176473-.425c2.75-2 5.45-3.95 8.05-5.95.112581-.112973.265509-.176473.425-.176473s.312419.0635.425.176473c.112973.112581.176473.265509.176473.425s-.0635.312419-.176473.425c-2.6 2-5.3 4-8.1 5.95-.052335-.008605-.102968-.025483-.15-.05zm-251.35-.5c-.20732-.006847-.396397-.120293-.5-.3-1.95-2.6-3.9-5.35-5.8-8.15-.218413-.260246-.218413-.639754 0-.9.251487-.241278.648513-.241278.9 0 1.9 2.75 3.85 5.5 5.75 8.15.112973.112581.176473.265509.176473.425s-.0635.312419-.176473.425c-.037043.116859-.106377.220861-.2.3zm267.25-11.65c-.194153-.01028-.375284-.100845-.5-.25-.112973-.112581-.176473-.265509-.176473-.425s.0635-.312419.176473-.425c2.55-2.15 5-4.35 7.55-6.55.112581-.112973.265509-.176473.425-.176473s.312419.0635.425.176473c.241278.251487.241278.648513 0 .9l-7.6 6.55c-.041449.057877-.092123.108551-.15.15zm-278.55-5c-.220349-.007799-.424145-.118961-.55-.3-1.75-2.75-3.55-5.65-5.3-8.5-.210923-.244079-.210923-.605921 0-.85.112581-.112973.265509-.176473.425-.176473s.312419.0635.425.176473c1.7 2.85 3.5 5.7 5.25 8.5.210923.244079.210923.605921 0 .85zm293.4-8.5c-.126005.062516-.273995.062516-.4 0-.127183-.104471-.200894-.26041-.200894-.425s.073711-.320529.200894-.425c2.35-2.4 4.7-5 6.9-7.2.112581-.112973.265509-.176473.425-.176473s.312419.0635.425.176473c.241278.251487.241278.648513 0 .9-2.2 2.4-4.55 5-6.95 7.25-.14096.014964-.282665-.020463-.4-.1zm-303.7-8.599996c-.222609.000775-.430134-.11242-.55-.300004-1.6-2.85-3.25-5.8-5-8.8-.066525-.284608.065095-.578618.321686-.718576.25659-.139959.575042-.091442.778314.118576 1.6 3 3.25 5.95 5 8.75.210923.244079.210923.605921 0 .85zm317.2-6.200004h-.4c-.241278-.251487-.241278-.648513 0-.9 2.1-2.6 4.15-5 6.1-7.9.112581-.112973.265509-.176473.425-.176473s.312419.0635.425.176473c.112973.112581.176473.265509.176473.425s-.0635.312419-.176473.425c-1.95 2.65-4 5.35-6.15 7.95-.098068.0278-.201932.0278-.3 0zm-326.7-11.449983c-.236253.001777-.451565-.13524-.55-.350017-1.55-3-3.05-6.05-4.45-9-.06746-.145716-.073696-.312393-.017315-.462743.056381-.150351.170676-.271828.317315-.337257.227761-.203715.572239-.203715.8 0l4.45 9c.152584.305042.043438.676141-.25.85zm338.45-4.700017h-.3c-.112973-.112581-.176473-.265509-.176473-.425s.0635-.312419.176473-.425c1.8-2.8 3.5-5.65 5-8.55.062482-.267313.286164-.466554.558896-.497825.272731-.031271.535705.112169.657071.358402.121365.246234.074953.542166-.115967.739423-1.65 2.9-3.4 5.8-5 8.6-.166163.210566-.43804.307665-.7.25zm-347.15-13.349983c-.2362527.001777-.4515654-.13524-.55-.350017-1.4-3.05-2.75-6.1-4.1-9.2-.0674597-.145716-.0736964-.312393-.017315-.462743.0563814-.150351.1706756-.271828.317315-.337257.1571428-.082218.3426085-.090703.5066018-.023176s.2897106.204146.3433982.373176c1.3 3.05 2.7 6.1 4.05 9.1.1446011.317918.0121209.693278-.3.85zm356.9-4.100017c-.312121-.156722-.444601-.532082-.3-.85 1.45-2.95 2.8-6 4.1-9.1.065429-.146639.186906-.260934.337257-.317315.15035-.056381.317027-.050145.462743.017315.305085.136932.456491.483003.35.8-1.3 3.1-2.65 6.2-4.1 9.15-.156722.312121-.532082.444601-.85.3zm-365-14.3c-.240172.016266-.4630148-.125543-.55-.35-1.3-3.1-2.55-6.2-3.75-9.3-.0822179-.157143-.0907025-.342609-.0231759-.506602.0675267-.163993.2041455-.28971.3731759-.343398.3305965-.100497.6820398.075225.8.4 1.2 3.1 2.45 6.2 3.75 9.25.111777.330975-.0375785.693695-.35.85zm372.6-4.2c-.324775-.11796-.500497-.469403-.4-.8 1.1-3.15 2.05-6.35 2.95-9.5.082843-.331371.418629-.532843.75-.45s.532843.418629.45.75c-.9 3.2-1.9 6.45-2.95 9.6-.100925.242221-.337594.4-.6.4zm-380-14.45c-.2624056 0-.4990748-.157779-.6-.4-1.15-3.1-2.3-6.25-3.4-9.4-.1242641-.317564.0324363-.675736.35-.8s.6757359.032436.8.35c1.15 3.15 2.25 6.3 3.45 9.45.1004971.330597-.0752245.68204-.4.8zm385.25-5c-.341095-.07507-.561895-.40627-.5-.75.7-3.3 1.35-6.6 1.85-10 .07507-.341095.40627-.561895.75-.5.16017.024413.303659.112565.397831.244406.094172.131842.131022.296164.102169.455594-.5 3.25-1.15 6.55-1.85 10 .098078.189748.104155.413892.016502.608676-.087653.194783-.259442.338888-.466502.391324zm-391.65-13.85c-.2702636-.021164-.5040092-.196473-.6-.45-1.05-3.15-2.1-6.3-3.1-9.5-.0267363-.300013.156141-.579093.4418861-.674342.2857451-.095248.5994953.01829.7581139.274342 1 3.2 2.05 6.35 3.1 9.5.0629209.158721.0552415.336731-.0211146.489443s-.2141564.265661-.3788854.310557zm395-5.649923c-.164972.002677-.322466-.068777-.429044-.194732-.106577-.125955-.150978-.293104-.120956-.455345.35-3.25.65-6.6.85-10-.000585-.168184.069445-.328893.193028-.442969.123583-.114077.289372-.171047.456972-.157031.328906.046833.579587.318404.6.65 0 3.4-.5 6.75-.85 10-.035059.269944-.234609.489449-.5.55zm-401.2-13.450077c-.2624056 0-.4990748-.157779-.6-.4-.95-3.2-1.9-6.45-2.8-9.65-.0451786-.159361-.0224665-.33031.0627554-.472347.0852219-.142036.2253711-.242523.3872446-.277653.1524999-.046702.3173189-.030766.4580462.044288.1407272.075055.2457811.203051.2919538.355712.9 3.25 1.85 6.45 2.8 9.6.1004971.330597-.0752245.68204-.4.8zm402.45-6.6c-.331371 0-.6-.268629-.6-.6 0-3.3-.25-6.65-.5-10-.028677-.167201.014765-.338728.119574-.472121.104809-.133392.261187-.216184.430426-.227879.172507-.013783.343389.041794.474784.154418s.212454.272996.225216.445582c0 3.3.45 6.7.5 10 .001008.340332-.260675.623822-.6.65zm-407.75-12.65c-.2806599.00888-.5299404-.17808-.6-.45v-.5c-.85-3.25-1.7-6.5-2.5-10-.0378852-.338323.1731302-.654847.5-.75.3244769-.043869.6360132.143052.75.45.8 3.25 1.6 6.5 2.45 9.7v.5c.0960803.345109-.1051765.702899-.45.8zm406.05-7.35c-.307731.008283-.579071-.20044-.65-.5-.5-3.2-1.1-6.5-1.8-10-.065785-.328627.129078-.653398.45-.75.34373-.061895.67493.158905.75.5.75 3.3 1.35 6.6 1.85 10 .028853.15943-.007997.323752-.102169.455594-.094172.131841-.237661.219993-.397831.244406zm-410.75-12.599941c-.295948.004076-.5506994-.208217-.6-.500059-.75-3.3-1.45-6.6-2.05-10-.0446653-.166686-.015399-.344533.0803237-.488118.0957228-.143584.2486332-.239001.4196763-.261882.1594301-.028853.3237525.007997.4555935.102169.1318411.094172.219993.237661.2444065.397831.65 3.2 1.35 6.5 2.05 10 .0451786.159361.0224665.33031-.0627554.472347-.0852219.142036-.2253711.242523-.3872446.277712zm406.7-6.8c-.295948.004076-.550699-.208217-.6-.500059-.9-3.1-1.9-6.35-2.95-9.5-.062921-.158721-.055242-.336731.021115-.489443.076356-.152712.214156-.265661.378885-.310557.158721-.062921.336731-.055242.489443.021115.152712.076356.265661.214156.310557.378885 1.05 3.2 2.05 6.45 2.95 9.6.045179.159361.022467.33031-.062755.472347-.085222.142036-.225371.242523-.387245.277653zm-410.8-12.850059c-.295948.004135-.5506994-.208158-.6-.5-.6-3.3-1.15-6.65-1.65-10-.0286647-.172695.0135406-.349652.1170636-.49082s.259611-.234611.4329364-.25918c.3419646-.030289.6485229.210578.7.55.5 3.3 1.05 6.6 1.6 10 .0618952.34373-.1589051.67493-.5.75zm404.1-6.15c-.262406 0-.499075-.157779-.6-.4-1.2-3.05-2.45-6.15-3.8-9.25-.06746-.145716-.073696-.312393-.017315-.462743.056381-.150351.170676-.271828.317315-.337257.317918-.144601.693278-.012121.85.3 1.35 3.1 2.65 6.2 3.8 9.3.064746.152069.063895.324112-.002352.475534-.066247.151421-.192022.268809-.347648.324466zm-407.1-13.649953c-.3233026.003799-.6002805-.230567-.65-.550047-.4-3.3-.8-6.65-1.15-10-.0286774-.167201.0147651-.338728.1195739-.472121.1048088-.133392.2611873-.216184.4304261-.227879.3419646-.030289.6485229.210578.7.55.35 3.3.75 6.65 1.15 10 .0286774.167201-.0147651.338728-.1195739.472121-.1048088.133392-.2611873.216184-.4304261.227926zm399.2-4.700047c-.245229-.011437-.469336-.142167-.6-.35-1.4-2.9-2.95-5.9-4.55-8.9-.210923-.244079-.210923-.605921 0-.85.305042-.152584.676141-.043438.85.25 1.6 3 3.15 6 4.6 8.95.144601.317918.012121.693278-.3.85zm-401.3-15.25c-.3127877.001088-.5739361-.238298-.6-.55 0-3.4-.5-6.8-.65-10-.0010083-.340332.2606747-.623822.6-.65.1676001-.014016.3333886.042954.4569717.157031.1235831.114076.1936134.274785.1930283.442969 0 3.25.4 6.6.65 10 .0140165.1676-.042954.333389-.1570307.456972-.1140766.123583-.2747851.193613-.4429693.193032zm391.8-2.399908c-.210323.003754-.404418-.112703-.5-.300092-1.65-2.85-3.4-5.7-5-8.55-.218413-.260246-.218413-.639754 0-.9.244079-.210923.605921-.210923.85 0 1.8 2.9 3.55 5.75 5 8.6.112973.112581.176473.265509.176473.425s-.0635.312419-.176473.425zm-10.6-17.000092c-.177572.065001-.372428.065001-.55 0-1.8-2.7-3.7-5.45-5.65-8.25-.112973-.112581-.176473-.265509-.176473-.425s.0635-.312419.176473-.425c.251487-.241278.648513-.241278.9 0 2 2.75 3.9 5.55 5.7 8.25.210923.244079.210923.605921 0 .85-.127525.055657-.272475.055657-.4 0zm-382-.599996c-.3313708 0-.6-.268633-.6-.600004 0-2.35 0-4.7 0-7.05 0-1 0-2 0-3 0-.331371.2686292-.6.6-.6.1676001-.014016.3333886.042954.4569717.157031.1235831.114076.1936134.274785.1930283.442969v3 7c.0140165.1676-.042954.333389-.1570307.456972-.1140766.123583-.2747851.193613-.4429693.193032zm370.55-15.700004c-.158727.072753-.341273.072753-.5 0-2.05-2.7-4.1-5.35-6.15-7.9-.112973-.112581-.176473-.265509-.176473-.425s.0635-.312419.176473-.425c.1139-.12915.2778-.203137.45-.203137s.3361.073987.45.203137c2 2.55 4.1 5 6.15 7.9.241278.251487.241278.648513 0 .9zm-370.55-4.349953c-.1681842.000538-.3288927-.069492-.4429693-.193075-.1140767-.123583-.1710472-.289372-.1570307-.456972 0-3.35.35-6.7.6-10-.0005851-.168184.0694452-.328893.1930283-.442969.1235831-.114077.2893716-.171047.4569717-.157031.3471159.050083.6035945.349308.6.7 0 3.25-.45 6.65-.6 10-.0497195.31948-.3266974.553846-.65.550047zm357.85-11.300047c-.16.066667-.34.066667-.5 0l-6.55-7.6c-.112973-.112581-.176473-.265509-.176473-.425s.0635-.312419.176473-.425c.1139-.12915.2778-.203137.45-.203137s.3361.073987.45.203137c2.15 2.4 4.35 5 6.55 7.55.241278.251487.241278.648513 0 .9-.128608.050203-.271392.050203-.4 0zm-356.25-8.65c-.3394221-.051477-.5802893-.358035-.55-.7.4-3.35.85-6.7 1.4-10 .0244135-.16017.1125654-.303659.2444065-.397831.131841-.094172.2961634-.131022.4555935-.102169.167208.008808.3212972.093306.4186196.229557.0973225.136252.1272777.309416.0813804.470443-.5 3.2-.95 6.55-1.35 10-.0739033.319313-.3739784.533653-.7.5zm342.95-6.35c-.143137.064171-.306863.064171-.45 0-2.25-2.45-4.6-5-6.9-7.25-.241278-.251487-.241278-.648513 0-.9.260246-.218413.639754-.218413.9 0 2.3 2.4 4.65 5 6.9 7.3.241278.251487.241278.648513 0 .9-.151685.027014-.307944.009652-.45-.05zm-339.55-13.4c-.1710431-.022881-.3239535-.118298-.4196763-.261882-.0957227-.143585-.124989-.321432-.0803237-.488118.65-3.25 1.45-6.55 2.25-10 .0329941-.173879.1410714-.324322.2953246-.41109.1542532-.086767.3389448-.101007.5046754-.03891.3209223.096602.5157851.421373.45.75-.85 3.2-1.6 6.5-2.3 9.75.0152694.189923-.0535611.376981-.18829.51171s-.3217874.203559-.51171.18829zm325.85-.95c-.141524.071314-.308476.071314-.45 0-2.45-2.35-5-4.7-7.25-6.95-.112973-.112581-.176473-.265509-.176473-.425s.0635-.312419.176473-.425c.251487-.241278.648513-.241278.9 0 2.4 2.25 5 4.6 7.25 6.95.241278.251487.241278.648513 0 .9-.219769.135756-.501758.115614-.7-.05zm-14.7-13.75c-.130019.042046-.269981.042046-.4 0-2.45-2.25-5-4.45-7.55-6.6-.218413-.260246-.218413-.639754 0-.9.251487-.241278.648513-.241278.9 0l7.55 6.6c.218413.260246.218413.639754 0 .9-.224791.158775-.525209.158775-.75 0zm-306.15-4.7c-.308529-.135607-.4766316-.471812-.4-.8 1.05-3.25 2.15-6.45 3.35-9.5.1522986-.289079.4843295-.434343.8-.35.155626.055657.2814012.173045.3476481.324466.0662469.151422.0670978.323465.0023519.475534-1.15 3-2.25 6.2-3.3 9.4-.0971009.344823-.4548907.54608-.8.45zm290.7-8.35c-.128608.050203-.271392.050203-.4 0-2.6-2.1-5-4.25-7.8-6.25-.209023-.236792-.217571-.589571-.020261-.836209.19731-.246637.543361-.315737.820261-.163791 2.55 2.05 5 4.15 7.8 6.3.112973.112581.176473.265509.176473.425s-.0635.312419-.176473.425c-.12027.072736-.259651.107581-.4.1zm-283.65-10.5c-.160148-.064279-.2848661-.194401-.3422998-.357129-.0574336-.162729-.0420216-.342308.0422998-.492871 1.4-3.05 2.95-6.05 4.55-8.95.0624821-.267313.2861641-.466554.5588958-.497825.2727316-.031271.5357053.112169.6570707.358402.1213654.246234.0749531.542166-.1159665.739423-1.6 2.85-3.1 5.85-4.55 8.9-.0654293.146639-.1869065.260934-.3372569.317315s-.3170266.050145-.4627431-.017315zm267.95-1.849992h-.35c-2.65-2.000008-5.4-4.000008-8.1-5.900008-.201561-.220644-.226701-.550295-.060929-.798953.165772-.248657.479734-.35224.760929-.251047 2.75 1.95 5.45 3.95 8.15 5.95.112973.112581.176473.265509.176473.425s-.0635.312419-.176473.425c-.110415.097381-.252779.150768-.4.150008zm-16.35-11.650008c-.110476.05375-.239524.05375-.35 0l-8.3-5.6c-.289949-.179493-.379493-.560051-.2-.85s.560051-.379493.85-.2c2.833333 1.8 5.633333 3.65 8.4 5.55.210923.244079.210923.605921 0 .85-.083177.144942-.233266.238748-.4.25zm-241.8-3.75h-.35c-.1129727-.112581-.1764731-.265509-.1764731-.425s.0635004-.312419.1764731-.425c1.9-2.85 3.9-5.55 5.95-8.15.1125811-.112973.2655091-.176473.425-.176473s.3124189.0635.425.176473c.1291503.1139.2031373.2778.2031373.45s-.073987.3361-.2031373.45c-2 2.55-4 5-5.85 8-.161692.150959-.3980884.190359-.6.1zm225-7.1h-.35c-2.8-1.75-5.7-3.45-8.6-5-.187564-.116111-.298937-.323467-.292163-.543958.006773-.220492.130662-.42062.325-.525.194337-.10438.429599-.097153.617163.018958 2.9 1.65 5.8 3.4 8.6 5 .112973.112581.176473.265509.176473.425s-.0635.312419-.176473.425c-.087151.108559-.212226.180031-.35.2zm-212.5-8.5c-.1294084.045753-.2705916.045753-.4 0-.1129727-.112581-.1764731-.265509-.1764731-.425s.0635004-.312419.1764731-.425c2.35-2.45 5-5 7.3-6.95.2514875-.241278.6485125-.241278.9 0 .2412779.251487.2412779.648513 0 .9-2.45 2.15-5 4.45-7.2 6.85-.1920422.13197-.4400336.151046-.65.05zm195-1.5h-.3c-2.933333-1.6-5.883333-3.15-8.85-4.65-.177081-.090301-.303109-.256665-.342093-.451581-.038983-.194917.013364-.396956.142093-.548419.073942-.151464.208181-.264843.369882-.312402.1617-.047559.335947-.024912.480118.062402 2.9 1.45 5.9 3.05 8.85 4.65.112973.112581.176473.265509.176473.425s-.0635.312419-.176473.425c-.030112.173709-.141671.322454-.3.4zm-17.85-9.05h-.3c-2.95-1.4-6.05-2.8-9.1-4.1-.312121-.156722-.444601-.532082-.3-.85.065429-.146639.186906-.260934.337257-.317315.15035-.056381.317027-.050145.462743.017315 3.1 1.35 6.15 2.7 9.15 4.15.146639.065429.260934.186906.317315.337257.056381.15035.050145.317027-.017315.462743-.103603.179707-.29268.293153-.5.3zm-162.15-2.55c-.199748.013893-.391266-.081865-.5-.25-.112973-.112581-.176473-.265509-.176473-.425s.0635-.312419.176473-.425c2.75-1.95 5.55-3.8 8.45-5.45.293981-.106709.622277.011067.781381.28032.159104.269254.103905.613641-.131381.81968-2.85 1.65-5.7 3.45-8.35 5.35-.059812.045571-.127656.079494-.2.1zm143.75-5.4c-3.1-1.2-6.25-2.4-9.35-3.5-.324775-.11796-.500497-.469403-.4-.8.152299-.289079.484329-.434343.8-.35 3.15 1.1 6.3 2.3 9.4 3.5.331371 0 .6.268629.6.6s-.268629.6-.6.6zm-126.45-4.6c-.229787-.018966-.435497-.149873-.55-.35-.144601-.317918-.012121-.693278.3-.85 3-1.35 6.1-2.65 9.3-3.8.152069-.064746.324112-.063895.475534.002352.151421.066247.268809.192022.324466.347648.106491.316997-.044915.663068-.35.8-3.15 1.15-6.25 2.45-9.2 3.8zm107.55-2.05c-3.2-1-6.4-1.9-9.6-2.75-.306948-.113987-.493869-.425523-.45-.75.033545-.186523.146824-.349117.310174-.445205.163349-.096088.3605-.1161.539826-.054795 3.15.85 6.4 1.75 9.65 2.8.331371 0 .6.268629.6.6s-.268629.6-.6.6zm-88.7-4.75c-.270264-.021164-.504009-.196473-.6-.45-.09608-.345109.105177-.702899.45-.8 3.15-.85 6.45-1.6 10-2.25.159361-.045179.33031-.022467.472347.062755.142036.085222.242523.225371.277653.387245.061895.34373-.158905.67493-.5.75-3.3.65-6.55 1.4-9.7 2.25zm69.5-.4c-3.3-.7-6.6-1.35-10-1.85-.341095-.07507-.561895-.40627-.5-.75.024413-.16017.112565-.303659.244406-.397831.131842-.094172.296164-.131022.455594-.102169 3.2.55 6.55 1.15 10 1.9.341095.07507.561895.40627.5.75-.074505.313729-.383655.512468-.7.45zm-20-3.2c-3.3-.35-6.65-.6-10-.75-.265263.075774-.549462-.024151-.708933-.249262-.15947-.225111-.15947-.526365 0-.751476.159471-.225111.44367-.325036.708933-.249262 3.3 0 6.7.4 10 .75.169239.011695.325617.094487.430426.227879.104809.133393.148251.30492.119574.472121-.04131.2849-.2651.50869-.55.55zm-30 0c-.15432.014089-.307423-.037576-.421653-.142287-.114231-.104712-.178989-.252753-.178347-.407713-.030022-.162241.014379-.32939.120956-.455345.106578-.125955.264072-.197409.429044-.194655 3.25-.35 6.6-.6 10-.7.320964.023871.576129.279036.6.6.014016.1676-.042954.333389-.157031.456972-.114076.123583-.274785.193613-.442969.193028-3.35 0-6.7.3-10 .65z" fill="#d8d5db"/><path d="m469.75 395.75v1.65c-1.25 13.95-13.25 43.7-25 70 .4 9.5.7 18 .75 25v3.7h-1.45c.35 6.2.8 16.95 1.15 29.3-43.25 26.15-96.85 42-152.65 55l-9.55 2.15c-8.294207 1.884058-16.802015 2.657496-25.3 2.3-.511244-2.092375-.696758-4.251078-.55-6.4 1.181932-28.189031 4.120971-56.276896 8.8-84.1l-3.1-.45c11.35-38.3 17.05-93.55 20-141.5.35-5.65.65-11.15.9-16.6-7.25 7.4-12.25 12-12.25 12l-15.35-25.25c-18.95 13.7-36.85 25.8-45.6 31.4-7.25 6.8-19.6 7.8-29.3-5-15.7-20.55-37.85-106.8-40.45-121.45-.379422-.143438-.733793-.345936-1.05-.6-3.6-5-16.2-32.25-15-37.55s7.1-16.75 13.95-18.3c-.8-2.45-1.7-5-3-8.55-2.9-7.9-6.35-15.9-1.15-15s17.1 30 19.15 35c.3-2.35.6-4.25.6-4.25 1.6-4.7 10-7.2 8.75 0-1.45 10 2.05 15 1.9 23.25v1.65c.020022.299666.020022.600334 0 .9.026673.215846.026673.434154 0 .65v.35c-1.217309 6.144541-3.376075 12.064282-6.4 17.55 5.45 17.8 30.45 64.35 45 90 8.9-7.4 20-16.2 31.5-25l-1-1.65s59.3-55.45 90-59.65c.45-2.15.75-4.5 1.05-6.95s.5-6.6.6-10c-22.55-.25-24.65-16.85-22.4-37.95l-3.55-.9 5.25-13.6v-1c-.576492-.671043-.911029-1.516188-.95-2.4 0-1.65.45-3.05 1.35-3.1.128608-.050203.271392-.050203.4 0 0-1.2.4-2.4.55-3.6.4-2.65.9-5 1.4-7.45-1.337208-.262824-2.712792-.262824-4.05 0l-.4-2.45c1.653641-.294683 3.346359-.294683 5 0 1.659452-6.703719 4.340844-13.112079 7.95-19-7.2-.5-10.6-2.85-5.6-8.65 7.75-9 44.45-13.5 62.95-9.7 6.5 1.35 10.75 3.7 10.8 7.2v1c1.892142-.800649 3.520858-2.117483 4.7-3.8l2.1 1.4c-1.206703 1.707256-2.777961 3.124803-4.6 4.15l-.75.4c19.8 12.9-8.2 82-8.3 82-.55 11.85-.9 23.55-.85 31.8 17.8 2.05 29.05 7.25 36.5 15.4 20 16.05 50.7 81.9 50.7 81.9l-12.55 3.3c8.95 28.7 16.55 57.5 18.75 67.15.065876 1.442371-.051732 2.887269-.35 4.3z" fill="#d1cdd3"/><rect fill="#8f58f9" height="261.25" opacity=".3" rx="33.6" transform="matrix(-1 0 0 -1 419.45 308.55)" width="334.65" x="42.4" y="23.65"/><path d="m354.75 308.55h-314.6c-22.09139 0-40-17.90861-40-40v-228.4c0-22.09139 17.90861-40 40-40h314.6c22.09139 0 40.000282 17.90861 40.000282 40v228.25c.039598 10.634625-4.157063 20.847359-11.662845 28.381288s-17.702737 11.768712-28.337437 11.768712zm-314.6-307.3c-21.4724563.02754648-38.87245352 17.4275437-38.9 38.9v228.25c.02754648 21.472456 17.4275437 38.872454 38.9 38.9h314.6c21.472456-.027546 38.872454-17.427544 38.9-38.9v-228.25c-.027546-21.4724563-17.427544-38.87245352-38.9-38.9z" fill="#8f58f9" opacity=".3"/><g fill="#8747ab" opacity=".3" transform="translate(70 57)"><rect height="43.65" rx="5.6" transform="matrix(-1 0 0 -1 56.2 44.45)" width="55.9" x=".15" y=".4"/><rect height="43.65" rx="5.6" transform="matrix(-1 0 0 -1 205 44.45)" width="55.9" x="74.55" y=".4"/><rect height="43.65" rx="5.6" transform="matrix(-1 0 0 -1 353.9 44.45)" width="55.9" x="149" y=".4"/><rect height="43.65" rx="5.6" transform="matrix(-1 0 0 -1 502.8 44.45)" width="55.9" x="223.45" y=".4"/></g><g fill="#8747ab" opacity=".3" transform="translate(70 132)"><rect height="43.65" rx="5.6" transform="matrix(-1 0 0 -1 56.2 44.55)" width="55.9" x=".15" y=".45"/><rect height="43.65" rx="5.6" transform="matrix(-1 0 0 -1 205 44.55)" width="55.9" x="74.55" y=".45"/><rect height="43.65" rx="5.6" transform="matrix(-1 0 0 -1 353.9 44.55)" width="55.9" x="149" y=".45"/><rect height="43.65" rx="5.6" transform="matrix(-1 0 0 -1 502.8 44.55)" width="55.9" x="223.45" y=".45"/></g><g fill="#8747ab" opacity=".3" transform="translate(70 207)"><rect height="43.65" rx="5.6" transform="matrix(-1 0 0 -1 56.2 44.55)" width="55.9" x=".15" y=".45"/><rect height="43.65" rx="5.6" transform="matrix(-1 0 0 -1 205 44.55)" width="55.9" x="74.55" y=".45"/><rect height="43.65" rx="5.6" transform="matrix(-1 0 0 -1 353.9 44.55)" width="55.9" x="149" y=".45"/><rect height="43.65" rx="5.6" transform="matrix(-1 0 0 -1 502.8 44.55)" width="55.9" x="223.45" y=".45"/></g><rect fill="#3358cc" height="43.65" rx="5.6" transform="matrix(-1 0 0 -1 508.1 144.25)" width="55.9" x="226.1" y="50.3"/><rect fill="#4c1ea5" height="43.65" rx="5.6" transform="matrix(-1 0 0 -1 508.1 444.35)" width="55.9" x="226.1" y="200.35"/><rect fill="#ffc84d" height="43.65" rx="5.6" transform="matrix(-1 0 0 -1 210.3 294.35)" width="55.9" x="77.2" y="125.35"/><path d="m416.1 148.75c-1.7 10.9-5 70-3.65 83.5s-65 17.6-56.15 2.55 2.55-65 2.55-65z" fill="#ffad69"/><path d="m411.500054 150.45-52.650054 19.25c1.971616 16.473281 2.440214 33.091794 1.4 49.65 21.7-8.95 16.9-27.15 16.9-36.95 0-8.9 34.4-30.25 34.350054-31.95z" fill="#d88344"/><path d="m342.1 152.7-8.2 17.5 10 4.05z" fill="#d88344"/><path d="m341.95 146.9c-5 33.65-13.2 67.2 27.6 61.65s47.1-57.75 47-67.65c-.65-52.6-65-60.1-74.6 6z" fill="#ffad69"/><path d="m421.5 110.1c2.106982-1.088829 3.936986-2.645187 5.35-4.55l-2.1-1.4c-1.276085 1.711728-3.009099 3.028819-5 3.8.027062-.349477.027062-.700523 0-1.05 0-13.6-63.3-9.7-73.75 2.45-6.2 7.2.4 9.1 11.1 8.75-.79446.611478-1.386756 1.447661-1.7 2.4-7.05 34.55 26.25 68.55 30 71.45h27.2s28.5-69.15 8.9-81.85z" fill="#343947"/><path d="m505.5 391.5c-3.6-16.05-22.35-85.5-37.25-118.8l-38.05 8.1s24.55 82.1 37.6 112.75c-3.05 16.5-18.45 93.25-27.95 114.7-4.2 10 11.7 13.85 15.55 9.05s47.55-92.6 50-120c0-.6 0-1.1 0-1.65.24952-1.369657.283261-2.769915.1-4.15z" fill="#ffad69"/><path d="m448.35 238.85c20 15.65 50.95 82.2 50.95 82.2l-65.5 17s-38.1-140.4 14.55-99.2z" fill="#e5aa33"/><path d="m400.45 222.9c39.25 1.3 52.55 14.55 59.3 37.5 7.7 26 21.25 183.25 21.25 235.75 0 0-117.55 8.35-182.65-2.35 20.4-68.95 22.6-192.9 23.05-230 .3-27.55 29.25-42.55 79.05-40.9z" fill="#ffc84d"/><path d="m408.3 251.400085c-1.182215.007917-2.297073-.549512-3-1.500085l-10.55-14.2c-.852237-1.136316-.989322-2.656611-.354102-3.927051s1.933707-2.072949 3.354102-2.072949h16.35c1.20247.03326 2.318179.633912 3.008014 1.61939.689835.985479.872318 2.239388.491986 3.38061l-5.7 14.2c-.512173 1.251485-1.658456 2.130302-3 2.3zm-10.65-19.200085c-.486978-.01066-.935795.262533-1.15.7-.255051.395804-.255051.904196 0 1.3l10.65 14.2c.265961.360798.704746.551574 1.15.5.459659-.05165.848709-.36289 1-.8l5.7-14.15c.225239-.368292.225239-.831708 0-1.2-.2353-.348174-.6298-.554817-1.05-.55z" fill="#fff"/></g><path d="m342.8 153.25c0 1.65-.45 3.05-1.35 3.1s-1.7-1.2-1.8-2.85.45-3 1.35-3.1 1.7 1.2 1.8 2.85z" fill="none"/><path d="m348.8 143.35c-2.05727-3.145736-5.805866-4.743822-9.5-4.05l-.55-2.4c4.689137-.950691 9.48821 1.024236 12.15 5z" fill="none"/><path d="m321.25 272.95c-.3 18.15-1 47.1-2.95 79.45 16.65-20 33-43.65 33.95-61.4 1.35-24.4-12.5-25.9-31-18.05z" fill="#e5aa33" fill-rule="nonzero"/><path d="m343.4 281.4-20-33.25s-55 39.65-84.55 64.2c-14.6-25.7-39.55-72.25-45-90 3.014254-5.467432 5.156703-11.37182 6.35-17.5.029637-.114784.029637-.235216 0-.35 0 0 0-.45 0-.65.021803-.299604.021803-.600396 0-.9 0-.7 0-1.25 0-1.7 0-8.05-3.35-13-1.9-23.2 1-7.15-7.15-4.7-8.75 0l-.65 4.2c-2.05-5-14.4-34.35-19.1-35s-1.75 7.25 1.15 15c1.25 3.45 2.2 6.15 3 8.55-6.9 1.6-13 13.4-13.95 18.35s11.55 32.55 15 37.55c.267234.334154.588301.621424.95.85 2.55 14.7 25 100.9 40.4 121.5 9.7 12.75 22.1 11.75 29.35 5 17.8-11.35 72.5-48.95 97.7-72.65z" fill="#ffad69" fill-rule="nonzero"/><path d="m377.15 248.15c-2 36.7-70 99.65-70 99.65l-37.9-62s111.6-104.4 107.9-37.65z" fill="#ffc84d" fill-rule="nonzero"/><path d="m356.15 157.3c-1.5 8.8-3.7 17.55 4.55 16.9s10.35-14.35 10.5-16.95c.7-14-12.1-17.35-15.05.05z" fill="#ffad69" fill-rule="nonzero"/></g></g></g></svg>
