<svg height="508" viewBox="0 0 597 508" width="597" xmlns="http://www.w3.org/2000/svg" xmlns:xlink="http://www.w3.org/1999/xlink"><defs><linearGradient id="a" x1="0%" x2="100.006958%" y1="50.018937%" y2="50.018937%"><stop offset=".33" stop-color="#ffe4a1"/><stop offset="1" stop-color="#ffca44"/></linearGradient><linearGradient id="b"><stop offset="0" stop-color="#ff8cb6"/><stop offset=".15" stop-color="#ff91ad"/><stop offset=".41" stop-color="#ff9f94"/><stop offset=".73" stop-color="#ffb56b"/><stop offset="1" stop-color="#ffca44"/></linearGradient><linearGradient id="c" x1="50.004914%" x2="50.004914%" xlink:href="#b" y1="-4.648105%" y2="111.49765%"/><linearGradient id="d"><stop offset="0" stop-color="#8747ab"/><stop offset="1" stop-color="#ffca44"/></linearGradient><linearGradient id="e" x1=".005663%" x2="99.887933%" xlink:href="#d" y1="49.9894%" y2="49.9894%"/><linearGradient id="f" x1="122.522876%" x2="-36.075374%" xlink:href="#d" y1="49.98552%" y2="49.98552%"/><linearGradient id="g" x1="49.994831%" x2="49.994831%" xlink:href="#b" y1="119.470037%" y2="-.893252%"/><path id="h" d="m0 14.32v10.82c0 8 13.36 14.3 29.82 14.3s29.82-6.4 29.82-14.3v-10.82z"/><filter id="i" height="155.7%" width="123.5%" x="-11.7%" y="-19.9%"><feOffset dx="0" dy="2" in="SourceAlpha" result="shadowOffsetOuter1"/><feGaussianBlur in="shadowOffsetOuter1" result="shadowBlurOuter1" stdDeviation="2"/><feColorMatrix in="shadowBlurOuter1" type="matrix" values="0 0 0 0 0   0 0 0 0 0   0 0 0 0 0  0 0 0 0.1 0"/></filter><linearGradient id="j" x1="49.995823%" x2="49.995823%" y1="-31.272894%" y2="29.658883%"><stop offset="0" stop-color="#8f58f9"/><stop offset="1" stop-color="#fff"/></linearGradient><linearGradient id="k" x1="95.726425%" x2="5.920475%" y1="50.017098%" y2="50.017098%"><stop offset="0" stop-color="#ffe4a1"/><stop offset="1" stop-color="#ffca44"/></linearGradient><linearGradient id="l"><stop offset="0" stop-color="#fff"/><stop offset=".12" stop-color="#dadada"/><stop offset=".45" stop-color="#7e7e7e"/><stop offset=".71" stop-color="#3a3a3a"/><stop offset=".9" stop-color="#101010"/><stop offset="1"/></linearGradient><linearGradient id="m" x1="19.334612%" x2="58.389317%" xlink:href="#l" y1="135.408922%" y2="-9.386617%"/><linearGradient id="n" x1="46.594606%" x2="57.024244%" xlink:href="#l" y1="78.683036%" y2="19.029018%"/><linearGradient id="o" x1="-53.53956%" x2="46.46044%" xlink:href="#l" y1="49.967213%" y2="49.967213%"/><linearGradient id="p" x1="50%" x2="50%" xlink:href="#l" y1="-18.951764%" y2="45.466803%"/><linearGradient id="q" x1="22.188188%" x2="77.605799%" xlink:href="#l" y1="143.341702%" y2="-19.191641%"/><linearGradient id="r" x1="6%" x2="78%" xlink:href="#l" y1="149%" y2="-17%"/><linearGradient id="s" x1="50.017953%" x2="50.017953%" xlink:href="#l" y1="-21.943812%" y2="88.496583%"/><linearGradient id="t" x1="49.945593%" x2="49.945593%" xlink:href="#l" y1="-13.948787%" y2="87.196766%"/><rect id="u" height="21.12" rx="1.21" width="69.08"/><rect id="v" height="21.12" rx="1.21" width="69.08"/><rect id="w" height="21.12" rx="1.21" width="69.08"/><linearGradient id="x" x1="49.976625%" x2="49.976625%" xlink:href="#b" y1="-10.884626%" y2="101.030178%"/><linearGradient id="y" x1="49.987772%" x2="49.987772%" xlink:href="#l" y1="-20.528054%" y2="83.846756%"/><linearGradient id="z"><stop offset="0" stop-color="#fff"/><stop offset="1"/></linearGradient><linearGradient id="A" x1="50%" x2="50%" xlink:href="#z" y1="-24.849607%" y2="85.932439%"/><linearGradient id="B" x1="49.727273%" x2="49.727273%" xlink:href="#z" y1="163.001759%" y2="5.612336%"/><linearGradient id="C" x1="95.318811%" x2="58.886479%" xlink:href="#z" y1="114.359673%" y2="70.624387%"/><linearGradient id="D" x1="50%" x2="50%" xlink:href="#z" y1="-88.226377%" y2="33.350177%"/><linearGradient id="E" x1="50.895309%" x2="43.700864%" xlink:href="#z" y1="70.62963%" y2="1.37037%"/><mask id="F" fill="#fff"><use fill="#fff" fill-rule="evenodd" xlink:href="#u"/></mask><mask id="G" fill="#fff"><use fill="#fff" fill-rule="evenodd" xlink:href="#v"/></mask><mask id="H" fill="#fff"><use fill="#fff" fill-rule="evenodd" xlink:href="#w"/></mask></defs><g fill="none" fill-rule="evenodd"><path d="m93.8 130v247.66c0 14.516244 8.552534 27.669694 21.82 33.56l210 93.26c9.485265 4.219391 20.314735 4.219391 29.8 0l210-93.26c13.263126-5.892219 21.808212-19.046947 21.800006-33.56v-247.66c.008206-14.513053-8.53688-27.667781-21.800006-33.56l-210-93.26c-9.485265-4.21939146-20.314735-4.21939146-29.8 0l-210 93.26c-13.267466 5.890306-21.82 19.043756-21.82 33.56z" fill="#f9ca47" fill-rule="nonzero"/><path d="m282.12 84.6h158.54c13.64 0 8.62-6.8-5.76-11.58s-11.44-25.38-29.46-30.28c-14.56-4-19.06 6.48-34.14 5.04s-22.82-2.34-29.12 2.22c-7.02 5.02-4 18-18 19.04s-24.44 5.24-30.54 10.42c-3.170327 2.9334774-7.219269 4.7400366-11.52 5.14z" fill="url(#a)" fill-rule="nonzero"/><path d="m114.96 443.1s26-16.66 39.14-37.56 19.04-28.96 37.9-31.54c20.629995-3.067598 39.354109-13.77525 52.46-30 13.16-16.76 40.24-46.54 71.54-44.48s61.08 33.06 78.74 47.52 34.98 10.66 44.68 25.56 12.78 32.4 27.5 38.7 49.08 15.12 55.08 31.8z" fill="url(#c)" fill-rule="nonzero"/><path d="m152.38 340.58c-10.64-8.52-15.36 13.12-22.22 13.12s-7.58-7.1-2.26-11 21.42-7.8 28-20.58.46-30.5-7.7-28.72-14.54 24.12-22.34 25.54-7.46-6.4-2.14-12 21.56-14.94 24.06-29.16-13.78-25.9-20.22-20.22-1.42 29.44-11 25.2.34-18.22 5.32-31.1.7-31.66-17.38-31.66-22.36 18.8-17.4 31.7 14.9 26.84 5.34 31.1-4.62-19.52-11-25.2-22.7 6-20.22 20.22 18.78 23.38 24.12 29.06 5.68 13.48-2.14 12-14.18-23.78-22.34-25.54-14.2 16-7.7 28.72 22.6 16.68 28 20.58 4.62 11-2.26 11-11.66-21.64-22.3-13.06-4.6 29.08 22 40.78c17.44 7.68 26 27.32 26 27.32s8.44-19.64 25.88-27.32c26.52-11.7 32.54-32.28 21.9-40.78z" fill="url(#e)" fill-rule="nonzero"/><path d="m104.5 229.54v213.56" stroke="#343947" stroke-width=".71"/><path d="m59.8 306.64s0 21.52 44.7 36.42" stroke="#343947" stroke-width=".71"/><path d="m59.8 350.62s4.48 15.14 44.7 31.46" stroke="#343947" stroke-width=".71"/><path d="m71.86 267.86c.94 11.82 7.32 26.72 32.64 36.18" stroke="#343947" stroke-width=".71"/><path d="m149.18 306.64s0 21.52-44.68 36.42" stroke="#343947" stroke-width=".71"/><path d="m149.18 350.62s-4.48 15.14-44.68 31.38" stroke="#343947" stroke-width=".71"/><path d="m137.12 267.86c-.94 11.82-7.32 26.72-32.62 36.18" stroke="#343947" stroke-width=".71"/><path d="m567.3 384c-7.8-6.22-11.24 9.62-16.28 9.62s-5.54-5.2-1.64-8 15.68-5.7 20.44-15.06.34-22.34-5.64-21.04-10.64 17.66-16.36 18.7-5.46-4.66-1.56-8.82 15.84-10.92 17.66-21.3-10.12-18.96-14.8-14.8-1.04 21.56-8 18.44.26-13.34 4-22.78.52-23.2-12.72-23.2-16.36 13.78-12.72 23.2 10.9 19.66 3.88 22.78-3.36-14.28-8-18.44-16.62 4.42-14.8 14.8 13.76 17.14 17.66 21.3 4.14 9.86-1.56 8.82-10.4-17.4-16.36-18.7-10.4 11.7-5.64 21.04 16.54 12.2 20.44 15.06 3.38 8-1.66 8-8.48-15.84-16.26-9.62-3.38 21.3 16 29.88c12.76 5.62 18.96 20 18.96 20s6.18-14.38 18.96-20c19.38-8.56 23.78-23.62 16-29.88z" fill="url(#f)" fill-rule="nonzero"/><path d="m532.24 302.74v140.36" stroke="#343947" stroke-width=".52"/><path d="m499.52 359.18s0 15.76 32.72 26.66" stroke="#343947" stroke-width=".52"/><path d="m499.52 391.38s3.28 11.08 32.72 23.04" stroke="#343947" stroke-width=".52"/><path d="m508.34 330.78c.7 8.66 5.38 19.58 24 26.5" stroke="#343947" stroke-width=".52"/><path d="m564.96 359.18s0 15.76-32.72 26.66" stroke="#343947" stroke-width=".52"/><path d="m564.96 391.38s-3.28 11.08-32.72 23.04" stroke="#343947" stroke-width=".52"/><path d="m556.14 330.78c-.7 8.66-5.38 19.58-23.9 26.5" stroke="#343947" stroke-width=".52"/><path d="m246.82 346.96v-19.42" stroke="#6c253d" stroke-linecap="round" stroke-linejoin="round" stroke-width=".97"/><path d="m279.1 420.34h65.66c3.567759 0 6.46-2.892241 6.46-6.46v-16.48" stroke="#6c253d" stroke-linecap="round" stroke-linejoin="round" stroke-width=".97"/><path d="m403.339995 90.48v67.18c-.004852 5.684181 3.343598 10.836246 8.540005 13.14l82.32 36.56c3.716403 1.65994 7.963597 1.65994 11.68 0l82.32-36.56c5.200745-2.301843 8.556202-7.452627 8.56-13.14v-67.18c-.003798-5.6873733-3.359255-10.838157-8.56-13.14l-82.32-36.56c-3.720652-1.6398843-7.959348-1.6398843-11.68 0l-82.32 36.56c-5.196407 2.3037544-8.544857 7.4558193-8.540005 13.14z" fill="url(#g)" fill-rule="nonzero"/><g fill="#8747ab" fill-rule="nonzero" transform="translate(521.22 74.84)"><path d="m19.92 19.5-19.92-9.74v8.66l19.92 9.74 19.92-9.74v-8.66z" opacity=".9"/><path d="m19.92 28.26-19.92-9.74v8.66l19.92 9.74 19.92-9.74v-8.66z" opacity=".75"/><path d="m19.92 37.02-19.92-9.74v8.66l19.92 9.74 19.92-9.74v-8.66z" opacity=".6"/><path d="m19.92 45.78-19.92-9.74v8.66l19.92 9.74 19.92-9.74v-8.66z" opacity=".45"/><path d="m19.92 54.54-19.92-9.74v8.66l19.92 9.74 19.92-9.74v-8.66z" opacity=".3"/><path d="m19.92 63.3-19.92-9.74v8.66l19.92 9.74 19.92-9.74v-8.66z" opacity=".1"/><path d="m19.92 0-19.92 9.76 19.92 9.74 19.92-9.74z"/></g><g fill="#8747ab" fill-rule="nonzero" transform="translate(439.02 74.84)"><path d="m19.92 19.5-19.92-9.74v8.66l19.92 9.74 19.92-9.74v-8.66z" opacity=".9"/><path d="m19.92 28.26-19.92-9.74v8.66l19.92 9.74 19.92-9.74v-8.66z" opacity=".75"/><path d="m19.92 37.02-19.92-9.74v8.66l19.92 9.74 19.92-9.74v-8.66z" opacity=".6"/><path d="m19.92 45.78-19.92-9.74v8.66l19.92 9.74 19.92-9.74v-8.66z" opacity=".45"/><path d="m19.92 54.54-19.92-9.74v8.66l19.92 9.74 19.92-9.74v-8.66z" opacity=".3"/><path d="m19.92 63.3-19.92-9.74v8.66l19.92 9.74 19.92-9.74v-8.66z" opacity=".1"/><path d="m19.92 0-19.92 9.76 19.92 9.74 19.92-9.74z"/></g><g fill-rule="nonzero"><g opacity=".3" transform="translate(470 143)"><path d="m.22 5.82v10.8c0 8 13.36 14.32 29.82 14.32s29.82-6.42 29.82-14.32v-10.8l-29.86 10.62z" fill="#8f58f9"/><path d="m30 9.54c-12.56 0-23.3-3.74-27.68-9.02-1.31832165 1.45758686-2.07664964 3.33568888-2.14 5.3 0 8 13.36 14.3 29.82 14.3s29.82-6.4 29.82-14.3c-.0546007-1.9661475-.8141067-3.84716686-2.14-5.3-4.34 5.28-15.08 9.02-27.68 9.02z" fill="#8747ab"/></g><g opacity=".7" transform="translate(470 122)"><path d="m.22 5.4v10.82c0 8 13.36 14.32 29.82 14.32s29.82-6.42 29.82-14.32v-10.82z" fill="#8f58f9"/><path d="m30 9.12c-12.56 0-23.3-3.74-27.68-9.02-1.31534681 1.4594481-2.07321647 3.33641502-2.14 5.3 0 8 13.36 14.32 29.82 14.32s29.82-6.4 29.82-14.32c-.0667835-1.96358498-.8246532-3.8405519-2.14-5.3-4.34 5.28-15.08 9.02-27.68 9.02z" fill="#8747ab"/></g><g transform="translate(470.22 91.68)"><use fill="#000" filter="url(#i)" xlink:href="#h"/><use fill="#8f58f9" xlink:href="#h"/></g><ellipse cx="500.04" cy="106" fill="#8747ab" rx="29.82" ry="14.32"/></g><path d="m195 159.44h239.38v174.72h-239.38z" fill="#000" fill-rule="nonzero" opacity=".2"/><path d="m192.02 156.06h239.38v174.72h-239.38z" fill="url(#j)" fill-rule="nonzero"/><path d="m192.02 156.06h239.38v20.72h-239.38z" fill="#8f58f9" fill-rule="nonzero"/><path d="m302.92 273.14-45.86 22.44" stroke="#6c253d" stroke-linecap="round" stroke-linejoin="round" stroke-width=".97"/><path d="m302.22 239.92-43.46-21.26" stroke="#6c253d" stroke-linecap="round" stroke-linejoin="round" stroke-width=".97"/><path d="m317.14 273.46 44.3 21.68" stroke="#6c253d" stroke-linecap="round" stroke-linejoin="round" stroke-width=".97"/><path d="m317.18 239.92 44.64-21.84" stroke="#6c253d" stroke-linecap="round" stroke-linejoin="round" stroke-width=".97"/><g fill-rule="nonzero"><path d="m309.7 267.56-23.12-11.3v12.6l23.12 11.32 23.12-11.32v-12.6z" fill="#732de2"/><path d="m309.7 244.94-23.12 11.32 23.12 11.3 23.12-11.3z" fill="#f4b34a"/><path d="m286.58 256.26v12.6l23.12 11.32v-12.62z" fill="#e58842"/><path d="m309.7 249.34-23.12-11.32v12.62l23.12 11.32 23.12-11.32v-12.62z" fill="#732de2"/><path d="m309.7 226.7-23.12 11.32 23.12 11.32 23.12-11.32z" fill="#f4b34a"/><path d="m286.58 238.02v12.62l23.12 11.32v-12.62z" fill="#e58842"/><path d="m380.2 304.02-23.12-11.32v12.62l23.12 11.32 23.14-11.32v-12.62z" fill="#732de2"/><path d="m380.2 281.38-23.12 11.32 23.12 11.32 23.14-11.32z" fill="#f4b34a"/><path d="m357.08 292.7v12.62l23.12 11.32v-12.62z" fill="#e58842"/><path d="m380.2 285.8-23.12-11.32v12.62l23.12 11.32 23.14-11.32v-12.62z" fill="#732de2"/><path d="m380.2 263.16-23.12 11.32 23.12 11.32 23.14-11.32z" fill="#f4b34a"/><path d="m357.08 274.48v12.62l23.12 11.32v-12.62z" fill="#e58842"/><path d="m380.2 230.42-23.12-11.32v12.62l23.12 11.32 23.14-11.32v-12.62z" fill="#732de2"/><path d="m380.2 207.78-23.12 11.32 23.12 11.32 23.14-11.32z" fill="#f4b34a"/><path d="m357.08 219.1v12.62l23.12 11.32v-12.62z" fill="#e58842"/><path d="m380.2 212.2-23.12-11.32v12.62l23.12 11.32 23.14-11.32v-12.62z" fill="#732de2"/><path d="m380.2 189.56-23.12 11.32 23.12 11.32 23.14-11.32z" fill="#f4b34a"/><path d="m357.08 200.88v12.62l23.12 11.32v-12.62z" fill="#e58842"/><path d="m239.18 304.02-23.12-11.32v12.62l23.12 11.32 23.14-11.32v-12.62z" fill="#732de2"/><path d="m239.18 281.38-23.12 11.32 23.12 11.32 23.14-11.32z" fill="#f4b34a"/><path d="m216.06 292.7v12.62l23.12 11.32v-12.62z" fill="#e58842"/><path d="m239.18 285.8-23.12-11.32v12.62l23.12 11.32 23.14-11.32v-12.62z" fill="#732de2"/><path d="m239.18 263.16-23.12 11.32 23.12 11.32 23.14-11.32z" fill="#f4b34a"/><path d="m216.06 274.48v12.62l23.12 11.32v-12.62z" fill="#e58842"/><path d="m239.18 230.42-23.12-11.32v12.62l23.12 11.32 23.14-11.32v-12.62z" fill="#732de2"/><path d="m239.18 207.78-23.12 11.32 23.12 11.32 23.14-11.32z" fill="#f4b34a"/><path d="m216.06 219.1v12.62l23.12 11.32v-12.62z" fill="#e58842"/><path d="m239.18 212.2-23.12-11.32v12.62l23.12 11.32 23.14-11.32v-12.62z" fill="#732de2"/><path d="m239.18 189.56-23.12 11.32 23.12 11.32 23.14-11.32z" fill="#f4b34a"/><path d="m216.06 200.88v12.62l23.12 11.32v-12.62z" fill="#e58842"/></g><path d="m380.560063 166.42c0 1.789403-1.45066 3.24-3.240063 3.24s-3.24-1.450597-3.24-3.24 1.450597-3.240063 3.24-3.240063c.860935-.005301 1.688162.334332 2.296946.943117.608785.608784.948418 1.436011.943117 2.296946z" stroke="#fff" stroke-width=".52"/><circle cx="396.02" cy="166.42" r="3.24" stroke="#fff" stroke-width=".52"/><circle cx="414.72" cy="166.42" r="3.24" stroke="#fff" stroke-width=".52"/><path d="m352 137.64h-156.68c-12.92 0-8.16-6.42 5.44-10.94s10.82-24 27.86-28.62c13.78-3.74 18 6.1 32.3 4.74s21.58-2.2 27.52 2c6.64 4.76 3.74 17 17 18s23.1 4.94 28.88 9.86 17.68 4.96 17.68 4.96z" fill="url(#k)" fill-rule="nonzero"/><path d="m142.88 156c-7.08 2.4-9.02 4.34-11.42 11.42-2.4-7.02-4.34-8.96-11.46-11.42 7.08-2.38 9.02-4.32 11.42-11.42 2.44 7.16 4.38 9.1 11.46 11.42z" fill="#fff" fill-rule="nonzero"/><path d="m380 122.1c-7.1 2.4-9.04 4.34-11.44 11.44-2.38-7.1-4.32-9.04-11.42-11.44 7.1-2.38 9.04-4.32 11.42-11.42 2.48 7.1 4.42 9.04 11.44 11.42z" fill="#fff" fill-rule="nonzero"/><circle cx="571.82" cy="292.7" fill="#fff" fill-rule="nonzero" r="11.42"/><path d="m159.48 135.4c-2.89569.546206-5.163655 2.806241-5.72 5.7-.551396-2.911055-2.843331-5.179116-5.76-5.7 2.896509-.551166 5.158983-2.821579 5.7-5.72.567667 2.913541 2.860694 5.182765 5.78 5.72z" fill="#fff" fill-rule="nonzero"/><path d="m362.8 97.64c-2.901514.5489895-5.17101 2.818486-5.72 5.72-.541017-2.898421-2.803491-5.1688339-5.7-5.72 2.873276-.5399746 5.129651-2.7725991 5.7-5.64.57824 2.8704845 2.841656 5.1022451 5.72 5.64z" fill="#fff" fill-rule="nonzero"/><path d="m570.68 213.56c-2.901514.54899-5.17101 2.818486-5.72 5.72-.54899-2.901514-2.818486-5.17101-5.72-5.72 2.901169-.535786 5.174055-2.800726 5.72-5.7.545945 2.899274 2.818831 5.164214 5.72 5.7z" fill="#fff" fill-rule="nonzero"/><path d="m430.2 428c1.018848 4.971164 1.348609 10.058908.98 15.12l-6.3-.48-.22-2.68-3.02 2.36s-12.28-.24-18.78-6c0 0 17.34-.76 21.04-7.76z" fill="#804e00" fill-rule="nonzero"/><path d="m502.84 427.48c1.995506 4.674481 3.341347 9.600259 4 14.64l-6.28.74-.74-2.56-2.5 2.88s-12 2.18-19.58-2.22c0 0 16.86-4.12 19.12-11.72z" fill="#804e00" fill-rule="nonzero"/><path d="m454.84 291.58s-17.66 38.16-32.98 138.42h9.34s15.6-29.1 15.08-58l23.36-56.52s.78 36.78 4 55.74 22.04 58.78 22.04 58.78h9.02s-4.4-46-16.36-60.52c0 0 8.6-52 3.64-78z" fill="#343947" fill-rule="nonzero"/><path d="m485.74 303.2-2.86 69.72s9.48 12.92 18.96 57.08" stroke="#636363" stroke-width=".26"/><path d="m441 257.72-3.38 12.28s-18.62 29.78-20.26 35.22-1.64 10-.52 12.12l4.5 1.56 2-1.64c-.69568-2.281479-.69568-4.718521 0-7 1.364773.848008 2.258757 2.281337 2.42 3.88.310234.126961.661834.102671.951663-.065743s.485028-.461859.528337-.794257c.26-1.3-.46-7.44-2.48-9.72 0 0 17.46-20.38 21.56-26.94 2.973091-4.767276 5.104151-10.010361 6.3-15.5z" fill="#ff9c87" fill-rule="nonzero"/><path d="m441 257.72-1.56 5.68 5.18 15.84c.72-1 1.34-1.88 1.78-2.6 2.973091-4.767276 5.104151-10.010361 6.3-15.5z" fill="url(#m)" fill-rule="nonzero" opacity=".3"/><path d="m452.5 228.86c-3.12 2-14 29.12-14 29.12 3.893127 4.066502 9.197038 6.48583 14.82 6.76 0 0 1.64-7.02 2.68-14 1.122137-7.479777-.10058-15.123507-3.5-21.88z" fill="#3358cc" fill-rule="nonzero"/><path d="m452.62 264.64h.48c.84-1.28 2-8.76 3.26-17.08.410116-6.48572-.922639-12.963046-3.86-18.76-1.44.94-4.54 7.26-7.44 13.78 2.58 7.82 6.46 19.42 7.56 22.06z" fill="url(#n)" fill-rule="nonzero" opacity=".3"/><path d="m446.44 187.42c3-3.32 7.8.1 15.32 0s11.26-.42 13.52 2.94.34 7.2 2.24 9.36 4.6 2 4.68 5.1-3.12 4-3.46 6.58 1.72 5.28-7.36 7.02-13.76 6-18.18 3.38-4-6-4.94-9.26-4.42-4-4.5-7.54 2.6-6.14 2.78-8.84-2.34-6.16-.1-8.74z" fill="#343947" fill-rule="nonzero"/><path d="m474.58 221.44c5.143307 1.171474 10.217752 2.627038 15.2 4.36 1.771043 10.159477 2.986184 20.408057 3.64 30.7.64 14 2.32 38 2.32 38-6.21147.681359-12.371423 1.770374-18.44 3.26-5.84 1.82-18.3 4.54-26-.66.989062-9.012302 1.463166-18.073691 1.42-27.14-.26-12.46-1.56-33.1-.26-41.02.04-.08 6.4-5.42 22.12-7.5z" fill="#3358cc" fill-rule="nonzero"/><path d="m462.12 288.32c0 16.855731 13.664269 30.52 30.52 30.52h.76c.353509-8.011162.05251-16.037814-.9-24l3.24-.42s-1.58-22.42-2.26-36.58h-.84c-16.840122 0-30.497929 13.639893-30.52 30.48z" fill="url(#o)" fill-rule="nonzero" opacity=".3"/><circle cx="495.644968" cy="285.770776" fill="#fff" fill-rule="nonzero" r="30.52" transform="matrix(.22818095 -.97361874 .97361874 .22818095 104.316447 703.132561)"/><path d="m508 287.098453c-.020761.77014-.127964 1.542558-.32161 2.317254s-.480714 1.516318-.861203 2.224868c-.898836 1.760205-2.431973 3.460844-4.599411 5.101917-1.502566 1.137666-3.883902 2.448209-6.475666 3.99654-1.727843 1.032221-2.869917 1.768367-3.426223 2.208437l-3.97183-2.362364c1.00638-.956816 2.447097-1.977098 4.322151-3.060845.272185-.157318.546699-.316522.821122-.476164l.548007-.319437c2.094733-1.223455 4.089287-2.415859 4.893157-2.92444l.181979-.116732c.025589-.016726.048748-.032053.069387-.045927.874645-.587916 1.698308-1.254911 2.470991-2.000985h-8.354702l2.594282-4.542122zm-6.892493 11.29121c.504445.312768.959674.623764 1.365686.932987.406013.309223.872017.696889 1.398012 1.162997l-3.934639 2.292778c-.528239-.416429-1.019664-.772482-1.474276-1.068159-.454612-.295676-.940469-.586739-1.457569-.873189zm-1.261217-28.389631 3.915355 2.303863c-1.212409.959119-2.091587 1.621501-2.637533 1.987147-2.259612 1.513372-4.47744 2.72675-6.512215 3.825025-.693729.374442-2.779296 1.816591-4.677239 3.496317-1.265296 1.119817-1.961913 2.71881-2.089853 4.796981-.042389 1.707753.654228 3.281253 2.089853 4.720501 1.435624 1.439249 3.156853 2.692694 5.163684 3.760336l-4.074198 2.480114c-2.461527-1.654366-4.26075-3.369095-5.397667-5.144185-1.136917-1.775089-1.6778-3.714011-1.62265-5.816766 0-3.106343 1.190475-5.882768 3.571424-8.329276 1.587739-1.631457 4.090613-3.178756 7.344051-5.071219.960806-.558882 2.603135-1.561828 4.926988-3.008838zm1.140973 5.420936c1.97811 1.182284 3.59001 2.636222 4.8357 4.361813s1.924518 3.408079 2.036485 5.047463h-3.884744c-.433073-1.336399-1.208257-2.542515-2.32555-3.618347-1.117294-1.075833-2.714172-2.202415-4.790634-3.379746zm-8.622742-5.269037c.392124.304904.815493.605194 1.270105.900871.454612.295676.940468.586739 1.457568.873189l-4.102785 2.447415c-.504445-.312769-.959674-.623765-1.365687-.932988s-.794293-.640651-1.16484-.994283z" fill="#6236ff" fill-rule="nonzero"/><circle cx="495.68" cy="285.8" r="24.74" stroke="#8747ab" stroke-width=".5"/><path d="m487.14 256.52 10.26 14.94v31.28l-3.82 13.48c.7 0 1.4.12 2.1.12 2.940153-.002713 5.864216-.433911 8.68-1.28l-.96-9.68 10.74-39.64-5.82-7.74c-6.64323-3.053838-14.168773-3.593915-21.18-1.52z" fill="url(#p)" fill-rule="nonzero" opacity=".3"/><path d="m499.78 258.32 6 9.1-6 36s-4.68 11.04-4 13.12 3.52-4 3.52-4l-.48 6.88c-.033346.581056.236423 1.137977.713035 1.472012.476611.334035 1.092157.397592 1.626965.167988l4.78-2c1.061504-.460274 1.783889-1.467002 1.88-2.62.413181-4.013261-.05786-8.068316-1.38-11.88 0 0 11.36-27.58 11.56-36 .18-8-11.38-20-11.38-20z" fill="#ff9c87" fill-rule="nonzero"/><path d="m489.78 225.8c5.52.44 20.64 24.34 20.64 24.34-1.979353 5.301949-6.262591 9.415919-11.64 11.18 0 0-6.88-9.84-11.48-16-5.1-7-3.1-19.96 2.48-19.52z" fill="#3358cc" fill-rule="nonzero"/><path d="m474.58 221.44s-3.9-6.84-5.28-9.86c2.42-1.04 2.86-6 0-7.02s-3.02 3.12-3.02 3.12c-.490974-1.086142-.872849-2.218367-1.14-3.38-4.574301-1.996941-8.631124-5.013904-11.86-8.82-.799688 2.956159-1.037136 6.0362-.7 9.08l-2.28 2.4 2.66.46v7.14c0 2.26 4.68.86 5.84 1.88s3.58 8.78 3.58 8.78 3.12 2.78 12.2-3.78z" fill="#ff9c87" fill-rule="nonzero"/><path d="m485.3 241.24 7 10.92" stroke="#27439c" stroke-width=".52"/><path d="m452.78 262.74-.84-20.78" stroke="#27439c" stroke-width=".52"/><g fill-rule="nonzero" opacity=".3" transform="translate(454 205)"><path d="m11.64 1s-5.68 9.16-11.06 9.86c1.46.24 3.56 0 4.28.56.95570143 1.4283326 1.69062529 2.9925742 2.18 4.64.67418954.1128217 1.36645483.0366725 2-.22 3.18-1.54 3.3-13.18 3.3-13.18-.2687304-.53773095-.5025477-1.092212-.7-1.66z" fill="url(#q)"/><path d="m12.28 2.68.52-2c-.2876981.63157539-.4636404 1.30827659-.52 2z" fill="url(#r)"/></g><circle cx="544.18" cy="252.16" fill="#ffe4a1" fill-rule="nonzero" r="23.82"/><path d="m554.129406 252.984687c-.01698.629891-.10466 1.261646-.263042 1.895263-.158381.633618-.393172 1.240185-.704371 1.819701-.735151 1.439658-1.989091 2.830597-3.761821 4.172818-1.228936.930487-3.176612 2.00237-5.296395 3.268738-1.413189.844245-2.347282 1.446332-2.80228 1.806262l-3.248528-1.932159c.82311-.782572 2.001461-1.617052 3.535052-2.50344l.247149-.143026.49658-.288404c2.070446-1.205242 4.1165-2.430134 4.583735-2.744199.715365-.480851 1.389033-1.026381 2.021004-1.63659h-6.833244l2.121842-3.714964zm-5.637314 9.234989c.412581.255811.784909.510172 1.116984.763083s.713215.569979 1.143422.951206l-3.218109 1.875244c-.432042-.340594-.833975-.631806-1.205799-.873638-.371824-.241831-.769201-.479889-1.192133-.714174zm-1.031539-23.21965 3.202337 1.884311c-.99162.784456-1.710692 1.326213-2.157217 1.625272-1.848118 1.237774-3.662062 2.230186-5.326288 3.128457-.567395.306253-2.273164 1.485775-3.825476 2.859609-1.034875.915889-1.604633 2.223693-1.709274 3.923413-.03467 1.396757.535088 2.68371 1.709274 3.860859 1.174185 1.17715 2.581964 2.202332 4.223336 3.075548l-3.332254 2.028466c-2.013264-1.353093-3.484833-2.755556-4.414708-4.207387-.929876-1.451832-1.37226-3.037661-1.327153-4.757486 0-2.540654.97368-4.81147 2.921039-6.812448 1.298599-1.334356 3.345679-2.599879 6.00664-4.147709.138677-.080666.294713-.172642.468107-.275929l.369934-.221655c.786159-.47347 1.85006-1.127911 3.191703-1.963321zm.933193 4.43374c1.61788.966981 2.93624 2.156145 3.95508 3.567491 1.018839 1.411347 1.574047 2.787441 1.665624 4.12828h-3.177301c-.354207-1.09303-.988223-2.079502-1.902049-2.959417-.913825-.879915-2.219899-1.801337-3.91822-2.764267zm-7.052472-4.309503c.320716.249379.666985.494984 1.038809.736815.371823.241832.769201.47989 1.192133.714174l-3.355635 2.001721c-.412581-.255811-.784909-.510172-1.116984-.763083s-.649646-.523983-.952713-.813216z" fill="#f9ca47" fill-rule="nonzero"/><circle cx="544.172824" cy="252.172466" r="19.3" stroke="#ffa600" stroke-width=".39" transform="matrix(.9229417 -.38493975 .38493975 .9229417 -55.138175 228.905732)"/><path d="m546.26 172.2h-42.76c-1.722074 0-3.373325.685449-4.589138 1.905014-1.215812 1.219564-1.896177 2.872921-1.890893 4.594986v27.7c0 3.582055 2.897993 6.488978 6.480031 6.5h7.52c-.297933 4.920788-3.416635 9.224597-8 11.04 1.496996.618082 3.100427.937409 4.72.94 6.741529-.009785 12.308427-5.269845 12.7-12h25.78c3.589851 0 6.500031-2.910149 6.500031-6.5v-27.68c.005282-1.718605-.672341-3.368931-1.883828-4.587919s-2.857598-1.906785-4.576203-1.912081z" fill="url(#s)" fill-rule="nonzero" opacity=".3"/><path d="m544 169.999968h-42.76c-1.722074 0-3.373325.685481-4.589138 1.905046-1.215812 1.219564-1.896177 2.872921-1.890893 4.594986v27.7c-.005284 1.722065.675081 3.375422 1.890893 4.594986 1.215813 1.219565 2.867064 1.905022 4.589138 1.905014h7.52c-.293079 4.922525-3.413474 9.228669-8 11.04 1.497592.616113 3.100631.935363 4.72.94 6.741529-.009785 12.308427-5.269845 12.7-12h25.82c1.725537.005334 3.381938-.677772 4.602083-1.897917s1.903251-2.876546 1.897948-4.602083v-27.74c-.022057-3.570989-2.928991-6.45109-6.500031-6.440032z" fill="#fff" fill-rule="nonzero"/><path d="m531.82 187.5v-4.64c0-4.197364-3.402636-7.6-7.6-7.6s-7.6 3.402636-7.6 7.6v4.64h-1.58v17.44h18.38v-17.44zm-13.12-4.64c0-3.048612 2.471388-5.52 5.52-5.52s5.52 2.471388 5.52 5.52v4.64h-11.04z" fill="url(#t)" fill-rule="nonzero" opacity=".3"/><path d="m530.22 190.22h-15.18v-8.9c-.144015-2.804608 1.270309-5.460056 3.678003-6.905592 2.407693-1.445535 5.416301-1.445535 7.823994 0 2.407694 1.445536 3.822018 4.100984 3.678003 6.905592zm-13.12-2h11.04v-6.9c0-3.048612-2.471388-5.52-5.52-5.52s-5.52 2.471388-5.52 5.52z" fill="#6c253d" fill-rule="nonzero"/><path d="m513.44 185.96h18.38v17.44h-18.38z" fill="#f9ca47" fill-rule="nonzero"/><path d="m524.88 192.36c0-1.248163-1.011837-2.26-2.26-2.26s-2.26 1.011837-2.26 2.26c.006415.612071.258668 1.195856.7 1.62l-.7 4.56h4.52l-.68-4.54c.440889-.431021.686535-1.023462.68-1.64z" fill="#732de2" fill-rule="nonzero"/><path d="m512.72 201.52h19.8" stroke="#6c253d" stroke-width=".26"/><path d="m512.72 187.84h19.8" stroke="#6c253d" stroke-width=".26"/><g fill-rule="nonzero" transform="translate(212.28 350.56)"><use fill="#fff" xlink:href="#u"/><path d="m0 18.62h70v2.5h-70z" fill="#d1d1d1" mask="url(#F)"/><path d="m63.1 6.58h-21.38c-.2527505.00537889-.4970136-.09127685-.6776473-.26814741-.1806338-.17687056-.2823527-.41904486-.2823527-.67185259 0-.53019336.4298066-.96.96-.96h21.46c.5257299.01062404.949376.43427014.96.96-.0046069.26560366-.1190635.51742538-.3161375.69554995-.197074.17812458-.4591462.26662697-.7238625.24445005z" fill="#5ec778" mask="url(#F)"/><g fill="#bababa" mask="url(#F)"><g transform="translate(5.02 4.679806)"><circle cx="1.04" cy="1.040194" r="1.04"/><path d="m8.38 1.0401936c-.00007812.42244402-.2556847.80286962-.646767.96259935-.39108231.15972974-.83992979.06702428-1.13572876-.23457466-.29579897-.30159895-.37977229-.75216176-.21247955-1.14006909s.5526094-.63607952.97497531-.6279556c.27402197-.00005268.53654055.11015237.72841311.30578714.19187256.19563476.29695987.46024357.29158689.73421286z"/><path d="m14.7 1.0401936c-.0000781.42244402-.2556847.80286962-.646767.96259935-.3910823.15972974-.8399298.06702428-1.1357288-.23457466-.2957989-.30159895-.3797722-.75216176-.2124795-1.14006909s.5526094-.63607952.9749753-.6279556c.274022-.00005268.5365406.11015237.7284131.30578714.1918726.19563476.2969599.46024357.2915869.73421286z"/><path d="m21.02 1.0401936c-.0000781.42244402-.2556847.80286962-.646767.96259935-.3910823.15972974-.8399298.06702428-1.1357288-.23457466-.2957989-.30159895-.3797722-.75216176-.2124795-1.14006909s.5526094-.63607952.9749753-.6279556c.274022-.00005268.5365406.11015237.7284131.30578714.1918726.19563476.2969599.46024357.2915869.73421286z"/><circle cx="1.04" cy="5.900194" r="1.04"/><path d="m8.38 5.9001936c-.00007812.42244402-.2556847.80286962-.646767.96259935-.39108231.15972974-.83992979.06702428-1.13572876-.23457466-.29579897-.30159895-.37977229-.75216176-.21247955-1.14006909s.5526094-.63607952.97497531-.6279556c.27402197-.00005268.53654055.11015237.72841311.30578714.19187256.19563476.29695987.46024357.29158689.73421286z"/><path d="m14.7 5.9001936c-.0000781.42244402-.2556847.80286962-.646767.96259935-.3910823.15972974-.8399298.06702428-1.1357288-.23457466-.2957989-.30159895-.3797722-.75216176-.2124795-1.14006909s.5526094-.63607952.9749753-.6279556c.274022-.00005268.5365406.11015237.7284131.30578714.1918726.19563476.2969599.46024357.2915869.73421286z"/><path d="m21.02 5.9001936c-.0000781.42244402-.2556847.80286962-.646767.96259935-.3910823.15972974-.8399298.06702428-1.1357288-.23457466-.2957989-.30159895-.3797722-.75216176-.2124795-1.14006909s.5526094-.63607952.9749753-.6279556c.274022-.00005268.5365406.11015237.7284131.30578714.1918726.19563476.2969599.46024357.2915869.73421286z"/><circle cx="1.04" cy="10.760194" r="1.04"/><path d="m8.38 10.7601936c-.00007812.422444-.2556847.8028696-.646767.9625994-.39108231.1597297-.83992979.0670242-1.13572876-.2345747-.29579897-.301599-.37977229-.7521618-.21247955-1.1400691.16729274-.38790733.5526094-.63607952.97497531-.6279556.27402197-.00005268.53654055.11015237.72841311.3057871.19187256.1956348.29695987.4602436.29158689.7342129z"/><path d="m14.7 10.7601936c-.0000781.422444-.2556847.8028696-.646767.9625994-.3910823.1597297-.8399298.0670242-1.1357288-.2345747-.2957989-.301599-.3797722-.7521618-.2124795-1.1400691.1672927-.38790733.5526094-.63607952.9749753-.6279556.274022-.00005268.5365406.11015237.7284131.3057871.1918726.1956348.2969599.4602436.2915869.7342129z"/><path d="m21.02 10.7601936c-.0000781.422444-.2556847.8028696-.646767.9625994-.3910823.1597297-.8399298.0670242-1.1357288-.2345747-.2957989-.301599-.3797722-.7521618-.2124795-1.1400691.1672927-.38790733.5526094-.63607952.9749753-.6279556.274022-.00005268.5365406.11015237.7284131.3057871.1918726.1956348.2969599.4602436.2915869.7342129z"/></g></g></g><g fill-rule="nonzero" transform="translate(212.28 380)"><use fill="#fff" xlink:href="#v"/><path d="m0 18.62h70v2.5h-70z" fill="#d1d1d1" mask="url(#G)"/><path d="m63.1 6.58h-21.38c-.2527505.00537889-.4970136-.09127685-.6776473-.26814741-.1806338-.17687056-.2823527-.41904486-.2823527-.67185259 0-.53019336.4298066-.96.96-.96h21.46c.5257299.01062404.949376.43427014.96.96-.0046069.26560366-.1190635.51742538-.3161375.69554995-.197074.17812458-.4591462.26662697-.7238625.24445005z" fill="#5ec778" mask="url(#G)"/><g fill="#bababa" mask="url(#G)"><g transform="translate(5.02 4.679806)"><circle cx="1.04" cy="1.040194" r="1.04"/><path d="m8.38 1.0401936c-.00007812.42244402-.2556847.80286962-.646767.96259935-.39108231.15972974-.83992979.06702428-1.13572876-.23457466-.29579897-.30159895-.37977229-.75216176-.21247955-1.14006909s.5526094-.63607952.97497531-.6279556c.27402197-.00005268.53654055.11015237.72841311.30578714.19187256.19563476.29695987.46024357.29158689.73421286z"/><path d="m14.7 1.0401936c-.0000781.42244402-.2556847.80286962-.646767.96259935-.3910823.15972974-.8399298.06702428-1.1357288-.23457466-.2957989-.30159895-.3797722-.75216176-.2124795-1.14006909s.5526094-.63607952.9749753-.6279556c.274022-.00005268.5365406.11015237.7284131.30578714.1918726.19563476.2969599.46024357.2915869.73421286z"/><path d="m21.02 1.0401936c-.0000781.42244402-.2556847.80286962-.646767.96259935-.3910823.15972974-.8399298.06702428-1.1357288-.23457466-.2957989-.30159895-.3797722-.75216176-.2124795-1.14006909s.5526094-.63607952.9749753-.6279556c.274022-.00005268.5365406.11015237.7284131.30578714.1918726.19563476.2969599.46024357.2915869.73421286z"/><circle cx="1.04" cy="5.900194" r="1.04"/><path d="m8.38 5.9001936c-.00007812.42244402-.2556847.80286962-.646767.96259935-.39108231.15972974-.83992979.06702428-1.13572876-.23457466-.29579897-.30159895-.37977229-.75216176-.21247955-1.14006909s.5526094-.63607952.97497531-.6279556c.27402197-.00005268.53654055.11015237.72841311.30578714.19187256.19563476.29695987.46024357.29158689.73421286z"/><path d="m14.7 5.9001936c-.0000781.42244402-.2556847.80286962-.646767.96259935-.3910823.15972974-.8399298.06702428-1.1357288-.23457466-.2957989-.30159895-.3797722-.75216176-.2124795-1.14006909s.5526094-.63607952.9749753-.6279556c.274022-.00005268.5365406.11015237.7284131.30578714.1918726.19563476.2969599.46024357.2915869.73421286z"/><path d="m21.02 5.9001936c-.0000781.42244402-.2556847.80286962-.646767.96259935-.3910823.15972974-.8399298.06702428-1.1357288-.23457466-.2957989-.30159895-.3797722-.75216176-.2124795-1.14006909s.5526094-.63607952.9749753-.6279556c.274022-.00005268.5365406.11015237.7284131.30578714.1918726.19563476.2969599.46024357.2915869.73421286z"/><circle cx="1.04" cy="10.760194" r="1.04"/><path d="m8.38 10.7601936c-.00007812.422444-.2556847.8028696-.646767.9625994-.39108231.1597297-.83992979.0670242-1.13572876-.2345747-.29579897-.301599-.37977229-.7521618-.21247955-1.1400691.16729274-.38790733.5526094-.63607952.97497531-.6279556.27402197-.00005268.53654055.11015237.72841311.3057871.19187256.1956348.29695987.4602436.29158689.7342129z"/><path d="m14.7 10.7601936c-.0000781.422444-.2556847.8028696-.646767.9625994-.3910823.1597297-.8399298.0670242-1.1357288-.2345747-.2957989-.301599-.3797722-.7521618-.2124795-1.1400691.1672927-.38790733.5526094-.63607952.9749753-.6279556.274022-.00005268.5365406.11015237.7284131.3057871.1918726.1956348.2969599.4602436.2915869.7342129z"/><path d="m21.02 10.7601936c-.0000781.422444-.2556847.8028696-.646767.9625994-.3910823.1597297-.8399298.0670242-1.1357288-.2345747-.2957989-.301599-.3797722-.7521618-.2124795-1.1400691.1672927-.38790733.5526094-.63607952.9749753-.6279556.274022-.00005268.5365406.11015237.7284131.3057871.1918726.1956348.2969599.4602436.2915869.7342129z"/></g></g></g><g fill-rule="nonzero" transform="translate(212.28 409.44)"><use fill="#fff" xlink:href="#w"/><path d="m0 18.62h70v2.5h-70z" fill="#d1d1d1" mask="url(#H)"/><path d="m63.1 6.58h-21.38c-.2527505.00537889-.4970136-.09127685-.6776473-.26814741-.1806338-.17687056-.2823527-.41904486-.2823527-.67185259 0-.53019336.4298066-.96.96-.96h21.46c.5257299.01062404.949376.43427014.96.96-.0046069.26560366-.1190635.51742538-.3161375.69554995-.197074.17812458-.4591462.26662697-.7238625.24445005z" fill="#5ec778" mask="url(#H)"/><g fill="#bababa" mask="url(#H)"><g transform="translate(5.02 4.679806)"><circle cx="1.04" cy="1.040194" r="1.04"/><path d="m8.38 1.0401936c-.00007812.42244402-.2556847.80286962-.646767.96259935-.39108231.15972974-.83992979.06702428-1.13572876-.23457466-.29579897-.30159895-.37977229-.75216176-.21247955-1.14006909s.5526094-.63607952.97497531-.6279556c.27402197-.00005268.53654055.11015237.72841311.30578714.19187256.19563476.29695987.46024357.29158689.73421286z"/><path d="m14.7 1.0401936c-.0000781.42244402-.2556847.80286962-.646767.96259935-.3910823.15972974-.8399298.06702428-1.1357288-.23457466-.2957989-.30159895-.3797722-.75216176-.2124795-1.14006909s.5526094-.63607952.9749753-.6279556c.274022-.00005268.5365406.11015237.7284131.30578714.1918726.19563476.2969599.46024357.2915869.73421286z"/><path d="m21.02 1.0401936c-.0000781.42244402-.2556847.80286962-.646767.96259935-.3910823.15972974-.8399298.06702428-1.1357288-.23457466-.2957989-.30159895-.3797722-.75216176-.2124795-1.14006909s.5526094-.63607952.9749753-.6279556c.274022-.00005268.5365406.11015237.7284131.30578714.1918726.19563476.2969599.46024357.2915869.73421286z"/><circle cx="1.04" cy="5.900194" r="1.04"/><path d="m8.38 5.9001936c-.00007812.42244402-.2556847.80286962-.646767.96259935-.39108231.15972974-.83992979.06702428-1.13572876-.23457466-.29579897-.30159895-.37977229-.75216176-.21247955-1.14006909s.5526094-.63607952.97497531-.6279556c.27402197-.00005268.53654055.11015237.72841311.30578714.19187256.19563476.29695987.46024357.29158689.73421286z"/><path d="m14.7 5.9001936c-.0000781.42244402-.2556847.80286962-.646767.96259935-.3910823.15972974-.8399298.06702428-1.1357288-.23457466-.2957989-.30159895-.3797722-.75216176-.2124795-1.14006909s.5526094-.63607952.9749753-.6279556c.274022-.00005268.5365406.11015237.7284131.30578714.1918726.19563476.2969599.46024357.2915869.73421286z"/><path d="m21.02 5.9001936c-.0000781.42244402-.2556847.80286962-.646767.96259935-.3910823.15972974-.8399298.06702428-1.1357288-.23457466-.2957989-.30159895-.3797722-.75216176-.2124795-1.14006909s.5526094-.63607952.9749753-.6279556c.274022-.00005268.5365406.11015237.7284131.30578714.1918726.19563476.2969599.46024357.2915869.73421286z"/><circle cx="1.04" cy="10.760194" r="1.04"/><path d="m8.38 10.7601936c-.00007812.422444-.2556847.8028696-.646767.9625994-.39108231.1597297-.83992979.0670242-1.13572876-.2345747-.29579897-.301599-.37977229-.7521618-.21247955-1.1400691.16729274-.38790733.5526094-.63607952.97497531-.6279556.27402197-.00005268.53654055.11015237.72841311.3057871.19187256.1956348.29695987.4602436.29158689.7342129z"/><path d="m14.7 10.7601936c-.0000781.422444-.2556847.8028696-.646767.9625994-.3910823.1597297-.8399298.0670242-1.1357288-.2345747-.2957989-.301599-.3797722-.7521618-.2124795-1.1400691.1672927-.38790733.5526094-.63607952.9749753-.6279556.274022-.00005268.5365406.11015237.7284131.3057871.1918726.1956348.2969599.4602436.2915869.7342129z"/><path d="m21.02 10.7601936c-.0000781.422444-.2556847.8028696-.646767.9625994-.3910823.1597297-.8399298.0670242-1.1357288-.2345747-.2957989-.301599-.3797722-.7521618-.2124795-1.1400691.1672927-.38790733.5526094-.63607952.9749753-.6279556.274022-.00005268.5365406.11015237.7284131.3057871.1918726.1956348.2969599.4602436.2915869.7342129z"/></g></g></g><path d="m246.82 374.02v3.82" stroke="#6c253d" stroke-linecap="round" stroke-linejoin="round" stroke-width=".97"/><path d="m246.82 403.64v3.8" stroke="#6c253d" stroke-linecap="round" stroke-linejoin="round" stroke-width=".97"/><path d="m298.4 320.62h110.12v81.04h-110.12z" fill="#000" fill-rule="nonzero" opacity=".2"/><path d="m296.16 318.54h110.12v81.04h-110.12z" fill="url(#j)" fill-rule="nonzero"/><path d="m296.16 318.54h110.12v11.72h-110.12z" fill="#8f58f9" fill-rule="nonzero"/><path d="m309.24 377.5c2.585483-3.957777 4.567214-8.27849 5.88-12.82 2.6-8.32 5.2-12.12 12.3-9.52s10.72 1.38 16.26-6.76 10-14.54 16.46-13.5 8.48 16 15.06 17.84 6.24-3.3 11.6.68 4 21.64 8 24z" fill="url(#x)" fill-rule="nonzero"/><path d="m309.24 384.16h45.1" stroke="#bababa" stroke-linecap="round" stroke-linejoin="round" stroke-width=".52"/><path d="m309.24 389.22h31.06" stroke="#bababa" stroke-linecap="round" stroke-linejoin="round" stroke-width=".52"/><path d="m309.24 394.28h30.56" stroke="#bababa" stroke-linecap="round" stroke-linejoin="round" stroke-width=".52"/><path d="m380.4 324.4c.000035.411922-.164957.806689-.458104 1.096077-.293146.289388-.690008.449273-1.101896.443923-.410075.005432-.804944-.155072-1.094936-.445064s-.450496-.684861-.445064-1.094936c-.00535-.411888.154535-.80875.443923-1.101896.289388-.293147.684155-.458139 1.096077-.458104.861564 0 1.56.698436 1.56 1.56z" stroke="#fff" stroke-width=".26"/><path d="m390.46 324.4c.000035.411922-.164957.806689-.458104 1.096077-.293146.289388-.690008.449273-1.101896.443923-.410075.005432-.804944-.155072-1.094936-.445064s-.450496-.684861-.445064-1.094936c-.00535-.411888.154535-.80875.443923-1.101896.289388-.293147.684155-.458139 1.096077-.458104.861564 0 1.56.698436 1.56 1.56z" stroke="#fff" stroke-width=".26"/><circle cx="398.96" cy="324.4" r="1.54" stroke="#fff" stroke-width=".26"/><path d="m304.38 377.5h95.92" stroke="#276f85" stroke-width=".52"/><path d="m245.82 117.439979h-62.7c-2.528324-.005291-4.954915.995361-6.744589 2.781283-1.789674 1.785923-2.795411 4.210408-2.795411 6.738738v40.64c0 5.268797 4.271203 9.54 9.54 9.54h11c-.44 7.36-9.78 10.82-16.32 13.44 2.86 3.3 9.14 4.12 11.6 4.12 9.867754-.014569 18.01831-7.709396 18.6-17.56h37.82c5.268797 0 9.54-4.271203 9.54-9.54v-40.64c0-2.52833-1.005737-4.952815-2.795411-6.738738-1.789674-1.785922-4.216265-2.786574-6.744589-2.781283z" fill="url(#y)" fill-rule="nonzero" opacity=".3"/><path d="m241.16 114.68h-62.72c-5.260996 0-9.528971 4.259016-9.54 9.52v40.64c0 5.268797 4.271203 9.54 9.54 9.54h11c-.41134 7.199927-4.94753 13.513181-11.64 16.2 5.559446 2.249181 11.862683 1.676623 16.92587-1.537469s8.263663-8.674456 8.59413-14.662531h37.84c2.52833.000006 4.952815-1.005737 6.738738-2.795411 1.785922-1.789674 2.786574-4.216265 2.781283-6.744589v-40.64c0-2.524861-1.003018-4.94631-2.788364-6.731657-1.785347-1.785346-4.206796-2.788343-6.731657-2.788343z" fill="#fff" fill-rule="nonzero"/><path d="m212.16 122.64c-3.555939 7.07304-10.548112 11.774935-18.44 12.4 0 29.28 18.44 30.82 18.44 30.82s18.44-1.54 18.44-30.82c-7.893229-.621215-14.88712-5.324265-18.44-12.4z" fill="url(#A)" fill-rule="nonzero" opacity=".2"/><path d="m209.68 120.92c-3.536966 7.080768-10.528724 11.787489-18.42 12.4 0 29.28 18.42 30.84 18.42 30.84s18.44-1.56 18.44-30.84c-7.895919-.613489-14.893261-5.31886-18.44-12.4z" fill="#732de2" fill-rule="nonzero"/><path d="m209.68 120.92v43.24s-18.42-1.56-18.42-30.84c7.891276-.612511 14.883034-5.319232 18.42-12.4z" fill="#000" fill-rule="nonzero" opacity=".2"/><path d="m0 443.1h587.3" stroke="#343947" stroke-width=".48"/><path d="m170 288s7.54 47.28 9.6 69.62 4.4 65.62 4.4 65.62 4.68 7.8 19.74 1.3c0 0-3.9 9.62-11.68 12.72s-14.54 8.32-16.1 5.72-.52-9.86-1.56-17.14-15.36-54.54-10.4-65.44l-11.68-39.78s-3.64 39.26-5.46 53.8-6.86 50.64-3.42 56.62 18.44 10 18.7 12.64-30.12 2.78-30.38 0c.167639-4.687534.601673-9.361744 1.3-14 0 0-8-62.34.12-76.36 0 0-2.88-32.98-4-41.3-.98-7.18-4.42-18 2.6-24.84z" fill="#277085" fill-rule="nonzero"/><path d="m170 288-38.18-.68c-1.700663 1.650015-2.935603 3.719746-3.58 6 6.38 4.36 24.42 14.7 44 8.42-1.42-8.24-2.24-13.74-2.24-13.74z" fill="url(#B)" fill-rule="nonzero" opacity=".4"/><path d="m219.88 257.3s7.36-6 7.76-5.62-2.56 3.46-2 3.86c2.553371.187735 5.108629-.338551 7.38-1.52 2.18-1.3 1.86 2.12.96 4.32s-6.66 6-13.86 3.26l-3.14-.16-.28-4z" fill="#ff9c87" fill-rule="nonzero"/><path d="m148.38 213.2h8.58s-1.74 3.14.6 4.7 9.44 2.6 11.6 4.42 21.8 29.36 21.8 29.36l28.48 5.2v5.64s-33.16 6.5-46.9-14.64l-3.26 21.36 4.56 22.6s-24.54 13.1-46.76-4.3l10.66-21.04c-.303088-10.268902-1.130834-20.515602-2.48-30.7-1.82-10.32-2.46-14.64 1.7-15.38s11.42-7.22 11.42-7.22z" fill="#ff005d" fill-rule="nonzero"/><path d="m187.46 257.54c3.12-4.66-20.4-30.12-20.4-30.12.648857 5.313598.648857 10.686402 0 16-.42 2.36 1.78 5.5 4.88 8.32l.6-3.86c3.196986 3.867227 6.951397 7.237435 11.14 10 1.96.44 3.06.76 3.78-.34z" fill="url(#C)" fill-rule="nonzero" opacity=".4"/><path d="m168.44 275.44h-28.96l6.76-39.58h28.96z" fill="url(#D)" fill-rule="nonzero" opacity=".4"/><path d="m148.38 213.2c-.128231 3.840551-3.257524 6.899325-7.1 6.94-4 .26-12.46 0-12.72-3.46s4.24-3.1 4.42-10.82-.26-20 12.28-22 18.6 2.16 19.22 9.7c.78 9.42 4 11.8 3.38 14.62-1.48 6.66-10.96 1.78-11.88 5z" fill="#fff" fill-rule="nonzero"/><path d="m157.3 189.34c1.390574 1.489653 2.45343 3.254267 3.12 5.18.608991 1.34358 1.908044 2.242925 3.38 2.34-.495509 1.118563-1.38542 2.015594-2.5 2.52 0 0 1.36 6.22.4 8s-4.94 1.18-5.34 2.34c-.255149 1.142016-.375969 2.309937-.36 3.48h-7.6c.144248-2.923777.037188-5.85454-.32-8.76 4.343853-4.138091 7.523459-9.345471 9.22-15.1z" fill="#ff9c87" fill-rule="nonzero"/><path d="m171.7 272.58h-28.96l6.74-39.58h28.96z" fill="#fff" fill-rule="nonzero"/><path d="m143.44 431.04c-1.18-2.12-1.34-8-.96-15.38-3.631204.474913-7.308796.474913-10.94 0 .8 8.38 1.52 14.12 1.52 14.12-.698327 4.638256-1.132361 9.312466-1.3 14 .26 2.78 30.64 2.68 30.38 0s-15.32-6.78-18.7-12.74z" fill="#ff9c87" fill-rule="nonzero"/><path d="m203.7 424.54c-15.06 6.5-19.74-1.3-19.74-1.3s-.26-4.8-.68-12c-3.791593 1.396852-7.781711 2.180023-11.82 2.32 1.48 5.88 2.62 10.42 2.9 12.3 1.04 7.28 0 14.54 1.56 17.14s8.3-2.6 16.1-5.72 11.68-12.74 11.68-12.74z" fill="#ff9c87" fill-rule="nonzero"/><path d="m181.46 430.68s-2.206667.466667-6.62 1.4c.16 4.86 0 9.06 1.08 10.9 1.56 2.6 8.3-2.6 16.1-5.72s11.68-12.72 11.68-12.72c-15.06 6.5-19.74-1.3-19.74-1.3-5.1 2.08-2.5 7.44-2.5 7.44z" fill="#343947" fill-rule="nonzero"/><path d="m162.14 443.68c-.26-2.66-15.32-6.68-18.7-12.64.007965-.066429.007965-.133571 0-.2-2.555004.98253-4.366666 3.285489-4.72 6l-6-2.22c-.446976 3.053369-.680875 6.134148-.70001 9.22-.01999 2.62 30.38001 2.52 30.12001-.16z" fill="#343947" fill-rule="nonzero"/><path d="m158.72 256.76 3.16-.9s6.72-4.58 8.36-4.16-3.38 2.56-3.16 3.18 6.84.22 8.18-.66-.48 3.5-1.82 4.84c-3.383335 2.452351-7.714845 3.191517-11.72 2l-4.38 1.08z" fill="#ff9c87" fill-rule="nonzero"/><path d="m139.68 220.84c5.26 1.86 6 10.14 3.08 15.76s-12.76 22.76-12.76 22.76l29.78-3.62.86 6.38s-33.76 16.46-41.02 8 5.62-30 7.52-35.32 4.86-16.7 12.54-13.96z" fill="#ff005d" fill-rule="nonzero"/><path d="m172.6 418.14 10.84-4.3c-.38-6.48-.92-15.6-1.54-25.12l-28-78.58-1.54 10.48 11.64 39.78c-4 8.88 4.66 41.86 8.6 57.74z" fill="url(#E)" fill-rule="nonzero" opacity=".4"/></g></svg>