<svg height="508" viewBox="0 0 508 508" width="508" xmlns="http://www.w3.org/2000/svg" xmlns:xlink="http://www.w3.org/1999/xlink"><defs><linearGradient id="a" x1="13.689486%" x2="104.445988%" y1="112.652853%" y2="-45.974864%"><stop offset="0" stop-color="#f7618b"/><stop offset="1" stop-color="#2a7aff"/></linearGradient><linearGradient id="b"><stop offset="0" stop-color="#fff"/><stop offset=".12" stop-color="#dadada"/><stop offset=".45" stop-color="#7e7e7e"/><stop offset=".71" stop-color="#3a3a3a"/><stop offset=".9" stop-color="#101010"/><stop offset="1"/></linearGradient><linearGradient id="c" x1="4.081633%" x2="95.578231%" xlink:href="#b" y1="96.280749%" y2="15.693352%"/><linearGradient id="d" x1="89.099872%" x2="0%" xlink:href="#b" y1="90.58862%" y2="14.850327%"/><linearGradient id="e" x1="-50.798403%" x2="104.41137%" y1="50%" y2="50%"><stop offset="0" stop-color="#9a5cff"/><stop offset=".99" stop-color="#4059bf"/></linearGradient><linearGradient id="f"><stop offset="0" stop-color="#fff"/><stop offset="1"/></linearGradient><linearGradient id="g" x1="53.246046%" x2="27.161747%" xlink:href="#f" y1="70.62963%" y2="1.37037%"/><linearGradient id="h" x1="56.922574%" x2="51.357434%" xlink:href="#f" y1="114.359673%" y2="70.624387%"/><linearGradient id="i"><stop offset="0" stop-color="#ff9f55"/><stop offset="1" stop-color="#ffd255"/></linearGradient><linearGradient id="j" x1="0%" x2="100%" xlink:href="#i" y1="49.908925%" y2="49.908925%"/><linearGradient id="k" x1="0%" x2="100%" xlink:href="#i" y1="49.993253%" y2="49.993253%"/><path id="l" d="m0 11.2134c-.00108883 3.2544189 1.4144079 6.3481448 3.87765349 8.4750357.1283251.111587.25943987.2203844.39334432.326392.1506425.1171664.30407468.2343328.46029654.3459199 1.50961501 1.0689005 3.26083657 1.7465763 5.09673805 1.9723009.3319714.0390555.6667326.0669522 1.007073.0781109h.3682373c.3626579 0 .7225261-.016738 1.0740252-.0502141.3914669-.0384241.7806825-.0970858 1.1660846-.1757496 1.6663053-.3378731 3.2331863-1.0526075 4.580648-2.0894674.3983965-.3064017.7758458-.6391162 1.1298188-.9959143l.2036463-.2092257c.2510709-.2789676.4881933-.5579352.7113674-.8369028 2.9929225-3.8738485 3.1241333-9.24233503.3240324-13.25777047-2.8001009-4.01543543-7.8830535-5.7479069-12.55262871-4.27843281-4.66957523 1.46947409-7.84437159 5.80058623-7.84033669 10.69591778z"/><mask id="m" fill="#fff"><use fill="#fff" fill-rule="evenodd" xlink:href="#l"/></mask></defs><g fill="none" fill-rule="evenodd"><path d="m0 0h508v508h-508z"/><g transform="translate(0 10.042834)"><path d="m396.624975 219.564239-376.6955296-217.48593038c-8.8572213-5.11347611-19.9294454 1.26930258-19.9294454 11.50741348v434.9690719c0 10.229742 11.0722241 16.62089 19.9294454 11.507414l376.6955296-217.483142c8.860011-5.116265 8.860011-17.90135 0-23.014827z" fill="url(#a)" fill-rule="nonzero"/><path d="m31.7074574 172.80369c1.5579488 3.737625 3.6322735 7.238341 6.1623943 10.399912l-3.6656342 7.685558 7.4010104 5.551455 7.4010104 5.551455 6.3520923-5.671411c3.7455456 1.545864 7.6895913 2.558169 11.7166392 3.007271l2.8398902 8.020318 9.1585063-1.308358 9.1585063-1.305568.4798243-8.497353c3.7379554-1.55729 7.2387607-3.631667 10.3999121-6.162395l7.685557 3.665635 5.548666-7.389852 5.551455-7.40101-5.668621-6.363251c1.544942-3.745675 2.556308-7.689722 3.004481-11.71664l8.023108-2.83989-1.308358-9.158506-1.308358-9.158506-8.494564-.477035c-1.558286-3.73805-3.633597-7.238846-6.165184-10.399912l3.654476-7.685558-7.398221-5.551455-7.3870619-5.551455-6.3576716 5.668622c-3.7455933-1.545188-7.6896747-2.556563-11.7166392-3.004481l-2.8426799-8.023109-9.1501373 1.319517-9.1557166 1.308358-.4854036 8.494564c-3.7377357 1.558912-7.238447 3.634173-10.3999122 6.165184l-7.6855574-3.665635-5.5514552 7.401011-5.5598243 7.387062 5.6714113 6.354882c-1.5461092 3.745464-2.5584232 7.689544-3.0072707 11.716639l-8.0119495 2.834311 1.3083581 9.158506 1.3055683 9.155717zm35.6353213-48.875123c17.7230491-2.530281 34.1416523 9.785793 36.6721053 27.508817 2.530452 17.723025-9.7854628 34.141747-27.508463 36.672372-17.7230002 2.530624-34.1418418-9.785133-36.6726374-27.508109-1.2153622-8.511092 1.0001377-17.156389 6.159098-24.033956 5.1589603-6.877568 12.8387692-11.424009 21.3498971-12.639124z" fill="#fff" fill-rule="nonzero"/><path d="m29.9611203 82.7752663c.7143522 1.71354 1.6656063 3.3183703 2.8259418 4.7675563l-1.6738056 3.5233608 3.3950356 2.5441845 3.3922461 2.5441845 2.9124217-2.5971883c1.7162415.7069684 3.5227983 1.170814 5.3673366 1.3780999l1.3027787 3.676793 4.184514-.5997803 4.1984624-.5997804.2231741-3.9055464c1.71354-.7143523 3.3183703-1.6656063 4.7675563-2.8259418l3.5233608 1.6738056 2.5497638-3.3643492 2.5330259-3.4034048-2.5999781-2.9124217c.7088295-1.7157998 1.1736485-3.5224899 1.3808896-5.3673366l3.676793-1.3027787-.5886216-4.1984624-.5997804-4.184514-3.9055464-.2231741c-.7143523-1.71354-1.6656063-3.3183703-2.8259418-4.7675563l1.6738056-3.5233608-3.392246-2.5441845-3.392246-2.5441845-2.9124217 2.5971884c-1.7109051-.7060791-3.5116812-1.1708258-5.3505986-1.3808897l-1.3027787-3.6767929-4.1984624.5997803-4.184514.5997804-.2231741 3.9055464c-1.71354.7143522-3.3183703 1.6656063-4.7675563 2.8259417l-3.5233608-1.6738056-2.5441845 3.3922461-2.5469742 3.392246 2.5999781 2.9124217c-.7066222 1.7163566-1.1704553 3.5228642-1.3781 5.3673367l-3.6767929 1.3027787.5997803 4.1984623.5997803 4.1984624zm16.3475013-22.4066776c8.124737-1.160804 15.6521675 4.4845445 16.8130322 12.6092728 1.1608646 8.1247282-4.4844277 15.652201-12.6091473 16.8131262-8.1247196 1.1609253-15.6522345-4.4843108-16.8132204-12.6090217-.5575362-3.9017015.4577309-7.8650782 2.8224482-11.0182089 2.3647172-3.1531307 5.8851734-5.2377196 9.7868873-5.7951684z" fill="#fff" fill-rule="nonzero"/><path d="m315.378451 190.961691s22.657749-7.364744 24.498935-6.54179c1.841186.822955 2.089467 2.120154 0 2.901263s-21.725997 7.769248-21.725997 7.769248 27.999978-4.033872 29.662625-3.715849c.973597.186909 1.598485 2.664141.510511 3.1886s-28.697397 6.187501-28.697397 6.187501 26.144843-3.718638 27.442043-3.01285c1.135398.619308 1.160505 3.068644-.767161 3.487095-1.927666.418452-26.075102 5.300385-26.075102 5.300385s19.137178-1.453421 19.868073-.159012c.446348.795058 1.082394 2.904053-3.860912 3.116068-4.943306.212016-16.606941 2.002988-16.606941 2.002988z" fill="#eea886" fill-rule="nonzero"/><path d="m290.405272 203.646348s7.334058-2.915211 7.858517-7.532125c.446348-3.933443 3.713059-8.812587 4.714553-10.321801 1.341834-2.011357 3.347611-9.691335 5.693728-8.053795 2.346118 1.63754-2.728303 12.801823-3.347611 15.343218s9.376101-2.876156 11.88123-2.385173 9.320308 18.040835 2.081098 20.942098c-7.239209 2.901263-16.573465 1.057287-17.761867 1.830027-1.188402.772741-5.199956 2.32659-5.199956 2.32659z" fill="#eea886" fill-rule="nonzero"/><path d="m202.022757 335.19352c.164591 2.120154.34034 4.139879.504931 5.9448h-104.922504c.0362658-1.768655.0864799-3.774432.1255354-5.9448.3542888-17.494058.8703789-46.171927.6444151-57.00145-.2789676-15.460384-3.5484678-55.634508-4.184514-57.958308 0 0-23.0204063-33.445426-47.1650521 32.577836-4.985151 13.60525 40.7292696 47.70346 35.0383306 48.744009-5.6909391 1.040549-5.4398682 11.825436-5.4398682 11.825436s-43.0502801-37.482086-42.1659528-48.529203c.490983-6.137288 34.1930587-95.267436 39.3344316-98.952598 3.5066227-2.524657 25.5450632-11.359561 36.9687864-15.689138 5.286436-2.019725 9.314728-3.420142 10.146052-3.470357 2.613926-.16459 34.848632 2.926371 34.848632 2.926371s4.619704 1.578956 9.353784 3.749324c8.064953 3.69911 20.643602 9.484898 29.648676 13.783789 2.915212 1.394838 6.561318 3.255552 9.590907 4.859616-.371957 10.954128-1.022882 22.708892-1.952774 35.264294 0 0-1.673805 27.425305-1.830027 55.129577-1.450632 6.273982-1.199561 20.852828-1.199561 20.852828-.401713 13.820055 1.138188 28.005558 1.539901 35.933817.270599 4.960044.686261 10.779308 1.115871 15.954157z" fill="#dbd8e3" fill-rule="nonzero"/><path d="m206.553191 335.19352c-1.514795-9.808501-2.951478-20.018715-4.13988-29.78816v-.075322c-.185978-1.590115-.371956-3.170931-.557935-4.742449-.002838-.080453-.011227-.160614-.025107-.239912-.758792-6.614322-1.3781-12.935728-1.830027-18.729885-.343131-4.443953-.039056-8.770741.580252-13.024997 1.790972-29.623569 2.686458-60.862361 2.686458-60.862361.937331-12.790665 1.495267-24.727688 1.849555-35.886392 0 0-40.478198-19.12044-44.152202-20.219572 0 0 7.674399 18.024097 13.429501 58.323756 2.23174 15.474333 6.324195 41.527117 9.303569 68.121099 1.171664 10.486392 3.104909 21.103899 4.946096 31.099308 1.743547 9.426315 3.408984 18.314223 4.30447 26.013728.064162.465876.114376.931752.164591 1.394838.139483 1.325096.301285 2.851049.490983 4.544383h13.884217c-.315233-1.941615-.630467-3.936233-.934541-5.928062z" fill="#323657" fill-rule="nonzero"/><path d="m135.254651 288.061944c-1.843976 17.873454-3.863701 32.337924-5.490082 47.145524-.214805 1.952774-.42961 3.950182-.630467 5.9448h-42.5732453c.5579352-1.969511 1.0963426-3.951111 1.6152224-5.9448 4.5694893-17.229039 8.2155958-34.812366 8.2155958-45.471718 0 0-8.860011-63.713411-11.8254366-73.973839 0 0-26.7808896 19.8067-33.0576606 33.534695-5.6016694 12.274575 35.456782 49.742713 34.9769577 51.003647-2.789676 7.384272-13.4797144 20.875145-13.4797144 20.875145s-63.57671611-68.302427-62.7314443-76.71888c.6053597-6.123338 53.9076991-74.177485 59.0434926-77.862647 2.979374-2.134102 24.9927073-9.934036 35.7971227-14.19945 1.98067-.783899 8.416452-3.208128 10.185107-3.87486 2.284744 2.546974 18.389544 19.876441 23.968896 85.737902.9457 11.1057-2.016936 34.60872-4.014344 53.804481z" fill="#323657" fill-rule="nonzero"/><path d="m123.892301 150.16547s-.223174-11.066645-4.488589-33.453795c-1.138188-5.995014 34.795629 15.770038 34.795629 15.770038s-.111587 2.097837-.184119 4.932148c-.039055 1.498056-.061372 3.196968-.053003 4.90146 0 .60257 0 1.199561.025107 1.790972.033476 1.584536.106007 3.09933.239912 4.388161.133904 1.330675.920593 3.674003 1.19956 4.318418 1.481318 3.408984-19.432883 6.014542-31.534497-2.647402z" fill="#eea987" fill-rule="nonzero"/><path d="m152.698495 154.299769-6.377199 7.462384s-10.238111-1.98346-13.242592-7.331269 19.619791-.131115 19.619791-.131115z" fill="#eea987" fill-rule="nonzero"/><path d="m154.160286 147.769138s-.739265 5.688149-7.83899 13.993015l7.74972 10.411071 4.184514-21.597672z" fill="#c4c1cc" fill-rule="nonzero"/><path d="m123.303679 142.357166s12.670709 15.312532 23.020407 19.404987l-4.814981 11.903547-24.088852-25.896562z" fill="#c4c1cc" fill-rule="nonzero"/><path d="m309.45039 216.071565s-54.599539 59.319671-67.482263 56.147809c-5.961537-1.46458-14.97777-11.747326-22.420626-21.413553-2.457704-3.18302-4.867984-6.522263-7.161098-9.830818-9.147348-13.203537-16.314025-25.863086-16.314025-25.863086s-27.03475-31.685141-5.34223-45.80648c0 0 9.144558-.923383 14.344514 2.912421 4.801033 3.542889 16.484196 25.846348 18.381175 29.983438 1.89698 4.13709 16.648787 33.278045 18.026887 34.142845 1.3781.864799 15.864887-7.8362 23.609028-13.050105 12.517276-8.422032 28.23989-23.104096 28.23989-23.104096z" fill="#323657" fill-rule="nonzero"/><path d="m173.118924 77.388402s7.894783 14.63743 3.983657 16.9138056c-3.233234 1.8802416 3.78838 16.2414934 4.706183 18.5904004.917804 2.348908-5.858319 4.05061-7.295002 5.559825-1.436683 1.509214-5.704888 20.085667-11.28424 20.657551-5.579352.571883-30.719912-8.18491-37.565777-15.301373-6.845865-7.116464-12.464272-39.2674798-7.894783-52.8308845s41.41832-19.1567051 55.349962 6.4106755z" fill="#eea886" fill-rule="nonzero"/><path d="m174.695091 80.5602636s8.059374-15.8063042-6.578056-27.5313125c-14.63743-11.7250082-41.627546 8.8544317-44.671082 9.6383306-3.043537.783899-20.300472 1.9695113-11.579945 32.2765514 7.481911 26.0220979 8.528039 27.1156509 8.528039 27.1156509s5.579352-15.064251 8.751214-17.371313c4.940516-3.590313 15.778407-2.728303 15.778407-2.728303s-5.1609-13.7084677 2.901263-15.6500822c8.062164-1.9416145 18.718726-8.7791103 26.87016-5.7495222z" fill="#16202e" fill-rule="nonzero"/><path d="m136.320308 94.1097199c-.711368-1.8802416-3.012851-9.961933-9.947985-5.2139044-6.935135 4.7480285 4.321208 19.9768695 5.531927 20.1721475 1.21072.195277 10.405492.867589 4.416058-14.9582431z" fill="#eea886" fill-rule="nonzero"/><path d="m153.962219 142.315321c0 .60257 0 1.199561.025107 1.790972-20.554333-6.898869-24.535201-17.295991-24.535201-17.295991 6.416255 4.536013 24.563097 10.600769 24.563097 10.600769-.025107 1.514794-.061372 3.1886-.053003 4.90425z" fill="url(#c)" fill-rule="nonzero" opacity=".3"/><path d="m79.0677869 300.06034s1.9527732 1.629171 4.0059748 1.612433c3.5568369-.030686 7.6102361-3.905546 11.3288742-.384975s-4.1119824 18.456496-6.9323449 20.205623c-2.8203624 1.749127-9.2282482-1.394838-16.0880615-9.685755-6.8598132-8.290917 7.6855574-11.747326 7.6855574-11.747326z" fill="#eea886" fill-rule="nonzero"/><path d="m92.9799012 300.286304c5.0654051 1.800535 10.0290688 3.875402 14.8689728 6.215398 6.728699 3.286239 14.626272 8.299286 13.820055 10.003779-1.221878 2.588819-7.225261-2.265217-14.11855-5.068842-6.343723-2.58045-5.529138-.995914-5.529138-.995914s-.206436-.463086 6.156815 3.707479c6.843075 4.488589 14.006963 9.593696 13.373707 10.999693-.783899 1.746337-1.029391 1.896979-3.780011.680681 1.428314 1.043339 1.344624 1.587325.965228 2.231741-1.952774 3.347611-13.050105-1.673806-17.452213-3.654476 3.372718 1.54827 5.67978 3.049116 3.157913 4.315629-2.887315 1.447842-18.2389019-6.346513-24.0051622-8.603361-6.2907193-2.460494 12.5423834-19.831807 12.5423834-19.831807z" fill="#eea886" fill-rule="nonzero"/><path d="m86.4799561 300.286304s-1.5650083 9.158507-13.4769248 20.872356c0 0-27.3081384-30.128501-32.1789127-35.763646l21.3856562-12.39732z" fill="#323657" fill-rule="nonzero"/><path d="m25.009445 335.19352h375.707985v5.9448h-375.707985z" fill="#fff" fill-rule="nonzero"/><rect fill="#63cd63" height="24.593784" rx="12.296892" width="24.593784" x="203.124679" y="95.303701"/><g fill="#d9d9d9" fill-rule="nonzero"><rect height="7.638133" rx="3.819066" width="85.101856" x="236.918814" y="62.731444"/><rect height="7.638133" rx="3.819066" width="96.966348" x="236.918814" y="75.07855"/></g><rect fill="#ff8761" fill-rule="nonzero" height="24.593784" rx="12.296892" width="24.593784" x="203.124679" y="60.427172"/><g fill="#d9d9d9" fill-rule="nonzero"><rect height="7.638133" rx="3.819066" width="63.964481" x="236.918814" y="97.607973"/><rect height="7.638133" rx="3.819066" width="78.674443" x="236.918814" y="109.957869"/></g><g fill="#d9d9d9" fill-rule="nonzero"><rect height="7.638133" rx="3.819066" width="92.804152" x="236.918814" y="132.487293"/><rect height="7.638133" rx="3.819066" width="85.101856" x="236.918814" y="144.834399"/></g><rect fill="#63cd63" height="24.593784" rx="12.296892" width="24.593784" x="203.124679" y="130.18302"/><path d="m214.581878 113.539813-6.823547-5.928061c-.362285-.314445-.529295-.79828-.43812-1.26925s.426684-.857522.880143-1.014047.955978-.059242 1.318262.255202l4.82614 4.184514 6.859813-7.666029c.494563-.55234 1.343245-.599176 1.895585-.104613.552339.494563.599176 1.343245.104613 1.895585z" fill="#fff" fill-rule="nonzero"/><path d="m214.581878 148.424712-6.823547-5.930851c-.362285-.314445-.529295-.79828-.43812-1.26925s.426684-.857522.880143-1.014047.955978-.059243 1.318262.255202l4.82614 4.184514 6.859813-7.677188c.316042-.370038.807657-.539965 1.284748-.444074s.864872.442569 1.013398.905981.034515.970918-.297948 1.326275z" fill="#fff" fill-rule="nonzero"/><path d="m214.964064 75.7229654-.039056-.5411971c-.125535-1.1158704.248281-2.3516969 1.288831-3.5986821.937331-1.101922 1.45621-1.9137177 1.45621-2.8510489 0-1.0600768-.666732-1.7686545-1.97509-1.7881823-.750266-.0034788-1.483854.2212676-2.103416.6444152l-.499352-1.3111477c.68626-.499352 1.871873-.8369028 2.976584-.8369028 2.390753 0 3.473147 1.4757386 3.473147 3.0686436 0 1.4143657-.789478 2.4353871-1.788182 3.6265788-.915014 1.0823943-1.249775 1.997408-1.185613 3.0686436l.019528.5411971zm-.457507 2.9124217c-.022693-.3434802.099558-.6807572.337063-.9299256.237505-.2491685.568539-.3874348.912712-.3812221.53045-.0215854 1.02094.280864 1.239843.7645216.218904.4836575.12243 1.0517671-.243864 1.4360486s-.92913.507859-1.422718.3123752c-.493589-.1954838-.819187-.6709223-.823036-1.2017977z" fill="#fff" fill-rule="nonzero"/><rect fill="#63cd63" height="24.593784" rx="12.296892" width="24.593784" x="377.091664" y="269.173048"/><g fill-rule="nonzero"><g fill="#d9d9d9"><rect height="7.638133" rx="3.819066" width="85.101856" x="410.885799" y="236.598001"/><rect height="7.638133" rx="3.819066" width="96.119682" x="410.885799" y="248.947897"/></g><rect fill="#ff8761" height="24.593784" rx="12.296892" width="24.593784" x="377.091664" y="234.293729"/><g fill="#d9d9d9"><rect height="7.638133" rx="3.819066" width="63.964481" x="410.885799" y="271.47453"/><rect height="7.638133" rx="3.819066" width="78.674443" x="410.885799" y="283.824426"/></g><path d="m388.548863 287.411949-6.823547-5.93364c-.560043-.48609-.619994-1.334148-.133905-1.89419.48609-.560043 1.334147-.619994 1.89419-.133905l4.82614 4.184514 6.859813-7.674399c.319428-.357799.805475-.518006 1.275053-.420273.469577.097733.851344.438559 1.001493.894091.15015.455533.04587.956566-.273559 1.314365z" fill="#fff"/><path d="m299.438243 395.818759c1.135398 4.923778.937331 16.364239.937331 16.364239.309654 10.85184-.901065 21.993806-1.21072 28.217573 0 .192488-.019527.382186-.027896.580253-.078111 1.467369-.17575 3.024009-.278968 4.602965h81.179572c-.027897-1.495266-.055794-3.035167-.080901-4.602965-.164591-9.186403-.309654-19.248765-.323602-26.43218 18.551345-4.898671 38.584009-11.292609 38.218561-15.968106-.384975-4.812191-14.838287-75.661592-18.877738-78.551697-2.75341-1.98067-20.052191-8.910225-29.01263-12.316419-4.148248-1.581747-7.311741-2.683669-7.958946-2.722724-2.053201-.128325-27.358352 2.295903-27.358352 2.295903s-3.626579 1.244196-7.336848 2.945898c-6.329775 2.906843-16.196859 7.445645-23.279846 10.818364-2.284745 1.085184-5.144163 2.558133-7.532125 3.819066.286406 8.597782.795987 17.82231 1.528742 27.673586 0 0 1.28883 21.533509 1.414366 43.276244zm80.426359 8.196068c.998704-13.488083 5.066051-36.659132 5.517979-38.299462 0 0 1.908138 1.80771 1.919297 1.80771s.627677.08648.633257.078111c.197108.059619.390024.132312.577462.217595 0 0 12.274575 17.156507 12.416848 26.379176.066953 4.399319-9.537902 7.551653-21.064843 9.81687z" fill="#dbd8e3"/><path d="m295.839561 445.583789h10.634245c.243631-1.497126.504001-3.031448.781109-4.602965 1.802131-10.154421 4.184514-21.628358 5.437078-32.89307 2.337749-20.872356 5.554245-41.323471 7.292213-53.47251 4.519276-31.629346 10.544976-45.781373 10.544976-45.781373-2.878946.859221-34.650566 15.876047-34.650566 15.876047.278968 8.742844.708578 18.132894 1.450632 28.175727 0 0 .702998 24.524042 2.111784 47.781571.527626 3.379972.680123 6.8079.454718 10.221373-.354289 4.549961-.836903 9.515585-1.439473 14.696013 0 .069742 0 .136694-.019528.195277-.142273 1.230247-.278968 2.466074-.437979 3.718638v.053004c-.454717 3.760483-.959649 7.601867-1.495266 11.437672-.217595 1.526882-.438909 3.058415-.663943 4.594596z" fill="#3358cc"/><path d="m326.252608 410.592883c2.41586 5.699308 10.743043 19.778803 10.743043 19.778803s6.0257-1.478528 14.89129-3.774432c.583043 5.021417 1.171664 9.763866 1.735179 14.38357.186908 1.542691.376606 3.068643.557935 4.602965h31.632136c-.371957-1.5492-.729035-3.083522-1.071235-4.602965-1.933246-8.564306-3.289028-16.53162-3.484306-22.345305 21.201538-6.056387 41.990203-12.83251 41.666601-16.088062-.479824-4.803822-16.406085-79.081735-20.445535-81.971839-2.32938-1.673806-19.614212-7.811093-28.094827-11.158704-1.548271-.613729-6.840286-2.599978-8.229545-3.130017-1.799341 2.002988-14.199451 15.689138-18.582032 67.390203-.541197 6.416255.585832 18.166371 1.835607 29.927645-12.849247 3.43967-23.572762 6.014541-23.154311 6.988138zm57.824405-18.450917c1.274882-10.299484 2.725513-20.66313 3.771642-24.289709 0 0 3.576364 7.216892 3.297397 17.800923-.053004 2.136891-2.775728 4.326787-7.069039 6.488786z" fill="#3358cc"/><path d="m363.296716 305.801494s-3.219286-6.081494-2.329379-23.346799c.245491-4.784294-25.123822 11.342823-25.123822 11.342823s.08648 1.648698.142273 3.87207c.027897.926173.044635 1.952773.044635 2.984953v.8648c0 .471455 0 .937331-.016738 1.394838 0 .580253-.033476 1.146557-.064163 1.693333-.027897.622098-.069742 1.21072-.128325 1.749127-.188661 1.160759-.503915 2.297358-.940121 3.389457-1.166084 2.697616 18.916793 2.848259 28.41564-3.944602z" fill="#eea987"/><path d="m242.336365 419.31341s15.421329-14.955453 25.533904-17.443844c4.675497-1.149346 10.835102-7.601867 16.685052-15.189786 1.930456-2.510708 3.821856-5.121845 5.621197-7.719033 7.180626-10.366436 12.807403-20.303262 12.807403-20.303262s21.221065-24.869962 4.184514-35.956134c0 0-7.297792-.159012-11.300978 2.014146-4.117561 2.231741-12.896672 20.559912-14.386359 23.807095s-17.602855 33.384053-18.693619 34.050785c-1.090763.666733-2.881735 3.155124-9.334255 6.62827-7.900363 4.254256-20.311631 16.70458-20.311631 16.70458z" fill="#3358cc"/><path d="m316.349259 436.62335s2.15363-.08648 3.068643-.585832c0 0 1.612433-1.03218 2.789676-1.698913.304418-.175242.618268-.333564.940121-.474245.95128-.376606 3.152334-.920593 5.180428-2.468863 2.028095-1.54827 8.647996-7.730192 8.647996-7.730192l-4.273784-6.566898-1.972301-6.502734s-15.412959 1.531532-17.468951 2.75341c-.193286.115369-.379589.242055-.557935.379396-1.640329 1.20235-2.354486 2.789676-3.143965 3.517781-.278967.278968-2.973794 3.141175-2.823152 4.30726.206436 1.618012 1.007073 2.655772 2.011357 3.146755 0 0 .557935 3.149544 2.170367 4.55833 0 0 .407293 2.923581 2.93195 4.098034.011159 0 .758792 2.918001 2.49955 3.266711z" fill="#efaa88"/><path d="m340.898407 237.909149s-27.857704-6.71475-21.988226 28.555123c5.869479 35.269874 12.553542 38.132082 29.517562 31.099308 16.96402-7.032773 15.792356-29.590093 16.802219-40.63442 1.009862-11.044327-15.421329-18.503921-24.331555-19.020011z" fill="#eea886"/><path d="m355.533048 262.335552c.415662-3.09933 6.566897-4.145459 6.990928.5133s-2.976584 12.779506-5.300385 11.939814c-2.3238-.839693-2.259637-8.18212-1.690543-12.453114z" fill="#eea886"/><path d="m363.60358 274.964415s-.557935-11.094541-4.602965-11.499044-4.742449 4.04782-4.742449 4.04782l-4.100824.714157s1.433894-9.696914-2.58324-11.437672c-4.017133-1.740758-26.267589 4.962834-29.470137 2.06436-3.202548-2.898473-1.394838-22.596375 4.522065-25.190774 5.916902-2.594399 22.200241-8.416453 33.955936-.206436 0 0 9.272883-.917803 10.533817 6.569687 1.260933 7.48749-.915014 29.419923-3.512203 34.937902z" fill="#343947"/><path d="m325.493817 410.595673 11.501834 19.773223s30.471631-7.850148 37.579725-9.855925l-16.252652-19.343614s-23.960527 5.473345-32.828907 9.426316z" fill="#3358cc"/><path d="m335.946733 304.632619c14.941504-1.523163 20.732872-13.024997 20.732872-13.024997-9.398419 9.314728-20.643603 9.060868-20.643603 9.060868v.864799c0 .471456 0 .937332-.016738 1.394838-.022317.588622-.041845 1.146557-.072531 1.704492z" fill="url(#d)" opacity=".3"/><path d="m314.159363 367.297111 8.126326 75.552796h-106.958967l-8.126327-75.552796z" fill="#ffc955"/><path d="m312.934695 436.051466h17.865085v6.79844h-17.865085z" fill="#ffc955"/><path d="m114.887227 442.693685h290.706557v4.602965h-290.706557z" fill="url(#e)"/><path d="m270.682262 403.858605c.859221 4.206832-1.101922 8.162592-4.382581 8.832114-3.280658.669523-6.636639-2.195475-7.495859-6.402306s1.101922-8.162592 4.382581-8.832114c3.280659-.669523 6.636639 2.195475 7.495859 6.402306z" fill="#cfa345"/><rect fill="#e0e0e0" height="109.257661" rx="30.02" width="113.001406" x="35.576738" y="265.725008"/><path d="m46.0519714 362.384492-.7838989-.828534 20.2586271-19.11486 20.5041186 4.441164 19.5835258-22.334146 17.081186.965228 13.301175-18.350488.923383.669522-13.666623 18.85542-17.148138-.968018-19.658847 22.420626-20.5738606-4.457902z" fill="#377b93"/><path d="m89.2110489 346.868314c.3536495 1.641857-.6895168 3.259852-2.3309594 3.615417s-3.2606539-.685712-3.6181344-2.326739c-.3574805-1.641026.6819067-3.261452 2.322515-3.620847.7903659-.173902 1.6174496-.025569 2.2981233.412156.6806737.437726 1.1587785 1.128729 1.3284555 1.920013z" fill="#e6e6e6"/><path d="m87.0016255 351.044459c-1.4348164.315949-2.9184943-.264995-3.7573033-1.471196-.8388089-1.206201-.8669984-2.799312-.0713877-4.034433.7956107-1.235122 2.2578072-1.868191 3.702903-1.603202 1.4450959.26499 2.587537 1.375676 2.8931466 2.81273.4145089 1.949126-.8212672 3.867569-2.7673586 4.296101zm-1.2860407-5.961538c-.9790339.210208-1.7348683.989753-1.9147448 1.974811-.1798764.985058.2516677 1.981424 1.0932249 2.52408.8415572.542657 1.9272139.524619 2.7502791-.045695.8230653-.570315 1.2212712-1.580467 1.0087697-2.559006-.2908949-1.332312-1.6038951-2.178967-2.9375289-1.89419z" fill="#377b93"/><path d="m108.828051 324.682021c.355178 1.641811-.686939 3.260944-2.328418 3.617653-1.641478.35671-3.261583-.683895-3.619824-2.325041-.358241-1.641145.680852-3.26222 2.321663-3.621992.78997-.173975 1.616703-.026019 2.297303.411136.6806.437154 1.158968 1.127475 1.329276 1.918244z" fill="#e6e6e6"/><path d="m106.618627 328.858166c-1.434816.315948-2.918494-.264995-3.757303-1.471196s-.866999-2.799312-.071388-4.034433c.795611-1.235122 2.257807-1.868192 3.702903-1.603202 1.445096.264989 2.587537 1.375676 2.893147 2.81273.414509 1.949126-.821267 3.867569-2.767359 4.296101zm-1.28883-5.947589c-.978507.211222-1.733353.991204-1.91242 1.976103s.252926 1.980664 1.094464 2.522793c.841538.54213 1.926817.52381 2.749578-.046412.822762-.570223 1.220902-1.58 1.008696-2.558294-.28949-1.33459-1.605438-2.18234-2.940318-1.89419z" fill="#377b93"/><path d="m125.783701 325.362702c.35365 1.641856-.689517 3.259851-2.330959 3.615417-1.641443.355565-3.260654-.685713-3.618135-2.326739-.35748-1.641027.681907-3.261452 2.322515-3.620847.790366-.173903 1.61745-.02557 2.298124.412156.680673.437725 1.158778 1.128729 1.328455 1.920013z" fill="#e6e6e6"/><path d="m123.582647 329.538847c-1.434573.315654-2.917877-.265223-3.756596-1.47112-.838718-1.205897-.86719-2.79863-.072107-4.033734.795082-1.235103 2.256677-1.868623 3.701616-1.604444 1.444938.264179 2.587819 1.373877 2.894445 2.810407.416243 1.950075-.819939 3.870394-2.767358 4.298891zm-1.297199-5.936431c-.978507.211223-1.733353.991205-1.91242 1.976104s.252926 1.980663 1.094464 2.522793c.841538.542129 1.926816.52381 2.749578-.046413.822762-.570222 1.220902-1.579999 1.008696-2.558294-.292215-1.332699-1.606033-2.179078-2.940318-1.89419z" fill="#377b93"/><path d="m68.6567161 342.697748c.3551782 1.641811-.6869385 3.260944-2.3284173 3.617654-1.6414787.35671-3.2615833-.683896-3.6198244-2.325041s.6808526-3.26222 2.3216629-3.621992c.7899068-.173199 1.6162672-.024917 2.2966747.412114.6804076.437031 1.1589168 1.126877 1.3299041 1.917265z" fill="#e6e6e6"/><path d="m66.4472927 346.876683c-1.4345731.315654-2.9178769-.265223-3.7565956-1.47112-.8387186-1.205897-.8671906-2.79863-.0721078-4.033733.7950828-1.235104 2.2566779-1.868624 3.7016162-1.604445s2.5878195 1.373878 2.8944458 2.810407c.4162422 1.950076-.8199395 3.870394-2.7673586 4.298891zm-1.2860406-5.950379c-.978507.211223-1.7333529.991205-1.9124199 1.976104s.2529259 1.980663 1.0944641 2.522793c.8415381.542129 1.9268166.52381 2.7495784-.046413.8227618-.570222 1.2209013-1.58 1.0086959-2.558294-.2894909-1.334589-1.6054386-2.18234-2.9403185-1.89419z" fill="#377b93"/><path d="m62.639385 354.65709h12.458693v2.399121h-12.458693z" fill="#fff"/><path d="m71.304119 330.035409h12.458693v2.399121h-12.458693z" fill="#fff"/><path d="m97.150467 347.191917h12.458693v2.399121h-12.458693z" fill="#fff"/><path d="m108.325909 313.49542h12.458693v2.399121h-12.458693z" fill="#fff"/><path d="m126.425327 333.575508h12.458693v2.399121h-12.458693z" fill="#fff"/><path d="m43.889973 274.074509h44.375376v4.354684h-44.375376z" fill="#4e8c63"/><path d="m43.889973 285.791148h44.375376v4.354684h-44.375376z" fill="#fff"/><path d="m43.889973 297.510577h44.375376v4.354684h-44.375376z" fill="#fff"/><path d="m97.320637 274.074509h7.40659v4.354684h-7.40659z" fill="#4e8c63"/><path d="m97.320637 285.791148h7.40659v4.354684h-7.40659z" fill="#fff"/><path d="m97.320637 297.510577h7.40659v4.354684h-7.40659z" fill="#fff"/><path d="m221.96615 332.250412s-5.824843-13.195168.934542-12.101615c0 0 2.298693 1.902559 4.658759 5.77463 1.788182 2.934739 5.50682 10.701197 5.370126 13.329072-.136694 2.627874-2.005777 4.586227-4.022713 8.804217 0 0-4.184514 7.827831-4.371422 8.773531l-4.430005-2.295903s3.754903-7.484701 6.416254-14.065547z" fill="#ff005d"/><path d="m167.51475 348.938901h90.530566v15.390642h-90.530566z" fill="#e8734d" transform="matrix(.98582086 .16780119 -.16780119 .98582086 62.860685 -30.647975)"/><path d="m163.362126 342.788092h4.834508v11.683164h-4.834508z" fill="#2d3038" transform="matrix(.98582086 .16780119 -.16780119 .98582086 60.851083 -22.874707)"/><path d="m188.250126 444.055047h-1.099132s.365448-4.151038-.649995-4.184514c-1.015442-.033476-3.540098 3.378297-5.046523 3.905546s-9.236618.976387-9.278463-.449138c-.041845-1.425524 2.971005-1.994618 3.905547-2.399121.934541-.404503 5.495661-4.842878 6.307457-5.372916.811796-.530039 2.203844-4.206832 2.203844-4.206832l4.315629-.192487s.245491 3.43967.504931 5.258539c.089485.564624.149081 1.133581.178539 1.704492.041846 1.534322-1.341834 5.936431-1.341834 5.936431z" fill="#ff9c87"/><path d="m216.054827 443.234882h-.915014v-3.860912c-.764371.064163-3.328083 2.488391-4.120351 3.19139-.792268.702998-1.883031.672312-5.225063.884327s-3.657266-1.788182-3.127227-2.468863c.530038-.680681 2.231741-.979177 3.127227-1.394838.895486-.415662 4.399319-4.382581 5.33665-5.319912.937331-.937332 1.506425-3.626579 1.506425-3.626579l3.905546.34034c-.003066 1.513597.137984 3.024047.421241 4.510906.039056.17575.080901.34871.125536.51609.583042 2.150841-1.03497 7.228051-1.03497 7.228051z" fill="#ff9c87"/><path d="m201.609885 355.661373s-1.475739 3.492674-1.606854 4.374212c-.131114.881537-3.584733 9.236617-4.586227 14.868973-.596991 3.369929-2.248479 13.926063-2.385173 15.267897-.228753 2.298693-1.308358 7.367534-1.475739 9.713652-.092059 1.311147-6.552949 21.441449-8.115167 31.950159 0 0 3.715848.557935 6.505524-.186909 0 0 5.668622-10.862998 8.818166-26.267589 1.89698-9.281252 3.573575-14.227347 5.043734-18.049203 1.47016-3.821857 9.788973-14.645799 10.656563-15.862098.867589-1.216299 6.310247-7.936628 1.157715-15.217683-5.152531-7.281054-14.012542-.591411-14.012542-.591411z" fill="#277085"/><path d="m220.211444 386.584931c-.471455 3.135596.025107 7.253158 1.009863 18.713147s-1.72402 25.335837-1.72402 25.335837c-3.400615 1.163295-7.32011 0-7.32011 0 .09206-.806216 0-27.933025 0-30.351674 0-2.41865-.691839-5.160901-.873168-7.933839-.119956-1.8914-1.001494-5.378495-1.989039-8.926963-.298496-1.068446-.60536-2.139682-.901066-3.177441-.17017-.583042-.331971-1.154926-.493772-1.707282-1.394838-4.834508-3.266711-23.50302-3.266711-23.50302s10.388754-8.369028 15.449226-.490983 2.460494 13.608039 2.281955 14.592795-1.701702 14.316617-2.173158 17.449423z" fill="#277085"/><path d="m215.904185 369.749237c-.080901.178539-5.25854 11.669214-6.589215 13.669412-.298496-1.068446-.60536-2.139681-.901066-3.177441s7.317321-10.238111 7.490281-10.491971z" fill="url(#g)" opacity=".4"/><path d="m216.054827 443.234882h-.915014v-3.860912c-.764371.064163-3.328083 2.488391-4.120351 3.19139-.792268.702998-1.883031.672312-5.225063.884327s-3.657266-1.788182-3.127227-2.468863c.530038-.680681 2.231741-.979177 3.127227-1.394838 3.576364.192487 7.939418-4.834509 10.042833-4.823369 1.115871 0 1.115871.622117 1.138188.736493.039056.17575.080901.34871.125536.51609.571883 2.142472-1.046129 7.219682-1.046129 7.219682z" fill="#343947"/><path d="m188.250126 444.055047h-1.099132s.365448-4.151038-.649995-4.184514c-1.015442-.033476-3.540098 3.378297-5.046523 3.905546s-9.236618.976387-9.278463-.449138c-.041845-1.425524 2.971005-1.994618 3.905547-2.399121 3.188599 0 8.369028-3.517782 9.98425-4.229149 1.064034-.420695 2.228622-.517744 3.347611-.278968.089485.564624.149081 1.133581.178539 1.704492.041846 1.528743-1.341834 5.930852-1.341834 5.930852z" fill="#343947"/><path d="m210.785129 311.838353s1.657068 4.38537.368237 7.777616c0 0 6.078704-.396134 6.307458-1.11587.228753-.719737-.242702-7.283844.591411-9.225459.834113-1.941614-7.267106 2.563713-7.267106 2.563713z" fill="#ff9c87"/><path d="m210.196507 318.131862s-3.593102 1.277671-5.216694 1.63196c-1.623591.354289-5.021417 1.952773-4.742449 8.020319.278968 6.067545 1.28883 11.309346 1.657068 13.909324.368237 2.599978.139483 9.228248-.460297 12.444745 0 0 8.61173 2.175947 18.743833 0 0 0-1.796551-5.487293-1.749127-6.907238.047425-1.419945 5.986645-13.111477 6.262823-14.952663.276178-1.841187 1.472949-9.984251-1.244196-11.780802-2.717144-1.796551-4.926567-1.562219-6.078704-2.365645-1.152136-.803427-5.492872-.577463-7.172257 0z" fill="#ff005d"/><path d="m224.058407 363.656584c-14.71554 3.905547-26.423811.013949-26.423811.013949 1.01361-2.084998 1.824484-4.262587 2.421439-6.502735.383944-1.435995.685719-2.892709.903855-4.363053 1.196771-8.01474-.362658-14.152027-.362658-14.152027 1.698913-13.979066 22.847447-18.149632 24.549149-13.719626 1.701702 4.430005-3.283449 23.472334-3.537309 25.107084-.253861 1.63475 2.449335 13.616408 2.449335 13.616408z" fill="#ff005d"/><path d="m216.082724 294.241076c-2.443756-.836902-9.049709-1.732388-10.743043 8.408084-1.693333 10.140472 1.994619 10.321801 5.780209 10.026095 3.785591-.295705 9.710862-7.133201 10.16279-9.20593.451927-2.07273 1.771444-6.837496-5.199956-9.228249z" fill="#ff9c87"/><path d="m206.714992 298.135464s2.019725 4.315629 4.664338 5.819264c0 0 1.673806 4.586228 5.25017 6.441362 0 0 9.529533-6.310247 4.000396-13.811686-5.529138-7.501439-13.303965-1.528742-13.914904 1.55106z" fill="#fff"/><path d="m211.131049 302.459462c.214805-.527249 1.643119-1.394838 2.284745.061373.641625 1.456211-1.659858 3.997605-2.290324 3.858122-.630467-.139484-.806217-1.919297.005579-3.919495z" fill="#eea886"/><path d="m220.292345 297.74212c.209226-.323603 6.519473-3.244393 7.83062 2.859418 1.311148 6.103811-5.082789 13.200746-6.201449 16.252652s.504931 10.204635.504931 10.204635-3.846963-3.626579-5.021417-7.442856c-1.266513-4.181724-1.696123-14.72391 2.887315-21.873849z" fill="#fff"/><path d="m220.610368 297.535684s-1.930456 1.528742-2.181527 3.939022c0 0-.362658-1.880241.418452-3.029588.781109-1.149346 1.763075-.909434 1.763075-.909434z" fill="#e54242"/><path d="m200.058825 357.165008c.383944-1.435995.685718-2.892709.903855-4.363053l.178539-1.347414c.496488-.475026.878118-1.057013 1.115871-1.701702.329181-.987545 2.764568-13.111477 2.764568-13.111477s2.580451 11.387457-4.962833 20.523646z" fill="url(#h)" opacity=".4"/><path d="m189.226513 357.868007s-1.89698 1.885821-2.510708 2.072729c-.613729.186908-1.796552-.853641-6.137288-1.177243-.384975-.027897-1.057287.315233-.898275.820164.159011.504932 2.055991 1.880242 2.864997 2.092257.809006.212016 4.642021 1.729599 6.508314.984756 1.866293-.744844 3.135596-3.121647 3.135596-3.121647z" fill="#eea886"/><path d="m203.964371 320.095794s-5.038155 1.997408-5.33665 8.999494c-.298495 7.002087-.557935 10.659352-.836903 11.738957-.278967 1.079605-.795057 5.42592-2.06436 8.039846-1.230247 2.535816-9.303569 10.561714-9.303569 10.561714l3.905546 3.674003s11.253553-11.292609 11.937024-13.356969c.68347-2.06436 3.498253-16.436771 3.721427-18.85821.170171-1.952773 2.750621-10.639824-2.022515-10.798835z" fill="#ff005d"/><path d="m156.481296 338.733619c0 .239912-.025107.479824-.041845.719736h9.205931c.016738-.239912.025107-.479824.033476-.719736zm-102.7688743-2.544185v.836903c.0167381 1.166085.0669523 2.321011.1673806 3.470357.2346516 3.230426.7565225 6.433537 1.5594289 9.571378 2.4889095 9.760208 7.5751234 18.663975 14.7183306 25.765448.2789676.278968.5579352.557935.8201647.809006 1.0963427 1.057287 2.2317408 2.075519 3.4368809 3.032378 9.9706115 8.129625 22.4469066 12.559113 35.3117186 12.536888h.669522c9.802768-.098551 19.405774-2.783428 27.838177-7.78328 11.564056-6.85158 20.289531-17.62085 24.593784-30.354465.437049-1.314867.831323-2.647402 1.182823-3.997605.619054-2.438578 1.074782-4.915728 1.364151-7.414959.055794-.535618.114377-1.074026.156222-1.618012.041845-.543987.092059-1.04055.114377-1.570588.016738-.239912.025107-.479824.033476-.719736.025107-.527249.041845-1.048919.050214-1.576167 0-.323603 0-.647205 0-.968018 0-28.039033-20.601757-51.268665-47.499813-55.3667-.52167-.08369-1.040549-.159011-1.570588-.223174-.577463-.066952-1.157715-.133904-1.735178-.184118-.52167-.047425-1.048919-.08927-1.570588-.122746-1.20793-.08369-2.421439-.114377-3.626579-.114377-1.03497 0-2.058781.025107-3.068643.080901-1.743548.092059-3.464778.278968-5.16648.521669-19.1971765 2.871424-35.5489969 15.455996-43.2399784 33.278045-.0836903.181329-.1590115.371027-.2315431.557936-.0725316.186908-.1506425.357078-.2148051.530038-.4296101 1.03218-.8210946 2.079239-1.1744536 3.141175-.9373785 2.77255-1.6501165 5.616038-2.1313124 8.502933-.1422735.767161-.2482812 1.54548-.3570785 2.329379 0 .133905-.0251071.278968-.0390555.404503v.033476c-.0096125.06562-.0152023.131765-.0167381.198067-.0156417.076466-.0268193.153778-.0334761.231543v.058584c-.0100636.037333-.0156819.075725-.016738.114376-.0097154.058116-.0153087.116845-.0167381.17575-.016738.139484-.0334761.278967-.0418451.421241-.0809006.85922-.1478529 1.726809-.189698 2.594399 0 .114376-.0167381.239912-.0167381.354288l-.025107.557936c-.0251071.624887-.0334762 1.260933-.0334762 1.905348zm12.5535421 17.427106-.2148051-.543986c-.1562219-.404503-.3068644-.809006-.4547172-1.224668l-.3375508-.990335c-.0836903-.248281-.1673805-.496563-.2399121-.744844 0-.016738 0-.030686-.0167381-.047424-.0177748-.046214-.0317692-.093795-.0418451-.142274-.1311148-.412872-.2482812-.836902-.3626579-1.255354l-.1339044-.488193c-.1227458-.446348-.2315431-.901066-.3375508-1.355783 0-.041845-.0251071-.089269-.0334761-.139484-.0920594-.421241-.181329-.836902-.2650193-1.263723-.0418451-.17296-.0725315-.348709-.1060077-.521669-.1004283-.527249-.1896979-1.065656-.2789676-1.604064-.1478528-.940121-.2566502-1.8914-.3487095-2.848259-.0306864-.323602-.0557935-.655574-.0809006-.984756 0-.108797 0-.206436-.016738-.315233-.0251071-.446348-.0502142-.889907-.0669522-1.336255v-.133904c0-.097639 0-.206436 0-.312444 0-.390555-.0167381-.77832-.0167381-1.166085s0-.728105.0167381-1.082394c.0244106-1.437191.1240454-2.872118.2984953-4.298891.0084636-.148672.0252277-.296756.0502142-.443558-.0035804-.007986-.0035804-.017121 0-.025107-.0036029-.003178-.0056669-.00775-.0056669-.012554s.002064-.009376.0056669-.012553c-.0045456-.030518-.0045456-.061541 0-.09206v-.016738c0-.016738 0-.025107 0-.033476.871641-6.817307 3.245036-13.356291 6.9490829-19.145546 4.2412392-6.640165 10.0831936-12.108004 16.9891268-15.901153 1.8327095-1.009929 3.7322484-1.893523 5.6853597-2.644613.6220978-.237123 1.2581439-.468666 1.89419-.677891 3.6108558-1.217311 7.3592798-1.980115 11.1587038-2.270797 1.238616-.108797 2.485602-.156222 3.752114-.156222.379396 0 .750423 0 1.129819.016738.437979 0 .867589.022318 1.308358.039056.312444.016738.627677.041845.940121.066952.085782.001137.171447.006724.25665.016738.52167.033476 1.048918.08369 1.570588.139484l.396134.050214c.206436.025107.421241.050214.627677.08369.206436.033477.471455.055794.711367.097639.530039.075321 1.048919.167381 1.570588.25665l.139484.025107c.404503.075322.809006.156222 1.216298.248282.022318 0 .047425 0 .072532.016738.164591.033476.340341.072531.504931.114376.379396.083691.753213.17296 1.115871.278968.164591.033476.329182.075321.488193.122746.42961.117166.85922.231543 1.28883.365447.429611.133905.817375.248281 1.221879.379396.189697.058583.379395.125536.557935.189698.809006.278968 1.609643.557935 2.396331.892696.214805.083691.429611.17296.644416.278968.329181.139484.652784.278968.981966.42961.278967.114377.530038.231543.786688.362658.387765.17296.767161.365448 1.146557.557935.42961.213875.851781.437049 1.266513.669522.477034.256651.940121.51888 1.394838.792268.959648.557936 1.885821 1.157716 2.789676 1.785393.390555.265019.76995.535618 1.149346.836903.479825.34034.942911.694629 1.394838 1.057287.404503.323603.809006.652784 1.20514.993125.396134.34034.811796.694629 1.20793 1.057287 9.760908 8.863655 15.31983 21.440639 15.304196 34.625459v.968017c0 .527249-.02514 1.048918-.058617 1.576167 0 .239912-.025107.479824-.041845.719736-.039055.530039-.0809 1.048919-.139483 1.570588-.147853 1.486897-.371027 2.948688-.661154 4.396529-.312975 1.567845-.707789 3.118235-1.182822 4.644811-.371027 1.20514-.792268 2.396332-1.263724 3.551258-7.026513 17.531884-23.902369 29.122069-42.78805 29.386449-.223174 0-.446348 0-.669522 0-17.3243252.005392-33.2355882-9.556175-41.3625264-24.856016-.206436-.398923-.412872-.795057-.610939-1.191191l-.3626579-.758792c-.1478528-.298496-.2789676-.596991-.4212411-.901066l-.1339044-.298495c-.1143767-.278967-.2315431-.530038-.3375508-.800637z" fill="#323657"/><circle cx="109.73161" cy="336.191676" fill="#b8b8b8" opacity=".1" r="46.651752" transform="matrix(.70710678 -.70710678 .70710678 .70710678 -205.583769 176.060228)"/><path d="m141.238506 301.563976s-60.7563533-7.532125-72.8635472 56.591367c-10.6668347-20.104284-5.3333135-44.966997 12.6409994-58.927214 17.974313-13.960218 43.3835568-12.974671 60.2225478 2.335847z" fill="#869ac2" opacity=".3"/><path d="m44.372587 410.258122h25.787765v1.531532h-25.787765z" fill="url(#j)"/><path d="m47.828995 415.773311h2.259638v69.616365h-2.259638z" fill="#706865" transform="matrix(-1 0 0 -1 97.917628 901.162988)"/><path d="m66.12369 409.822932h17.923668v2.187106h-17.923668z" fill="#ccbdb7"/><path d="m71.694673 391.171159h6.787282v20.615706h-6.787282z" fill="#ffab55"/><path d="m35.122021 411.814761h99.315255v3.95855h-99.315255z" fill="#b59074"/><path d="m16.0601647 387.857024s-1.0851839 15.231631 1.8914004 17.056079c1.8635035 1.140977 9.2979901 4.99352 9.0776057 5.716046s-4.184514 6.416255-4.184514 6.416255-14.29151018-9.392839-14.75459639-12.355475c-.44913784-2.895684.70299835-22.317408 2.66414059-23.198946 1.4701592-.669522 2.2317408-.117166 4.098034 1.258144 2.6055574 1.930456 1.2079297 5.107897 1.2079297 5.107897z" fill="#ffc955"/><path d="m42.0878418 392.206129 1.2581439-.465876s-1.5705876-3.685162-2.2568479-3.595893c-.5966041.089981-1.187939.211973-1.7714442.365448z" fill="#ead8cf"/><path d="m42.3751785 392.842175c-.1618012-.119956-2.6752993-4.946096-2.6752993-4.946096l-5.372916.730895 2.901263 5.713257z" fill="#da9b5b"/><path d="m33.6295442 475.88525s-.4435585 3.068643-.499352 3.545678-4.9377265-.278968-4.9377265-.278968l-.396134-3.668423s5.2222735-.033477 5.8332125.401713z" fill="#424773"/><path d="m33.1971444 479.037584s1.5482702 1.857924 3.0435365 2.66693c1.4952664.809006 3.8497529 1.11587 4.7424492 1.969511.6388359.60257 2.3265898 3.208128-3.8888083 3.155124s-9.2059308.368237-9.8810324-.630467.9652279-7.370324.9652279-7.370324 1.4506315.530038 5.0186271.209226z" fill="#292c47"/><path d="m64.9241296 475.918726s-.4463482 3.068644-.499352 3.545678c-.0530038.477035-4.9405162-.278967-4.9405162-.278967l-.396134-3.668424s5.2250632-.036266 5.8360022.401713z" fill="#424773"/><path d="m64.4749918 479.06827s1.5482701 1.855135 3.0435365 2.66693c1.4952663.811796 7.0048764 1.472949 7.8892037 2.309852.6388358.60536 1.7017024 3.040747-7.0439319 2.814783-6.2126084-.161801-9.2059308.365448-9.8782427-.630467-.6723119-.995914.9624382-7.370324.9624382-7.370324s1.386469.566305 5.0269962.209226z" fill="#292c47"/><path d="m17.8762438 422.635914s17.7590775 3.004481 21.7594728 3.626579c4.0003954.622098 25.7570786 6.039649 28.4770127 7.688347 2.1647885 1.313938-1.1353982 32.834487-1.9053487 44.86078h-8.558726l-.6193081-36.07609c-10.2799561.25944-17.6140143-2.401911-25.107084-1.266513s-12.8998398 2.955558-17.6562374-3.424431c.008369.016738-.9927467-14.013834 3.6102187-15.408672z" fill="#292c47"/><path d="m35.3786711 478.859044-8.3467106-.51609-.8090061-35.590686c-2.9496174.074391-6.9352605-4.250645-11.9569293-12.97511 5.9057441 1.180033 20.518445 2.661678 23.0431018 4.19042 2.1647885 1.313938-1.1577156 32.865173-1.9304558 44.891466z" fill="#292c47"/><path d="m26.0499945 356.082614s6.5111038-1.796551 8.9939154 3.255552c2.4828117 5.052103 1.3585723 14.63185-1.9220867 15.532916-3.280659.901065-7.9980011-.133905-9.3621527-3.280659-1.3641516-3.146755-2.4465458-7.613026-2.1201538-10.50871.3263921-2.895683 2.6836684-4.307259 4.4104778-4.999099z" fill="#ff9c87"/><path d="m31.4201208 373.864009s-.0725316 3.844173.3514992 4.661548c.4240307.817375-9.0636573.613729-9.0636573.613729s1.4952663-4.614124.6472048-8.544777c-.8480615-3.930654 8.0649533 3.2695 8.0649533 3.2695z" fill="#ff9c87"/><path d="m22.8446568 369.138298s.5049313 1.03218 2.9626359.864799c2.4577046-.16738 5.6937287-3.130016 6.7370675-3.395035 1.0433389-.26502 1.1158704-.856431 1.1158704-.856431l.5579352.979176 1.068446.164591s-.7281055-2.971005.8536408-4.017133c1.5817463-1.046129-.7113674-9.465371-8.7177375-7.434487 0 0-6.1121801 1.115871-6.1958704 4.533224s.4296101 7.353586 1.6180121 9.161296z" fill="#3a3f47"/><path d="m32.270972 378.427919s-.0278968-1.565009-.7364745-1.715651c-.7085777-.150643-7.4568039-1.079605-8.3271828-.736474l-.3738166 2.067149s1.6765953 1.032181 9.4374739.384976z" fill="#e2d2ca"/><path d="m34.2237452 365.051422c-.1813289-1.283251-1.6403295-2.7562-2.4772323-.758792s.5579352 4.90983 1.5036354 4.74245c.9457001-.167381 1.2218781-2.2429.9735969-3.983658z" fill="#ff9c87"/><path d="m60.5359692 396.923471c.0390555.019527.0446349.022317 0 0z" fill="#323657"/><path d="m24.1530148 357.000417s-7.9366282-.373816-1.394838 12.015135z" fill="#3a3f47"/><path d="m6.46925865 483.079824.58862164 1.659857 24.94807251-7.727402-1.196771-3.364349z" fill="#918783"/><path d="m30.025283 448.705437h2.834311v27.12123h-2.834311z" fill="#918783"/><path d="m23.081779 447.265964h16.724108v1.598484h-16.724108z" fill="#5e5854"/><path d="m56.6387919 483.079824-.5914113 1.659857-24.9480725-7.727402 1.0991323-3.573575z" fill="#918783"/><path d="m39.0610434 484.563932v1.930456l-7.9617353-9.482109 1.0991323-3.573575z" fill="#918783"/><path d="m58.9681713 485.403624c0 1.288022-1.0441477 2.33217-2.3321691 2.33217-1.2880215 0-2.3321691-1.044148-2.3321691-2.33217 0-1.288021 1.0441476-2.332169 2.3321691-2.332169 1.2880214 0 2.3321691 1.044148 2.3321691 2.332169z" fill="#bfb2ac"/><path d="m39.2591104 485.403624c0 1.288022-1.0441477 2.33217-2.3321692 2.33217-1.2880214 0-2.3321691-1.044148-2.3321691-2.33217 0-1.288021 1.0441477-2.332169 2.3321691-2.332169 1.2880215 0 2.3321692 1.044148 2.3321692 2.332169z" fill="#bfb2ac"/><path d="m8.80142779 485.403624c0 1.288022-1.04414769 2.33217-2.33216914 2.33217s-2.33216914-1.044148-2.33216914-2.33217c0-1.288021 1.04414769-2.332169 2.33216914-2.332169s2.33216914 1.044148 2.33216914 2.332169z" fill="#bfb2ac"/><rect fill="#e2d2ca" height="6.053597" rx="3.026798" width="39.618979" x="11.744536" y="441.212367"/><path d="m119.470664 415.773311h2.259638v69.616365h-2.259638z" fill="#706865"/><rect fill="url(#k)" height="41.348578" rx="10.69" width="58.611093" x="45.781373" y="359.756617"/><path d="m48.923943 362.837814h54.022076v32.63363h-54.022076z" fill="#000" opacity=".2"/><path d="m48.077276 361.991148h54.022076v32.63363h-54.022076z" fill="#f5f7ff"/><path d="m48.077276 361.991148h54.022076v2.597188h-54.022076z" fill="#cecfd6"/><rect fill="#cecfd6" height="2.415859" rx="1.20793" width="11.88123" x="49.603229" y="366.541109"/><rect fill="#cecfd6" height="22.705173" rx="5.940615" width="11.88123" x="49.603229" y="370.574981"/><path d="m87.2220099 411.867765v-.736475s-1.0349698-4.575068-8.35229-4.575068c-7.3173201 0-7.1694673 5.300384-7.1694673 5.300384z" fill="#2e436e"/><path d="m71.610983 407.234113s1.5901153-.122746 2.1731576-.474245 4.0673476-2.694827 4.8847227-2.318221c.817375.376607 6.2656123 2.042043 6.0759143 2.839891-.189698.797847-.6918397.719736-1.0768149.577463-.3849753-.142274-4.3407359-.970808-4.6894454-.836903 0 0 3.8860187 1.417155 3.9055464 2.452125s-.8117957 1.286041-1.1800329 1.673806c-.3682373.387765-.8117958 1.361361-1.8104998 1.436683-.998704.075321-5.8862163-1.626381-6.8932894-1.701703-1.007073-.075321-2.8649972.061373-2.9933223-.103218s1.6040637-3.545678 1.6040637-3.545678z" fill="#ff9c87"/><path d="m42.6820428 380.598287c-5.0688413-.892697-10.4027018-2.170368-10.4027018-2.170368l-9.4402636-.384976s-8.661944 1.908139-12.0737177 3.44804c-.3236024.145063-.3236024 7.727403-1.21350907 9.716441l2.82873147 5.967117s1.6347501 11.819858 1.9750906 17.078397c.1534322 2.41307-.4407688 23.324481-.4407688 23.324481s.8369028.418451 7.2894234 1.11587 22.5377924-.25665 22.6382208-1.018231c.1004283-.761582-3.1132785-28.318001-3.2667106-29.746316-.2203845-2.192685.6332564-12.319209.6332564-12.319209 1.2135091 1.631961 4.3072598 8.993916 7.5321252 12.497749 1.8969797 2.06157 11.2926085 3.325294 13.0612631 3.383877 3.8553322.128325 10.8797364.895486 11.0917517.518879.1645909-.223174.6137288-6.240505.1729599-6.388358-.3849752-.128325-13.4434486-.878748-16.7882701-2.652981-1.2246678-.649995-4.881933-8.628468-4.881933-8.628468s-5.9252719-12.48659-8.7149479-13.741944z" fill="#ffc955"/><g transform="translate(63.883577 367.094563)"><use fill="#eef0f7" stroke="#f9ca47" xlink:href="#l"/><path d="m17.78 11.3598477c-.0117182.4353944-.0722286.8720765-.181531 1.3100465-.1093025.43797-.2713362.8572421-.4861014 1.2578165-.5073429.995122-1.3727135 1.9565688-2.5961117 2.8843403-.8481149.6431731-2.192247 1.3840811-3.655154 2.2594216-.9752713.5835604-1.61990872.9997362-1.93391225 1.2485274l-2.24187753-1.3355495c.56804569-.5409304 1.38125033-1.1177408 2.4396139-1.7304312 1.58754538-.9190355 3.31545268-1.9519236 3.67659528-2.1950626.4936879-.3323751.9586003-.7094571 1.394737-1.131246h-4.71576543l1.46432803-2.567863zm-3.8904295 6.3834219c.2847311.176822.5416825.3526417.7708543.5274592.2291717.1748176.492205.3939821.7890998.6574938l-2.2208853 1.2962093c-.2981613-.2354259-.5755436-.4367184-.8321469-.6038775s-.5308421-.33171-.8227163-.4936526zm-.7118866-16.04991797 2.2100004 1.30247591c-.684338.54223222-1.180585.91670637-1.488741 1.12342246-1.2754253.85557613-2.527266 1.54155241-3.6757837 2.16245643-.39157122.21168866-1.5687582 1.02699935-2.64004168 1.97662271-.71418898.63308224-1.10739087 1.53706449-1.17960568 2.71194676-.02392654.9654683.36927535 1.8550379 1.17960568 2.6687088.81033034.8136708 1.78186802 1.522299 2.91461308 2.1258844l-2.29965848 1.4021188c-1.38939549-.9352868-2.40495654-1.9046988-3.04668316-2.908236-.64172663-1.0035371-.9470252-2.0996958-.91589573-3.288476 0-1.75615376.67195672-3.32579029 2.01587016-4.70890962.89619055-.92233504 2.30892375-1.79709199 4.14530891-2.86698518.5423216-.31596102 1.4693253-.88297085 2.7810112-1.70102947zm.6440159 3.06469572c1.1165332.66839761 2.0263612 1.49037299 2.7294839 2.46592614.7031227.97555314 1.0862836 1.92673818 1.1494824 2.85355511h-2.192722c-.2444458-.75552572-.6819938-1.43739653-1.3126441-2.04561246-.6306503-.60821594-1.5319991-1.24512265-2.7040465-1.91072015zm-4.86705911-2.97882048c.22133241.1723756.46030028.34214295.71690359.50930204.25660332.1671591.53084212.33170995.82271632.49365254l-2.31579441 1.38363227c-.28473107-.17682201-.54168248-.35264177-.77085425-.52745928-.22917176-.1748175-.44833417-.36218834-.65748721-.56211251z" fill="#f9ca47" mask="url(#m)"/></g><path d="m388.933839 249.589522-.041846-.541197c-.125535-1.11587.248282-2.348907 1.288831-3.598682.937331-1.11587 1.456211-1.913718 1.456211-2.851049 0-1.060077-.663943-1.768654-1.975091-1.788182-.749472-.003973-1.482313.220842-2.100626.644415l-.499352-1.311148c.68626-.499352 1.871873-.836903 2.973795-.836903 2.393542 0 3.475936 1.475739 3.475936 3.068644 0 1.414366-.792268 2.435387-1.790972 3.626579-.915014 1.082394-1.246985 1.997408-1.185612 3.068644l.022317.541197zm-.457507 2.912422c-.022696-.34274.099259-.679309.336242-.927955s.567309-.386618.910743-.380403c.530901-.02275 1.022412.279224 1.242056.763094.219644.483871.123395 1.052647-.243224 1.43731-.366618.384662-.930118.508105-1.423975.311944s-.819079-.672608-.821842-1.20399z" fill="#fff"/></g></g></g></svg>