<svg height="658" viewBox="0 0 1440 658" width="1440" xmlns="http://www.w3.org/2000/svg" xmlns:xlink="http://www.w3.org/1999/xlink"><defs><linearGradient id="a" x1="50%" x2="50%" y1="0%" y2="100%"><stop offset="0" stop-color="#fff" stop-opacity="0"/><stop offset="1" stop-color="#ebeef0"/></linearGradient><path id="b" d="m0 0h1440v658h-1440z"/><mask id="c" fill="#fff"><use fill="#fff" fill-rule="evenodd" xlink:href="#b"/></mask><mask id="d" fill="#fff"><path d="m.37977352.31789091h4.35076104v9.03465173h-4.35076104z" fill="#fff" fill-rule="evenodd"/></mask><mask id="e" fill="#fff"><path d="m0 .15248269h84.3702323v113.33195331h-84.3702323z" fill="#fff" fill-rule="evenodd"/></mask></defs><g fill="none" fill-rule="evenodd"><use fill="url(#a)" xlink:href="#b"/><circle cx="-20" cy="329" fill="#11223f" fill-rule="nonzero" mask="url(#c)" opacity=".03" r="90"/><g fill="#11223f" fill-rule="nonzero" mask="url(#c)" opacity=".03"><path d="m54.5 361c13.5309764 0 24.5 10.969024 24.5 24.5s-10.9690236 24.5-24.5 24.5-24.5-10.969024-24.5-24.5 10.9690236-24.5 24.5-24.5zm159.531529-225.150758 3.535534 3.535534c8.20101 8.20101 8.20101 21.497475 0 29.698485l-177.4838019 177.483802c-8.2010101 8.20101-21.4974747 8.20101-29.6984848 0l-3.5355339-3.535534c-8.20101012-8.20101-8.20101012-21.497474 0-29.698485l177.4838016-177.483802c8.201011-8.20101 21.497475-8.20101 29.698485 0zm28.615224 92.384777 3.535534 3.535534c8.20101 8.20101 8.20101 21.497474 0 29.698484l-74.099026 74.099026c-8.20101 8.20101-21.497475 8.20101-29.698485 0l-3.535534-3.535534c-8.20101-8.20101-8.20101-21.497474 0-29.698485l74.099026-74.099025c8.20101-8.20101 21.497475-8.20101 29.698485 0zm58.853247-64.234019c13.530976 0 24.5 10.969024 24.5 24.5s-10.969024 24.5-24.5 24.5-24.5-10.969024-24.5-24.5 10.969024-24.5 24.5-24.5zm-246.5-1c7.1797017 0 13 5.820298 13 13s-5.8202983 13-13 13-13-5.820298-13-13 5.8202983-13 13-13zm140.646753-127.1507576 3.535534 3.5355339c8.20101 8.2010101 8.20101 21.4974747 0 29.6984848l-74.099026 74.0990259c-8.20101 8.20101-21.497475 8.20101-29.6984847 0l-3.5355339-3.535534c-8.2010101-8.20101-8.2010101-21.497475 0-29.698485l74.0990256-74.0990256c8.20101-8.2010101 21.497475-8.2010101 29.698485 0zm124.928932 28.4243148 3.535534 3.5355339c8.20101 8.2010102 8.20101 21.4974747 0 29.6984849l-31.027958 31.027958c-8.20101 8.20101-21.497475 8.20101-29.698485 0l-3.535534-3.535534c-8.20101-8.20101-8.20101-21.497475 0-29.6984848l31.027958-31.027958c8.20101-8.2010101 21.497475-8.2010101 29.698485 0zm-70.575685-64.2735572c7.179702 0 13 5.82029825 13 13 0 7.1797017-5.820298 13-13 13s-13-5.8202983-13-13c0-7.17970175 5.820298-13 13-13z" transform="translate(1267 84)"/></g><g mask="url(#c)"><g transform="translate(147 428)"><path d="m424.304364 341.593827c-1.581029-27.156202 1.739511-54.852906 1.450067-82.17768 1.0401-9.47216-.646267-19.119136-4.930987-28.023145-.265719-.552989-.554214-1.118464-1.083755-1.542125-1.643662-1.313794-4.45459-.615423-6.634436.082948-20.910195 6.694731-45.606887 5.118713-64.670335-4.333825-3.765619 4.456018-4.846526 9.921686-5.775594 15.201836-1.502262 8.537431-3.147823 17.057024-3.551146 25.631915-.000949.016055-.003796.033001-.004745.049056l.001898-.000892c-.08541 1.841809-.13286 3.68451-.088257 5.53167.262872 10.688735 2.919114 21.219601 4.99457 31.754035 1.354219 6.872222 2.54521 13.791715 2.65814 20.75402.093002 5.698459-.935711 10.907255.705105 16.486197 4.041777 13.7382 4.052216 28.706354 5.761359 42.743346 1.830615 15.032372 3.637505 30.066527 5.134073 45.121197.059787.599368.118624 1.198737.177462 1.798997.975569.202465 15.883359 2.867514 15.883359-.131112 1.195736-29.220098 2.391472-58.441088 3.586259-87.662078.502969-12.29597-.641522-53.837903 3.371786-65.553235 1.654101.128436 3.308203.256872 4.962304.3862 9.089491 38.667285 19.858707 106.401257 28.949147 145.069434.800004 3.404448 1.770828 7.078254 4.660523 9.272371 2.888746 2.194116 8.284742 1.578693 9.138839-1.81416-2.668579-29.54654-2.974156-59.083268-4.695636-88.64497" fill="#1f375a" fill-rule="evenodd"/><path d="m397 77.3233437c0-9.9979282-9.177716-18.1033437-20.50047-18.1033437-11.321814 0-20.49953 8.1054155-20.49953 18.1033437 0 1.6694443.276233 3.2791063.755414 4.8138173.017852.3926005.027248.795016.019731 1.215277-.059193 3.6065708.113688 7.2381253.856887 10.795621 1.445998 6.923153 5.21837 13.362693 12.35722 17.300297 2.378051 1.312535 5.10844 2.31099 7.950638 2.291644 3.82123-.02616 7.327704-1.891905 9.983867-4.208248 8.771822-7.65214 9.528176-19.1508731 8.909-30.0035997.099594-.723634.167243-1.4570831.167243-2.2048086" fill="#e8dbce" fill-rule="evenodd"/><path d="m425.653565 247.136281c-.069859-18.65525-.140663-37.31139-.211467-55.96664-.058532-15.719096-3.858345-32.397337-6.332707-47.922469-1.361325-8.543316-2.966215-11.51328-7.079453-19.132153-.585313-1.084597-.684439-1.816856-6.13068-3.469109-1.182898-.358567-3.993344-1.864012-5.443409-1.632679-7.111551 1.131753-14.350548-1.407574-21.462099-.274931-7.525046 1.197595-20.146089-2.39074-26.01149 2.458361-7.926268 6.55296-8.476651 22.12169-9.736962 32.306583-1.700239 13.739418-5.735121 27.675469-6.446937 41.498522-.625907 12.130762-.964822 24.274869-1.202724 36.418977-.123671 6.331414-2.574432 28.344556 3.459954 32.578844 3.52887 2.477046 12.975064 3.487794 22.695032 3.792087.350244.010677.699544.022243 1.049787.031141.093462.002669.185979.004448.27944.006228 3.959358.098761 7.91494.086305 11.499509.012456 5.29236-.108548 9.770003-.347889 12.198107-.556979 11.33902-.975159 22.53832-3.152361 33.646046-5.559117 1.973071-.427077 4.151001-.999182 5.230998-2.700371.775067-1.222507.00472-10.442918-.000945-11.888751" fill="#cbd1cb" fill-rule="evenodd"/><path d="m407.223783 64.8459415c-.318928-.773659-.9644-1.6217256-1.675561-2.4993758-.634048-3.4980504-2.222975-6.7854289-4.505927-8.8491173-1.363297-1.2317584-2.953176-1.5912454-4.412628-1.3375426-1.714594-.6920797-3.636729-1.1089411-5.730229-1.1779698-2.027809-1.1941064-4.257448-2.0601025-6.502319-2.4832393-11.885059-2.2358118-24.858281 2.3496643-31.630023 11.769837-1.009145-3.967804-8.954732-4.5747184-9.627812.1272996-.669273 4.6697449 1.034849 8.7738132 5.949194 10.6824112 4.271728 1.6584811 7.036404.2904583 9.486912-2.0179681.102819-.0502026.206589-.0833723.308456-.1407467 4.194614-2.3442855 8.872857-5.0982606 13.803386-6.2663692 3.677666 1.2263796 7.235377 4.0359362 10.159041 6.6177879 1.681273 1.4845647 3.702419 2.8651381 5.784494 3.5617002.322736.6875973.684505 1.3231989 1.083402 1.9059085-.058073 2.4402084 1.572743 5.0641944 4.88388 5.3429986 1.310936.1102665 2.5876.017033 3.806189-.2411522-.08473.303009-.173268.6105004-.242766.8875116-.328448 1.319613-.665464 5.8441287-2.20679 6.5344155-3.438708 1.5410427-3.002681 6.3954617 0 8.0485639 2.954129 1.626208 7.89513-.3926566 7.447679-4.024282-.113291-.9126128.73401-2.6930147 1.048178-3.5572178.459827-1.264928 1.074834-2.3666973 1.460403-3.6925857.414131-1.4218114.706402-2.6096425.826357-4.0915177.044745-.5549188-.320832-3.4379865-.083778-3.7284448.875861-1.0703927.89871-2.2770497.421746-3.3357882.108531-.2474275.216109-.4957514.308456-.7521436.870149-2.4034529.820644-4.9028287-.15994-7.2829732" fill="#16202e" fill-rule="nonzero"/><path d="m828.338932 18.5807205c.321776-1.5565434.363832-3.1606821.122255-4.7322092-.23473-1.5274574-1.091496-3.3114007-2.826544-3.4938494-1.712554-.1798046-2.978142 1.3273807-3.710696 2.6970684-3.387941 6.331941-3.835885 13.5505652-4.22808 20.5620616-1.623552-.3552021-.751137.5729067 6.343587.0766814-.231796-2.910366 2.305248-5.3350833 3.635387-7.9951331 1.418162-2.8354474 3.7283-5.6100786 3.264707-8.6940794-.461636-.0061697-.923272-.0123395-1.384909-.0185092-.405888.5323625-.810797 1.0656064-1.215707 1.5979689" fill="#564a47" fill-rule="evenodd"/><path d="m913.304363 342.533687c-1.581029-27.156169 1.739511-54.852839 1.450067-82.17758 1.040101-9.471257-.646267-19.119114-4.930988-28.023112-.265719-.552988-.554214-1.118463-1.083754-1.542123-1.643663-1.313792-4.453643-.615422-6.634438.082948-20.910199 6.694722-45.606896 5.118707-64.670347-4.33382-3.76562 4.456013-4.846528 9.921675-5.775596 15.201818-1.502262 8.537421-3.147823 17.057895-3.551146 25.631884-.000949.016055-.003796.033001-.003796.049056h.001898c-.086359 1.840915-.133809 3.683613-.089206 5.530771.262872 10.688723 2.919115 21.219576 4.994571 31.753997 1.354219 6.872213 2.54521 13.791698 2.658141 20.753995.093001 5.698452-.935711 10.907242.705104 16.486177 4.041778 13.739076 4.052217 28.70632 5.761361 42.743295 1.830615 15.032354 3.637505 30.066491 5.134073 45.121143.059787.599368.118625 1.198735.177463 1.798995.975569.202465 15.883362 2.86751 15.883362-.131112 1.195736-29.220063 2.391472-58.441018 3.58626-87.661973.502968-12.295955-.641522-53.837838 3.371786-65.553156 1.654101.128436 3.308203.256872 4.962305.386199 9.089493 38.667239 19.859659 106.40113 28.949152 145.06926.800005 3.405336 1.770829 7.078246 4.660524 9.27236 2.889696 2.194113 8.284744 1.579583 9.138841-1.814158-2.668579-29.546504-2.974156-59.083197-4.695637-88.644864" fill="#1f375a" fill-rule="evenodd"/><path d="m887 78.2631274c0-9.9985211-9.401942-18.1031274-21-18.1031274s-21 8.1046063-21 18.1031274c0 1.6693785.28337 3.2784073.773523 4.813774.018189.3922729.027763.7951957.020104 1.214981-.060312 3.6067805.115837 7.2384109.877872 10.7963792 1.48099 6.9224624 5.345733 13.3621284 12.65878 17.3008314 2.435449 1.311718 5.232768 2.31015 8.14401 2.290907 3.915481-.026019 7.507385-1.892421 10.228118-4.208784 8.985503-7.651096 9.760941-19.1503715 9.126231-30.002663.102434-.7241961.171362-1.4572672.171362-2.2054256" fill="#564a47" fill-rule="evenodd"/><path d="m855.623766 112.912478c.969257 1.221084 1.976599 2.473365 3.429533 3.298711 1.735713.985781 3.918923 1.250498 6.021202 1.285259 2.554536.041 5.24332-.261152 7.298946-1.521454 1.471976-.90289 5.084316-3.62582 6.00692-4.937817 3.102004-4.409275 5.075747-7.452183 6.721961-12.3721737.501767-1.4991713.935934-3.0357772.894992-4.5911005-.614116-.2406517-1.365338.1408259-1.660495.6479771-.296109.5080426-.271354 1.0971937-.294205 1.660497-.122824 3.0188424-1.737618 5.8433811-3.407635 8.5262021-1.470072 2.362844-5.19381 4.441362-7.474136 6.307749-2.280325 1.866388-5.394707 3.190864-8.588115 2.998343-.417028-.025848-.843578-.079326-1.209191-.249565-.78169-.364543-1.093033-1.152454-1.323446-1.871736-.230413-.720172-.501767-1.508975-1.251085-1.918083-.749317-.408217-2.068003-.029413-1.971838.710368.061887.47863.664579.831586.668387 1.312889.004761.552608-.835008.886846-1.474832.734434-.638872-.151522-1.09589-.606978-1.511014-1.039259-.995916-1.036586-1.992785-2.074062-2.988702-3.111538-.423693-.440304-.901657-.799499-1.511013-.557065.808349 1.636432 2.443138 3.200669 3.623766 4.687362" fill="#343947" fill-rule="nonzero"/><path d="m823.740466 34.4430539c.460188-2.7213861.533893-6.2662796-1.721689-7.0490105-2.328343-.8075514-4.549907 2.1930649-5.875664 4.7309569-2.912318 5.5766254-5.823692 11.1532509-8.73601 16.7298763-5.676281 10.8713614-11.446111 22.0015647-13.792408 33.9978247-.956284 4.8896306-1.123539 10.523875 1.934301 13.6955752 1.899338 1.9705672 4.67086 2.5653718 7.337493 2.9314735 13.280248 1.822531 11.927087-12.2737173 13.795242-23.3161626 2.352912-13.906549 4.705823-27.8139844 7.058735-41.7205335" fill="#fff" fill-rule="evenodd"/><path d="m914.653565 249.016281c-.070804-18.65525-.140663-37.31139-.211467-55.96664-.058532-15.719096-3.858345-32.397337-6.332707-47.922469-1.361325-8.543316-2.966215-11.51328-7.079453-19.131263-.585313-1.085487-.684439-1.817746-6.129736-3.469999-1.183842-.358567-3.994288-1.864012-5.444353-1.632679-7.111551 1.131753-14.350548-1.407574-21.462099-.274931-7.525046 1.197595-20.146089-2.39074-26.01149 2.458361-7.926268 6.55296-8.476651 22.12169-9.736962 32.306583-1.700239 13.739418-5.735121 27.675469-6.447881 41.497632-.624963 12.131652-.963878 24.275759-1.20178 36.419867-.123671 6.332304-2.574432 28.344556 3.459954 32.578844 3.52887 2.477046 12.975064 3.487794 22.695032 3.792087.350244.010677.699544.022243 1.049787.031141.093462.002669.185979.004448.27944.006228 3.959358.098761 7.91494.086305 11.499509.012456 5.29236-.108548 9.770003-.347889 12.198107-.556979 11.338076-.975159 22.537376-3.152361 33.646046-5.558227 1.973071-.427967 4.151001-1.000072 5.230998-2.701261.775067-1.222507.00472-10.442918-.000945-11.888751" fill="#fff" fill-rule="evenodd"/><path d="m828.5782 152.135503c2.898224 2.884916 6.142351 5.617618 9.83417 6.487276 3.69182.870549 7.887883-.664928 9.168757-4.441754 1.169657-3.447478-.315741-7.505586-1.931207-10.998461-4.130088-8.927125-9.288456-17.269435-14.427974-25.579699-5.420386-8.763341-10.840773-17.525793-16.261159-26.289134-1.641856-2.6552613-3.413779-5.4387014-5.982124-6.8584606-4.492955-2.4825759-14.415721 1.1349172-14.956723 6.8620211-.484451 5.1378371 7.191366 17.5382545 9.42889 22.3565345 6.533493 14.066743 14.369538 27.750729 25.12737 38.461677" fill="#fff" fill-rule="evenodd"/><path d="m865.420215 122.786924c.354304-.419611.738922-.928891.511562-1.403348-.172416-.360413-.638505-.55629-1.069542-.717344-1.950565-.731273-3.938075-1.395513-5.956847-1.990108-.657451-.193265-1.419109-.373472-2.022562-.086186-.314516.149737-.527666.403071-.731343.649441-1.252378 1.513039-2.504756 3.026078-3.757134 4.539988-.197993.238534-.402617.497091-.394091.785248.009473.34039.31262.621582.595874.872304 1.344269 1.191802 2.611804 2.441931 3.795974 3.741682.84976.934114 1.841621 3.154051 3.513668 2.17902 1.276061-.743461 1.736466-3.023467 2.390128-4.148235.894285-1.539156 1.939196-3.019984 3.124313-4.422462" fill="#e8e8e8" fill-rule="evenodd"/><path d="m871.706585 129.223952c.229589.975173.371993 1.972389.805985 2.900832.060061.126967.130779.259223.266401.339459.413649.245998.935796-.156063 1.209947-.506102 2.312364-2.951972 5.05097-5.684397 8.144131-8.124976.61127-.483178 1.250634-.969883 1.611971-1.595898.360368-.626016.376837-1.436309-.19859-1.94682-.378775-.335051-.938702-.487587-1.472473-.626016-1.170229-.305072-2.339488-.610144-3.508748-.914335-.712018-.186041-1.454067-.373846-2.195147-.289201-.673269.076708-1.274852.3712-1.847373.667455-1.425005.737993-5.372588 2.280989-5.518867 3.803706-.081374.852615 1.159572 2.161076 1.535441 2.960788.507615 1.080097.899952 2.196345 1.167322 3.331108" fill="#e8e8e8" fill-rule="evenodd"/><path d="m918.097908 70.1289673c-6.263419 23.2543073-13.123264 46.3991177-20.573798 69.4130657-.867875 2.68134-1.751999 5.427667-1.470991 8.193578s1.967056 5.60393 5.002707 6.790592c3.603401 1.408327 8.08328.067657 10.829321-2.319911 2.74604-2.387568 4.13292-5.60304 5.36687-8.735722 11.27186-28.62767 15.850187-59.0446815 13.406183-89.0815692-.251378-3.0944021-.56584-6.2715946.529518-9.2369149.577309-1.5650055 1.453786-3.4736356.0822-4.6540663-1.613407-1.3878518-5.41944-1.3486821-6.684931.0685469-1.647816 1.8454245-1.236818 7.6247279-1.709944 9.9838089-1.319017 6.569818-3.027048 13.0799914-4.777135 19.5785919" fill="#fff" fill-rule="evenodd"/><path d="m922.609385 23.9987336c-.120078-1.6067935.047243-3.2306139.492121-4.7926001.432082-1.5162826 1.520653-3.2270293 3.278509-3.2261335 1.735219 0 2.804106 1.6569782 3.359218 3.1185958 2.56395 6.7551644 2.074782 14.091929 1.557071 21.2145141 1.669274-.1863988.677158.6577727-6.350329-.5977308.61023-2.9142736-1.611204-5.633187-2.595446-8.4614304-1.050186-3.0146422-2.998985-6.0615458-2.135805-9.1272685.462594.0430151.925188.0860302 1.386797.1290453.335627.580704.672237 1.1623041 1.007864 1.7430081" fill="#564a47" fill-rule="evenodd"/><path d="m875.069859 90.4238891c-.288219 1.2802223-.674396 2.2012126-1.789597 2.7290637-1.902624.2300185-3.82126.2932506-5.740839.1209659-1.598392-.1429597-2.14469-.1411269-2.289742-1.732928-.024489-.2675912-.03485-.54343-.044269-.8192689.08948-.2034426.084771-.4462908-.009419-.6469842.000942-.6781421.031083-1.3608662.079119-2.0289278 3.122376-.0100805 6.24381.0183282 9.366186.0329907.226996.1622043.380524.3601484.469062.5984146.003768.4875291.008477.9750583.013187 1.4635039-.017896.09439-.031083.1823652-.053688.2831701m-19.169409 1.3819436c-.045211.1200495-.102666.2291021-.162947.3354054-2.15882.2538451-4.416537.5480121-6.564054.4371267-1.072816-.0559009-1.909217-.2758388-2.512029-.7670336.000942-.0119133.006594-.020161.007535-.0329907.012245-1.3544514.02449-2.7089027.036734-4.0633541 1.423201-.004582 2.847343-.009164 4.271486-.0137461 1.681279.0540681 3.3635.105387 5.044779.1677027.0697.6698944.147877 1.4387609.145126 2.1783023-.066949.5865013-.164906 1.1720862-.26663 1.7585874m28.253968-5.8714274c-2.150342.6900554-4.307277 1.4149343-6.482108 2.0500052-.211926-.7615353-.663093-1.3901913-1.488191-1.7365936-1.180193-.4948605-2.718304-.3060804-3.952184-.3024147-2.538402.0064148-5.078688.0421547-7.61709 0-.331546-.0054985-.539705.1814488-.627301.4169657-.358861.0082477-.718664.004582-1.078467.0137461-.404072.0100805-.744096.3088296-.74598.6937211-.004709.9255723-.016954 1.8483953.02449 2.7730512-.468121-.0311579-.931533-.0687306-1.369513-.0788111-.994639-.0229102-1.987394-.0339071-2.982034-.020161-.024489-.5269347-.06499-1.0392069-.103608-1.4992438.024489-.4215478.073468-.8385135.081945-1.2646434.007535-.379393-.336256-.7010522-.720548-.7010522h-.170483c-.044269-.0082477-.082887-.0265759-.129981-.0293251-2.276556-.1163838-4.551228-.2547615-6.8259-.3876407-1.584264-.0925572-3.710117-.6231576-5.205843-.0824767-2.155993.778947-1.838575 3.4924317-1.569194 5.7073904-.202507.9622286-.243008 1.8795532.205333 2.4504755.356977.4545385.886321.5113558 1.40342.6075787 1.677512.309746 3.674325.0394055 5.383862.044904 1.67186.0054984 5.320754.7926931 6.716639-.4655354.642372-.57917.876903-1.6577825.939068-2.8262029.032966.0009164.067816.0064148.100782.0082476.036734.2272693.181786.4297955.48225.489362 1.296987.2538451 2.603392.3335726 3.916391.2666748.300464 1.0905258 1.033257 2.0307606 2.376397 2.5320359 1.78112.6634796 4.190482.150291 6.081804.2428482 1.06999.0522353 2.083467.0219938 2.981091-.3381546.768585-.0943901 1.535286-.2080247 2.299162-.3509844.190262-.0357399.340023-.1777832.434212-.3464023.226055-.0458204.430445-.1915293.510506-.4508728.327779-1.0566187.797784-2.6447541.800609-4.0798494 2.216275-.7257953 4.463632-1.3846928 6.695919-2.0454232.847704-.2501794.476598-1.5615596-.365455-1.2912191" fill="#343947" fill-rule="nonzero"/><g fill-rule="evenodd"><path d="m767.412762 207.91518c-1.816005-23.663578-6.300366-48.114665-20.499258-68.282558-10.197784-14.486069-24.227347-31.325757-43.908499-16.177788-1.781758 1.370123-13.998171-3.78432-15.199644-2.053403-2.992746-.757221-6.346028.028507-8.338972 3.307716-6.671367 10.975239-9.066705 23.088981-10.13595 35.543918-1.225256 14.285628-1.595306 28.672813-2.055729 42.994075-.213088 6.640376-.375758 13.280752-.502279 19.922019-2.738751 17.756369-4.097188 35.611623-.988386 53.466876.156963.897974.476595 1.67123.912284 2.331348.072297 4.481853.15601 8.962815.264457 13.444668.069444 2.866747 2.359189 6.637703 5.750523 7.072437 29.979772 3.839552 59.942421 2.819532 89.492212-3.386111 3.466485-.727822 5.58595-3.948235 5.750522-7.072437 1.42788-26.989111 1.527765-54.146593-.541281-81.11076" fill="#a58c41"/><path d="m615.895081 45.3487432c.505544-3.0874133 1.894312-6.3366705.503577-9.1985639-.448498.1078959-.896012.2166761-1.344509.3254564-.23015.6137682-.459317 1.2284208-.688483 1.842189-.164253-1.5821777-.613734-3.1395925-1.326805-4.5970709-.692417-1.4159121-2.066433-2.926454-3.800426-2.6726335-1.711372.2502831-2.475588 2.0172988-2.765734 3.5207656-1.343526 6.9495545.426859 14.0264613 2.187408 20.8911141 2.802126-.0972831 5.586548-.595196 8.212618-1.4689756-1.114359-2.7513443-1.451715-5.7458965-.977646-8.6422812" fill="#e8dbce"/><path d="m678.239456 160.343414c12.565635 4.396586 25.188257-29.103383 9.360116-34.232287-14.335081-4.646646-37.380627-3.185583-50.641503-11.185708-6.363549-3.839311-10.65847-9.796091-12.109739-17.3005629-2.890191-14.951787-5.39382-29.9544789-7.507088-44.9848561-3.446764.1821864-6.894478.3634797-10.341242.544773.070284 18.8866558.140568 37.7724184.211802 56.659074.013297 3.63837.054137 7.415165 1.494009 10.840983 1.397131 3.323116 3.966296 5.963032 6.5782 8.334135 17.340196 15.738582 43.020441 24.349568 62.955445 31.324449" fill="#a58c41"/><path d="m623.428252 93.0613113c-5.324467-.0423686-10.701478.9472408-15.865394 2.2082111-.974984.2370624-.578958 1.78049.392135 1.5212345 5.109425-1.3638654 10.217878-1.9580346 15.455744-2.5098352.754105-.0796933.810541-1.2135578.017515-1.2196104" fill="#cacaca"/><path d="m647.118115 146.401769c-1.936191-6.508879-2.578906-18.197314 3.675242-23.293505.609523-.497476-.263523-1.201555-.885116-.778383-7.318299 4.991077-6.340648 17.601067-4.883224 24.560303.250447 1.197931 2.449155.706798 2.093098-.488415" fill="#cacaca"/><path d="m623.513278 97.9199918c-2.149505-.4280616-4.350759.0980582-6.483972.4657763-3.100155.5336628-6.174436 1.2238414-9.225717 1.9743639-1.389559.341318-.829902 2.398653.558699 2.062993 2.291336-.553463 4.58363-1.09844 6.885507-1.609474 2.60758-.578921 5.389574-1.5434736 8.070945-1.6075886.747487-.0179144.975566-1.1304975.194538-1.2860706" fill="#cacaca"/><path d="m655.50238 147.917239c-1.951208-7.867929-3.19766-15.184186 1.371743-22.503969.53064-.851301-.742528-1.815405-1.474001-1.061042-6.482841 6.685272-4.418318 16.277836-2.481849 24.204809.38324 1.568651 2.971954.924447 2.584107-.639798" fill="#cacaca"/><path d="m712.349811 108.994312c1.720392-2.810633 2.703879-6.420105 2.647924-10.6413966-.102427-7.7897979-1.132386-15.7701772-4.903211-22.5634295-4.342709-7.82453-14.40994-15.0933456-24.053237-12.1348789-11.294457 3.4651999-9.415683 17.9965971-7.87928 27.6280894 1.220586 7.6544315 4.629124 15.2296026 10.818361 19.9371446 9.244023 7.030143 18.850333 5.157279 23.369443-2.225529" fill="#e8dbce"/><path d="m735 143.324723c-.495899-1.090095-1.003155-2.178336-1.517981-3.264723-20.286435 3.866314-40.546372 7.274714-61.101577 8.950642-.123029 1.090095-.264985 2.179263-.380442 3.269358 21.270662-1.42009 42.432492-4.7738 63-8.955277" fill="#cacaca"/><path d="m670 210.344935c.028347 1.011391.074647 2.023673.110554 3.035065 28.341425-1.816232 56.514657-5.758522 83.889446-11.163592-.252289-1.29362-.506468-2.586349-.775765-3.876408-27.405971 5.421095-55.038719 9.781832-83.224235 12.004935" fill="#cacaca"/><path d="m671 219.489264c.023584.470535.064149.940201.08962 1.410736 28.691497-1.809952 57.265074-5.675125 84.91038-10.448317-.10094-.591431-.216974-1.181122-.321687-1.771683-21.858707 3.506836-43.673075 6.972793-66.039311 9.237624-6.19319.627091-12.410907 1.136765-18.639002 1.57164" fill="#cacaca"/><path d="m672.143677 157.31418c-.049478.515273-.096102 1.030547-.143677 1.54582 22.579138-1.765743 45.042193-4.784681 67-8.472475-.265469-.622508-.516665-1.246834-.787843-1.867525-18.209842 2.983496-36.459647 5.795235-55.090052 7.749093-3.651864.383501-7.313243.728835-10.978428 1.045087" fill="#cacaca"/><path d="m640.295851 213.709511c-1.255748.413361-2.53625.839944-3.57874 1.606735-1.043442.767672-1.82412 1.952232-1.705114 3.179978.119958 1.228628 1.375706 2.363831 2.68953 2.158472-.098061.341971-.018089.724485.210402 1.009168 2.715234.707739 5.428565-.864623 7.912452-2.102065 1.919325-.956285 3.935758-1.745991 6.013122-2.35678 1.75462-.515601 3.735827-1.027676 4.661216-2.501325.674048-1.074388.599789-2.432577.180888-3.61273-.417948-1.181034-1.144359-2.242202-1.751764-3.350964-3.264565.560551-6.52913 1.121101-9.793695 1.681652-.531241.091662-1.086284.192138-1.510897.50238-.424612.30936-.663576.898996-.38177 1.325578.708322.068747 1.385227.386921 1.862202.876962-1.602293.52794-3.205539 1.054999-4.807832 1.582939" fill="#e8dbce"/><path d="m739.595803 146.052993c-2.559595-10.692677-17.253108-12.952031-20.123416.523368-2.599381 12.204235-3.46521 24.663057-9.349815 36.431744-2.824838 5.648827-7.892873 9.896092-14.767403 12.044563-13.696958 4.277426-27.488645 8.249701-41.355169 11.908842.595849 2.765868 1.191699 5.532623 1.787548 8.29849 17.741913-2.505958 35.483827-5.011915 53.22574-7.517873 3.417845-.48345 6.961681-1.005931 10.005344-2.615953 2.950828-1.561234 5.1154-3.982033 7.02136-6.40372 12.654932-16.075385 17.660446-35.523389 13.555811-52.669461" fill="#a58c41"/><path d="m692.005965 196.981076c.602065 4.207649 2.064358 8.339068 3.725455 12.270166.313752.7419 1.543322.252618 1.21261-.483078-1.740241-3.877914-2.843556-7.841808-3.927085-11.912954-.155463-.585897-1.100489-.500805-1.01098.125866" fill="#cacaca"/><path d="m737.76785 171.147008c-5.79564 2.194577-16.534509 4.079251-21.976318.160004-.530747-.382324-1.081361.33685-.616839.736017 5.467353 4.704107 17.019844 2.464898 23.28852.563381 1.078523-.326744.368969-1.862779-.695363-1.459402" fill="#cacaca"/><path d="m696.012739 195.98237c-.119384 1.757631.624616 3.439798 1.21676 5.08862.860519 2.394697 1.859523 4.749906 2.90819 7.080545.477536 1.060898 2.255878.366795 1.783118-.694979-.779338-1.750612-1.551035-3.502979-2.293125-5.267631-.840463-1.998067-2.048627-4.089149-2.436386-6.20831-.107923-.591435-1.135579-.637065-1.178557.001755" fill="#cacaca"/><path d="m738.370579 163.646222c-7.116348 2.677229-13.804729 4.690727-21.222515 1.823477-.862447-.33365-1.604877.862673-.808486 1.37653 7.063318 4.556018 15.77803 1.556736 22.952061-1.116033 1.419734-.529022.494023-2.616565-.92106-2.083974" fill="#cacaca"/><path d="m743.461109 76.6426457c-1.666741-2.5686976-4.097601-3.6901533-6.559554-3.78234.020728-.1288824.049936-.2568698.069723-.3866472 3.247742-2.6036032 4.478247-7.3597212.617137-11.514388-1.090119-1.1724717-2.166104-1.9305508-3.322176-2.4604006-3.751816-2.6456689-7.666632-4.8993206-12.06762-6.6741385-.35238-.1423076-.709472-.2532897-1.067506-.3499514-1.1768-6.4584396-6.251456-12.0692984-14.452312-13.2739907-1.898521-.2783501-3.949677-.2667149-5.9867-.002685-8.12077-3.8306709-17.496541-.0886067-22.251794 6.6177524-.371224.1754233-.742449.3678518-1.113673.593396-2.669236 1.6244551-4.451867 4.3399353-5.039796 7.2720096-.112121.0241654-.224242.0358006-.336363.0635462-7.068339 1.7264869-11.609713 8.702246-9.378598 15.3352137 1.101425 3.2721806 4.362358 6.0440469 8.160341 5.9017392 1.801475-.0680212 3.60295-.1351475 5.404425-.2031687 1.955994-.0733914 3.709417-.8395256 5.112344-1.998572.371224.1700531.749044.3302611 1.142881.4689887 1.305881.4618285 2.650392.7455488 3.995845.8323654 1.22862 1.729172 3.005598 3.1227127 5.01624 4.0230994 4.824033 2.15878 9.19487 2.0352677 13.510119 1.0095787.350496.323996.719836.6390418 1.12969.9317122.636923.4546684 1.28421.8171502 1.939977 1.1142956-.720778 1.0194239-1.317187 2.1543049-1.805243 3.3545221-1.716677 4.2244782 1.937151 8.6002142 5.910382 9.889038.798981.2595548 1.604557.4126026 2.410132.483309-1.689353 4.2021027.488999 9.9758542 5.53539 10.9872232 6.458739 1.294194 12.721502-.498524 16.881288-5.4980867 2.887824-3.4690842 3.390956-6.9623338 3.74899-10.7876346 3.854515-2.8363075 5.962203-7.0679458 2.796431-11.945786" fill="#8a6239"/><path d="m663.043894 3.57355155c-1.197061 2.5153216-2.386552 5.00676648-3.893051 7.36780765-.623608.9761909.844093 1.7760614 1.531103.9063974 1.73077-2.18747573 3.51548-4.35842144 5.064562-6.67354585 1.135553-1.69983947-1.863251-3.36478217-2.702614-1.6006592" fill="#666"/><path d="m636.394116 9.85100291c.87527.75889959 1.972503 1.24175599 3.012223 1.75878919 1.094537.5450756 2.28433 1.3530495 3.509169 1.5405836.607477.0928907 1.413552-.5012593.943566-1.1506179-.694644-.9604549-1.781992-1.5879053-2.739937-2.28195666-1.055896-.76503385-2.101907-1.62996903-3.325847-2.11194911-1.285048-.50739359-2.418226 1.36268915-1.399174 2.24515088" fill="#666"/><path d="m.3842 1.59244545c.109 1.40401819.597 2.74223637 1.051 4.089.403 1.19721819.721 2.43032728 1.617 3.42758182.417.46401818 1.384.21363637 1.535-.32045454.299-1.06049091.065-2.13636364-.113-3.20625455-.237-1.43050909-.369-2.93963636-.957-4.30092727-.575-1.32796364-3.261-1.33821818-3.133.31105454" fill="#666" mask="url(#d)" transform="translate(647)"/><path d="m497.964852 334.403076c1.33517-27.893503-1.468499-56.342714-1.224537-84.408647-.878452-9.729357.545604-19.638291 4.164371-28.784244.224104-.568216.468066-1.14894.914383-1.584036 1.388124-1.349066 3.761551-.631648 5.603557.084875 17.656969 6.876663 38.511919 5.257784 54.610559-4.451024 3.180014 4.576997 4.092506 10.190362 4.877345 15.614322 1.268033 8.768929 2.658048 17.520883 2.99846 26.328229.000946.016975.002837.033057.003782.050032h-.001891c.071865 1.891372.112525 3.784532.074702 5.681265-.222214 10.97836-2.465149 21.795903-4.217324 32.616127-1.144162 7.058921-2.149322 14.166087-2.244827 21.31703-.078483 5.853695.790512 11.203502-.59572 16.933905-3.412628 14.111588-3.422084 29.486473-4.865052 43.904504-1.545091 15.440105-3.072216 30.88289-4.335522 46.346224-.050116.615567-.100232 1.231135-.149403 1.846702-.824553.208167-13.41317 2.945609-13.41317-.13312-1.009888-30.014485-2.018831-60.02897-3.028719-90.042561-.424569-12.630295-.87656-25.444635-4.265549-37.478125-1.396634.132226-2.793268.264452-4.189901.395785-7.676286 39.717933-15.351626 79.435865-23.027912 119.153797-.676095 3.497744-1.49592 7.270662-3.935538 9.52387s-6.996408 1.622453-7.716946-1.863677c2.253337-30.348624 2.511482-60.686527 3.964852-91.051233" fill="#a58c41"/><path d="m552.523514 59.5594487c-.107792-1.4834999-.244896-3.0460134-1.140329-4.2720538-1.378608-1.888333-4.074363-2.3872719-6.4978-2.6473949-10.35185 0-20.567542.4412325-30.998818.9144255-.876522.0390628-1.814505.1003204-2.504754.6081373-.736581.5424408-1.01079 1.4639686-1.168696 2.3304533-.731854 4.019921.660937 8.2262782.600422 12.3385295-.062406 4.2134595.118193 8.457104.89827 12.6155204 1.516657 8.0886705 5.472827 15.6135932 12.959669 20.215906 2.494353 1.532328 5.358416 2.699774 8.33878 2.677028 4.008174-.030521 7.685407-2.210938 10.470989-4.9178148 10.371707-10.0799873 10.062513-25.8791289 9.042267-39.8627365" fill="#f0e5d4"/></g><path d="m541.829255 98.7c-1.955513 4.278122-6.805221 5.533317-11.822654 4.119321-2.717895-.765479-6.194361-3.2920336-9.006601-3.5573361 2.158497 2.9192781 5.130837 5.9745361 8.691165 6.7124391 3.560329.737902 7.518049-.191132 10.113963-2.732901 1.243637-1.21811 2.697883-2.937346 2.024127-4.541523" fill="#343947" fill-rule="nonzero"/><path d="m550.84354 44.0149587c-3.335303-2.4228655-7.535558-2.9715733-11.615078-3.1523974-4.459647-.1986394-8.641981-1.1909453-13.165768-.5130774-2.340183.3509592-4.63509.9887429-6.99791 1.169567-2.361878.1817149-4.887879-.1487568-6.752668-1.5312153-.803642-.5959181-1.563895-1.4109629-2.584482-1.4465933-1.428068-.0498825-2.323204 1.4118537-2.820293 2.6776227-2.541093 6.4749299-3.53527 13.7399633-2.507136 20.5988105.832882 5.5592292 5.1152 11.2110974 7.387469 16.4594516.084892.1950764.1745.3972787.345226.5335649.404651.3215641 1.072466.0846222 1.352609-.3393793.279199-.4240015.282972-.9540033.285802-1.4537193.028297-3.9309211.448983-8.1192717 1.707268-11.8854023 1.553519-4.6497639 3.095719-2.7782785 7.458212-3.0570862 6.554586-.4186569 13.644934-5.4354136 20.158962-2.2856885 2.157193 1.04397 3.730521 2.8922957 5.234991 4.6871758 2.195867 2.6188326 4.506809 5.5538847 4.36155 8.8915601 3.095719-1.473316 3.80315-5.2813124 4.07669-8.5450547.627256-7.4805972.372581-16.2331988-5.925444-20.8081389" fill="#343947" fill-rule="nonzero"/><path d="m575.707883 204.69128c-.489917-4.164153-.979834-8.329195-1.469751-12.493348-3.057727-25.994167-6.184496-52.282661-15.551562-76.8292-2.320959-6.080392-8.227394-13.065108-14.488498-6.813988-.763249.76205-1.609728 1.585455-2.768316 2.335945-6.238405 4.047667-14.614288 3.632408-21.452321 1.227994-5.975477-2.102083-9.58176-10.125392-16.943759-7.108315-6.938287 2.843682-10.077352 14.22819-11.018409 20.733623-1.721331 11.903804-2.471339 24.183743-3.801114 36.190695-2.369195 21.402306-4.74028 42.822396-5.676609 64.327849-.387772 8.916071-.538152 17.908614-2.537544 26.620168 5.049552 1.241332 10.347846.894542 15.558182.877647 12.21672-.040904 24.352102 1.776634 36.544231 2.536016 9.737814.606439 19.67046.528189 29.202093-1.711722 1.551089-.364575 19.799087-4.020102 19.695494-4.903083-1.764334-14.997353-3.528225-29.993817-5.292117-44.990281" fill="#3358cc" fill-rule="nonzero"/><path d="m579.815109 244.256342c.284411-.050723.384288-.191322.22068-.458284-1.067254-1.746816-2.719501-4.961031-4.419308-8.723406-1.280325-18.693521-3.294982-37.429756-6.784961-55.832289-4.305164-22.697942-13.586092-43.75941-19.123069-66.080045-1.628467-6.567249-10.011455-5.979044-13.131415-1.389979-.240655.051612-.483213.096106-.725771.141489-2.667185-2.194422-5.912704-4.023107-9.899213-5.365922-4.445942-1.495873-9.071663 2.381295-9.06976 6.463133.001902 4.35147-.07039 8.714508-.181681 13.082885-7.754241 35.53967-12.4104 71.63106-13.869552 107.886187-.001902.040934.003805.082758.003805.122802-.432799 1.86339-.869403 3.725-1.320275 5.580382-.974037 2.808433-2.014657 6.007519-2.135461 8.4867-.062779.242935-.120803.488539-.184534.731474-.832306 3.17595 1.083425 5.927431 4.25475 7.011294 24.267197 8.298048 50.210422 6.957902 73.469339-3.417995.32246-.143269.607822-.304336.875111-.473411.202607-.080978.406165-.161067.609724-.241155.360507-.260732.721015-.521465 1.081522-.781307.836111-.782197 1.314569-1.787751 1.469615-2.871614.190242-1.317009-.223533-2.793305-1.139546-3.870939" fill="#f0f0f0" fill-rule="evenodd"/><path d="m604.82627 46.7831095c.505454-1.53516 1.270642-2.9923523 2.258193-4.2980897.959522-1.2689939 2.572117-2.5003482 4.124917-1.9151413 1.534114.5771414 1.848037 2.4752552 1.782637 4.0202732-.304581 7.1416757-3.527902 13.8101672-6.6961 20.2698483-2.579591-.6353932-5.053607-1.6651065-7.295917-3.0362652 1.648098-2.5111024 2.630043-5.4111479 2.836523-8.3712376.219559-3.1554574-.343821-6.6407099 1.5855-9.2082718.392404.1935754.784809.3871507 1.177213.5816223.075678.6524206.151356 1.3048412.227034 1.9572618" fill="#e8dbce" fill-rule="evenodd"/><path d="m506.209734 159.095187c-9.58741 6.085028-6.301242-29.111482-6.775418-33.440512-.548796-5.008111-1.362073-13.425867 3.16054-17.251149 7.992972-6.76144 29.779536 1.299421 39.302716 2.306027 10.320398 1.090268 20.875996.165543 30.806286-2.698523 2.22069-.639921 4.453659-1.398213 6.281407-2.748365 4.94956-3.656179 19.090754-45.3586943 20.0835-45.1014801 3.310727.8597539 6.620508 1.7195078 9.931235 2.5792617-3.006574 12.8811786-5.911135 25.7881676-9.019723 38.6479854-2.398269 9.917431-2.840329 21.480498-10.425246 29.406967-4.809763 5.025911-11.805267 7.705744-18.787546 9.29264-18.556127 4.216888-48.067404 8.538798-64.557751 19.007148" fill="#3358cc" fill-rule="nonzero"/><path d="m481.028775 24.1345054c.514678 2.6604277 1.021519 5.2974789 1.220074 8.0082561.081861 1.1211738 1.619799.9323634 1.645054-.1393601.065315-2.699988.180268-5.4161597.038318-8.1152486-.104503-1.9807105-3.264852-1.6192735-2.903446.2463526" fill="#666" fill-rule="evenodd"/><path d="m464.140696 43.2125463c1.174375.1083723 2.361427-.1272944 3.523125-.3027544 1.22327-.184921 2.683769-.2150244 3.794762-.7568859.551422-.2683505.845695-1.1938156.067909-1.4449641-1.149022-.369842-2.416659-.2545889-3.620009-.2649101-1.32468-.0111813-2.702783-.1075122-3.993056.1995427-1.354561.3225366-1.139063 2.4443975.227269 2.5699718" fill="#666" fill-rule="evenodd"/><path d="m467.335429 30.4735372c.962084 1.1915605 2.161955 2.1125689 3.341782 3.061858 1.047723.8427651 2.057182 1.7656589 3.342693 2.1568753.598569.182882 1.153407-.5778691.929285-1.1368844-.446421-1.1123745-1.294622-1.9409993-2.097269-2.7960194-1.072322-1.1434833-2.117312-2.4161151-3.404645-3.302244-1.258179-.8653896-3.241565.6174622-2.111846 2.0164145" fill="#666" fill-rule="evenodd"/><path d="m966.947956 203.515626c-1.073192-1.061065-2.697076-2.097953-4.036217-.834525-1.382369 1.302826-.938808 3.598664-.325153 5.176382 1.349478 3.466143 2.698956 6.933182 4.048434 10.399325 2.630354 6.758577 5.341527 13.648779 9.934075 18.534151 1.872917 1.991399 4.432791 3.671193 7.234179 2.548346 1.740413-.697527 3.213938-2.351355 4.536163-3.99981 6.581994-8.210041-.589222-11.252654-4.942134-15.557799-5.483429-5.421725-10.966858-10.844345-16.449347-16.26607" fill="#323657" fill-rule="nonzero"/><path d="m993.965042 188.272515c-.094252-2.677685-.42087-5.524441-1.782399-8.087051-1.361529-2.562611-4.026729-4.712726-6.302788-4.369274-2.079155.314241-3.171924 2.466126-3.952074 4.528607-1.995167 5.271277-3.245646 11.006392-4.489593 16.720261-1.31207 6.025455-2.62414 12.05091-3.936209 18.076365-.397541 1.826137-.790415 3.770889-.203437 5.800618 1.026513 3.547822 7.321835 8.636752 10.11115 7.2417 2.502825-1.250767 4.356147-9.781296 5.429319-12.631592 3.131797-8.32251 5.477845-17.340776 5.126031-27.279634" fill="#323657" fill-rule="nonzero"/><path d="m1007.41949 136.372739c1.67528-2.761091 2.63286-6.305338 2.5783-10.450984-.09971-7.651581-1.10337-15.489373-4.77469-22.160896-4.22817-7.6845473-14.030582-14.8238255-23.419108-11.9183986-10.99796 3.4034747-9.168415 17.6757946-7.672798 27.1351376 1.188968 7.517046 4.508486 14.957469 10.534225 19.580671 9.000041 6.904955 18.353761 5.065119 22.754071-2.18553" fill="#e8dbce" fill-rule="evenodd"/><path d="m1026.59785 174.037736c-5.34203-13.288409-19.00341-30.630772-28.555444-24.093603-1.283039-.063329-2.568927.026759-3.795934.323782l-5.424661 1.314747c-10.311795 2.498378-10.707818 11.929955-5.073274 16.755454-.894613 5.570286-1.758836 10.376162-2.531888 14.821687.375129.880363.524232 1.865086.283959 2.961304-1.276391 5.821818-2.069387 11.671287-2.573676 17.53681.038938 3.283302-.169045 6.546981-.587861 9.790145-.6249 17.375365.651491 34.855982-.21748 52.201021-.247871 4.952158-.65529 9.895396-1.121591 14.833282 2.595518 3.460802 7.306958 5.946692 14.293869 6.007345 5.890012.051734 11.780971.077601 17.670981.098116 5.64215.192663 11.2463.085628 16.11824.053517 1.66102.005352 3.32298.00892 4.98495.015164 5.22903.019623 9.2073-1.524359 11.96522-3.881807 1.47297.099899 2.93646.205151 4.37334.324673 9.12753.759949 16.10969-6.747671 16.46393-13.363333 2.09028-39.050866-21.61128-59.227876-36.27268-95.698304" fill="#323657" fill-rule="nonzero"/><path d="m1035.66109 129.357138c-1.03865-3.343838-4.69336-5.52151-6.64449-8.440479-3.96488-5.932157-4.41165-12.424286-4.68103-19.406169-.31207-8.121383-4.1783-12.5078366-10.81141-16.5467516-10.80667-6.5810136-25.547866-6.9241081-36.270115.011555-.280767.1822134-.564379.3733152-.847991.5679724-.976044 1.2746048-1.869564 2.6087622-2.665386 3.9944727-1.424701.109328-2.734629.9181776-3.160521 2.6389829-.597578 2.4185492-1.18567 4.8495422-1.747203 7.287646-2.267001 1.0461716-2.665386 3.8949216-1.228354 5.6290596-2.860785 13.959322-4.179249 28.131967.372774 42.01396.529283 1.614143 2.031764 2.66387 3.818806 2.724312 1.117375.374204 2.235699.748408 3.353074 1.123501 1.247324.786628 2.63029.681744 3.753356.085329 1.306134 1.975015 2.780159 3.900255 4.466656 5.760609 2.876909 3.174957 8.865016-1.069281 6.219549-4.496671-3.307544-4.285125-6.093394-8.809349-8.33763-13.534453-3.31703-8.921345-3.609179-18.775977-2.97366-28.473284 8.840354-.388425 17.422707-2.08701 25.687295-5.00509-.092 1.030172-.27602 2.0559-.43632 3.002521-.92293 5.469067-1.84775 6.227253-.10244 11.376336 3.53424 10.432382-.65639 20.821211 9.59444 27.338228 7.51999 4.781101 16.40398 3.38828 20.73404-5.523288 1.42755-2.937635 2.93477-8.818238 1.90656-12.128299" fill="#8747ab" fill-rule="evenodd"/><path d="m1039.22669 94.4352521c-8.71969 22.5258249-18.01528 44.8842909-27.8773 67.0558129-1.14989 2.583384-2.32153 5.229083-2.34939 8.007422-.02793 2.778339 1.3196 5.763207 4.17636 7.236501 3.39104 1.747479 7.94616.846588 10.91167-1.263205 2.96457-2.110683 4.68278-5.174779 6.24119-8.17122 14.2403-27.386361 22.09001-57.198539 22.98837-87.3098271.09267-3.1014849.13239-6.2919906 1.53665-9.1362054.74043-1.5008908 1.81278-3.3142447.59197-4.6210701-1.43453-1.535609-5.18397-1.8632055-6.5854-.5759647-1.82413 1.6762618-2.05486 7.4643947-2.78016 9.7655826-2.02082 6.4068275-4.41706 12.7175125-6.85396 19.0121738" fill="#323657" fill-rule="nonzero"/><path d="m1056.30445 51.6054413c-1.07814-2.454867-3.65418-4.246424-6.54286-4.5563819-3.19157-.3436105-5.85916 1.1247046-5.75885 4.1862036.04967 1.5179084.38568 3.0411303.98075 4.4571954.6126 1.4603447 1.74236 2.5469688 2.56338 3.8293091-.01558.4330556-.03993.8661111-.07986 1.3009378-.10129 1.1247046 1.16969 2.2069007 2.37152 2.1555362 1.09665-.0469365 2.19426-.093873 3.29188-.1408095.74409-.0309958 1.67322-.362208 1.99461-1.0405731 1.51933-3.2040797 2.67247-6.790736 1.17943-10.1914176" fill="#e8dbce" fill-rule="evenodd"/><path d="m963.216079 204.648725c.607346-.625362.856561-1.609322.267675-2.556548-.164297-.265014-.340594-.549269-.520582-.840521.239062-.551018.187373-1.18775-.368284-1.749263-.306443-.30962-.647036-.667344-.994091-1.054806.063688-.481922.200295-.944602.484584-1.359178 1.063318-1.550721 3.282254-1.87521 4.261576-3.634094 1.626358-2.920394.092302-6.891222-3.24164-7.98626-3.521315-1.156263-6.94479 1.344308-8.184404 4.36616-.011999.029738-.01846.059475-.029537.089213-.3489.620113-.601807 1.295329-.7218 1.996784-.849177 4.943417 1.607898 10.24106 4.760006 14.039585 1.419602 1.711654 4.246807.572884 4.286497-1.311072" fill="#e8dbce" fill-rule="evenodd"/><path d="m968.028775 51.3945054c.514678 2.6604277 1.021519 5.2974789 1.220074 8.0082561.081861 1.1211738 1.619799.9323634 1.645054-.1393601.065315-2.699988.180268-5.4161597.038318-8.1152486-.104503-1.9807105-3.264852-1.6192735-2.903446.2463526" fill="#666" fill-rule="evenodd"/><path d="m951.140696 70.4725463c1.174375.1083723 2.361427-.1272944 3.523125-.3027544 1.22327-.184921 2.683769-.2150244 3.794762-.7568859.551422-.2692106.845695-1.1946757.067909-1.4449641-1.149022-.369842-2.416659-.2545889-3.620009-.2649101-1.32468-.0111813-2.702783-.1075122-3.993056.1995427-1.354561.3225366-1.139063 2.4443975.227269 2.5699718" fill="#666" fill-rule="evenodd"/><path d="m954.335429 57.7335372c.962084 1.1915605 2.161955 2.1125689 3.341782 3.061858 1.047723.8427651 2.057182 1.7656589 3.342693 2.1568753.598569.182882 1.153407-.5778691.929285-1.1368844-.446421-1.1123745-1.294622-1.9409993-2.097269-2.7960194-1.072322-1.1434833-2.117312-2.4161151-3.404645-3.302244-1.258179-.8653896-3.241565.6174622-2.111846 2.0164145" fill="#666" fill-rule="evenodd"/><path d="m313.917773 264.150845h.000944c0-.016943-.001889-.032994-.002833-.049937-.313533-8.874505-1.593161-17.69194-2.761354-26.528101-.723391-5.465418-1.563885-11.121667-4.492393-15.732807-14.827637 9.782287-34.036232 11.414155-50.299319 4.485406-1.696099-.723194-3.882327-1.446387-5.161012-.086498-.410803.438732-.635564 1.023707-.842382 1.596199-3.333645 9.215146-4.644438 19.199856-3.836053 29.002654-.224761 28.27946 2.358105 56.944148 1.128528 85.049721-1.338179 30.595286-1.576162 61.163819-3.651899 91.743053.663896 3.511637 7.162143 4.529101 9.408812 2.258755 2.247613-2.270347.700726-6.453456 1.324014-9.977577 7.069594-40.019989 14.140132-80.039086 21.209725-120.058183 1.28624-.132868 2.572479-.265736 3.858718-.399495 3.122105 12.124864 3.538574 25.037127 3.929546 37.762126.929265 30.24216 1.859475 60.48432 2.78874 90.72648 0 3.103224 11.595041.3451 12.354318.134652.046275-.619753.091605-1.240398.137879-1.861043 1.164415-15.581213 2.569646-31.141024 3.992819-46.698161 1.329681-14.527187 1.33818-30.018335 4.481061-44.237876 1.276796-5.773957.47691-11.16447.548682-17.061486.087827-7.206077 1.014259-14.366676 2.068182-21.479121 1.613938-10.903193 3.679287-21.801927 3.884216-32.863849.034942-1.911871-.002833-3.819283-.068939-5.724912" fill="#f0e5d4" fill-rule="evenodd"/><path d="m280.988161 108.255724c-.444514-6.426618-3.437576-12.4354621-6.494687-18.2140853-2.46538-4.6577428-5.146805-9.4425957-9.581431-12.5963498-.882337-.6266619-1.872696-1.1973243-2.978724-1.2915458-.945429-.0791105-1.879386.1973318-2.782754.4702187-8.538496 2.5830917-17.19553 5.2186274-24.688223 9.8194817-.5468.3351086-1.117499.7164391-1.346926 1.2871014-.204572.5102184-.097506 1.0782142.017207 1.6133213 3.464343 16.0914348 10.936005 37.3401638 28.279707 41.3161338 8.412311-3.775083 6.907655-.87466 15.63256-3.97597-2.340152-4.234635 4.27116-13.677231 3.943271-18.428306" fill="#e8dbce" fill-rule="evenodd"/><path d="m300.49905 121.707886c-1.94545-2.144592-4.82199-3.320199-6.015187-5.950174-1.286873-2.833925-2.071298-6.695616-2.729875-9.678273-1.882998-8.5347272-4.619497-16.5395411-8.154614-24.6164946-.137203-.3117139-.2886-.6029444-.447567-.8808145 1.883945-3.9810323 1.079649-8.8767223-3.709223-12.0330486-1.233884-.8131281-3.062948-1.5060236-5.30646-2.0671087-1.719301-.9885785-4.214511-1.473071-6.550754-1.2833708-.232772.0187028-.463652.0578897-.696425.0792644-17.577177-1.7963629-44.913774 2.0020941-43.595675 15.2374679-.535566.5904752-.916897 1.2299341-1.040853 1.9281733-.365245 2.0617651.248858 3.3567138 1.418399 4.1208583-.772124 1.424978-1.255648 2.9933444-1.418399 4.5732887-.84593.9983753-1.569797 2.137467-2.093062 3.5686793-2.052374 5.6144133-.967994 11.7827873.876209 17.2983423 1.692806 5.064016 4.639368 9.730819 4.7444 15.171563.116386 6.010735-4.242898 6.80427-9.707378 8.095656-10.786081 2.54982-16.881698 8.410042-17.069051 19.344076-.085161 5.031954 1.36541 10.477151 4.681948 14.499151 3.228538 3.916909 8.714782 8.716413 13.568944 10.653492 2.123342.846972 4.361177.827378 6.357723.227106 9.165188 1.45615 18.727792-.178122 24.806377-7.556836.796726-.968095 1.461926-1.990516 2.010739-3.049453 2.400587-2.000313 4.175715-4.738943 4.913775-8.372637 1.614269-7.947814-4.381047-14.389606-12.00861-15.242811-.965155-1.204107-2.171599-2.220294-3.576751-2.964845 4.68384-3.221341 8.917275-6.287715 10.772833-11.812177 3.841696-11.444355-3.208667-24.153377-12.712606-31.0948012-1.035176-.7570196-.729543-1.4499152-1.831902-1.6209125-.078537-.2743083-.156128-.5486165-.218579-.824706 4.621389-.8915019 3.460365-6.7383648 1.082488-10.307044 1.210228-1.3840099 2.699595-2.3458701 4.365907-3.0717182 1.856504.0908423 3.731933.3250731 4.998935.4960704 3.446171.4648991 6.736215.8336122 10.228751 1.0892176 4.442552.3241825 9.150048 1.4588212 13.722234 1.5612415.101247.1318105.221418.2734177.310363.3972126.223311.3126046.490148.5112109.767393.6528181 2.224588 4.6792715 3.924964 9.4671976 5.39446 14.4189957 1.04937 3.536618 1.411776 7.019798 1.959643 10.510994-1.844203.84519-3.256925 2.554273-3.440494 5.314278-.415395 6.246747.68034 13.067939 4.12178 18.493542.863909 1.363526 2.326781 2.610382 2.995766 4.062969.169375.368713.405933.441743.586663.424821-.21858.133592-.587609.401666-1.180896.912877-2.251082 1.941532-4.120833 3.383432-4.717905 6.393698-2.624843 13.23003 15.315686 16.499464 23.106947 7.96919 7.609585-8.330778 8.049583-26.668464.429589-35.067818" fill="#fff" fill-rule="nonzero"/><path d="m321 303.938768c.027978-8.14647-1.247332-16.345654-1.948041-24.467107-.704502-8.152724-1.298066-16.307235-2.232977-24.436729-1.838531-16.009716-4.154948-31.999777-6.777629-47.887984-4.420441-26.789181-12.652587-53.553345-33.524045-70.846948-6.028563 1.450962-12.400369 1.689512-18.826222 1.717209-.14602.355593-.27687.729055-.375481 1.142722-9.869663 41.282714-13.845404 83.466025-21.235562 125.212439-.936807 5.289219-2.278489 10.808055-3.348991 16.334038-2.211168 5.789551-5.244413 12.062458-6.008651 18.396119-.516761.830014-.894139 1.762775-1.147304 2.738422-2.546826 3.176212-2.134366 8.427906 2.187464 10.342568.937755.41456 1.895422.543217 2.819903.459233.143176.058074.265492.13223.414357.18405 15.28475 5.324958 31.829637 8.804049 47.988614 8.165233 1.00318-.039312 1.91249-.218002 2.742152-.494078 4.702052.292158 9.373762.455659 14.138393.568234 5.94133.141165 13.955394 1.465257 19.298419-1.51797 3.188747-1.780645 4.218477-5.608181 3.711198-9.089059 1.313237-1.708275 2.114453-3.881143 2.124403-6.520392" fill="#277085" fill-rule="nonzero"/><path d="m278.376671 101.549555c-1.422429 5.048315-13.151763 2.293227-12.236122-2.5755247.002853-.0134002-.002852-.0223337-.000951-.035734 1.786594-1.433825 3.665417-2.5237108 6.160373-2.6166191 3.111087-.1170287 7.042734 1.7992048 6.0767 5.2278778m-26.636313 9.890267c-4.447943.428807-10.027363-1.750964-7.643654-6.656343.943215-1.941248 2.644235-3.511755 4.66378-4.465852.13977.37342.657968.609264 1.089641.264431 3.232793-2.5799914 8.789394-.8558279 9.113624 3.363459.304263 3.978083-3.220433 7.107485-7.223391 7.494305m23.544241-16.1258424c-3.778564-1.0934591-8.824574.2447776-10.843168 3.5707158-.037082.0616411-.055147.1223888-.067508.1822432-1.778987.4565013-3.580794.9987644-5.391158 1.2971424-1.9682-2.3155602-5.629814-3.2026557-8.392901-1.8787126-4.227352.970177-7.910834 3.9646826-8.537426 8.2652646-.773018 5.318106 7.190112 6.741211 11.385136 5.761207 4.839682-1.130979 8.631558-6.374044 6.34198-10.963178-.025673-.050921-.065607-.092015-.09223-.142042 1.739052-.54941 3.584597-.908536 5.352174-1.346277 1.604036 5.293986 12.507105 8.200943 14.68829 2.170838 1.123871-3.104388-1.403413-6.0372527-4.443189-6.9172014" fill="#343947" fill-rule="nonzero"/><path d="m277.705855 181.508837c-9.037154 4.733512-32.458856 16.991842-43.217327 15.916488 10.639661-9.85919 20.574067-21.206309 25.681941-27.417101 5.871108-7.137088 4.090861-18.543653 2.326772-26.709071-1.15103-5.325311-7.50213-5.112369-10.490436-1.875659-1.851533.191647-3.550989 1.190697-4.554695 3.334308-10.223351 21.843358-29.678705 40.715296-34.316092 64.659676-.632068 3.264215.921014 7.653471 5.030885 8.270114 25.204801 3.785035 42.645139-20.839871 63.354175-29.678716 8.357561-3.565883-.550328-8.209781-3.815223-6.500039" fill="#e8dbce" fill-rule="evenodd"/><path d="m315.662269 184.654801c-1.298583-1.897862-2.13271-3.933655-3.636033-5.746838-1.489105-1.79485-3.278686-3.2763-5.238883-4.622438-1.766832-1.213444-3.60191.684418-3.376317 2.276736.266352 1.880403.814222 3.752076 1.536499 5.567877-2.271099-.710607-4.537458-1.436054-6.746945-2.28983-.181992-.013968-.363035-.035793-.546922-.047141-2.060672-.123091-3.529872-1.019643-4.454994-2.239198-2.247402-.096901-4.309021.27237-5.781065 1.564383-3.369681 2.955916 14.69674 12.461813 16.801014 14.096035 1.063511.826713 2.14124 1.698822 3.461624 2.10214 4.497648 1.371454 9.028472-4.501094 7.456902-8.290707.776306-.508949 1.2019-1.382803.52512-2.371019" fill="#e8dbce" fill-rule="evenodd"/><path d="m285.767081 168.060978c-.397869-1.817124-1.356579-3.38398-3.310418-4.344831-1.020621-.50143-2.567486.265463-2.624845 1.435466-.136569 2.797639-.273137 5.594383-.410616 8.392022-.261301-.152842-.521691-.307472-.783903-.45942-1.510446-.876832-3.031819 1.024311-2.544725 2.398103.838531 2.374865 2.399963 3.720055 3.858514 5.674827.727454.975151 1.622432 1.029674 2.348976.649803.788455.681087 2.040333.854487 2.887057-.182338.411526-.503217.518049-1.037718.422452-1.523953 1.302862-4.088307 2.264304-8.382191.157508-12.039679" fill="#e8dbce" fill-rule="evenodd"/><path d="m293.314756 168.549748c-.145915-1.841932-.918009-3.513347-2.828436-4.722948-.998215-.632331-2.737602-.085258-2.973385 1.057735-.563368 2.73359-1.126736 5.468068-1.690105 8.201658-.252211-.185614-.502489-.372116-.7547-.55773-1.45722-1.067504-3.340589.597695-3.03523 2.016.526647 2.450285 1.965507 3.984932 3.205303 6.105729.618449 1.056846 1.550954 1.232691 2.372331.95649.725711.777093 2.015756 1.117237 3.061321.211369.507321-.438724.69962-.950273.671596-1.442284 1.983868-3.846387 3.638218-7.942332 1.971305-11.826019" fill="#e8dbce" fill-rule="evenodd"/><path d="m307.964888 45.231915c-2.733096 1.0696386-5.443661 2.1253011-8.300187 2.8725573-1.181403.3084063-.647519 1.8858437.504496 1.7004272 2.900608-.4686656 5.830605-.8879491 8.685172-1.5727787 2.095374-.5031401 1.027605-3.7502572-.889481-3.0002058" fill="#666" fill-rule="evenodd"/><path d="m287.585562 32.6176064c-.585725-1.220569-2.709537-.602858-2.579873.7155662.112674 1.1331982.577677 2.2122266.976507 3.2772757.420291 1.1227138.727909 2.4996764 1.490693 3.446775.379156.4691807 1.378913.5679097 1.487115-.2175531.160069-1.1602832-.197626-2.3380405-.414925-3.4791021-.238762-1.2572647-.402407-2.5809311-.959517-3.7429617" fill="#666" fill-rule="evenodd"/><path d="m298.610209 33.3864769c-.929828 1.1136433-1.563149 2.4023001-2.225136 3.6770256-.589428 1.1319283-1.258582 2.2420887-1.3822 3.5168142-.057331.593827.75694.9795533 1.236186.6704498.953118-.6155949 1.565837-1.5577075 2.212595-2.4623794.863539-1.2085512 1.85428-2.4136195 2.437438-3.7788992.569721-1.3321925-1.186918-2.9308236-2.278883-1.623011" fill="#666" fill-rule="evenodd"/><path d="m16.196133 43.11976c.8216362-3.0461036 2.5166805-6.1749673 1.4754938-9.1650077-.445812.0676319-.8925827.1361536-1.3393534.2046754-.2885794.5944485-.5771588 1.188897-.8647794 1.7833455.0105461-1.5982478-.2578998-3.1982753-.7938329-4.7217721-.5196347-1.479892-1.6902506-3.1155153-3.3996759-3.0167372-1.68737444.0969984-2.61734782 1.7984737-3.0602836 3.2783657-2.04881766 6.8370477-1.09199968 14.0825563-.12080067 21.1136007 2.72760237.1530616 5.48300807-.0961084 8.12336547-.7350516-.7842456-2.8556665-.7919155-5.8830824-.0201334-8.7414187" fill="#e8dbce" fill-rule="evenodd"/><path d="m65.3604667 112.848385c11.9736666 5.51639 27.9706666-26.4818709 12.8463333-33.0263639-13.6982222-5.9278089-36.6557778-6.616469-48.9382778-15.7654303-5.8961666-4.3914303-9.5218889-10.6862284-10.1716666-18.250827-1.2948334-15.0714386-2.2015-30.1570947-2.7190556-45.23475346-3.4292778-.13950921-6.8595-.27901843-10.28972222-.41852765-1.90777778 18.70578701-3.81461111 37.41157401-5.72238889 56.11736111-.36738889 3.6041362-.7225 7.3468931.34377778 10.8728331 1.03416666 3.4193088 3.29988889 6.2708061 5.63644444 8.8601683 15.51061109 17.1889575 40.01988889 28.0937798 59.01455559 36.8455398" fill="#e8dbce" fill-rule="evenodd" mask="url(#e)" transform="translate(0 49.82)"/><path d="m208.756472 55.242672c-.320181-.2041477-.744179-.265392-1.117723-.1633181.183376-1.2310993-1.107051-2.3636751-2.462485-2.434683-1.355434-.0718954-2.633248.6949897-3.443403 1.691763-.809185.9976608-1.236093 2.2047949-1.649418 3.3879638-.526844 1.5106928-1.054658 3.020498-1.582472 4.5311908-.55401-.4278225-.927555-1.0482539-1.02555-1.7059645-.480271-.2494152-1.119664-.0062132-1.446637.3994194-.326972.4056325-.419146.9257653-.501617 1.4237081-.509379 3.06044-1.017788 6.1208799-1.527167 9.1804323 1.239974.5298963 2.432407 1.1725177 3.74515 1.5240068 1.312743.3506014 2.808862.3754542 3.969276-.287582 1.590234-.9106761 2.08894-2.772858 2.597349-4.4255666.603493-1.9553797 1.405886-3.8592786 2.394567-5.6788558 1.278784-2.3556866 2.919471-4.9359357 2.05013-7.4425142" fill="#e8dbce" fill-rule="evenodd"/><path d="m194.072427 70.5c-3.459293 13.1942591-7.255313 26.3286417-11.38332 39.382593-2.070643 6.552446-6.446216 11.471249-12.39066 14.318506-12.386865 5.933127-25.673887 7.158359-38.632716 10.008298-14.306693 3.147533-11.414622 16.927151.095801 18.991547 18.458412 3.309289 39.080424-2.046522 55.848553-14.505285 2.525938-1.876723 5.043339-3.996527 6.616004-6.829485 1.621988-2.922327 2.064952-6.281662 2.469974-9.52035 2.100996-16.810973 4.202941-33.6219462 6.303937-50.4329194-2.97649-.4709682-5.952032-.9419364-8.927573-1.4129046" fill="#e8dbce" fill-rule="evenodd"/><path d="m80.1171626 74.7251002c-3.0393784 5.1405382-3.531513 11.2581293-3.8617984 17.1528049-.410269 7.313964-.646456 14.8418549 1.9073746 21.7468409 1.8876139 5.105483 1.2091644 3.639454 12.3551199 9.515254 10.3320043-.381114.002823-.835034 10.3320043-.381114 37.483157-8.329667 21.184373-30.5259341 17.18425-48.7933163-.13362-.6076244-.289823-1.2458098-.737732-1.6943373-.499662-.5015597-1.259036-.6633532-1.972302-.7873949-9.779647-1.6979326-19.8246509-.8575054-29.7256846-.0116851-1.0473152.0898853-2.1275648.1878602-3.0525521.6642521-1.0821316.5572887-1.823627 1.5658013-2.4286797 2.5886957" fill="#e8dbce" fill-rule="evenodd"/><path d="m124.269571 60.9210822c-1.949398-1.1795763-3.444094-.3375267-4.90121.6573818-.233928-.0300416-.455643-.0759877-.714936-.0768712-.95638-.0017672-1.759626.3092522-2.484896.7642947-3.403697-1.056759-7.045079-1.6116458-10.666733-1.5983921-1.442085-1.2741191-2.921749-2.4501611-4.945366-2.6710555-1.955035-.2129422-3.8057892.7634112-5.4611339 2.1338402-2.1758105-3.3867534-5.7185487-5.2643561-9.9564941-2.1311895-.9657743.7148144-1.5952186 1.4225602-1.9738247 2.119703-.5148291.3057179-1.019324.6273402-1.5040901.9913742-1.0108688-.0591997-2.0574375.0821727-3.1096429.4948035-2.925507 1.1451168-4.3384686 3.8241245-3.6479587 6.6259494-.3898797.9162702-.5664999 1.8369581-.5439527 2.7214195-.3128432.7422052-.594684 1.4950135-.8455222 2.2610754-.2517778.2138258-.4941608.4320695-.7064808.6679847-.6999046.1722977-1.3650487.4735977-1.9672484.8959478-2.1823869.9471954-3.0645484 3.4910157-2.7921024 5.9323409-.0544892 1.0505739.0995838 2.0304616.5815314 2.7010971.2292305.3198552.4753714.5628391.732786.7475068.7365438.9754698 1.7633836 1.6787977 3.0579721 1.881137.1381019.7174651.3156616 1.4146079.5336185 2.086127-.6200497 4.364874.2339278 8.5362445 2.7178842 12.7270541.0535498.107796.1005232.221778.1568914.327807.0075157-.004418.0150315-.008836.0225472-.013254.0995838.162579.1728624.324273.2771434.485968 1.2645255 1.969495 4.8307504-.033576 3.7146611-2.0861271-1.5980371-2.9370123-3.321963-10.7610931 2.3712201-9.3023063 3.3304182.8535361 3.6131984 3.2347781 5.1755356 6.235408 1.0559634 2.0278109 4.4051709 1.261749 4.1205117-1.069129-.3776666-3.0898713-.9197403-6.1231937-2.0987741-9.0451852-.2771434-.6874235-.5411342-1.3147637-.7872751-1.9067608.21232-.0591997.426519-.1219337.6313233-.244751 2.4595302-1.4746912 3.7569371-3.9920042 4.6522512-6.7169579.062005-.033576.1296468-.0618505.1916517-.0971936.1211916.272142.2329884.539866.3786061.8270288.6303838 1.2414267 2.5375062 1.5948578 3.4412755.380822.9761085-1.3103458 1.6835288-2.4969907 2.2162076-3.7543218 1.790628 1.0991707 3.912889 1.1910628 5.058102-.4453232 2.1946.5769763 4.249219.1749484 6.908856-.4939199 1.284255-.3233895 2.877594-.6900742 4.517907-1.1716241.435914.1245845.86713.2606555 1.320894.3375267 1.839481.4709469 3.726874-.9427774 3.923223-2.4430924 1.517243-.8676733 2.775192-1.9465217 3.453489-3.3302045.947924-1.9315009 1.164002-5.0673183-1.048448-6.4059385" fill="#8a6239" fill-rule="evenodd"/><path d="m170.647798 138.009491c4.254929-6.603469-1.925616-18.796964-13.020652-13.429467-2.634455 1.274401-6.815468 1.154646-9.779704 1.804358-2.50747.549619-5.025365 1.091195-7.538521 1.64707-4.666208.220741-9.339049.259169-13.901015-.1841-1.354186-.131373-2.556748.004468-3.624745.32709-.432127-.542469-.903106-1.054553-1.391144-1.549657-15.704385 3.226218-31.9858856 2.122512-47.4429347-2.409386-1.0063998-.022342-2.0127995-.046472-3.0191992-.067027-3.3584564-.151927-6.7064887-.415565-10.0118769-.918712-1.7076576-.260064-3.3717235-.537107-5.0120982-.798065-3.239053-5.405925-11.9905611-8.480216-17.3921417-2.946493-1.0897925 1.116218-2.1587369 2.251203-3.2447389 3.370102-2.7169002 1.216311-4.8585795 3.537222-5.9910161 6.223651-1.8251657 1.902664-3.6711795 3.787455-5.4868687 5.69995-4.1374212 4.357628-3.2343148 9.658992-.1563615 13.148848 1.8194797 2.496968 4.7496002 4.185146 8.0767843 3.946531.4586606.739975 1.0774732 1.447777 1.8962391 2.096595 3.6493836 2.892872 7.4447047 5.10654 10.7690458 8.3551 2.9699217 2.902702 6.0971525 5.540873 9.0538071 8.433745-2.3530043 8.043202-4.2378716 16.197222-5.1959414 24.524617-.3326236 2.88751-.5448963 5.791106-.6775667 8.705426-3.8190122 24.654203-3.2816971 49.479994-2.0819776 74.365662-1.2044577 2.354871-1.8062127 4.781237-1.8981344 7.171855-6.5254883 3.891123-7.3897412 15.102453 2.1075641 16.858552 11.0675542 2.045655 21.5788404 3.426405 32.8937302 4.052881.2264873.012511.4539223.015192.6804096.02681 2.0478624.580005 4.2596675 1.03668 6.6827975 1.453139 6.9234996 1.191288 13.9095437 2.108213 20.9041163 2.832101 13.613879 1.409348 27.291249 1.657793 40.961038.935692 7.387846-.389648 14.270597-5.74374 14.024209-13.225705-1.438526-43.687101-7.264652-87.529703-14.708409-130.635906 5.914257-4.02875 11.664571-8.344375 17.269896-12.688598 5.722832-2.012588 8.701283-7.844804 6.013759-12.905765.323148-1.332491.424546-2.736476.24165-4.220894" fill="#cacaca" fill-rule="evenodd"/><path d="m130.946435 176.322428c-.129637-5.197355-4.300908-8.41854-9.55408-8.926164-10.120289-.977843-20.233907-2.010902-30.3723074-2.807961-1.6700336-.131804-3.1513306.210174-4.4362652.858508-5.6335041-2.46153-13.5175501-.227986-13.9912982 7.930509-.9255724 15.967885-2.1495012 31.311482-4.4639086 46.95342-.990391 6.698853 3.8357395 11.640615 11.2012362 10.465066 8.4178468-1.342977 17.806067.072136 26.2286802.982296 7.98318.862961 14.610888 1.059776 17.949049-7.154824 6.106299-15.028336 7.834479-32.348994 7.438894-48.30085" fill="#d9d9d9" fill-rule="evenodd"/></g></g></g></svg>